M48
; DRILL file {KiCad 9.0.4-9.0.4-0~ubuntu22.04.1} date 2025-09-25T00:01:33-0700
; FORMAT={-:-/ absolute / metric / decimal}
; #@! TF.CreationDate,2025-09-25T00:01:33-07:00
; #@! TF.GenerationSoftware,Kicad,Pcbnew,9.0.4-9.0.4-0~ubuntu22.04.1
; #@! TF.FileFunction,MixedPlating,1,2
FMAT,2
METRIC
; #@! TA.AperFunction,Plated,PTH,ViaDrill
T1C0.300
; #@! TA.AperFunction,Plated,PTH,ComponentDrill
T2C0.500
; #@! TA.AperFunction,Plated,PTH,ComponentDrill
T3C0.550
; #@! TA.AperFunction,Plated,PTH,ComponentDrill
T4C1.000
; #@! TA.AperFunction,NonPlated,NPTH,ComponentDrill
T5C0.900
; #@! TA.AperFunction,NonPlated,NPTH,ComponentDrill
T6C2.200
%
G90
G05
T1
X87.9Y-65.7
X92.1Y-80.2
X92.7Y-71.9
X93.0Y-67.39
X93.0Y-68.79
X95.2Y-77.0
X96.9Y-77.2
X97.8Y-80.2
X98.5Y-88.5
X98.5Y-89.7
X99.2Y-84.0
X99.584Y-92.184
X99.9Y-77.72
X100.666Y-93.366
X105.259Y-86.613
X105.8Y-78.3
X106.9Y-72.7
X107.3Y-64.8
X107.5Y-68.6
X109.4Y-91.8
X111.75Y-86.4
X112.7Y-79.0
X113.6Y-94.2
X122.0Y-91.2
X122.3Y-86.6
X122.3Y-87.6
X122.9Y-91.2
X124.2Y-78.9
X124.4Y-69.69
X125.3Y-90.0
X128.6Y-88.2
T4
X88.4Y-77.725
X88.4Y-80.265
X88.4Y-86.19
X88.4Y-88.73
X88.4Y-91.27
X88.4Y-93.81
X100.85Y-97.0
X103.39Y-97.0
X105.93Y-97.0
X108.47Y-97.0
X109.79Y-64.8
X109.79Y-68.6
X111.01Y-97.0
X112.33Y-64.8
X112.33Y-68.6
X113.55Y-97.0
X114.87Y-64.8
X114.87Y-68.6
X117.41Y-64.8
X117.41Y-68.6
X122.0Y-69.69
X122.0Y-72.23
X122.0Y-74.77
X122.0Y-77.31
T5
X84.47Y-67.1
X84.47Y-70.1
T6
X85.0Y-60.0
X85.0Y-100.0
X127.0Y-60.0
X127.0Y-100.0
T2
G00X127.975Y-76.7
M15
G01X128.625Y-76.7
M16
G05
G00X127.975Y-83.7
M15
G01X128.625Y-83.7
M16
G05
T3
G00X125.6Y-77.85
M15
G01X125.6Y-77.55
M16
G05
G00X125.6Y-82.85
M15
G01X125.6Y-82.55
M16
G05
M30
