%TF.GenerationSoftware,KiCad,Pcbnew,9.0.4-9.0.4-0~ubuntu22.04.1*%
%TF.CreationDate,2025-09-25T00:01:37-07:00*%
%TF.ProjectId,Tiny_Thinker,54696e79-5f54-4686-996e-6b65722e6b69,rev?*%
%TF.SameCoordinates,Original*%
%TF.FileFunction,Copper,L1,Top*%
%TF.FilePolarity,Positive*%
%FSLAX46Y46*%
G04 Gerber Fmt 4.6, Leading zero omitted, Abs format (unit mm)*
G04 Created by KiCad (PCBNEW 9.0.4-9.0.4-0~ubuntu22.04.1) date 2025-09-25 00:01:37*
%MOMM*%
%LPD*%
G01*
G04 APERTURE LIST*
G04 Aperture macros list*
%AMRoundRect*
0 Rectangle with rounded corners*
0 $1 Rounding radius*
0 $2 $3 $4 $5 $6 $7 $8 $9 X,Y pos of 4 corners*
0 Add a 4 corners polygon primitive as box body*
4,1,4,$2,$3,$4,$5,$6,$7,$8,$9,$2,$3,0*
0 Add four circle primitives for the rounded corners*
1,1,$1+$1,$2,$3*
1,1,$1+$1,$4,$5*
1,1,$1+$1,$6,$7*
1,1,$1+$1,$8,$9*
0 Add four rect primitives between the rounded corners*
20,1,$1+$1,$2,$3,$4,$5,0*
20,1,$1+$1,$4,$5,$6,$7,0*
20,1,$1+$1,$6,$7,$8,$9,0*
20,1,$1+$1,$8,$9,$2,$3,0*%
G04 Aperture macros list end*
%TA.AperFunction,HeatsinkPad*%
%ADD10O,1.550000X0.890000*%
%TD*%
%TA.AperFunction,SMDPad,CuDef*%
%ADD11RoundRect,0.250000X0.525000X-0.475000X0.525000X0.475000X-0.525000X0.475000X-0.525000X-0.475000X0*%
%TD*%
%TA.AperFunction,HeatsinkPad*%
%ADD12O,0.950000X1.250000*%
%TD*%
%TA.AperFunction,SMDPad,CuDef*%
%ADD13RoundRect,0.250000X0.525000X-0.500000X0.525000X0.500000X-0.525000X0.500000X-0.525000X-0.500000X0*%
%TD*%
%TA.AperFunction,SMDPad,CuDef*%
%ADD14RoundRect,0.100000X0.575000X-0.100000X0.575000X0.100000X-0.575000X0.100000X-0.575000X-0.100000X0*%
%TD*%
%TA.AperFunction,SMDPad,CuDef*%
%ADD15RoundRect,0.140000X0.140000X0.170000X-0.140000X0.170000X-0.140000X-0.170000X0.140000X-0.170000X0*%
%TD*%
%TA.AperFunction,SMDPad,CuDef*%
%ADD16R,0.800000X1.000000*%
%TD*%
%TA.AperFunction,SMDPad,CuDef*%
%ADD17R,1.500000X0.700000*%
%TD*%
%TA.AperFunction,SMDPad,CuDef*%
%ADD18RoundRect,0.140000X-0.170000X0.140000X-0.170000X-0.140000X0.170000X-0.140000X0.170000X0.140000X0*%
%TD*%
%TA.AperFunction,SMDPad,CuDef*%
%ADD19RoundRect,0.140000X-0.140000X-0.170000X0.140000X-0.170000X0.140000X0.170000X-0.140000X0.170000X0*%
%TD*%
%TA.AperFunction,SMDPad,CuDef*%
%ADD20RoundRect,0.218750X-0.256250X0.218750X-0.256250X-0.218750X0.256250X-0.218750X0.256250X0.218750X0*%
%TD*%
%TA.AperFunction,ComponentPad*%
%ADD21R,1.700000X1.700000*%
%TD*%
%TA.AperFunction,ComponentPad*%
%ADD22C,1.700000*%
%TD*%
%TA.AperFunction,SMDPad,CuDef*%
%ADD23RoundRect,0.140000X0.170000X-0.140000X0.170000X0.140000X-0.170000X0.140000X-0.170000X-0.140000X0*%
%TD*%
%TA.AperFunction,SMDPad,CuDef*%
%ADD24RoundRect,0.375000X-0.375000X0.625000X-0.375000X-0.625000X0.375000X-0.625000X0.375000X0.625000X0*%
%TD*%
%TA.AperFunction,SMDPad,CuDef*%
%ADD25RoundRect,0.500000X-1.400000X0.500000X-1.400000X-0.500000X1.400000X-0.500000X1.400000X0.500000X0*%
%TD*%
%TA.AperFunction,SMDPad,CuDef*%
%ADD26RoundRect,0.225000X-0.225000X-0.250000X0.225000X-0.250000X0.225000X0.250000X-0.225000X0.250000X0*%
%TD*%
%TA.AperFunction,SMDPad,CuDef*%
%ADD27RoundRect,0.250000X-0.350000X0.450000X-0.350000X-0.450000X0.350000X-0.450000X0.350000X0.450000X0*%
%TD*%
%TA.AperFunction,SMDPad,CuDef*%
%ADD28RoundRect,0.250000X0.475000X-0.250000X0.475000X0.250000X-0.475000X0.250000X-0.475000X-0.250000X0*%
%TD*%
%TA.AperFunction,SMDPad,CuDef*%
%ADD29RoundRect,0.250000X-0.250000X-0.475000X0.250000X-0.475000X0.250000X0.475000X-0.250000X0.475000X0*%
%TD*%
%TA.AperFunction,SMDPad,CuDef*%
%ADD30RoundRect,0.135000X0.185000X-0.135000X0.185000X0.135000X-0.185000X0.135000X-0.185000X-0.135000X0*%
%TD*%
%TA.AperFunction,SMDPad,CuDef*%
%ADD31RoundRect,0.250000X0.275000X0.750000X-0.275000X0.750000X-0.275000X-0.750000X0.275000X-0.750000X0*%
%TD*%
%TA.AperFunction,SMDPad,CuDef*%
%ADD32RoundRect,0.075000X-0.700000X-0.075000X0.700000X-0.075000X0.700000X0.075000X-0.700000X0.075000X0*%
%TD*%
%TA.AperFunction,SMDPad,CuDef*%
%ADD33RoundRect,0.075000X-0.075000X-0.700000X0.075000X-0.700000X0.075000X0.700000X-0.075000X0.700000X0*%
%TD*%
%TA.AperFunction,ViaPad*%
%ADD34C,0.700000*%
%TD*%
%TA.AperFunction,Conductor*%
%ADD35C,0.300000*%
%TD*%
%TA.AperFunction,Conductor*%
%ADD36C,0.500000*%
%TD*%
%TA.AperFunction,Conductor*%
%ADD37C,0.200000*%
%TD*%
G04 APERTURE END LIST*
D10*
%TO.P,J1,6,Shield*%
%TO.N,unconnected-(J1-Shield-Pad6)_4*%
X128300000Y-76700000D03*
D11*
%TO.N,unconnected-(J1-Shield-Pad6)_7*%
X128300000Y-77175000D03*
D12*
%TO.N,unconnected-(J1-Shield-Pad6)_1*%
X125600000Y-77700000D03*
D13*
%TO.N,unconnected-(J1-Shield-Pad6)*%
X128300000Y-79200000D03*
%TO.N,unconnected-(J1-Shield-Pad6)_5*%
X128300000Y-81200000D03*
D12*
%TO.N,unconnected-(J1-Shield-Pad6)_6*%
X125600000Y-82700000D03*
D11*
%TO.N,unconnected-(J1-Shield-Pad6)_3*%
X128300000Y-83225000D03*
D10*
%TO.N,unconnected-(J1-Shield-Pad6)_2*%
X128300000Y-83700000D03*
D14*
%TO.P,J1,5,GND*%
%TO.N,GND*%
X125600000Y-78900000D03*
%TO.P,J1,4,ID*%
%TO.N,unconnected-(J1-ID-Pad4)*%
X125600000Y-79550000D03*
%TO.P,J1,3,D+*%
%TO.N,/USB_D+*%
X125600000Y-80200000D03*
%TO.P,J1,2,D-*%
%TO.N,/USB_D-*%
X125600000Y-80850000D03*
%TO.P,J1,1,VBUS*%
%TO.N,VBUS*%
X125600000Y-81500000D03*
%TD*%
D15*
%TO.P,C9,2*%
%TO.N,GND*%
X98440000Y-75100000D03*
%TO.P,C9,1*%
%TO.N,/NRST*%
X99400000Y-75100000D03*
%TD*%
D16*
%TO.P,SW2,*%
%TO.N,*%
X85580000Y-64950000D03*
X83370000Y-64950000D03*
X85580000Y-72250000D03*
X83370000Y-72250000D03*
D17*
%TO.P,SW2,1,A*%
%TO.N,GND*%
X86230000Y-66350000D03*
%TO.P,SW2,2,B*%
%TO.N,/SW_BOOT0*%
X86230000Y-69350000D03*
%TO.P,SW2,3,C*%
%TO.N,+3.3V*%
X86230000Y-70850000D03*
%TD*%
D18*
%TO.P,C3,1*%
%TO.N,+3.3V*%
X116000000Y-78440000D03*
%TO.P,C3,2*%
%TO.N,GND*%
X116000000Y-79400000D03*
%TD*%
D19*
%TO.P,C4,1*%
%TO.N,+3.3V*%
X104520000Y-74600000D03*
%TO.P,C4,2*%
%TO.N,GND*%
X105480000Y-74600000D03*
%TD*%
D20*
%TO.P,FB1,1*%
%TO.N,+3.3VA*%
X102200000Y-89312500D03*
%TO.P,FB1,2*%
%TO.N,+3.3V*%
X102200000Y-90887500D03*
%TD*%
D21*
%TO.P,J5,1,Pin_1*%
%TO.N,GND*%
X113550000Y-97000000D03*
D22*
%TO.P,J5,2,Pin_2*%
%TO.N,/SPI1_MOSI*%
X111010000Y-97000000D03*
%TO.P,J5,3,Pin_3*%
%TO.N,/SPI1_MISO*%
X108470000Y-97000000D03*
%TO.P,J5,4,Pin_4*%
%TO.N,/SPI1_SCK*%
X105930000Y-97000000D03*
%TO.P,J5,5,Pin_5*%
%TO.N,/SPI1_NSS*%
X103390000Y-97000000D03*
%TO.P,J5,6,Pin_6*%
%TO.N,+3.3V*%
X100850000Y-97000000D03*
%TD*%
D23*
%TO.P,C6,1*%
%TO.N,+3.3VA*%
X100000000Y-84980000D03*
%TO.P,C6,2*%
%TO.N,GND*%
X100000000Y-84020000D03*
%TD*%
D21*
%TO.P,J7,1,Pin_1*%
%TO.N,/ADC_1*%
X88400000Y-77725000D03*
D22*
%TO.P,J7,2,Pin_2*%
%TO.N,/ADC_2*%
X88400000Y-80265000D03*
%TD*%
D24*
%TO.P,U2,1,GND*%
%TO.N,GND*%
X122400000Y-89600000D03*
%TO.P,U2,2,VO*%
%TO.N,+3.3V*%
X120100000Y-89600000D03*
D25*
X120100000Y-95900000D03*
D24*
%TO.P,U2,3,VI*%
%TO.N,VBUS*%
X117800000Y-89600000D03*
%TD*%
D26*
%TO.P,C5,1*%
%TO.N,+3.3V*%
X104225000Y-73000000D03*
%TO.P,C5,2*%
%TO.N,GND*%
X105775000Y-73000000D03*
%TD*%
D15*
%TO.P,C1,1*%
%TO.N,+3.3V*%
X112680000Y-90800000D03*
%TO.P,C1,2*%
%TO.N,GND*%
X111720000Y-90800000D03*
%TD*%
D27*
%TO.P,Y1,1,1*%
%TO.N,/HSE_IN*%
X93500000Y-78500000D03*
%TO.P,Y1,2,2*%
%TO.N,GND*%
X93500000Y-80700000D03*
%TO.P,Y1,3,3*%
%TO.N,/HSE_OUT*%
X95200000Y-80700000D03*
%TO.P,Y1,4,4*%
%TO.N,GND*%
X95200000Y-78500000D03*
%TD*%
D15*
%TO.P,C8,1*%
%TO.N,+3.3V*%
X100480000Y-89700000D03*
%TO.P,C8,2*%
%TO.N,GND*%
X99520000Y-89700000D03*
%TD*%
D28*
%TO.P,C13,1*%
%TO.N,+3.3V*%
X125300000Y-93300000D03*
%TO.P,C13,2*%
%TO.N,GND*%
X125300000Y-91400000D03*
%TD*%
D20*
%TO.P,D1,1,K*%
%TO.N,/PWR_LED_K*%
X127400000Y-91412500D03*
%TO.P,D1,2,A*%
%TO.N,+3.3V*%
X127400000Y-92987500D03*
%TD*%
D22*
%TO.P,J3,4,Pin_4*%
%TO.N,GND*%
X109790000Y-64800000D03*
%TO.P,J3,3,Pin_3*%
%TO.N,/I2C1_SDA*%
X112330000Y-64800000D03*
%TO.P,J3,2,Pin_2*%
%TO.N,/I2C1_SCL*%
X114870000Y-64800000D03*
D21*
%TO.P,J3,1,Pin_1*%
%TO.N,+3.3V*%
X117410000Y-64800000D03*
%TD*%
D15*
%TO.P,C14,1*%
%TO.N,/VCAP_1*%
X110380000Y-90700000D03*
%TO.P,C14,2*%
%TO.N,GND*%
X109420000Y-90700000D03*
%TD*%
%TO.P,C7,1*%
%TO.N,+3.3VA*%
X100480000Y-88500000D03*
%TO.P,C7,2*%
%TO.N,GND*%
X99520000Y-88500000D03*
%TD*%
D29*
%TO.P,C12,1*%
%TO.N,VBUS*%
X118950000Y-87150000D03*
%TO.P,C12,2*%
%TO.N,GND*%
X120850000Y-87150000D03*
%TD*%
D30*
%TO.P,R2,1*%
%TO.N,/PWR_LED_K*%
X127400000Y-89210000D03*
%TO.P,R2,2*%
%TO.N,GND*%
X127400000Y-88190000D03*
%TD*%
D23*
%TO.P,C2,1*%
%TO.N,+3.3V*%
X101000000Y-78680000D03*
%TO.P,C2,2*%
%TO.N,GND*%
X101000000Y-77720000D03*
%TD*%
D21*
%TO.P,J2,1,Pin_1*%
%TO.N,+3.3V*%
X122000000Y-77310000D03*
D22*
%TO.P,J2,2,Pin_2*%
%TO.N,/SWDIO*%
X122000000Y-74770000D03*
%TO.P,J2,3,Pin_3*%
%TO.N,/SWCLK*%
X122000000Y-72230000D03*
%TO.P,J2,4,Pin_4*%
%TO.N,GND*%
X122000000Y-69690000D03*
%TD*%
D23*
%TO.P,C11,1*%
%TO.N,/HSE_OUT*%
X96950000Y-81080000D03*
%TO.P,C11,2*%
%TO.N,GND*%
X96950000Y-80120000D03*
%TD*%
D21*
%TO.P,J4,1,Pin_1*%
%TO.N,+3.3V*%
X117410000Y-68600000D03*
D22*
%TO.P,J4,2,Pin_2*%
%TO.N,/I2C1_SCL*%
X114870000Y-68600000D03*
%TO.P,J4,3,Pin_3*%
%TO.N,/I2C1_SDA*%
X112330000Y-68600000D03*
%TO.P,J4,4,Pin_4*%
%TO.N,GND*%
X109790000Y-68600000D03*
%TD*%
D21*
%TO.P,J6,1,Pin_1*%
%TO.N,/PWM_1*%
X88400000Y-86190000D03*
D22*
%TO.P,J6,2,Pin_2*%
%TO.N,/PWM_2*%
X88400000Y-88730000D03*
%TO.P,J6,3,Pin_3*%
%TO.N,/PWM_3*%
X88400000Y-91270000D03*
%TO.P,J6,4,Pin_4*%
%TO.N,/PWM_4*%
X88400000Y-93810000D03*
%TD*%
D31*
%TO.P,SW1,1,1*%
%TO.N,/NRST*%
X98525000Y-71900000D03*
%TO.P,SW1,2,2*%
%TO.N,GND*%
X94075000Y-71900000D03*
%TD*%
D30*
%TO.P,R1,1*%
%TO.N,/SW_BOOT0*%
X90200000Y-69110000D03*
%TO.P,R1,2*%
%TO.N,/BOOT0*%
X90200000Y-68090000D03*
%TD*%
D23*
%TO.P,C10,1*%
%TO.N,/HSE_IN*%
X96950000Y-79080000D03*
%TO.P,C10,2*%
%TO.N,GND*%
X96950000Y-78120000D03*
%TD*%
D32*
%TO.P,U1,1,VBAT*%
%TO.N,+3.3V*%
X102825000Y-78750000D03*
%TO.P,U1,2,PC13*%
%TO.N,unconnected-(U1-PC13-Pad2)*%
X102825000Y-79250000D03*
%TO.P,U1,3,PC14*%
%TO.N,unconnected-(U1-PC14-Pad3)*%
X102825000Y-79750000D03*
%TO.P,U1,4,PC15*%
%TO.N,unconnected-(U1-PC15-Pad4)*%
X102825000Y-80250000D03*
%TO.P,U1,5,PH0*%
%TO.N,/HSE_IN*%
X102825000Y-80750000D03*
%TO.P,U1,6,PH1*%
%TO.N,/HSE_OUT*%
X102825000Y-81250000D03*
%TO.P,U1,7,NRST*%
%TO.N,/NRST*%
X102825000Y-81750000D03*
%TO.P,U1,8,PC0*%
%TO.N,/ADC_1*%
X102825000Y-82250000D03*
%TO.P,U1,9,PC1*%
%TO.N,/ADC_2*%
X102825000Y-82750000D03*
%TO.P,U1,10,PC2*%
%TO.N,unconnected-(U1-PC2-Pad10)*%
X102825000Y-83250000D03*
%TO.P,U1,11,PC3*%
%TO.N,unconnected-(U1-PC3-Pad11)*%
X102825000Y-83750000D03*
%TO.P,U1,12,VSSA*%
%TO.N,GND*%
X102825000Y-84250000D03*
%TO.P,U1,13,VDDA*%
%TO.N,+3.3VA*%
X102825000Y-84750000D03*
%TO.P,U1,14,PA0*%
%TO.N,/PWM_1*%
X102825000Y-85250000D03*
%TO.P,U1,15,PA1*%
%TO.N,/PWM_2*%
X102825000Y-85750000D03*
%TO.P,U1,16,PA2*%
%TO.N,/PWM_3*%
X102825000Y-86250000D03*
D33*
%TO.P,U1,17,PA3*%
%TO.N,/PWM_4*%
X104750000Y-88175000D03*
%TO.P,U1,18,VSS*%
%TO.N,GND*%
X105250000Y-88175000D03*
%TO.P,U1,19,VDD*%
%TO.N,+3.3V*%
X105750000Y-88175000D03*
%TO.P,U1,20,PA4*%
%TO.N,/SPI1_NSS*%
X106250000Y-88175000D03*
%TO.P,U1,21,PA5*%
%TO.N,/SPI1_SCK*%
X106750000Y-88175000D03*
%TO.P,U1,22,PA6*%
%TO.N,/SPI1_MISO*%
X107250000Y-88175000D03*
%TO.P,U1,23,PA7*%
%TO.N,/SPI1_MOSI*%
X107750000Y-88175000D03*
%TO.P,U1,24,PC4*%
%TO.N,unconnected-(U1-PC4-Pad24)*%
X108250000Y-88175000D03*
%TO.P,U1,25,PC5*%
%TO.N,unconnected-(U1-PC5-Pad25)*%
X108750000Y-88175000D03*
%TO.P,U1,26,PB0*%
%TO.N,unconnected-(U1-PB0-Pad26)*%
X109250000Y-88175000D03*
%TO.P,U1,27,PB1*%
%TO.N,unconnected-(U1-PB1-Pad27)*%
X109750000Y-88175000D03*
%TO.P,U1,28,PB2*%
%TO.N,unconnected-(U1-PB2-Pad28)*%
X110250000Y-88175000D03*
%TO.P,U1,29,PB10*%
%TO.N,unconnected-(U1-PB10-Pad29)*%
X110750000Y-88175000D03*
%TO.P,U1,30,VCAP_1*%
%TO.N,/VCAP_1*%
X111250000Y-88175000D03*
%TO.P,U1,31,VSS*%
%TO.N,GND*%
X111750000Y-88175000D03*
%TO.P,U1,32,VDD*%
%TO.N,+3.3V*%
X112250000Y-88175000D03*
D32*
%TO.P,U1,33,PB12*%
%TO.N,unconnected-(U1-PB12-Pad33)*%
X114175000Y-86250000D03*
%TO.P,U1,34,PB13*%
%TO.N,unconnected-(U1-PB13-Pad34)*%
X114175000Y-85750000D03*
%TO.P,U1,35,PB14*%
%TO.N,unconnected-(U1-PB14-Pad35)*%
X114175000Y-85250000D03*
%TO.P,U1,36,PB15*%
%TO.N,unconnected-(U1-PB15-Pad36)*%
X114175000Y-84750000D03*
%TO.P,U1,37,PC6*%
%TO.N,unconnected-(U1-PC6-Pad37)*%
X114175000Y-84250000D03*
%TO.P,U1,38,PC7*%
%TO.N,unconnected-(U1-PC7-Pad38)*%
X114175000Y-83750000D03*
%TO.P,U1,39,PC8*%
%TO.N,unconnected-(U1-PC8-Pad39)*%
X114175000Y-83250000D03*
%TO.P,U1,40,PC9*%
%TO.N,unconnected-(U1-PC9-Pad40)*%
X114175000Y-82750000D03*
%TO.P,U1,41,PA8*%
%TO.N,unconnected-(U1-PA8-Pad41)*%
X114175000Y-82250000D03*
%TO.P,U1,42,PA9*%
%TO.N,unconnected-(U1-PA9-Pad42)*%
X114175000Y-81750000D03*
%TO.P,U1,43,PA10*%
%TO.N,unconnected-(U1-PA10-Pad43)*%
X114175000Y-81250000D03*
%TO.P,U1,44,PA11*%
%TO.N,/USB_D-*%
X114175000Y-80750000D03*
%TO.P,U1,45,PA12*%
%TO.N,/USB_D+*%
X114175000Y-80250000D03*
%TO.P,U1,46,PA13*%
%TO.N,/SWDIO*%
X114175000Y-79750000D03*
%TO.P,U1,47,VSS*%
%TO.N,GND*%
X114175000Y-79250000D03*
%TO.P,U1,48,VDD*%
%TO.N,+3.3V*%
X114175000Y-78750000D03*
D33*
%TO.P,U1,49,PA14*%
%TO.N,/SWCLK*%
X112250000Y-76825000D03*
%TO.P,U1,50,PA15*%
%TO.N,unconnected-(U1-PA15-Pad50)*%
X111750000Y-76825000D03*
%TO.P,U1,51,PC10*%
%TO.N,unconnected-(U1-PC10-Pad51)*%
X111250000Y-76825000D03*
%TO.P,U1,52,PC11*%
%TO.N,unconnected-(U1-PC11-Pad52)*%
X110750000Y-76825000D03*
%TO.P,U1,53,PC12*%
%TO.N,unconnected-(U1-PC12-Pad53)*%
X110250000Y-76825000D03*
%TO.P,U1,54,PD2*%
%TO.N,unconnected-(U1-PD2-Pad54)*%
X109750000Y-76825000D03*
%TO.P,U1,55,PB3*%
%TO.N,unconnected-(U1-PB3-Pad55)*%
X109250000Y-76825000D03*
%TO.P,U1,56,PB4*%
%TO.N,unconnected-(U1-PB4-Pad56)*%
X108750000Y-76825000D03*
%TO.P,U1,57,PB5*%
%TO.N,unconnected-(U1-PB5-Pad57)*%
X108250000Y-76825000D03*
%TO.P,U1,58,PB6*%
%TO.N,unconnected-(U1-PB6-Pad58)*%
X107750000Y-76825000D03*
%TO.P,U1,59,PB7*%
%TO.N,unconnected-(U1-PB7-Pad59)*%
X107250000Y-76825000D03*
%TO.P,U1,60,BOOT0*%
%TO.N,/BOOT0*%
X106750000Y-76825000D03*
%TO.P,U1,61,PB8*%
%TO.N,/I2C1_SCL*%
X106250000Y-76825000D03*
%TO.P,U1,62,PB9*%
%TO.N,/I2C1_SDA*%
X105750000Y-76825000D03*
%TO.P,U1,63,VSS*%
%TO.N,GND*%
X105250000Y-76825000D03*
%TO.P,U1,64,VDD*%
%TO.N,+3.3V*%
X104750000Y-76825000D03*
%TD*%
D34*
%TO.N,GND*%
X124200000Y-78900000D03*
X99200000Y-84000000D03*
X97800000Y-80200000D03*
X96900000Y-77200000D03*
%TO.N,+3.3VA*%
X100665686Y-93365686D03*
X99584314Y-92184314D03*
%TO.N,GND*%
X98500000Y-89700000D03*
X98500000Y-88500000D03*
X92100000Y-80200000D03*
X95200000Y-77000000D03*
X106900000Y-72700000D03*
%TO.N,+3.3V*%
X93000000Y-68790000D03*
X93000000Y-67390000D03*
%TO.N,GND*%
X122900000Y-91200000D03*
X122000000Y-91200000D03*
X125300000Y-90000000D03*
X112700000Y-79000000D03*
X105800000Y-78300000D03*
X105258689Y-86612590D03*
X122300000Y-87600000D03*
X122300000Y-86600000D03*
X128600000Y-88200000D03*
X113600000Y-94200000D03*
X107300000Y-64800000D03*
X107500000Y-68600000D03*
X124400000Y-69690000D03*
X87900000Y-65700000D03*
X92700000Y-71900000D03*
X109400000Y-91800000D03*
X111750000Y-86400000D03*
X99900000Y-77720000D03*
%TD*%
D35*
%TO.N,+3.3V*%
X105750000Y-88175000D02*
X105750000Y-87150000D01*
X105750000Y-87150000D02*
X107600000Y-85300000D01*
X107600000Y-85300000D02*
X111641364Y-85300000D01*
X111641364Y-85300000D02*
X112451000Y-86109636D01*
X112451000Y-86109636D02*
X112451000Y-87974000D01*
X112451000Y-87974000D02*
X112250000Y-88175000D01*
D36*
X122000000Y-77310000D02*
X121990000Y-77310000D01*
X121990000Y-77310000D02*
X120860000Y-78440000D01*
X120860000Y-78440000D02*
X116000000Y-78440000D01*
X88000000Y-74000000D02*
X95047214Y-74000000D01*
X95047214Y-74000000D02*
X99727214Y-78680000D01*
X99727214Y-78680000D02*
X101000000Y-78680000D01*
D35*
%TO.N,/HSE_IN*%
X102825000Y-80750000D02*
X101450000Y-80750000D01*
X101450000Y-80750000D02*
X100200000Y-79500000D01*
X100200000Y-79500000D02*
X97370000Y-79500000D01*
X97370000Y-79500000D02*
X96950000Y-79080000D01*
D36*
%TO.N,+3.3V*%
X88500000Y-73500000D02*
X88000000Y-74000000D01*
%TO.N,GND*%
X99900000Y-77720000D02*
X99900000Y-77700000D01*
X99900000Y-77700000D02*
X98440000Y-76240000D01*
X98440000Y-76240000D02*
X98440000Y-75100000D01*
X101000000Y-77720000D02*
X99900000Y-77720000D01*
D35*
X125600000Y-78900000D02*
X124200000Y-78900000D01*
X100000000Y-84020000D02*
X99220000Y-84020000D01*
D36*
X97720000Y-80120000D02*
X97800000Y-80200000D01*
X96950000Y-80120000D02*
X97720000Y-80120000D01*
X96950000Y-77250000D02*
X96900000Y-77200000D01*
X96950000Y-78120000D02*
X96950000Y-77250000D01*
D35*
%TO.N,+3.3VA*%
X90100000Y-83700000D02*
X86900000Y-83700000D01*
X85800000Y-94400000D02*
X87700000Y-96300000D01*
X91380000Y-84980000D02*
X90100000Y-83700000D01*
X103700000Y-90812500D02*
X102200000Y-89312500D01*
X100665686Y-93365686D02*
X101634314Y-93365686D01*
X103700000Y-91300000D02*
X103700000Y-90812500D01*
X85800000Y-84800000D02*
X85800000Y-84900000D01*
X94900000Y-96200000D02*
X98915686Y-92184314D01*
X87700000Y-96300000D02*
X94800000Y-96300000D01*
X94800000Y-96300000D02*
X94900000Y-96200000D01*
X101634314Y-93365686D02*
X103700000Y-91300000D01*
X100000000Y-84980000D02*
X91380000Y-84980000D01*
X98915686Y-92184314D02*
X99584314Y-92184314D01*
X85800000Y-84900000D02*
X85800000Y-94400000D01*
X86900000Y-83700000D02*
X85800000Y-84800000D01*
D36*
%TO.N,GND*%
X99520000Y-89700000D02*
X98500000Y-89700000D01*
X99520000Y-88500000D02*
X98600000Y-88500000D01*
X92600000Y-80700000D02*
X92100000Y-80200000D01*
X93500000Y-80700000D02*
X92600000Y-80700000D01*
X95200000Y-78500000D02*
X95200000Y-77100000D01*
%TO.N,+3.3V*%
X121400000Y-63600000D02*
X121400000Y-64800000D01*
X122000000Y-77310000D02*
X122690000Y-77310000D01*
X122690000Y-77310000D02*
X126700000Y-73300000D01*
X126700000Y-73300000D02*
X126700000Y-68200000D01*
X126700000Y-68200000D02*
X122100000Y-63600000D01*
X122100000Y-63600000D02*
X121400000Y-63600000D01*
X121400000Y-61500000D02*
X121400000Y-63600000D01*
X117410000Y-64800000D02*
X121400000Y-64800000D01*
X121400000Y-66300000D02*
X119100000Y-68600000D01*
X100850000Y-66350000D02*
X104225000Y-69725000D01*
X121400000Y-64800000D02*
X121400000Y-66300000D01*
X100850000Y-66350000D02*
X105700000Y-61500000D01*
X105700000Y-61500000D02*
X121400000Y-61500000D01*
X119100000Y-68600000D02*
X117410000Y-68600000D01*
%TO.N,GND*%
X106900000Y-72700000D02*
X107000000Y-72600000D01*
X106600000Y-73000000D02*
X106900000Y-72700000D01*
X105775000Y-73000000D02*
X106600000Y-73000000D01*
%TO.N,+3.3V*%
X93000000Y-67390000D02*
X93000000Y-66200000D01*
X93000000Y-66200000D02*
X93600000Y-65600000D01*
X93600000Y-65600000D02*
X100100000Y-65600000D01*
X100100000Y-65600000D02*
X100850000Y-66350000D01*
X104225000Y-69725000D02*
X104225000Y-73000000D01*
X89790000Y-72000000D02*
X93000000Y-68790000D01*
X88500000Y-71500000D02*
X88500000Y-72000000D01*
X88500000Y-72000000D02*
X89790000Y-72000000D01*
X116900000Y-101400000D02*
X100900000Y-101400000D01*
X100850000Y-101350000D02*
X100900000Y-101400000D01*
X100850000Y-97000000D02*
X100850000Y-101350000D01*
X116900000Y-101400000D02*
X115500000Y-100000000D01*
X89300000Y-99300000D02*
X92200000Y-99300000D01*
X94300000Y-101400000D02*
X92200000Y-99300000D01*
X100900000Y-101400000D02*
X94300000Y-101400000D01*
X126200000Y-93300000D02*
X126200000Y-94900000D01*
X115500000Y-100000000D02*
X115500000Y-93620000D01*
X126200000Y-94900000D02*
X119500000Y-101600000D01*
X119500000Y-101600000D02*
X117100000Y-101600000D01*
X117100000Y-101600000D02*
X116900000Y-101400000D01*
X115500000Y-93620000D02*
X112680000Y-90800000D01*
X125300000Y-93300000D02*
X126200000Y-93300000D01*
X126200000Y-93300000D02*
X127087500Y-93300000D01*
X127087500Y-93300000D02*
X127400000Y-92987500D01*
%TO.N,/PWR_LED_K*%
X127400000Y-89210000D02*
X127400000Y-91412500D01*
D35*
%TO.N,/SWDIO*%
X122000000Y-74770000D02*
X121369000Y-75401000D01*
X121369000Y-75401000D02*
X115299000Y-75401000D01*
X115299000Y-75401000D02*
X112000000Y-78700000D01*
X112000000Y-78700000D02*
X112000000Y-79400000D01*
X112000000Y-79400000D02*
X112350000Y-79750000D01*
X112350000Y-79750000D02*
X114175000Y-79750000D01*
%TO.N,GND*%
X114175000Y-79250000D02*
X113150000Y-79250000D01*
X113150000Y-79250000D02*
X112900000Y-79000000D01*
X112900000Y-79000000D02*
X112700000Y-79000000D01*
%TO.N,/BOOT0*%
X106750000Y-76825000D02*
X106750000Y-78650000D01*
X106750000Y-78650000D02*
X106300000Y-79100000D01*
X106300000Y-79100000D02*
X105595130Y-79100000D01*
X100300000Y-69700000D02*
X98690000Y-68090000D01*
X105595130Y-79100000D02*
X100300000Y-73804870D01*
X100300000Y-73804870D02*
X100300000Y-69700000D01*
X98690000Y-68090000D02*
X90200000Y-68090000D01*
%TO.N,GND*%
X105250000Y-76825000D02*
X105250000Y-77850000D01*
X105250000Y-77850000D02*
X105700000Y-78300000D01*
X105700000Y-78300000D02*
X105800000Y-78300000D01*
X105250000Y-86650000D02*
X105300000Y-86600000D01*
X105250000Y-88175000D02*
X105250000Y-86650000D01*
D36*
X127400000Y-88190000D02*
X128590000Y-88190000D01*
X113550000Y-94250000D02*
X113600000Y-94200000D01*
X113550000Y-97000000D02*
X113550000Y-94250000D01*
X109790000Y-68600000D02*
X107500000Y-68600000D01*
X109790000Y-64800000D02*
X107300000Y-64800000D01*
X124400000Y-69690000D02*
X124490000Y-69690000D01*
X124490000Y-69690000D02*
X124500000Y-69700000D01*
X122000000Y-69690000D02*
X124400000Y-69690000D01*
X87250000Y-66350000D02*
X87900000Y-65700000D01*
X86230000Y-66350000D02*
X87250000Y-66350000D01*
D35*
%TO.N,/NRST*%
X102825000Y-81750000D02*
X103950000Y-81750000D01*
X103950000Y-81750000D02*
X104400000Y-81300000D01*
X104400000Y-81300000D02*
X104400000Y-78900000D01*
X104400000Y-78900000D02*
X100600000Y-75100000D01*
X100600000Y-75100000D02*
X99400000Y-75100000D01*
%TO.N,/SW_BOOT0*%
X86230000Y-69350000D02*
X89960000Y-69350000D01*
X89960000Y-69350000D02*
X90200000Y-69110000D01*
D36*
%TO.N,+3.3V*%
X86230000Y-70850000D02*
X87850000Y-70850000D01*
X87850000Y-70850000D02*
X88500000Y-71500000D01*
X88000000Y-74000000D02*
X84700000Y-77300000D01*
X88500000Y-72000000D02*
X88500000Y-73500000D01*
X84700000Y-77300000D02*
X84700000Y-94700000D01*
X84700000Y-94700000D02*
X89300000Y-99300000D01*
X92200000Y-99300000D02*
X93600000Y-99300000D01*
X93600000Y-99300000D02*
X102012500Y-90887500D01*
X102012500Y-90887500D02*
X102200000Y-90887500D01*
%TO.N,+3.3VA*%
X100480000Y-88500000D02*
X101387500Y-88500000D01*
X101387500Y-88500000D02*
X102200000Y-89312500D01*
%TO.N,GND*%
X94075000Y-71900000D02*
X92700000Y-71900000D01*
D35*
%TO.N,/NRST*%
X98525000Y-71900000D02*
X98525000Y-73825000D01*
X98525000Y-73825000D02*
X99400000Y-74700000D01*
X99400000Y-74700000D02*
X99400000Y-75100000D01*
%TO.N,/ADC_1*%
X102825000Y-82250000D02*
X92925000Y-82250000D01*
X92925000Y-82250000D02*
X88400000Y-77725000D01*
D36*
%TO.N,GND*%
X109420000Y-91780000D02*
X109400000Y-91800000D01*
X109420000Y-90700000D02*
X109420000Y-91780000D01*
D35*
X111750000Y-86400000D02*
X111750000Y-86350000D01*
X111750000Y-86350000D02*
X111700000Y-86300000D01*
X111750000Y-88175000D02*
X111750000Y-86400000D01*
%TO.N,/ADC_2*%
X102825000Y-82750000D02*
X90885000Y-82750000D01*
X90885000Y-82750000D02*
X88400000Y-80265000D01*
%TO.N,/HSE_OUT*%
X102825000Y-81250000D02*
X97120000Y-81250000D01*
%TO.N,/PWM_4*%
X104750000Y-88175000D02*
X104750000Y-87150000D01*
X100608520Y-87800000D02*
X94410000Y-87800000D01*
X104750000Y-87150000D02*
X104600000Y-87000000D01*
X104600000Y-87000000D02*
X101408520Y-87000000D01*
X94410000Y-87800000D02*
X88400000Y-93810000D01*
X101408520Y-87000000D02*
X100608520Y-87800000D01*
%TO.N,/PWM_3*%
X102825000Y-86250000D02*
X101450000Y-86250000D01*
X101450000Y-86250000D02*
X100499000Y-87201000D01*
X100499000Y-87201000D02*
X92469000Y-87201000D01*
X92469000Y-87201000D02*
X88400000Y-91270000D01*
%TO.N,/PWM_2*%
X101150000Y-85750000D02*
X100200000Y-86700000D01*
X102825000Y-85750000D02*
X101150000Y-85750000D01*
X100200000Y-86700000D02*
X90430000Y-86700000D01*
X90430000Y-86700000D02*
X88400000Y-88730000D01*
%TO.N,/PWM_1*%
X102825000Y-85250000D02*
X100850000Y-85250000D01*
X100850000Y-85250000D02*
X99910000Y-86190000D01*
X99910000Y-86190000D02*
X88400000Y-86190000D01*
%TO.N,GND*%
X102825000Y-84250000D02*
X100230000Y-84250000D01*
X100230000Y-84250000D02*
X100000000Y-84020000D01*
%TO.N,+3.3VA*%
X102825000Y-84750000D02*
X100230000Y-84750000D01*
X100230000Y-84750000D02*
X100000000Y-84980000D01*
%TO.N,/SPI1_MOSI*%
X107750000Y-88175000D02*
X107750000Y-93740000D01*
X107750000Y-93740000D02*
X111010000Y-97000000D01*
%TO.N,/SPI1_MISO*%
X107250000Y-88175000D02*
X107250000Y-95780000D01*
X107250000Y-95780000D02*
X108470000Y-97000000D01*
%TO.N,/SPI1_SCK*%
X106750000Y-92250000D02*
X105900000Y-93100000D01*
X106750000Y-88175000D02*
X106750000Y-92250000D01*
X105900000Y-93100000D02*
X105930000Y-93130000D01*
X105930000Y-93130000D02*
X105930000Y-97000000D01*
%TO.N,/SPI1_NSS*%
X106250000Y-88175000D02*
X106250000Y-90250000D01*
X106250000Y-90250000D02*
X103390000Y-93110000D01*
X103390000Y-93110000D02*
X103390000Y-97000000D01*
%TO.N,/SWCLK*%
X112250000Y-76825000D02*
X112250000Y-75450000D01*
X112250000Y-75450000D02*
X115470000Y-72230000D01*
X115470000Y-72230000D02*
X122000000Y-72230000D01*
%TO.N,/I2C1_SCL*%
X114870000Y-68600000D02*
X114870000Y-64800000D01*
%TO.N,/I2C1_SDA*%
X112330000Y-68600000D02*
X112330000Y-64800000D01*
X105750000Y-76825000D02*
X105750000Y-75550000D01*
X105750000Y-75550000D02*
X110100000Y-71200000D01*
X110100000Y-71200000D02*
X110100000Y-70830000D01*
X110100000Y-70830000D02*
X112330000Y-68600000D01*
%TO.N,/I2C1_SCL*%
X106250000Y-75850000D02*
X109800000Y-72300000D01*
X109800000Y-72300000D02*
X111170000Y-72300000D01*
X106250000Y-76825000D02*
X106250000Y-75850000D01*
X111170000Y-72300000D02*
X114870000Y-68600000D01*
D37*
%TO.N,/USB_D+*%
X114225000Y-80300000D02*
X124487499Y-80300000D01*
X124487499Y-80300000D02*
X124587499Y-80200000D01*
X124587499Y-80200000D02*
X125600000Y-80200000D01*
%TO.N,/USB_D-*%
X114175000Y-80750000D02*
X124487499Y-80750000D01*
X124487499Y-80750000D02*
X124587499Y-80850000D01*
X124587499Y-80850000D02*
X125600000Y-80850000D01*
%TO.N,/USB_D+*%
X114175000Y-80250000D02*
X114225000Y-80300000D01*
D35*
%TO.N,/HSE_IN*%
X96430000Y-79600000D02*
X94600000Y-79600000D01*
X96950000Y-79080000D02*
X96430000Y-79600000D01*
X94600000Y-79600000D02*
X93500000Y-78500000D01*
%TO.N,/HSE_OUT*%
X96950000Y-81080000D02*
X95580000Y-81080000D01*
X95580000Y-81080000D02*
X95200000Y-80700000D01*
X97120000Y-81250000D02*
X96950000Y-81080000D01*
%TO.N,GND*%
X115250000Y-79250000D02*
X115400000Y-79400000D01*
X114175000Y-79250000D02*
X115250000Y-79250000D01*
X115400000Y-79400000D02*
X116000000Y-79400000D01*
%TO.N,+3.3V*%
X114175000Y-78750000D02*
X115050000Y-78750000D01*
X115050000Y-78750000D02*
X115360000Y-78440000D01*
X115360000Y-78440000D02*
X116000000Y-78440000D01*
%TO.N,/VCAP_1*%
X111250000Y-88175000D02*
X111250000Y-89150000D01*
X111250000Y-89150000D02*
X110380000Y-90020000D01*
X110380000Y-90020000D02*
X110380000Y-90700000D01*
%TO.N,GND*%
X111750000Y-88175000D02*
X111750000Y-90770000D01*
X111750000Y-90770000D02*
X111720000Y-90800000D01*
%TO.N,+3.3V*%
X112680000Y-90800000D02*
X112680000Y-89880000D01*
X112680000Y-89880000D02*
X112250000Y-89450000D01*
X112250000Y-89450000D02*
X112250000Y-88175000D01*
X102825000Y-78750000D02*
X101070000Y-78750000D01*
X101070000Y-78750000D02*
X101000000Y-78680000D01*
D36*
%TO.N,GND*%
X105775000Y-73000000D02*
X105775000Y-74305000D01*
X105775000Y-74305000D02*
X105480000Y-74600000D01*
%TO.N,+3.3V*%
X104225000Y-73000000D02*
X104225000Y-74305000D01*
X104225000Y-74305000D02*
X104520000Y-74600000D01*
D35*
%TO.N,GND*%
X105250000Y-76425000D02*
X105250000Y-74830000D01*
X105250000Y-74830000D02*
X105480000Y-74600000D01*
%TO.N,+3.3V*%
X104750000Y-76425000D02*
X104750000Y-74830000D01*
X104750000Y-74830000D02*
X104520000Y-74600000D01*
D36*
X101012500Y-89700000D02*
X102200000Y-90887500D01*
X100480000Y-89700000D02*
X101012500Y-89700000D01*
%TD*%
%TA.AperFunction,Conductor*%
%TO.N,GND*%
G36*
X122703896Y-85819685D02*
G01*
X122737138Y-85851065D01*
X122790182Y-85924000D01*
X123476283Y-86867389D01*
X123499794Y-86933184D01*
X123500000Y-86940322D01*
X123500000Y-89000000D01*
X123900000Y-89600000D01*
X125748638Y-89600000D01*
X125815677Y-89619685D01*
X125836319Y-89636319D01*
X126063681Y-89863681D01*
X126097166Y-89925004D01*
X126100000Y-89951362D01*
X126100000Y-91876000D01*
X126080315Y-91943039D01*
X126027511Y-91988794D01*
X125976000Y-92000000D01*
X121624000Y-92000000D01*
X121556961Y-91980315D01*
X121511206Y-91927511D01*
X121500000Y-91876000D01*
X121500000Y-88700000D01*
X121499999Y-88699999D01*
X121148495Y-88407079D01*
X121123071Y-88377055D01*
X121123017Y-88377094D01*
X121122539Y-88376426D01*
X121120838Y-88374418D01*
X121119675Y-88372429D01*
X121073920Y-88319625D01*
X121073918Y-88319623D01*
X121073908Y-88319612D01*
X121029192Y-88277451D01*
X121029189Y-88277448D01*
X121029187Y-88277447D01*
X121029184Y-88277445D01*
X121029182Y-88277444D01*
X120967796Y-88246230D01*
X120916960Y-88198297D01*
X120900000Y-88135699D01*
X120900000Y-85924000D01*
X120919685Y-85856961D01*
X120972489Y-85811206D01*
X121024000Y-85800000D01*
X122636857Y-85800000D01*
X122703896Y-85819685D01*
G37*
%TD.AperFunction*%
%TD*%
%TA.AperFunction,Conductor*%
%TO.N,VBUS*%
G36*
X124470964Y-81237755D02*
G01*
X124475560Y-81237354D01*
X124488368Y-81238066D01*
X124534772Y-81250500D01*
X124711901Y-81250500D01*
X124715335Y-81250691D01*
X124745147Y-81261276D01*
X124775487Y-81270185D01*
X124777819Y-81272876D01*
X124781177Y-81274069D01*
X124781329Y-81274179D01*
X124786653Y-81278046D01*
X124786655Y-81278047D01*
X124786658Y-81278050D01*
X124899696Y-81335646D01*
X124899698Y-81335647D01*
X124993475Y-81350499D01*
X124993481Y-81350500D01*
X126206518Y-81350499D01*
X126206522Y-81350499D01*
X126247668Y-81343982D01*
X126256602Y-81342567D01*
X126275142Y-81344962D01*
X126293647Y-81342302D01*
X126309074Y-81349347D01*
X126325895Y-81351521D01*
X126340197Y-81363560D01*
X126357203Y-81371327D01*
X126366372Y-81385594D01*
X126379347Y-81396517D01*
X126384869Y-81414377D01*
X126394977Y-81430105D01*
X126399535Y-81461808D01*
X126399987Y-81463269D01*
X126400000Y-81465040D01*
X126400000Y-81678455D01*
X126380315Y-81745494D01*
X126327511Y-81791249D01*
X126278479Y-81802430D01*
X125868050Y-81810638D01*
X125829585Y-81805326D01*
X125826210Y-81804302D01*
X125676384Y-81774500D01*
X125676380Y-81774500D01*
X125523620Y-81774500D01*
X125523615Y-81774500D01*
X125373802Y-81804299D01*
X125373798Y-81804301D01*
X125373796Y-81804301D01*
X125373795Y-81804302D01*
X125371323Y-81805326D01*
X125354240Y-81812402D01*
X125309271Y-81821814D01*
X121530310Y-81897393D01*
X121400000Y-81900000D01*
X119872894Y-82864488D01*
X119500000Y-83100000D01*
X119500000Y-88027037D01*
X119496331Y-88039530D01*
X119497355Y-88052510D01*
X119486677Y-88072409D01*
X119480315Y-88094076D01*
X119469717Y-88104015D01*
X119464319Y-88114076D01*
X119436220Y-88135433D01*
X119298473Y-88211959D01*
X119272444Y-88222756D01*
X119269341Y-88223646D01*
X119172422Y-88280329D01*
X119167873Y-88283587D01*
X119155898Y-88291166D01*
X118600000Y-88599999D01*
X118600000Y-90776000D01*
X118580315Y-90843039D01*
X118527511Y-90888794D01*
X118476000Y-90900000D01*
X117024000Y-90900000D01*
X116956961Y-90880315D01*
X116911206Y-90827511D01*
X116900000Y-90776000D01*
X116900000Y-88476636D01*
X116919685Y-88409597D01*
X116968546Y-88365727D01*
X118299998Y-87700001D01*
X118300000Y-87700000D01*
X118300000Y-82972679D01*
X118319685Y-82905640D01*
X118363411Y-82864489D01*
X120797475Y-81501414D01*
X120802590Y-81498704D01*
X121174943Y-81312528D01*
X121228009Y-81299461D01*
X124466294Y-81237186D01*
X124470964Y-81237755D01*
G37*
%TD.AperFunction*%
%TD*%
%TA.AperFunction,Conductor*%
%TO.N,+3.3V*%
G36*
X120843039Y-88519685D02*
G01*
X120888794Y-88572489D01*
X120900000Y-88624000D01*
X120900000Y-92500000D01*
X121700000Y-92700000D01*
X126076000Y-92700000D01*
X126143039Y-92719685D01*
X126188794Y-92772489D01*
X126200000Y-92824000D01*
X126200000Y-94138000D01*
X126180315Y-94205039D01*
X126150400Y-94237200D01*
X122234352Y-97174235D01*
X122168910Y-97198711D01*
X122157069Y-97199001D01*
X118021117Y-97102816D01*
X117954553Y-97081579D01*
X117910039Y-97027725D01*
X117900000Y-96978850D01*
X117900000Y-92151362D01*
X117919685Y-92084323D01*
X117936319Y-92063681D01*
X119300000Y-90700000D01*
X119300000Y-88624000D01*
X119319685Y-88556961D01*
X119372489Y-88511206D01*
X119424000Y-88500000D01*
X120776000Y-88500000D01*
X120843039Y-88519685D01*
G37*
%TD.AperFunction*%
%TD*%
M02*
