%TF.GenerationSoftware,KiCad,Pcbnew,9.0.4-9.0.4-0~ubuntu22.04.1*%
%TF.CreationDate,2025-09-25T00:01:46-07:00*%
%TF.ProjectId,Tiny_Thinker,54696e79-5f54-4686-996e-6b65722e6b69,rev?*%
%TF.SameCoordinates,Original*%
%TF.FileFunction,Legend,Top*%
%TF.FilePolarity,Positive*%
%FSLAX46Y46*%
G04 Gerber Fmt 4.6, Leading zero omitted, Abs format (unit mm)*
G04 Created by KiCad (PCBNEW 9.0.4-9.0.4-0~ubuntu22.04.1) date 2025-09-25 00:01:46*
%MOMM*%
%LPD*%
G01*
G04 APERTURE LIST*
%ADD10C,0.200000*%
%ADD11C,0.100000*%
%ADD12C,0.300000*%
%ADD13C,0.150000*%
%ADD14C,0.000000*%
%ADD15C,0.120000*%
G04 APERTURE END LIST*
D10*
X117022054Y-73719600D02*
X117164911Y-73767219D01*
X117164911Y-73767219D02*
X117403006Y-73767219D01*
X117403006Y-73767219D02*
X117498244Y-73719600D01*
X117498244Y-73719600D02*
X117545863Y-73671980D01*
X117545863Y-73671980D02*
X117593482Y-73576742D01*
X117593482Y-73576742D02*
X117593482Y-73481504D01*
X117593482Y-73481504D02*
X117545863Y-73386266D01*
X117545863Y-73386266D02*
X117498244Y-73338647D01*
X117498244Y-73338647D02*
X117403006Y-73291028D01*
X117403006Y-73291028D02*
X117212530Y-73243409D01*
X117212530Y-73243409D02*
X117117292Y-73195790D01*
X117117292Y-73195790D02*
X117069673Y-73148171D01*
X117069673Y-73148171D02*
X117022054Y-73052933D01*
X117022054Y-73052933D02*
X117022054Y-72957695D01*
X117022054Y-72957695D02*
X117069673Y-72862457D01*
X117069673Y-72862457D02*
X117117292Y-72814838D01*
X117117292Y-72814838D02*
X117212530Y-72767219D01*
X117212530Y-72767219D02*
X117450625Y-72767219D01*
X117450625Y-72767219D02*
X117593482Y-72814838D01*
X117926816Y-72767219D02*
X118164911Y-73767219D01*
X118164911Y-73767219D02*
X118355387Y-73052933D01*
X118355387Y-73052933D02*
X118545863Y-73767219D01*
X118545863Y-73767219D02*
X118783959Y-72767219D01*
X119164911Y-73767219D02*
X119164911Y-72767219D01*
X119164911Y-72767219D02*
X119403006Y-72767219D01*
X119403006Y-72767219D02*
X119545863Y-72814838D01*
X119545863Y-72814838D02*
X119641101Y-72910076D01*
X119641101Y-72910076D02*
X119688720Y-73005314D01*
X119688720Y-73005314D02*
X119736339Y-73195790D01*
X119736339Y-73195790D02*
X119736339Y-73338647D01*
X119736339Y-73338647D02*
X119688720Y-73529123D01*
X119688720Y-73529123D02*
X119641101Y-73624361D01*
X119641101Y-73624361D02*
X119545863Y-73719600D01*
X119545863Y-73719600D02*
X119403006Y-73767219D01*
X119403006Y-73767219D02*
X119164911Y-73767219D01*
D11*
X125961027Y-63972419D02*
X126294360Y-64972419D01*
X126294360Y-64972419D02*
X126627693Y-63972419D01*
X127484836Y-64972419D02*
X126913408Y-64972419D01*
X127199122Y-64972419D02*
X127199122Y-63972419D01*
X127199122Y-63972419D02*
X127103884Y-64115276D01*
X127103884Y-64115276D02*
X127008646Y-64210514D01*
X127008646Y-64210514D02*
X126913408Y-64258133D01*
X127913408Y-64877180D02*
X127961027Y-64924800D01*
X127961027Y-64924800D02*
X127913408Y-64972419D01*
X127913408Y-64972419D02*
X127865789Y-64924800D01*
X127865789Y-64924800D02*
X127913408Y-64877180D01*
X127913408Y-64877180D02*
X127913408Y-64972419D01*
X128580074Y-63972419D02*
X128675312Y-63972419D01*
X128675312Y-63972419D02*
X128770550Y-64020038D01*
X128770550Y-64020038D02*
X128818169Y-64067657D01*
X128818169Y-64067657D02*
X128865788Y-64162895D01*
X128865788Y-64162895D02*
X128913407Y-64353371D01*
X128913407Y-64353371D02*
X128913407Y-64591466D01*
X128913407Y-64591466D02*
X128865788Y-64781942D01*
X128865788Y-64781942D02*
X128818169Y-64877180D01*
X128818169Y-64877180D02*
X128770550Y-64924800D01*
X128770550Y-64924800D02*
X128675312Y-64972419D01*
X128675312Y-64972419D02*
X128580074Y-64972419D01*
X128580074Y-64972419D02*
X128484836Y-64924800D01*
X128484836Y-64924800D02*
X128437217Y-64877180D01*
X128437217Y-64877180D02*
X128389598Y-64781942D01*
X128389598Y-64781942D02*
X128341979Y-64591466D01*
X128341979Y-64591466D02*
X128341979Y-64353371D01*
X128341979Y-64353371D02*
X128389598Y-64162895D01*
X128389598Y-64162895D02*
X128437217Y-64067657D01*
X128437217Y-64067657D02*
X128484836Y-64020038D01*
X128484836Y-64020038D02*
X128580074Y-63972419D01*
D12*
X88278320Y-57894876D02*
X90564034Y-57894876D01*
X89421177Y-61894876D02*
X89421177Y-57894876D01*
X91897367Y-61894876D02*
X91897367Y-59228209D01*
X91897367Y-57894876D02*
X91706891Y-58085352D01*
X91706891Y-58085352D02*
X91897367Y-58275828D01*
X91897367Y-58275828D02*
X92087844Y-58085352D01*
X92087844Y-58085352D02*
X91897367Y-57894876D01*
X91897367Y-57894876D02*
X91897367Y-58275828D01*
X93802129Y-59228209D02*
X93802129Y-61894876D01*
X93802129Y-59609161D02*
X93992606Y-59418685D01*
X93992606Y-59418685D02*
X94373558Y-59228209D01*
X94373558Y-59228209D02*
X94944987Y-59228209D01*
X94944987Y-59228209D02*
X95325939Y-59418685D01*
X95325939Y-59418685D02*
X95516415Y-59799638D01*
X95516415Y-59799638D02*
X95516415Y-61894876D01*
X97040225Y-59228209D02*
X97992606Y-61894876D01*
X98944987Y-59228209D02*
X97992606Y-61894876D01*
X97992606Y-61894876D02*
X97611654Y-62847257D01*
X97611654Y-62847257D02*
X97421177Y-63037733D01*
X97421177Y-63037733D02*
X97040225Y-63228209D01*
X102944987Y-57894876D02*
X105230701Y-57894876D01*
X104087844Y-61894876D02*
X104087844Y-57894876D01*
X106564034Y-61894876D02*
X106564034Y-57894876D01*
X108278320Y-61894876D02*
X108278320Y-59799638D01*
X108278320Y-59799638D02*
X108087844Y-59418685D01*
X108087844Y-59418685D02*
X107706892Y-59228209D01*
X107706892Y-59228209D02*
X107135463Y-59228209D01*
X107135463Y-59228209D02*
X106754511Y-59418685D01*
X106754511Y-59418685D02*
X106564034Y-59609161D01*
X110183082Y-61894876D02*
X110183082Y-59228209D01*
X110183082Y-57894876D02*
X109992606Y-58085352D01*
X109992606Y-58085352D02*
X110183082Y-58275828D01*
X110183082Y-58275828D02*
X110373559Y-58085352D01*
X110373559Y-58085352D02*
X110183082Y-57894876D01*
X110183082Y-57894876D02*
X110183082Y-58275828D01*
X112087844Y-59228209D02*
X112087844Y-61894876D01*
X112087844Y-59609161D02*
X112278321Y-59418685D01*
X112278321Y-59418685D02*
X112659273Y-59228209D01*
X112659273Y-59228209D02*
X113230702Y-59228209D01*
X113230702Y-59228209D02*
X113611654Y-59418685D01*
X113611654Y-59418685D02*
X113802130Y-59799638D01*
X113802130Y-59799638D02*
X113802130Y-61894876D01*
X115706892Y-61894876D02*
X115706892Y-57894876D01*
X116087845Y-60371066D02*
X117230702Y-61894876D01*
X117230702Y-59228209D02*
X115706892Y-60752019D01*
X120468797Y-61704400D02*
X120087845Y-61894876D01*
X120087845Y-61894876D02*
X119325940Y-61894876D01*
X119325940Y-61894876D02*
X118944987Y-61704400D01*
X118944987Y-61704400D02*
X118754511Y-61323447D01*
X118754511Y-61323447D02*
X118754511Y-59799638D01*
X118754511Y-59799638D02*
X118944987Y-59418685D01*
X118944987Y-59418685D02*
X119325940Y-59228209D01*
X119325940Y-59228209D02*
X120087845Y-59228209D01*
X120087845Y-59228209D02*
X120468797Y-59418685D01*
X120468797Y-59418685D02*
X120659273Y-59799638D01*
X120659273Y-59799638D02*
X120659273Y-60180590D01*
X120659273Y-60180590D02*
X118754511Y-60561542D01*
X122373558Y-61894876D02*
X122373558Y-59228209D01*
X122373558Y-59990114D02*
X122564035Y-59609161D01*
X122564035Y-59609161D02*
X122754511Y-59418685D01*
X122754511Y-59418685D02*
X123135463Y-59228209D01*
X123135463Y-59228209D02*
X123516416Y-59228209D01*
D10*
X83369673Y-90267219D02*
X83369673Y-89267219D01*
X83369673Y-89267219D02*
X83750625Y-89267219D01*
X83750625Y-89267219D02*
X83845863Y-89314838D01*
X83845863Y-89314838D02*
X83893482Y-89362457D01*
X83893482Y-89362457D02*
X83941101Y-89457695D01*
X83941101Y-89457695D02*
X83941101Y-89600552D01*
X83941101Y-89600552D02*
X83893482Y-89695790D01*
X83893482Y-89695790D02*
X83845863Y-89743409D01*
X83845863Y-89743409D02*
X83750625Y-89791028D01*
X83750625Y-89791028D02*
X83369673Y-89791028D01*
X84274435Y-89267219D02*
X84512530Y-90267219D01*
X84512530Y-90267219D02*
X84703006Y-89552933D01*
X84703006Y-89552933D02*
X84893482Y-90267219D01*
X84893482Y-90267219D02*
X85131578Y-89267219D01*
X85512530Y-90267219D02*
X85512530Y-89267219D01*
X85512530Y-89267219D02*
X85845863Y-89981504D01*
X85845863Y-89981504D02*
X86179196Y-89267219D01*
X86179196Y-89267219D02*
X86179196Y-90267219D01*
X83622054Y-79281504D02*
X84098244Y-79281504D01*
X83526816Y-79567219D02*
X83860149Y-78567219D01*
X83860149Y-78567219D02*
X84193482Y-79567219D01*
X84526816Y-79567219D02*
X84526816Y-78567219D01*
X84526816Y-78567219D02*
X84764911Y-78567219D01*
X84764911Y-78567219D02*
X84907768Y-78614838D01*
X84907768Y-78614838D02*
X85003006Y-78710076D01*
X85003006Y-78710076D02*
X85050625Y-78805314D01*
X85050625Y-78805314D02*
X85098244Y-78995790D01*
X85098244Y-78995790D02*
X85098244Y-79138647D01*
X85098244Y-79138647D02*
X85050625Y-79329123D01*
X85050625Y-79329123D02*
X85003006Y-79424361D01*
X85003006Y-79424361D02*
X84907768Y-79519600D01*
X84907768Y-79519600D02*
X84764911Y-79567219D01*
X84764911Y-79567219D02*
X84526816Y-79567219D01*
X86098244Y-79471980D02*
X86050625Y-79519600D01*
X86050625Y-79519600D02*
X85907768Y-79567219D01*
X85907768Y-79567219D02*
X85812530Y-79567219D01*
X85812530Y-79567219D02*
X85669673Y-79519600D01*
X85669673Y-79519600D02*
X85574435Y-79424361D01*
X85574435Y-79424361D02*
X85526816Y-79329123D01*
X85526816Y-79329123D02*
X85479197Y-79138647D01*
X85479197Y-79138647D02*
X85479197Y-78995790D01*
X85479197Y-78995790D02*
X85526816Y-78805314D01*
X85526816Y-78805314D02*
X85574435Y-78710076D01*
X85574435Y-78710076D02*
X85669673Y-78614838D01*
X85669673Y-78614838D02*
X85812530Y-78567219D01*
X85812530Y-78567219D02*
X85907768Y-78567219D01*
X85907768Y-78567219D02*
X86050625Y-78614838D01*
X86050625Y-78614838D02*
X86098244Y-78662457D01*
X88403006Y-73533465D02*
X88545863Y-73581084D01*
X88545863Y-73581084D02*
X88593482Y-73628703D01*
X88593482Y-73628703D02*
X88641101Y-73723941D01*
X88641101Y-73723941D02*
X88641101Y-73866798D01*
X88641101Y-73866798D02*
X88593482Y-73962036D01*
X88593482Y-73962036D02*
X88545863Y-74009656D01*
X88545863Y-74009656D02*
X88450625Y-74057275D01*
X88450625Y-74057275D02*
X88069673Y-74057275D01*
X88069673Y-74057275D02*
X88069673Y-73057275D01*
X88069673Y-73057275D02*
X88403006Y-73057275D01*
X88403006Y-73057275D02*
X88498244Y-73104894D01*
X88498244Y-73104894D02*
X88545863Y-73152513D01*
X88545863Y-73152513D02*
X88593482Y-73247751D01*
X88593482Y-73247751D02*
X88593482Y-73342989D01*
X88593482Y-73342989D02*
X88545863Y-73438227D01*
X88545863Y-73438227D02*
X88498244Y-73485846D01*
X88498244Y-73485846D02*
X88403006Y-73533465D01*
X88403006Y-73533465D02*
X88069673Y-73533465D01*
X89260149Y-73057275D02*
X89450625Y-73057275D01*
X89450625Y-73057275D02*
X89545863Y-73104894D01*
X89545863Y-73104894D02*
X89641101Y-73200132D01*
X89641101Y-73200132D02*
X89688720Y-73390608D01*
X89688720Y-73390608D02*
X89688720Y-73723941D01*
X89688720Y-73723941D02*
X89641101Y-73914417D01*
X89641101Y-73914417D02*
X89545863Y-74009656D01*
X89545863Y-74009656D02*
X89450625Y-74057275D01*
X89450625Y-74057275D02*
X89260149Y-74057275D01*
X89260149Y-74057275D02*
X89164911Y-74009656D01*
X89164911Y-74009656D02*
X89069673Y-73914417D01*
X89069673Y-73914417D02*
X89022054Y-73723941D01*
X89022054Y-73723941D02*
X89022054Y-73390608D01*
X89022054Y-73390608D02*
X89069673Y-73200132D01*
X89069673Y-73200132D02*
X89164911Y-73104894D01*
X89164911Y-73104894D02*
X89260149Y-73057275D01*
X90307768Y-73057275D02*
X90498244Y-73057275D01*
X90498244Y-73057275D02*
X90593482Y-73104894D01*
X90593482Y-73104894D02*
X90688720Y-73200132D01*
X90688720Y-73200132D02*
X90736339Y-73390608D01*
X90736339Y-73390608D02*
X90736339Y-73723941D01*
X90736339Y-73723941D02*
X90688720Y-73914417D01*
X90688720Y-73914417D02*
X90593482Y-74009656D01*
X90593482Y-74009656D02*
X90498244Y-74057275D01*
X90498244Y-74057275D02*
X90307768Y-74057275D01*
X90307768Y-74057275D02*
X90212530Y-74009656D01*
X90212530Y-74009656D02*
X90117292Y-73914417D01*
X90117292Y-73914417D02*
X90069673Y-73723941D01*
X90069673Y-73723941D02*
X90069673Y-73390608D01*
X90069673Y-73390608D02*
X90117292Y-73200132D01*
X90117292Y-73200132D02*
X90212530Y-73104894D01*
X90212530Y-73104894D02*
X90307768Y-73057275D01*
X91022054Y-73057275D02*
X91593482Y-73057275D01*
X91307768Y-74057275D02*
X91307768Y-73057275D01*
X89813733Y-70469673D02*
X89813733Y-71231578D01*
X90099447Y-71707768D02*
X89813733Y-72469673D01*
X89813733Y-72469673D02*
X89528019Y-71707768D01*
X102569673Y-69167219D02*
X102569673Y-68167219D01*
X102998244Y-68262457D02*
X103045863Y-68214838D01*
X103045863Y-68214838D02*
X103141101Y-68167219D01*
X103141101Y-68167219D02*
X103379196Y-68167219D01*
X103379196Y-68167219D02*
X103474434Y-68214838D01*
X103474434Y-68214838D02*
X103522053Y-68262457D01*
X103522053Y-68262457D02*
X103569672Y-68357695D01*
X103569672Y-68357695D02*
X103569672Y-68452933D01*
X103569672Y-68452933D02*
X103522053Y-68595790D01*
X103522053Y-68595790D02*
X102950625Y-69167219D01*
X102950625Y-69167219D02*
X103569672Y-69167219D01*
X104569672Y-69071980D02*
X104522053Y-69119600D01*
X104522053Y-69119600D02*
X104379196Y-69167219D01*
X104379196Y-69167219D02*
X104283958Y-69167219D01*
X104283958Y-69167219D02*
X104141101Y-69119600D01*
X104141101Y-69119600D02*
X104045863Y-69024361D01*
X104045863Y-69024361D02*
X103998244Y-68929123D01*
X103998244Y-68929123D02*
X103950625Y-68738647D01*
X103950625Y-68738647D02*
X103950625Y-68595790D01*
X103950625Y-68595790D02*
X103998244Y-68405314D01*
X103998244Y-68405314D02*
X104045863Y-68310076D01*
X104045863Y-68310076D02*
X104141101Y-68214838D01*
X104141101Y-68214838D02*
X104283958Y-68167219D01*
X104283958Y-68167219D02*
X104379196Y-68167219D01*
X104379196Y-68167219D02*
X104522053Y-68214838D01*
X104522053Y-68214838D02*
X104569672Y-68262457D01*
X105712530Y-68262457D02*
X105760149Y-68214838D01*
X105760149Y-68214838D02*
X105855387Y-68167219D01*
X105855387Y-68167219D02*
X106093482Y-68167219D01*
X106093482Y-68167219D02*
X106188720Y-68214838D01*
X106188720Y-68214838D02*
X106236339Y-68262457D01*
X106236339Y-68262457D02*
X106283958Y-68357695D01*
X106283958Y-68357695D02*
X106283958Y-68452933D01*
X106283958Y-68452933D02*
X106236339Y-68595790D01*
X106236339Y-68595790D02*
X105664911Y-69167219D01*
X105664911Y-69167219D02*
X106283958Y-69167219D01*
X102469673Y-65167219D02*
X102469673Y-64167219D01*
X102898244Y-64262457D02*
X102945863Y-64214838D01*
X102945863Y-64214838D02*
X103041101Y-64167219D01*
X103041101Y-64167219D02*
X103279196Y-64167219D01*
X103279196Y-64167219D02*
X103374434Y-64214838D01*
X103374434Y-64214838D02*
X103422053Y-64262457D01*
X103422053Y-64262457D02*
X103469672Y-64357695D01*
X103469672Y-64357695D02*
X103469672Y-64452933D01*
X103469672Y-64452933D02*
X103422053Y-64595790D01*
X103422053Y-64595790D02*
X102850625Y-65167219D01*
X102850625Y-65167219D02*
X103469672Y-65167219D01*
X104469672Y-65071980D02*
X104422053Y-65119600D01*
X104422053Y-65119600D02*
X104279196Y-65167219D01*
X104279196Y-65167219D02*
X104183958Y-65167219D01*
X104183958Y-65167219D02*
X104041101Y-65119600D01*
X104041101Y-65119600D02*
X103945863Y-65024361D01*
X103945863Y-65024361D02*
X103898244Y-64929123D01*
X103898244Y-64929123D02*
X103850625Y-64738647D01*
X103850625Y-64738647D02*
X103850625Y-64595790D01*
X103850625Y-64595790D02*
X103898244Y-64405314D01*
X103898244Y-64405314D02*
X103945863Y-64310076D01*
X103945863Y-64310076D02*
X104041101Y-64214838D01*
X104041101Y-64214838D02*
X104183958Y-64167219D01*
X104183958Y-64167219D02*
X104279196Y-64167219D01*
X104279196Y-64167219D02*
X104422053Y-64214838D01*
X104422053Y-64214838D02*
X104469672Y-64262457D01*
X106183958Y-65167219D02*
X105612530Y-65167219D01*
X105898244Y-65167219D02*
X105898244Y-64167219D01*
X105898244Y-64167219D02*
X105803006Y-64310076D01*
X105803006Y-64310076D02*
X105707768Y-64405314D01*
X105707768Y-64405314D02*
X105612530Y-64452933D01*
D12*
X92578572Y-98249757D02*
X92435715Y-98178328D01*
X92435715Y-98178328D02*
X92221429Y-98178328D01*
X92221429Y-98178328D02*
X92007143Y-98249757D01*
X92007143Y-98249757D02*
X91864286Y-98392614D01*
X91864286Y-98392614D02*
X91792857Y-98535471D01*
X91792857Y-98535471D02*
X91721429Y-98821185D01*
X91721429Y-98821185D02*
X91721429Y-99035471D01*
X91721429Y-99035471D02*
X91792857Y-99321185D01*
X91792857Y-99321185D02*
X91864286Y-99464042D01*
X91864286Y-99464042D02*
X92007143Y-99606900D01*
X92007143Y-99606900D02*
X92221429Y-99678328D01*
X92221429Y-99678328D02*
X92364286Y-99678328D01*
X92364286Y-99678328D02*
X92578572Y-99606900D01*
X92578572Y-99606900D02*
X92650000Y-99535471D01*
X92650000Y-99535471D02*
X92650000Y-99035471D01*
X92650000Y-99035471D02*
X92364286Y-99035471D01*
X93507143Y-98178328D02*
X93507143Y-98535471D01*
X93150000Y-98392614D02*
X93507143Y-98535471D01*
X93507143Y-98535471D02*
X93864286Y-98392614D01*
X93292857Y-98821185D02*
X93507143Y-98535471D01*
X93507143Y-98535471D02*
X93721429Y-98821185D01*
X94650000Y-98178328D02*
X94650000Y-98535471D01*
X94292857Y-98392614D02*
X94650000Y-98535471D01*
X94650000Y-98535471D02*
X95007143Y-98392614D01*
X94435714Y-98821185D02*
X94650000Y-98535471D01*
X94650000Y-98535471D02*
X94864286Y-98821185D01*
X95792857Y-98178328D02*
X95792857Y-98535471D01*
X95435714Y-98392614D02*
X95792857Y-98535471D01*
X95792857Y-98535471D02*
X96150000Y-98392614D01*
X95578571Y-98821185D02*
X95792857Y-98535471D01*
X95792857Y-98535471D02*
X96007143Y-98821185D01*
D13*
X127166666Y-74454819D02*
X127166666Y-75169104D01*
X127166666Y-75169104D02*
X127119047Y-75311961D01*
X127119047Y-75311961D02*
X127023809Y-75407200D01*
X127023809Y-75407200D02*
X126880952Y-75454819D01*
X126880952Y-75454819D02*
X126785714Y-75454819D01*
X128166666Y-75454819D02*
X127595238Y-75454819D01*
X127880952Y-75454819D02*
X127880952Y-74454819D01*
X127880952Y-74454819D02*
X127785714Y-74597676D01*
X127785714Y-74597676D02*
X127690476Y-74692914D01*
X127690476Y-74692914D02*
X127595238Y-74740533D01*
X96833333Y-75759580D02*
X96785714Y-75807200D01*
X96785714Y-75807200D02*
X96642857Y-75854819D01*
X96642857Y-75854819D02*
X96547619Y-75854819D01*
X96547619Y-75854819D02*
X96404762Y-75807200D01*
X96404762Y-75807200D02*
X96309524Y-75711961D01*
X96309524Y-75711961D02*
X96261905Y-75616723D01*
X96261905Y-75616723D02*
X96214286Y-75426247D01*
X96214286Y-75426247D02*
X96214286Y-75283390D01*
X96214286Y-75283390D02*
X96261905Y-75092914D01*
X96261905Y-75092914D02*
X96309524Y-74997676D01*
X96309524Y-74997676D02*
X96404762Y-74902438D01*
X96404762Y-74902438D02*
X96547619Y-74854819D01*
X96547619Y-74854819D02*
X96642857Y-74854819D01*
X96642857Y-74854819D02*
X96785714Y-74902438D01*
X96785714Y-74902438D02*
X96833333Y-74950057D01*
X97309524Y-75854819D02*
X97500000Y-75854819D01*
X97500000Y-75854819D02*
X97595238Y-75807200D01*
X97595238Y-75807200D02*
X97642857Y-75759580D01*
X97642857Y-75759580D02*
X97738095Y-75616723D01*
X97738095Y-75616723D02*
X97785714Y-75426247D01*
X97785714Y-75426247D02*
X97785714Y-75045295D01*
X97785714Y-75045295D02*
X97738095Y-74950057D01*
X97738095Y-74950057D02*
X97690476Y-74902438D01*
X97690476Y-74902438D02*
X97595238Y-74854819D01*
X97595238Y-74854819D02*
X97404762Y-74854819D01*
X97404762Y-74854819D02*
X97309524Y-74902438D01*
X97309524Y-74902438D02*
X97261905Y-74950057D01*
X97261905Y-74950057D02*
X97214286Y-75045295D01*
X97214286Y-75045295D02*
X97214286Y-75283390D01*
X97214286Y-75283390D02*
X97261905Y-75378628D01*
X97261905Y-75378628D02*
X97309524Y-75426247D01*
X97309524Y-75426247D02*
X97404762Y-75473866D01*
X97404762Y-75473866D02*
X97595238Y-75473866D01*
X97595238Y-75473866D02*
X97690476Y-75426247D01*
X97690476Y-75426247D02*
X97738095Y-75378628D01*
X97738095Y-75378628D02*
X97785714Y-75283390D01*
X88407200Y-69933332D02*
X88454819Y-69790475D01*
X88454819Y-69790475D02*
X88454819Y-69552380D01*
X88454819Y-69552380D02*
X88407200Y-69457142D01*
X88407200Y-69457142D02*
X88359580Y-69409523D01*
X88359580Y-69409523D02*
X88264342Y-69361904D01*
X88264342Y-69361904D02*
X88169104Y-69361904D01*
X88169104Y-69361904D02*
X88073866Y-69409523D01*
X88073866Y-69409523D02*
X88026247Y-69457142D01*
X88026247Y-69457142D02*
X87978628Y-69552380D01*
X87978628Y-69552380D02*
X87931009Y-69742856D01*
X87931009Y-69742856D02*
X87883390Y-69838094D01*
X87883390Y-69838094D02*
X87835771Y-69885713D01*
X87835771Y-69885713D02*
X87740533Y-69933332D01*
X87740533Y-69933332D02*
X87645295Y-69933332D01*
X87645295Y-69933332D02*
X87550057Y-69885713D01*
X87550057Y-69885713D02*
X87502438Y-69838094D01*
X87502438Y-69838094D02*
X87454819Y-69742856D01*
X87454819Y-69742856D02*
X87454819Y-69504761D01*
X87454819Y-69504761D02*
X87502438Y-69361904D01*
X87454819Y-69028570D02*
X88454819Y-68790475D01*
X88454819Y-68790475D02*
X87740533Y-68599999D01*
X87740533Y-68599999D02*
X88454819Y-68409523D01*
X88454819Y-68409523D02*
X87454819Y-68171428D01*
X87550057Y-67838094D02*
X87502438Y-67790475D01*
X87502438Y-67790475D02*
X87454819Y-67695237D01*
X87454819Y-67695237D02*
X87454819Y-67457142D01*
X87454819Y-67457142D02*
X87502438Y-67361904D01*
X87502438Y-67361904D02*
X87550057Y-67314285D01*
X87550057Y-67314285D02*
X87645295Y-67266666D01*
X87645295Y-67266666D02*
X87740533Y-67266666D01*
X87740533Y-67266666D02*
X87883390Y-67314285D01*
X87883390Y-67314285D02*
X88454819Y-67885713D01*
X88454819Y-67885713D02*
X88454819Y-67266666D01*
X117433333Y-79359580D02*
X117385714Y-79407200D01*
X117385714Y-79407200D02*
X117242857Y-79454819D01*
X117242857Y-79454819D02*
X117147619Y-79454819D01*
X117147619Y-79454819D02*
X117004762Y-79407200D01*
X117004762Y-79407200D02*
X116909524Y-79311961D01*
X116909524Y-79311961D02*
X116861905Y-79216723D01*
X116861905Y-79216723D02*
X116814286Y-79026247D01*
X116814286Y-79026247D02*
X116814286Y-78883390D01*
X116814286Y-78883390D02*
X116861905Y-78692914D01*
X116861905Y-78692914D02*
X116909524Y-78597676D01*
X116909524Y-78597676D02*
X117004762Y-78502438D01*
X117004762Y-78502438D02*
X117147619Y-78454819D01*
X117147619Y-78454819D02*
X117242857Y-78454819D01*
X117242857Y-78454819D02*
X117385714Y-78502438D01*
X117385714Y-78502438D02*
X117433333Y-78550057D01*
X117766667Y-78454819D02*
X118385714Y-78454819D01*
X118385714Y-78454819D02*
X118052381Y-78835771D01*
X118052381Y-78835771D02*
X118195238Y-78835771D01*
X118195238Y-78835771D02*
X118290476Y-78883390D01*
X118290476Y-78883390D02*
X118338095Y-78931009D01*
X118338095Y-78931009D02*
X118385714Y-79026247D01*
X118385714Y-79026247D02*
X118385714Y-79264342D01*
X118385714Y-79264342D02*
X118338095Y-79359580D01*
X118338095Y-79359580D02*
X118290476Y-79407200D01*
X118290476Y-79407200D02*
X118195238Y-79454819D01*
X118195238Y-79454819D02*
X117909524Y-79454819D01*
X117909524Y-79454819D02*
X117814286Y-79407200D01*
X117814286Y-79407200D02*
X117766667Y-79359580D01*
X102833333Y-74959580D02*
X102785714Y-75007200D01*
X102785714Y-75007200D02*
X102642857Y-75054819D01*
X102642857Y-75054819D02*
X102547619Y-75054819D01*
X102547619Y-75054819D02*
X102404762Y-75007200D01*
X102404762Y-75007200D02*
X102309524Y-74911961D01*
X102309524Y-74911961D02*
X102261905Y-74816723D01*
X102261905Y-74816723D02*
X102214286Y-74626247D01*
X102214286Y-74626247D02*
X102214286Y-74483390D01*
X102214286Y-74483390D02*
X102261905Y-74292914D01*
X102261905Y-74292914D02*
X102309524Y-74197676D01*
X102309524Y-74197676D02*
X102404762Y-74102438D01*
X102404762Y-74102438D02*
X102547619Y-74054819D01*
X102547619Y-74054819D02*
X102642857Y-74054819D01*
X102642857Y-74054819D02*
X102785714Y-74102438D01*
X102785714Y-74102438D02*
X102833333Y-74150057D01*
X103690476Y-74388152D02*
X103690476Y-75054819D01*
X103452381Y-74007200D02*
X103214286Y-74721485D01*
X103214286Y-74721485D02*
X103833333Y-74721485D01*
X101366666Y-92431009D02*
X101033333Y-92431009D01*
X101033333Y-92954819D02*
X101033333Y-91954819D01*
X101033333Y-91954819D02*
X101509523Y-91954819D01*
X102223809Y-92431009D02*
X102366666Y-92478628D01*
X102366666Y-92478628D02*
X102414285Y-92526247D01*
X102414285Y-92526247D02*
X102461904Y-92621485D01*
X102461904Y-92621485D02*
X102461904Y-92764342D01*
X102461904Y-92764342D02*
X102414285Y-92859580D01*
X102414285Y-92859580D02*
X102366666Y-92907200D01*
X102366666Y-92907200D02*
X102271428Y-92954819D01*
X102271428Y-92954819D02*
X101890476Y-92954819D01*
X101890476Y-92954819D02*
X101890476Y-91954819D01*
X101890476Y-91954819D02*
X102223809Y-91954819D01*
X102223809Y-91954819D02*
X102319047Y-92002438D01*
X102319047Y-92002438D02*
X102366666Y-92050057D01*
X102366666Y-92050057D02*
X102414285Y-92145295D01*
X102414285Y-92145295D02*
X102414285Y-92240533D01*
X102414285Y-92240533D02*
X102366666Y-92335771D01*
X102366666Y-92335771D02*
X102319047Y-92383390D01*
X102319047Y-92383390D02*
X102223809Y-92431009D01*
X102223809Y-92431009D02*
X101890476Y-92431009D01*
X103414285Y-92954819D02*
X102842857Y-92954819D01*
X103128571Y-92954819D02*
X103128571Y-91954819D01*
X103128571Y-91954819D02*
X103033333Y-92097676D01*
X103033333Y-92097676D02*
X102938095Y-92192914D01*
X102938095Y-92192914D02*
X102842857Y-92240533D01*
X99633333Y-86659580D02*
X99585714Y-86707200D01*
X99585714Y-86707200D02*
X99442857Y-86754819D01*
X99442857Y-86754819D02*
X99347619Y-86754819D01*
X99347619Y-86754819D02*
X99204762Y-86707200D01*
X99204762Y-86707200D02*
X99109524Y-86611961D01*
X99109524Y-86611961D02*
X99061905Y-86516723D01*
X99061905Y-86516723D02*
X99014286Y-86326247D01*
X99014286Y-86326247D02*
X99014286Y-86183390D01*
X99014286Y-86183390D02*
X99061905Y-85992914D01*
X99061905Y-85992914D02*
X99109524Y-85897676D01*
X99109524Y-85897676D02*
X99204762Y-85802438D01*
X99204762Y-85802438D02*
X99347619Y-85754819D01*
X99347619Y-85754819D02*
X99442857Y-85754819D01*
X99442857Y-85754819D02*
X99585714Y-85802438D01*
X99585714Y-85802438D02*
X99633333Y-85850057D01*
X100490476Y-85754819D02*
X100300000Y-85754819D01*
X100300000Y-85754819D02*
X100204762Y-85802438D01*
X100204762Y-85802438D02*
X100157143Y-85850057D01*
X100157143Y-85850057D02*
X100061905Y-85992914D01*
X100061905Y-85992914D02*
X100014286Y-86183390D01*
X100014286Y-86183390D02*
X100014286Y-86564342D01*
X100014286Y-86564342D02*
X100061905Y-86659580D01*
X100061905Y-86659580D02*
X100109524Y-86707200D01*
X100109524Y-86707200D02*
X100204762Y-86754819D01*
X100204762Y-86754819D02*
X100395238Y-86754819D01*
X100395238Y-86754819D02*
X100490476Y-86707200D01*
X100490476Y-86707200D02*
X100538095Y-86659580D01*
X100538095Y-86659580D02*
X100585714Y-86564342D01*
X100585714Y-86564342D02*
X100585714Y-86326247D01*
X100585714Y-86326247D02*
X100538095Y-86231009D01*
X100538095Y-86231009D02*
X100490476Y-86183390D01*
X100490476Y-86183390D02*
X100395238Y-86135771D01*
X100395238Y-86135771D02*
X100204762Y-86135771D01*
X100204762Y-86135771D02*
X100109524Y-86183390D01*
X100109524Y-86183390D02*
X100061905Y-86231009D01*
X100061905Y-86231009D02*
X100014286Y-86326247D01*
X119138095Y-98354819D02*
X119138095Y-99164342D01*
X119138095Y-99164342D02*
X119185714Y-99259580D01*
X119185714Y-99259580D02*
X119233333Y-99307200D01*
X119233333Y-99307200D02*
X119328571Y-99354819D01*
X119328571Y-99354819D02*
X119519047Y-99354819D01*
X119519047Y-99354819D02*
X119614285Y-99307200D01*
X119614285Y-99307200D02*
X119661904Y-99259580D01*
X119661904Y-99259580D02*
X119709523Y-99164342D01*
X119709523Y-99164342D02*
X119709523Y-98354819D01*
X120138095Y-98450057D02*
X120185714Y-98402438D01*
X120185714Y-98402438D02*
X120280952Y-98354819D01*
X120280952Y-98354819D02*
X120519047Y-98354819D01*
X120519047Y-98354819D02*
X120614285Y-98402438D01*
X120614285Y-98402438D02*
X120661904Y-98450057D01*
X120661904Y-98450057D02*
X120709523Y-98545295D01*
X120709523Y-98545295D02*
X120709523Y-98640533D01*
X120709523Y-98640533D02*
X120661904Y-98783390D01*
X120661904Y-98783390D02*
X120090476Y-99354819D01*
X120090476Y-99354819D02*
X120709523Y-99354819D01*
X104833333Y-71929580D02*
X104785714Y-71977200D01*
X104785714Y-71977200D02*
X104642857Y-72024819D01*
X104642857Y-72024819D02*
X104547619Y-72024819D01*
X104547619Y-72024819D02*
X104404762Y-71977200D01*
X104404762Y-71977200D02*
X104309524Y-71881961D01*
X104309524Y-71881961D02*
X104261905Y-71786723D01*
X104261905Y-71786723D02*
X104214286Y-71596247D01*
X104214286Y-71596247D02*
X104214286Y-71453390D01*
X104214286Y-71453390D02*
X104261905Y-71262914D01*
X104261905Y-71262914D02*
X104309524Y-71167676D01*
X104309524Y-71167676D02*
X104404762Y-71072438D01*
X104404762Y-71072438D02*
X104547619Y-71024819D01*
X104547619Y-71024819D02*
X104642857Y-71024819D01*
X104642857Y-71024819D02*
X104785714Y-71072438D01*
X104785714Y-71072438D02*
X104833333Y-71120057D01*
X105738095Y-71024819D02*
X105261905Y-71024819D01*
X105261905Y-71024819D02*
X105214286Y-71501009D01*
X105214286Y-71501009D02*
X105261905Y-71453390D01*
X105261905Y-71453390D02*
X105357143Y-71405771D01*
X105357143Y-71405771D02*
X105595238Y-71405771D01*
X105595238Y-71405771D02*
X105690476Y-71453390D01*
X105690476Y-71453390D02*
X105738095Y-71501009D01*
X105738095Y-71501009D02*
X105785714Y-71596247D01*
X105785714Y-71596247D02*
X105785714Y-71834342D01*
X105785714Y-71834342D02*
X105738095Y-71929580D01*
X105738095Y-71929580D02*
X105690476Y-71977200D01*
X105690476Y-71977200D02*
X105595238Y-72024819D01*
X105595238Y-72024819D02*
X105357143Y-72024819D01*
X105357143Y-72024819D02*
X105261905Y-71977200D01*
X105261905Y-71977200D02*
X105214286Y-71929580D01*
X114433333Y-91159580D02*
X114385714Y-91207200D01*
X114385714Y-91207200D02*
X114242857Y-91254819D01*
X114242857Y-91254819D02*
X114147619Y-91254819D01*
X114147619Y-91254819D02*
X114004762Y-91207200D01*
X114004762Y-91207200D02*
X113909524Y-91111961D01*
X113909524Y-91111961D02*
X113861905Y-91016723D01*
X113861905Y-91016723D02*
X113814286Y-90826247D01*
X113814286Y-90826247D02*
X113814286Y-90683390D01*
X113814286Y-90683390D02*
X113861905Y-90492914D01*
X113861905Y-90492914D02*
X113909524Y-90397676D01*
X113909524Y-90397676D02*
X114004762Y-90302438D01*
X114004762Y-90302438D02*
X114147619Y-90254819D01*
X114147619Y-90254819D02*
X114242857Y-90254819D01*
X114242857Y-90254819D02*
X114385714Y-90302438D01*
X114385714Y-90302438D02*
X114433333Y-90350057D01*
X115385714Y-91254819D02*
X114814286Y-91254819D01*
X115100000Y-91254819D02*
X115100000Y-90254819D01*
X115100000Y-90254819D02*
X115004762Y-90397676D01*
X115004762Y-90397676D02*
X114909524Y-90492914D01*
X114909524Y-90492914D02*
X114814286Y-90540533D01*
X91123809Y-78178628D02*
X91123809Y-78654819D01*
X90790476Y-77654819D02*
X91123809Y-78178628D01*
X91123809Y-78178628D02*
X91457142Y-77654819D01*
X92314285Y-78654819D02*
X91742857Y-78654819D01*
X92028571Y-78654819D02*
X92028571Y-77654819D01*
X92028571Y-77654819D02*
X91933333Y-77797676D01*
X91933333Y-77797676D02*
X91838095Y-77892914D01*
X91838095Y-77892914D02*
X91742857Y-77940533D01*
X96733333Y-90359580D02*
X96685714Y-90407200D01*
X96685714Y-90407200D02*
X96542857Y-90454819D01*
X96542857Y-90454819D02*
X96447619Y-90454819D01*
X96447619Y-90454819D02*
X96304762Y-90407200D01*
X96304762Y-90407200D02*
X96209524Y-90311961D01*
X96209524Y-90311961D02*
X96161905Y-90216723D01*
X96161905Y-90216723D02*
X96114286Y-90026247D01*
X96114286Y-90026247D02*
X96114286Y-89883390D01*
X96114286Y-89883390D02*
X96161905Y-89692914D01*
X96161905Y-89692914D02*
X96209524Y-89597676D01*
X96209524Y-89597676D02*
X96304762Y-89502438D01*
X96304762Y-89502438D02*
X96447619Y-89454819D01*
X96447619Y-89454819D02*
X96542857Y-89454819D01*
X96542857Y-89454819D02*
X96685714Y-89502438D01*
X96685714Y-89502438D02*
X96733333Y-89550057D01*
X97304762Y-89883390D02*
X97209524Y-89835771D01*
X97209524Y-89835771D02*
X97161905Y-89788152D01*
X97161905Y-89788152D02*
X97114286Y-89692914D01*
X97114286Y-89692914D02*
X97114286Y-89645295D01*
X97114286Y-89645295D02*
X97161905Y-89550057D01*
X97161905Y-89550057D02*
X97209524Y-89502438D01*
X97209524Y-89502438D02*
X97304762Y-89454819D01*
X97304762Y-89454819D02*
X97495238Y-89454819D01*
X97495238Y-89454819D02*
X97590476Y-89502438D01*
X97590476Y-89502438D02*
X97638095Y-89550057D01*
X97638095Y-89550057D02*
X97685714Y-89645295D01*
X97685714Y-89645295D02*
X97685714Y-89692914D01*
X97685714Y-89692914D02*
X97638095Y-89788152D01*
X97638095Y-89788152D02*
X97590476Y-89835771D01*
X97590476Y-89835771D02*
X97495238Y-89883390D01*
X97495238Y-89883390D02*
X97304762Y-89883390D01*
X97304762Y-89883390D02*
X97209524Y-89931009D01*
X97209524Y-89931009D02*
X97161905Y-89978628D01*
X97161905Y-89978628D02*
X97114286Y-90073866D01*
X97114286Y-90073866D02*
X97114286Y-90264342D01*
X97114286Y-90264342D02*
X97161905Y-90359580D01*
X97161905Y-90359580D02*
X97209524Y-90407200D01*
X97209524Y-90407200D02*
X97304762Y-90454819D01*
X97304762Y-90454819D02*
X97495238Y-90454819D01*
X97495238Y-90454819D02*
X97590476Y-90407200D01*
X97590476Y-90407200D02*
X97638095Y-90359580D01*
X97638095Y-90359580D02*
X97685714Y-90264342D01*
X97685714Y-90264342D02*
X97685714Y-90073866D01*
X97685714Y-90073866D02*
X97638095Y-89978628D01*
X97638095Y-89978628D02*
X97590476Y-89931009D01*
X97590476Y-89931009D02*
X97495238Y-89883390D01*
X124457142Y-95359580D02*
X124409523Y-95407200D01*
X124409523Y-95407200D02*
X124266666Y-95454819D01*
X124266666Y-95454819D02*
X124171428Y-95454819D01*
X124171428Y-95454819D02*
X124028571Y-95407200D01*
X124028571Y-95407200D02*
X123933333Y-95311961D01*
X123933333Y-95311961D02*
X123885714Y-95216723D01*
X123885714Y-95216723D02*
X123838095Y-95026247D01*
X123838095Y-95026247D02*
X123838095Y-94883390D01*
X123838095Y-94883390D02*
X123885714Y-94692914D01*
X123885714Y-94692914D02*
X123933333Y-94597676D01*
X123933333Y-94597676D02*
X124028571Y-94502438D01*
X124028571Y-94502438D02*
X124171428Y-94454819D01*
X124171428Y-94454819D02*
X124266666Y-94454819D01*
X124266666Y-94454819D02*
X124409523Y-94502438D01*
X124409523Y-94502438D02*
X124457142Y-94550057D01*
X125409523Y-95454819D02*
X124838095Y-95454819D01*
X125123809Y-95454819D02*
X125123809Y-94454819D01*
X125123809Y-94454819D02*
X125028571Y-94597676D01*
X125028571Y-94597676D02*
X124933333Y-94692914D01*
X124933333Y-94692914D02*
X124838095Y-94740533D01*
X125742857Y-94454819D02*
X126361904Y-94454819D01*
X126361904Y-94454819D02*
X126028571Y-94835771D01*
X126028571Y-94835771D02*
X126171428Y-94835771D01*
X126171428Y-94835771D02*
X126266666Y-94883390D01*
X126266666Y-94883390D02*
X126314285Y-94931009D01*
X126314285Y-94931009D02*
X126361904Y-95026247D01*
X126361904Y-95026247D02*
X126361904Y-95264342D01*
X126361904Y-95264342D02*
X126314285Y-95359580D01*
X126314285Y-95359580D02*
X126266666Y-95407200D01*
X126266666Y-95407200D02*
X126171428Y-95454819D01*
X126171428Y-95454819D02*
X125885714Y-95454819D01*
X125885714Y-95454819D02*
X125790476Y-95407200D01*
X125790476Y-95407200D02*
X125742857Y-95359580D01*
X127061905Y-95554819D02*
X127061905Y-94554819D01*
X127061905Y-94554819D02*
X127300000Y-94554819D01*
X127300000Y-94554819D02*
X127442857Y-94602438D01*
X127442857Y-94602438D02*
X127538095Y-94697676D01*
X127538095Y-94697676D02*
X127585714Y-94792914D01*
X127585714Y-94792914D02*
X127633333Y-94983390D01*
X127633333Y-94983390D02*
X127633333Y-95126247D01*
X127633333Y-95126247D02*
X127585714Y-95316723D01*
X127585714Y-95316723D02*
X127538095Y-95411961D01*
X127538095Y-95411961D02*
X127442857Y-95507200D01*
X127442857Y-95507200D02*
X127300000Y-95554819D01*
X127300000Y-95554819D02*
X127061905Y-95554819D01*
X128585714Y-95554819D02*
X128014286Y-95554819D01*
X128300000Y-95554819D02*
X128300000Y-94554819D01*
X128300000Y-94554819D02*
X128204762Y-94697676D01*
X128204762Y-94697676D02*
X128109524Y-94792914D01*
X128109524Y-94792914D02*
X128014286Y-94840533D01*
X106457142Y-91059580D02*
X106409523Y-91107200D01*
X106409523Y-91107200D02*
X106266666Y-91154819D01*
X106266666Y-91154819D02*
X106171428Y-91154819D01*
X106171428Y-91154819D02*
X106028571Y-91107200D01*
X106028571Y-91107200D02*
X105933333Y-91011961D01*
X105933333Y-91011961D02*
X105885714Y-90916723D01*
X105885714Y-90916723D02*
X105838095Y-90726247D01*
X105838095Y-90726247D02*
X105838095Y-90583390D01*
X105838095Y-90583390D02*
X105885714Y-90392914D01*
X105885714Y-90392914D02*
X105933333Y-90297676D01*
X105933333Y-90297676D02*
X106028571Y-90202438D01*
X106028571Y-90202438D02*
X106171428Y-90154819D01*
X106171428Y-90154819D02*
X106266666Y-90154819D01*
X106266666Y-90154819D02*
X106409523Y-90202438D01*
X106409523Y-90202438D02*
X106457142Y-90250057D01*
X107409523Y-91154819D02*
X106838095Y-91154819D01*
X107123809Y-91154819D02*
X107123809Y-90154819D01*
X107123809Y-90154819D02*
X107028571Y-90297676D01*
X107028571Y-90297676D02*
X106933333Y-90392914D01*
X106933333Y-90392914D02*
X106838095Y-90440533D01*
X108266666Y-90488152D02*
X108266666Y-91154819D01*
X108028571Y-90107200D02*
X107790476Y-90821485D01*
X107790476Y-90821485D02*
X108409523Y-90821485D01*
X96733333Y-88559580D02*
X96685714Y-88607200D01*
X96685714Y-88607200D02*
X96542857Y-88654819D01*
X96542857Y-88654819D02*
X96447619Y-88654819D01*
X96447619Y-88654819D02*
X96304762Y-88607200D01*
X96304762Y-88607200D02*
X96209524Y-88511961D01*
X96209524Y-88511961D02*
X96161905Y-88416723D01*
X96161905Y-88416723D02*
X96114286Y-88226247D01*
X96114286Y-88226247D02*
X96114286Y-88083390D01*
X96114286Y-88083390D02*
X96161905Y-87892914D01*
X96161905Y-87892914D02*
X96209524Y-87797676D01*
X96209524Y-87797676D02*
X96304762Y-87702438D01*
X96304762Y-87702438D02*
X96447619Y-87654819D01*
X96447619Y-87654819D02*
X96542857Y-87654819D01*
X96542857Y-87654819D02*
X96685714Y-87702438D01*
X96685714Y-87702438D02*
X96733333Y-87750057D01*
X97066667Y-87654819D02*
X97733333Y-87654819D01*
X97733333Y-87654819D02*
X97304762Y-88654819D01*
X119257142Y-85829580D02*
X119209523Y-85877200D01*
X119209523Y-85877200D02*
X119066666Y-85924819D01*
X119066666Y-85924819D02*
X118971428Y-85924819D01*
X118971428Y-85924819D02*
X118828571Y-85877200D01*
X118828571Y-85877200D02*
X118733333Y-85781961D01*
X118733333Y-85781961D02*
X118685714Y-85686723D01*
X118685714Y-85686723D02*
X118638095Y-85496247D01*
X118638095Y-85496247D02*
X118638095Y-85353390D01*
X118638095Y-85353390D02*
X118685714Y-85162914D01*
X118685714Y-85162914D02*
X118733333Y-85067676D01*
X118733333Y-85067676D02*
X118828571Y-84972438D01*
X118828571Y-84972438D02*
X118971428Y-84924819D01*
X118971428Y-84924819D02*
X119066666Y-84924819D01*
X119066666Y-84924819D02*
X119209523Y-84972438D01*
X119209523Y-84972438D02*
X119257142Y-85020057D01*
X120209523Y-85924819D02*
X119638095Y-85924819D01*
X119923809Y-85924819D02*
X119923809Y-84924819D01*
X119923809Y-84924819D02*
X119828571Y-85067676D01*
X119828571Y-85067676D02*
X119733333Y-85162914D01*
X119733333Y-85162914D02*
X119638095Y-85210533D01*
X120590476Y-85020057D02*
X120638095Y-84972438D01*
X120638095Y-84972438D02*
X120733333Y-84924819D01*
X120733333Y-84924819D02*
X120971428Y-84924819D01*
X120971428Y-84924819D02*
X121066666Y-84972438D01*
X121066666Y-84972438D02*
X121114285Y-85020057D01*
X121114285Y-85020057D02*
X121161904Y-85115295D01*
X121161904Y-85115295D02*
X121161904Y-85210533D01*
X121161904Y-85210533D02*
X121114285Y-85353390D01*
X121114285Y-85353390D02*
X120542857Y-85924819D01*
X120542857Y-85924819D02*
X121161904Y-85924819D01*
X127233333Y-87154819D02*
X126900000Y-86678628D01*
X126661905Y-87154819D02*
X126661905Y-86154819D01*
X126661905Y-86154819D02*
X127042857Y-86154819D01*
X127042857Y-86154819D02*
X127138095Y-86202438D01*
X127138095Y-86202438D02*
X127185714Y-86250057D01*
X127185714Y-86250057D02*
X127233333Y-86345295D01*
X127233333Y-86345295D02*
X127233333Y-86488152D01*
X127233333Y-86488152D02*
X127185714Y-86583390D01*
X127185714Y-86583390D02*
X127138095Y-86631009D01*
X127138095Y-86631009D02*
X127042857Y-86678628D01*
X127042857Y-86678628D02*
X126661905Y-86678628D01*
X127614286Y-86250057D02*
X127661905Y-86202438D01*
X127661905Y-86202438D02*
X127757143Y-86154819D01*
X127757143Y-86154819D02*
X127995238Y-86154819D01*
X127995238Y-86154819D02*
X128090476Y-86202438D01*
X128090476Y-86202438D02*
X128138095Y-86250057D01*
X128138095Y-86250057D02*
X128185714Y-86345295D01*
X128185714Y-86345295D02*
X128185714Y-86440533D01*
X128185714Y-86440533D02*
X128138095Y-86583390D01*
X128138095Y-86583390D02*
X127566667Y-87154819D01*
X127566667Y-87154819D02*
X128185714Y-87154819D01*
X100833333Y-76859580D02*
X100785714Y-76907200D01*
X100785714Y-76907200D02*
X100642857Y-76954819D01*
X100642857Y-76954819D02*
X100547619Y-76954819D01*
X100547619Y-76954819D02*
X100404762Y-76907200D01*
X100404762Y-76907200D02*
X100309524Y-76811961D01*
X100309524Y-76811961D02*
X100261905Y-76716723D01*
X100261905Y-76716723D02*
X100214286Y-76526247D01*
X100214286Y-76526247D02*
X100214286Y-76383390D01*
X100214286Y-76383390D02*
X100261905Y-76192914D01*
X100261905Y-76192914D02*
X100309524Y-76097676D01*
X100309524Y-76097676D02*
X100404762Y-76002438D01*
X100404762Y-76002438D02*
X100547619Y-75954819D01*
X100547619Y-75954819D02*
X100642857Y-75954819D01*
X100642857Y-75954819D02*
X100785714Y-76002438D01*
X100785714Y-76002438D02*
X100833333Y-76050057D01*
X101214286Y-76050057D02*
X101261905Y-76002438D01*
X101261905Y-76002438D02*
X101357143Y-75954819D01*
X101357143Y-75954819D02*
X101595238Y-75954819D01*
X101595238Y-75954819D02*
X101690476Y-76002438D01*
X101690476Y-76002438D02*
X101738095Y-76050057D01*
X101738095Y-76050057D02*
X101785714Y-76145295D01*
X101785714Y-76145295D02*
X101785714Y-76240533D01*
X101785714Y-76240533D02*
X101738095Y-76383390D01*
X101738095Y-76383390D02*
X101166667Y-76954819D01*
X101166667Y-76954819D02*
X101785714Y-76954819D01*
X93907142Y-82959580D02*
X93859523Y-83007200D01*
X93859523Y-83007200D02*
X93716666Y-83054819D01*
X93716666Y-83054819D02*
X93621428Y-83054819D01*
X93621428Y-83054819D02*
X93478571Y-83007200D01*
X93478571Y-83007200D02*
X93383333Y-82911961D01*
X93383333Y-82911961D02*
X93335714Y-82816723D01*
X93335714Y-82816723D02*
X93288095Y-82626247D01*
X93288095Y-82626247D02*
X93288095Y-82483390D01*
X93288095Y-82483390D02*
X93335714Y-82292914D01*
X93335714Y-82292914D02*
X93383333Y-82197676D01*
X93383333Y-82197676D02*
X93478571Y-82102438D01*
X93478571Y-82102438D02*
X93621428Y-82054819D01*
X93621428Y-82054819D02*
X93716666Y-82054819D01*
X93716666Y-82054819D02*
X93859523Y-82102438D01*
X93859523Y-82102438D02*
X93907142Y-82150057D01*
X94859523Y-83054819D02*
X94288095Y-83054819D01*
X94573809Y-83054819D02*
X94573809Y-82054819D01*
X94573809Y-82054819D02*
X94478571Y-82197676D01*
X94478571Y-82197676D02*
X94383333Y-82292914D01*
X94383333Y-82292914D02*
X94288095Y-82340533D01*
X95811904Y-83054819D02*
X95240476Y-83054819D01*
X95526190Y-83054819D02*
X95526190Y-82054819D01*
X95526190Y-82054819D02*
X95430952Y-82197676D01*
X95430952Y-82197676D02*
X95335714Y-82292914D01*
X95335714Y-82292914D02*
X95240476Y-82340533D01*
X94966667Y-69507200D02*
X95109524Y-69554819D01*
X95109524Y-69554819D02*
X95347619Y-69554819D01*
X95347619Y-69554819D02*
X95442857Y-69507200D01*
X95442857Y-69507200D02*
X95490476Y-69459580D01*
X95490476Y-69459580D02*
X95538095Y-69364342D01*
X95538095Y-69364342D02*
X95538095Y-69269104D01*
X95538095Y-69269104D02*
X95490476Y-69173866D01*
X95490476Y-69173866D02*
X95442857Y-69126247D01*
X95442857Y-69126247D02*
X95347619Y-69078628D01*
X95347619Y-69078628D02*
X95157143Y-69031009D01*
X95157143Y-69031009D02*
X95061905Y-68983390D01*
X95061905Y-68983390D02*
X95014286Y-68935771D01*
X95014286Y-68935771D02*
X94966667Y-68840533D01*
X94966667Y-68840533D02*
X94966667Y-68745295D01*
X94966667Y-68745295D02*
X95014286Y-68650057D01*
X95014286Y-68650057D02*
X95061905Y-68602438D01*
X95061905Y-68602438D02*
X95157143Y-68554819D01*
X95157143Y-68554819D02*
X95395238Y-68554819D01*
X95395238Y-68554819D02*
X95538095Y-68602438D01*
X95871429Y-68554819D02*
X96109524Y-69554819D01*
X96109524Y-69554819D02*
X96300000Y-68840533D01*
X96300000Y-68840533D02*
X96490476Y-69554819D01*
X96490476Y-69554819D02*
X96728572Y-68554819D01*
X97633333Y-69554819D02*
X97061905Y-69554819D01*
X97347619Y-69554819D02*
X97347619Y-68554819D01*
X97347619Y-68554819D02*
X97252381Y-68697676D01*
X97252381Y-68697676D02*
X97157143Y-68792914D01*
X97157143Y-68792914D02*
X97061905Y-68840533D01*
X90033333Y-67254819D02*
X89700000Y-66778628D01*
X89461905Y-67254819D02*
X89461905Y-66254819D01*
X89461905Y-66254819D02*
X89842857Y-66254819D01*
X89842857Y-66254819D02*
X89938095Y-66302438D01*
X89938095Y-66302438D02*
X89985714Y-66350057D01*
X89985714Y-66350057D02*
X90033333Y-66445295D01*
X90033333Y-66445295D02*
X90033333Y-66588152D01*
X90033333Y-66588152D02*
X89985714Y-66683390D01*
X89985714Y-66683390D02*
X89938095Y-66731009D01*
X89938095Y-66731009D02*
X89842857Y-66778628D01*
X89842857Y-66778628D02*
X89461905Y-66778628D01*
X90985714Y-67254819D02*
X90414286Y-67254819D01*
X90700000Y-67254819D02*
X90700000Y-66254819D01*
X90700000Y-66254819D02*
X90604762Y-66397676D01*
X90604762Y-66397676D02*
X90509524Y-66492914D01*
X90509524Y-66492914D02*
X90414286Y-66540533D01*
X91957142Y-76859580D02*
X91909523Y-76907200D01*
X91909523Y-76907200D02*
X91766666Y-76954819D01*
X91766666Y-76954819D02*
X91671428Y-76954819D01*
X91671428Y-76954819D02*
X91528571Y-76907200D01*
X91528571Y-76907200D02*
X91433333Y-76811961D01*
X91433333Y-76811961D02*
X91385714Y-76716723D01*
X91385714Y-76716723D02*
X91338095Y-76526247D01*
X91338095Y-76526247D02*
X91338095Y-76383390D01*
X91338095Y-76383390D02*
X91385714Y-76192914D01*
X91385714Y-76192914D02*
X91433333Y-76097676D01*
X91433333Y-76097676D02*
X91528571Y-76002438D01*
X91528571Y-76002438D02*
X91671428Y-75954819D01*
X91671428Y-75954819D02*
X91766666Y-75954819D01*
X91766666Y-75954819D02*
X91909523Y-76002438D01*
X91909523Y-76002438D02*
X91957142Y-76050057D01*
X92909523Y-76954819D02*
X92338095Y-76954819D01*
X92623809Y-76954819D02*
X92623809Y-75954819D01*
X92623809Y-75954819D02*
X92528571Y-76097676D01*
X92528571Y-76097676D02*
X92433333Y-76192914D01*
X92433333Y-76192914D02*
X92338095Y-76240533D01*
X93528571Y-75954819D02*
X93623809Y-75954819D01*
X93623809Y-75954819D02*
X93719047Y-76002438D01*
X93719047Y-76002438D02*
X93766666Y-76050057D01*
X93766666Y-76050057D02*
X93814285Y-76145295D01*
X93814285Y-76145295D02*
X93861904Y-76335771D01*
X93861904Y-76335771D02*
X93861904Y-76573866D01*
X93861904Y-76573866D02*
X93814285Y-76764342D01*
X93814285Y-76764342D02*
X93766666Y-76859580D01*
X93766666Y-76859580D02*
X93719047Y-76907200D01*
X93719047Y-76907200D02*
X93623809Y-76954819D01*
X93623809Y-76954819D02*
X93528571Y-76954819D01*
X93528571Y-76954819D02*
X93433333Y-76907200D01*
X93433333Y-76907200D02*
X93385714Y-76859580D01*
X93385714Y-76859580D02*
X93338095Y-76764342D01*
X93338095Y-76764342D02*
X93290476Y-76573866D01*
X93290476Y-76573866D02*
X93290476Y-76335771D01*
X93290476Y-76335771D02*
X93338095Y-76145295D01*
X93338095Y-76145295D02*
X93385714Y-76050057D01*
X93385714Y-76050057D02*
X93433333Y-76002438D01*
X93433333Y-76002438D02*
X93528571Y-75954819D01*
X107738095Y-74554819D02*
X107738095Y-75364342D01*
X107738095Y-75364342D02*
X107785714Y-75459580D01*
X107785714Y-75459580D02*
X107833333Y-75507200D01*
X107833333Y-75507200D02*
X107928571Y-75554819D01*
X107928571Y-75554819D02*
X108119047Y-75554819D01*
X108119047Y-75554819D02*
X108214285Y-75507200D01*
X108214285Y-75507200D02*
X108261904Y-75459580D01*
X108261904Y-75459580D02*
X108309523Y-75364342D01*
X108309523Y-75364342D02*
X108309523Y-74554819D01*
X109309523Y-75554819D02*
X108738095Y-75554819D01*
X109023809Y-75554819D02*
X109023809Y-74554819D01*
X109023809Y-74554819D02*
X108928571Y-74697676D01*
X108928571Y-74697676D02*
X108833333Y-74792914D01*
X108833333Y-74792914D02*
X108738095Y-74840533D01*
D14*
%TO.C,G\u002A\u002A\u002A*%
G36*
X97401838Y-99000000D02*
G01*
X97401838Y-102501838D01*
X93900000Y-102501838D01*
X90398162Y-102501838D01*
X90398162Y-101513928D01*
X93031222Y-101513928D01*
X93036283Y-101551182D01*
X93078094Y-101609419D01*
X93095058Y-101629788D01*
X93209738Y-101731132D01*
X93345167Y-101798004D01*
X93455434Y-101818233D01*
X93529445Y-101849085D01*
X93588786Y-101918508D01*
X93652412Y-101997302D01*
X93723309Y-102055604D01*
X93728860Y-102058698D01*
X93837425Y-102088432D01*
X93967795Y-102086182D01*
X94092734Y-102055285D01*
X94109628Y-102045302D01*
X97256577Y-102045302D01*
X97260849Y-102063807D01*
X97277328Y-102066054D01*
X97302950Y-102054665D01*
X97298080Y-102045302D01*
X97261139Y-102041577D01*
X97256577Y-102045302D01*
X94109628Y-102045302D01*
X94180628Y-102003347D01*
X94239202Y-101937182D01*
X94274062Y-101877597D01*
X94274293Y-101876882D01*
X94319882Y-101830921D01*
X94416966Y-101800902D01*
X94417419Y-101800826D01*
X94521292Y-101768096D01*
X94615362Y-101712441D01*
X94691174Y-101643956D01*
X94740276Y-101572734D01*
X94754212Y-101508871D01*
X94724530Y-101462463D01*
X94707730Y-101454153D01*
X94651598Y-101459991D01*
X94591002Y-101497932D01*
X94456922Y-101590267D01*
X94323978Y-101628343D01*
X94201194Y-101613197D01*
X94097593Y-101545871D01*
X94024367Y-101432651D01*
X94003496Y-101375921D01*
X94007632Y-101338084D01*
X94046485Y-101302642D01*
X94129766Y-101253094D01*
X94130187Y-101252853D01*
X94283541Y-101143328D01*
X94418662Y-101005442D01*
X94529818Y-100850129D01*
X94611277Y-100688326D01*
X94657306Y-100530967D01*
X94662176Y-100388987D01*
X94632737Y-100294110D01*
X94588995Y-100251066D01*
X94507752Y-100198978D01*
X94438191Y-100163865D01*
X94358416Y-100131161D01*
X94281038Y-100109596D01*
X94189951Y-100096942D01*
X94069046Y-100090972D01*
X93902215Y-100089461D01*
X93900000Y-100089461D01*
X93732556Y-100090934D01*
X93611221Y-100096841D01*
X93519886Y-100109407D01*
X93442444Y-100130859D01*
X93362786Y-100163424D01*
X93361809Y-100163865D01*
X93244073Y-100225908D01*
X93175369Y-100290610D01*
X93143922Y-100373987D01*
X93137681Y-100468725D01*
X93163259Y-100616415D01*
X93232234Y-100779811D01*
X93334004Y-100943641D01*
X93457968Y-101092634D01*
X93593521Y-101211517D01*
X93694567Y-101270904D01*
X93769835Y-101308483D01*
X93799085Y-101341589D01*
X93794045Y-101389016D01*
X93785120Y-101416019D01*
X93718997Y-101524783D01*
X93617483Y-101601072D01*
X93500273Y-101630151D01*
X93498927Y-101630153D01*
X93425280Y-101620031D01*
X93341824Y-101585280D01*
X93234330Y-101519059D01*
X93161307Y-101467827D01*
X93109585Y-101445932D01*
X93061477Y-101474977D01*
X93058186Y-101478228D01*
X93031222Y-101513928D01*
X90398162Y-101513928D01*
X90398162Y-99000000D01*
X90398162Y-98796612D01*
X92145594Y-98796612D01*
X92164774Y-98944316D01*
X92221988Y-99069252D01*
X92312344Y-99157500D01*
X92359191Y-99180345D01*
X92415857Y-99196571D01*
X92467013Y-99192812D01*
X92541299Y-99166048D01*
X92557157Y-99159466D01*
X92654482Y-99090726D01*
X92711423Y-98980671D01*
X92729482Y-98825610D01*
X92725782Y-98745549D01*
X95074218Y-98745549D01*
X95077219Y-98923889D01*
X95120150Y-99055483D01*
X95203600Y-99141828D01*
X95236025Y-99158867D01*
X95365832Y-99186295D01*
X95488039Y-99152446D01*
X95556264Y-99102408D01*
X95614938Y-99010841D01*
X95644525Y-98886479D01*
X95645956Y-98748959D01*
X95620160Y-98617918D01*
X95568070Y-98512990D01*
X95526372Y-98471973D01*
X95414505Y-98428664D01*
X95291234Y-98435681D01*
X95179489Y-98491421D01*
X95173177Y-98496686D01*
X95120333Y-98554698D01*
X95090550Y-98628030D01*
X95074722Y-98739582D01*
X95074218Y-98745549D01*
X92725782Y-98745549D01*
X92710347Y-98631853D01*
X92681346Y-98557356D01*
X92629674Y-98499158D01*
X92626822Y-98496686D01*
X92512644Y-98432992D01*
X92395243Y-98425137D01*
X92287948Y-98468942D01*
X92204087Y-98560232D01*
X92169339Y-98640062D01*
X92145594Y-98796612D01*
X90398162Y-98796612D01*
X90398162Y-96782167D01*
X90773900Y-96782167D01*
X90782823Y-96929465D01*
X90801105Y-97042432D01*
X90805490Y-97057671D01*
X90849148Y-97187669D01*
X90885156Y-97281953D01*
X90909512Y-97330397D01*
X90914908Y-97334681D01*
X90934225Y-97309616D01*
X90970740Y-97245911D01*
X90993186Y-97203108D01*
X91082376Y-97052272D01*
X91197890Y-96891497D01*
X91328161Y-96733987D01*
X91461619Y-96592944D01*
X91586696Y-96481572D01*
X91680570Y-96418630D01*
X91758974Y-96374220D01*
X91841564Y-96322848D01*
X91916678Y-96273602D01*
X95866888Y-96273602D01*
X95876693Y-96302248D01*
X95928658Y-96349850D01*
X95991120Y-96392944D01*
X96213980Y-96559035D01*
X96428657Y-96769321D01*
X96619235Y-97006224D01*
X96769799Y-97252166D01*
X96770804Y-97254130D01*
X96851632Y-97412500D01*
X96928264Y-97241299D01*
X96975851Y-97109767D01*
X97005298Y-96960047D01*
X97020176Y-96789951D01*
X97022140Y-96562736D01*
X96999871Y-96391146D01*
X96952964Y-96273291D01*
X96896814Y-96216039D01*
X96811642Y-96185138D01*
X96682332Y-96165187D01*
X96526106Y-96156611D01*
X96360185Y-96159832D01*
X96201790Y-96175272D01*
X96093586Y-96196316D01*
X95987184Y-96226295D01*
X95905204Y-96254411D01*
X95866888Y-96273602D01*
X91916678Y-96273602D01*
X91930923Y-96264263D01*
X91810437Y-96221550D01*
X91723939Y-96200124D01*
X91597760Y-96180016D01*
X91454439Y-96164586D01*
X91402802Y-96160811D01*
X91186303Y-96156877D01*
X91022660Y-96176993D01*
X90906588Y-96222953D01*
X90832802Y-96296553D01*
X90803833Y-96364202D01*
X90784350Y-96476544D01*
X90774391Y-96623530D01*
X90773900Y-96782167D01*
X90398162Y-96782167D01*
X90398162Y-95498162D01*
X93900000Y-95498162D01*
X97401838Y-95498162D01*
X97401838Y-99000000D01*
G37*
G36*
X94257965Y-101832598D02*
G01*
X94242402Y-101848162D01*
X94226838Y-101832598D01*
X94242402Y-101817034D01*
X94257965Y-101832598D01*
G37*
D15*
%TO.C,J1*%
X129690000Y-83960000D02*
X129290000Y-83960000D01*
X129290000Y-76440000D02*
X129690000Y-76440000D01*
X127320000Y-83960000D02*
X125340000Y-83960000D01*
X127320000Y-76440000D02*
X125340000Y-76440000D01*
X125340000Y-83960000D02*
X125340000Y-83540000D01*
X125340000Y-76440000D02*
X125340000Y-76860000D01*
X125110000Y-81960000D02*
X124660000Y-81960000D01*
X124660000Y-81510000D02*
X124660000Y-81960000D01*
%TO.C,C9*%
X99027836Y-74740000D02*
X98812164Y-74740000D01*
X99027836Y-75460000D02*
X98812164Y-75460000D01*
%TO.C,SW2*%
X84080000Y-72050000D02*
X84870000Y-72050000D01*
X85920000Y-70000000D02*
X85920000Y-70200000D01*
X85920000Y-67000000D02*
X85920000Y-68700000D01*
X83070000Y-65750000D02*
X83070000Y-71450000D01*
X84870000Y-65150000D02*
X84080000Y-65150000D01*
%TO.C,C3*%
X115640000Y-78812164D02*
X115640000Y-79027836D01*
X116360000Y-78812164D02*
X116360000Y-79027836D01*
%TO.C,C4*%
X104892164Y-74240000D02*
X105107836Y-74240000D01*
X104892164Y-74960000D02*
X105107836Y-74960000D01*
%TO.C,FB1*%
X101690000Y-89937221D02*
X101690000Y-90262779D01*
X102710000Y-89937221D02*
X102710000Y-90262779D01*
%TO.C,J5*%
X114930000Y-95620000D02*
X114930000Y-97000000D01*
X113550000Y-95620000D02*
X114930000Y-95620000D01*
X112280000Y-95620000D02*
X99470000Y-95620000D01*
X112280000Y-95620000D02*
X112280000Y-98380000D01*
X99470000Y-95620000D02*
X99470000Y-98380000D01*
X112280000Y-98380000D02*
X99470000Y-98380000D01*
%TO.C,C6*%
X99640000Y-84607836D02*
X99640000Y-84392164D01*
X100360000Y-84607836D02*
X100360000Y-84392164D01*
%TO.C,J7*%
X87020000Y-76345000D02*
X88400000Y-76345000D01*
X87020000Y-77725000D02*
X87020000Y-76345000D01*
X87020000Y-78995000D02*
X87020000Y-81645000D01*
X87020000Y-78995000D02*
X89780000Y-78995000D01*
X87020000Y-81645000D02*
X89780000Y-81645000D01*
X89780000Y-78995000D02*
X89780000Y-81645000D01*
%TO.C,U2*%
X123510000Y-90900000D02*
X123510000Y-94660000D01*
X116690000Y-90900000D02*
X116690000Y-94660000D01*
X123510000Y-94660000D02*
X122250000Y-94660000D01*
X116690000Y-94660000D02*
X117950000Y-94660000D01*
X123740000Y-89860000D02*
X123410000Y-89620000D01*
X123740000Y-89380000D01*
X123740000Y-89860000D01*
G36*
X123740000Y-89860000D02*
G01*
X123410000Y-89620000D01*
X123740000Y-89380000D01*
X123740000Y-89860000D01*
G37*
%TO.C,C5*%
X104859420Y-73510000D02*
X105140580Y-73510000D01*
X104859420Y-72490000D02*
X105140580Y-72490000D01*
%TO.C,C1*%
X112307836Y-90440000D02*
X112092164Y-90440000D01*
X112307836Y-91160000D02*
X112092164Y-91160000D01*
%TO.C,Y1*%
X92640000Y-77540000D02*
X92640000Y-81660000D01*
X96060000Y-77540000D02*
X92640000Y-77540000D01*
%TO.C,C8*%
X100107836Y-89340000D02*
X99892164Y-89340000D01*
X100107836Y-90060000D02*
X99892164Y-90060000D01*
%TO.C,C13*%
X124565000Y-92611252D02*
X124565000Y-92088748D01*
X126035000Y-92611252D02*
X126035000Y-92088748D01*
%TO.C,D1*%
X128135000Y-90715000D02*
X126665000Y-90715000D01*
X126665000Y-90715000D02*
X126665000Y-93000000D01*
X128135000Y-93000000D02*
X128135000Y-90715000D01*
%TO.C,J3*%
X116140000Y-66180000D02*
X108410000Y-66180000D01*
X108410000Y-63420000D02*
X108410000Y-66180000D01*
X116140000Y-63420000D02*
X116140000Y-66180000D01*
X116140000Y-63420000D02*
X108410000Y-63420000D01*
X117410000Y-63420000D02*
X118790000Y-63420000D01*
X118790000Y-63420000D02*
X118790000Y-64800000D01*
%TO.C,C14*%
X110007836Y-91060000D02*
X109792164Y-91060000D01*
X110007836Y-90340000D02*
X109792164Y-90340000D01*
%TO.C,C7*%
X100107836Y-88140000D02*
X99892164Y-88140000D01*
X100107836Y-88860000D02*
X99892164Y-88860000D01*
%TO.C,C12*%
X119638748Y-86415000D02*
X120161252Y-86415000D01*
X119638748Y-87885000D02*
X120161252Y-87885000D01*
%TO.C,R2*%
X127020000Y-88853641D02*
X127020000Y-88546359D01*
X127780000Y-88853641D02*
X127780000Y-88546359D01*
%TO.C,C2*%
X100640000Y-78307836D02*
X100640000Y-78092164D01*
X101360000Y-78307836D02*
X101360000Y-78092164D01*
%TO.C,J2*%
X123380000Y-68310000D02*
X120620000Y-68310000D01*
X123380000Y-76040000D02*
X123380000Y-68310000D01*
X123380000Y-76040000D02*
X120620000Y-76040000D01*
X120620000Y-76040000D02*
X120620000Y-68310000D01*
X123380000Y-77310000D02*
X123380000Y-78690000D01*
X123380000Y-78690000D02*
X122000000Y-78690000D01*
%TO.C,C11*%
X96590000Y-80707836D02*
X96590000Y-80492164D01*
X97310000Y-80707836D02*
X97310000Y-80492164D01*
%TO.C,J4*%
X118790000Y-67220000D02*
X118790000Y-68600000D01*
X117410000Y-67220000D02*
X118790000Y-67220000D01*
X116140000Y-67220000D02*
X108410000Y-67220000D01*
X116140000Y-67220000D02*
X116140000Y-69980000D01*
X108410000Y-67220000D02*
X108410000Y-69980000D01*
X116140000Y-69980000D02*
X108410000Y-69980000D01*
%TO.C,J6*%
X87020000Y-84810000D02*
X88400000Y-84810000D01*
X87020000Y-86190000D02*
X87020000Y-84810000D01*
X87020000Y-87460000D02*
X87020000Y-95190000D01*
X87020000Y-87460000D02*
X89780000Y-87460000D01*
X87020000Y-95190000D02*
X89780000Y-95190000D01*
X89780000Y-87460000D02*
X89780000Y-95190000D01*
%TO.C,SW1*%
X98400000Y-73550000D02*
X94200000Y-73550000D01*
X98400000Y-73160000D02*
X98400000Y-73550000D01*
X98400000Y-70640000D02*
X98400000Y-70250000D01*
X98400000Y-70250000D02*
X94200000Y-70250000D01*
X94200000Y-73550000D02*
X94200000Y-73160000D01*
X94200000Y-70250000D02*
X94200000Y-70640000D01*
%TO.C,R1*%
X89820000Y-68753641D02*
X89820000Y-68446359D01*
X90580000Y-68753641D02*
X90580000Y-68446359D01*
%TO.C,C10*%
X96590000Y-78707836D02*
X96590000Y-78492164D01*
X97310000Y-78707836D02*
X97310000Y-78492164D01*
%TO.C,U1*%
X103390000Y-77390000D02*
X103390000Y-78340000D01*
X103390000Y-87610000D02*
X103390000Y-86660000D01*
X104340000Y-77390000D02*
X103390000Y-77390000D01*
X104340000Y-87610000D02*
X103390000Y-87610000D01*
X112660000Y-77390000D02*
X113610000Y-77390000D01*
X112660000Y-87610000D02*
X113610000Y-87610000D01*
X113610000Y-77390000D02*
X113610000Y-78340000D01*
X113610000Y-87610000D02*
X113610000Y-86660000D01*
X102775000Y-78340000D02*
X102435000Y-77870000D01*
X103115000Y-77870000D01*
X102775000Y-78340000D01*
G36*
X102775000Y-78340000D02*
G01*
X102435000Y-77870000D01*
X103115000Y-77870000D01*
X102775000Y-78340000D01*
G37*
%TD*%
M02*
