%TF.GenerationSoftware,KiCad,Pcbnew,9.0.7-9.0.7~ubuntu24.04.1*%
%TF.CreationDate,2026-02-22T00:04:22-08:00*%
%TF.ProjectId,Tiny_Thinker,54696e79-5f54-4686-996e-6b65722e6b69,rev?*%
%TF.SameCoordinates,Original*%
%TF.FileFunction,Soldermask,Top*%
%TF.FilePolarity,Negative*%
%FSLAX46Y46*%
G04 Gerber Fmt 4.6, Leading zero omitted, Abs format (unit mm)*
G04 Created by KiCad (PCBNEW 9.0.7-9.0.7~ubuntu24.04.1) date 2026-02-22 00:04:22*
%MOMM*%
%LPD*%
G01*
G04 APERTURE LIST*
G04 Aperture macros list*
%AMRoundRect*
0 Rectangle with rounded corners*
0 $1 Rounding radius*
0 $2 $3 $4 $5 $6 $7 $8 $9 X,Y pos of 4 corners*
0 Add a 4 corners polygon primitive as box body*
4,1,4,$2,$3,$4,$5,$6,$7,$8,$9,$2,$3,0*
0 Add four circle primitives for the rounded corners*
1,1,$1+$1,$2,$3*
1,1,$1+$1,$4,$5*
1,1,$1+$1,$6,$7*
1,1,$1+$1,$8,$9*
0 Add four rect primitives between the rounded corners*
20,1,$1+$1,$2,$3,$4,$5,0*
20,1,$1+$1,$4,$5,$6,$7,0*
20,1,$1+$1,$6,$7,$8,$9,0*
20,1,$1+$1,$8,$9,$2,$3,0*%
G04 Aperture macros list end*
%ADD10C,2.200000*%
%ADD11RoundRect,0.140000X0.140000X0.170000X-0.140000X0.170000X-0.140000X-0.170000X0.140000X-0.170000X0*%
%ADD12RoundRect,0.225000X-0.225000X-0.250000X0.225000X-0.250000X0.225000X0.250000X-0.225000X0.250000X0*%
%ADD13RoundRect,0.218750X-0.218750X-0.256250X0.218750X-0.256250X0.218750X0.256250X-0.218750X0.256250X0*%
%ADD14RoundRect,0.150000X0.512500X0.150000X-0.512500X0.150000X-0.512500X-0.150000X0.512500X-0.150000X0*%
%ADD15RoundRect,0.135000X0.135000X0.185000X-0.135000X0.185000X-0.135000X-0.185000X0.135000X-0.185000X0*%
%ADD16R,1.700000X1.700000*%
%ADD17C,1.700000*%
%ADD18RoundRect,0.250000X-0.350000X0.450000X-0.350000X-0.450000X0.350000X-0.450000X0.350000X0.450000X0*%
%ADD19RoundRect,0.140000X-0.170000X0.140000X-0.170000X-0.140000X0.170000X-0.140000X0.170000X0.140000X0*%
%ADD20RoundRect,0.140000X-0.140000X-0.170000X0.140000X-0.170000X0.140000X0.170000X-0.140000X0.170000X0*%
%ADD21RoundRect,0.250000X-0.750000X0.275000X-0.750000X-0.275000X0.750000X-0.275000X0.750000X0.275000X0*%
%ADD22RoundRect,0.135000X-0.135000X-0.185000X0.135000X-0.185000X0.135000X0.185000X-0.135000X0.185000X0*%
%ADD23RoundRect,0.218750X-0.256250X0.218750X-0.256250X-0.218750X0.256250X-0.218750X0.256250X0.218750X0*%
%ADD24RoundRect,0.140000X0.170000X-0.140000X0.170000X0.140000X-0.170000X0.140000X-0.170000X-0.140000X0*%
%ADD25RoundRect,0.200000X0.200000X0.275000X-0.200000X0.275000X-0.200000X-0.275000X0.200000X-0.275000X0*%
%ADD26RoundRect,0.250000X-0.250000X-0.475000X0.250000X-0.475000X0.250000X0.475000X-0.250000X0.475000X0*%
%ADD27RoundRect,0.075000X-0.700000X-0.075000X0.700000X-0.075000X0.700000X0.075000X-0.700000X0.075000X0*%
%ADD28RoundRect,0.075000X-0.075000X-0.700000X0.075000X-0.700000X0.075000X0.700000X-0.075000X0.700000X0*%
%ADD29RoundRect,0.375000X-0.375000X0.625000X-0.375000X-0.625000X0.375000X-0.625000X0.375000X0.625000X0*%
%ADD30RoundRect,0.500000X-1.400000X0.500000X-1.400000X-0.500000X1.400000X-0.500000X1.400000X0.500000X0*%
%ADD31R,0.800000X1.000000*%
%ADD32C,0.900000*%
%ADD33R,1.500000X0.700000*%
%ADD34C,0.650000*%
%ADD35RoundRect,0.150000X0.425000X-0.150000X0.425000X0.150000X-0.425000X0.150000X-0.425000X-0.150000X0*%
%ADD36RoundRect,0.075000X0.500000X-0.075000X0.500000X0.075000X-0.500000X0.075000X-0.500000X-0.075000X0*%
%ADD37O,2.100000X1.000000*%
%ADD38O,1.800000X1.000000*%
%ADD39RoundRect,0.225000X0.250000X-0.225000X0.250000X0.225000X-0.250000X0.225000X-0.250000X-0.225000X0*%
%ADD40RoundRect,0.050000X0.285000X0.100000X-0.285000X0.100000X-0.285000X-0.100000X0.285000X-0.100000X0*%
%ADD41RoundRect,0.250000X0.475000X-0.250000X0.475000X0.250000X-0.475000X0.250000X-0.475000X-0.250000X0*%
%ADD42RoundRect,0.225000X-0.250000X0.225000X-0.250000X-0.225000X0.250000X-0.225000X0.250000X0.225000X0*%
%ADD43RoundRect,0.135000X0.185000X-0.135000X0.185000X0.135000X-0.185000X0.135000X-0.185000X-0.135000X0*%
G04 APERTURE END LIST*
D10*
%TO.C,H1*%
X98424980Y-73710000D03*
%TD*%
D11*
%TO.C,C11*%
X124107500Y-104950000D03*
X123147500Y-104950000D03*
%TD*%
D12*
%TO.C,C16*%
X155350000Y-109205000D03*
X156900000Y-109205000D03*
%TD*%
D13*
%TO.C,D3*%
X112446250Y-104660000D03*
X114021250Y-104660000D03*
%TD*%
D11*
%TO.C,C2*%
X134230000Y-108500000D03*
X133270000Y-108500000D03*
%TD*%
D14*
%TO.C,D2*%
X151000000Y-100200000D03*
X151000000Y-99250000D03*
X151000000Y-98300000D03*
X148725000Y-98300000D03*
X148725000Y-99250000D03*
X148725000Y-100200000D03*
%TD*%
D15*
%TO.C,R3*%
X148955000Y-103150000D03*
X147935000Y-103150000D03*
%TD*%
D16*
%TO.C,J2*%
X151575000Y-74685000D03*
D17*
X151575000Y-77225000D03*
X149035000Y-74685000D03*
X149035000Y-77225000D03*
X146495000Y-74685000D03*
X146495000Y-77225000D03*
X143955000Y-74685000D03*
X143955000Y-77225000D03*
X141415000Y-74685000D03*
X141415000Y-77225000D03*
X138875000Y-74685000D03*
X138875000Y-77225000D03*
X136335000Y-74685000D03*
X136335000Y-77225000D03*
X133795000Y-74685000D03*
X133795000Y-77225000D03*
X131255000Y-74685000D03*
X131255000Y-77225000D03*
X128715000Y-74685000D03*
X128715000Y-77225000D03*
X126175000Y-74685000D03*
X126175000Y-77225000D03*
X123635000Y-74685000D03*
X123635000Y-77225000D03*
X121095000Y-74685000D03*
X121095000Y-77225000D03*
X118555000Y-74685000D03*
X118555000Y-77225000D03*
X116015000Y-74685000D03*
X116015000Y-77225000D03*
X113475000Y-74685000D03*
X113475000Y-77225000D03*
X110935000Y-74685000D03*
X110935000Y-77225000D03*
X108395000Y-74685000D03*
X108395000Y-77225000D03*
X105855000Y-74685000D03*
X105855000Y-77225000D03*
X103315000Y-74685000D03*
X103315000Y-77225000D03*
%TD*%
D18*
%TO.C,Y1*%
X123575000Y-97250000D03*
X123575000Y-99450000D03*
X125275000Y-99450000D03*
X125275000Y-97250000D03*
%TD*%
D19*
%TO.C,C8*%
X139250000Y-108520000D03*
X139250000Y-109480000D03*
%TD*%
D20*
%TO.C,C3*%
X132240000Y-93750000D03*
X133200000Y-93750000D03*
%TD*%
D11*
%TO.C,C10*%
X124070000Y-103350000D03*
X123110000Y-103350000D03*
%TD*%
D15*
%TO.C,R7*%
X156320000Y-105900000D03*
X155300000Y-105900000D03*
%TD*%
D21*
%TO.C,SW1*%
X97750000Y-107687500D03*
X97750000Y-112137500D03*
%TD*%
D22*
%TO.C,R4*%
X147935000Y-102000000D03*
X148955000Y-102000000D03*
%TD*%
D23*
%TO.C,FB1*%
X125520000Y-103345000D03*
X125520000Y-104920000D03*
%TD*%
D10*
%TO.C,H4*%
X157425000Y-73735000D03*
%TD*%
D12*
%TO.C,C20*%
X150775000Y-112000000D03*
X152325000Y-112000000D03*
%TD*%
D24*
%TO.C,C5*%
X129500000Y-97357000D03*
X129500000Y-96397000D03*
%TD*%
D10*
%TO.C,H3*%
X157425000Y-130740000D03*
%TD*%
D13*
%TO.C,D1*%
X112350000Y-100500000D03*
X113925000Y-100500000D03*
%TD*%
D16*
%TO.C,J3*%
X151575000Y-127225000D03*
D17*
X151575000Y-129765000D03*
X149035000Y-127225000D03*
X149035000Y-129765000D03*
X146495000Y-127225000D03*
X146495000Y-129765000D03*
X143955000Y-127225000D03*
X143955000Y-129765000D03*
X141415000Y-127225000D03*
X141415000Y-129765000D03*
X138875000Y-127225000D03*
X138875000Y-129765000D03*
X136335000Y-127225000D03*
X136335000Y-129765000D03*
X133795000Y-127225000D03*
X133795000Y-129765000D03*
X131255000Y-127225000D03*
X131255000Y-129765000D03*
X128715000Y-127225000D03*
X128715000Y-129765000D03*
X126175000Y-127225000D03*
X126175000Y-129765000D03*
X123635000Y-127225000D03*
X123635000Y-129765000D03*
X121095000Y-127225000D03*
X121095000Y-129765000D03*
X118555000Y-127225000D03*
X118555000Y-129765000D03*
X116015000Y-127225000D03*
X116015000Y-129765000D03*
X113475000Y-127225000D03*
X113475000Y-129765000D03*
X110935000Y-127225000D03*
X110935000Y-129765000D03*
X108395000Y-127225000D03*
X108395000Y-129765000D03*
X105855000Y-127225000D03*
X105855000Y-129765000D03*
X103315000Y-127225000D03*
X103315000Y-129765000D03*
%TD*%
D12*
%TO.C,C17*%
X155375000Y-107455000D03*
X156925000Y-107455000D03*
%TD*%
D24*
%TO.C,C14*%
X126955000Y-97750000D03*
X126955000Y-96790000D03*
%TD*%
D25*
%TO.C,R9*%
X151000000Y-107150000D03*
X149350000Y-107150000D03*
%TD*%
D26*
%TO.C,C12*%
X150850000Y-113850000D03*
X152750000Y-113850000D03*
%TD*%
D15*
%TO.C,R6*%
X155000000Y-93300000D03*
X153980000Y-93300000D03*
%TD*%
D27*
%TO.C,U1*%
X131075000Y-97500000D03*
X131075000Y-98000000D03*
X131075000Y-98500000D03*
X131075000Y-99000000D03*
X131075000Y-99500000D03*
X131075000Y-100000000D03*
X131075000Y-100500000D03*
X131075000Y-101000000D03*
X131075000Y-101500000D03*
X131075000Y-102000000D03*
X131075000Y-102500000D03*
X131075000Y-103000000D03*
X131075000Y-103500000D03*
X131075000Y-104000000D03*
X131075000Y-104500000D03*
X131075000Y-105000000D03*
D28*
X133000000Y-106925000D03*
X133500000Y-106925000D03*
X134000000Y-106925000D03*
X134500000Y-106925000D03*
X135000000Y-106925000D03*
X135500000Y-106925000D03*
X136000000Y-106925000D03*
X136500000Y-106925000D03*
X137000000Y-106925000D03*
X137500000Y-106925000D03*
X138000000Y-106925000D03*
X138500000Y-106925000D03*
X139000000Y-106925000D03*
X139500000Y-106925000D03*
X140000000Y-106925000D03*
X140500000Y-106925000D03*
D27*
X142425000Y-105000000D03*
X142425000Y-104500000D03*
X142425000Y-104000000D03*
X142425000Y-103500000D03*
X142425000Y-103000000D03*
X142425000Y-102500000D03*
X142425000Y-102000000D03*
X142425000Y-101500000D03*
X142425000Y-101000000D03*
X142425000Y-100500000D03*
X142425000Y-100000000D03*
X142425000Y-99500000D03*
X142425000Y-99000000D03*
X142425000Y-98500000D03*
X142425000Y-98000000D03*
X142425000Y-97500000D03*
D28*
X140500000Y-95575000D03*
X140000000Y-95575000D03*
X139500000Y-95575000D03*
X139000000Y-95575000D03*
X138500000Y-95575000D03*
X138000000Y-95575000D03*
X137500000Y-95575000D03*
X137000000Y-95575000D03*
X136500000Y-95575000D03*
X136000000Y-95575000D03*
X135500000Y-95575000D03*
X135000000Y-95575000D03*
X134500000Y-95575000D03*
X134000000Y-95575000D03*
X133500000Y-95575000D03*
X133000000Y-95575000D03*
%TD*%
D29*
%TO.C,U2*%
X154350000Y-116450000D03*
X152050000Y-116450000D03*
D30*
X152050000Y-122750000D03*
D29*
X149750000Y-116450000D03*
%TD*%
D31*
%TO.C,SW2*%
X97610000Y-92600000D03*
X95400000Y-92600000D03*
D32*
X96500000Y-94750000D03*
X96500000Y-97750000D03*
D31*
X97610000Y-99900000D03*
X95400000Y-99900000D03*
D33*
X98260000Y-94000000D03*
X98260000Y-97000000D03*
X98260000Y-98500000D03*
%TD*%
D10*
%TO.C,H2*%
X98425000Y-130711320D03*
%TD*%
D34*
%TO.C,J8*%
X155145000Y-102640000D03*
X155145000Y-96860000D03*
D35*
X154070000Y-102950000D03*
X154070000Y-102150000D03*
D36*
X154070000Y-101000000D03*
X154070000Y-100000000D03*
X154070000Y-99500000D03*
X154070000Y-98500000D03*
D35*
X154070000Y-97350000D03*
X154070000Y-96550000D03*
X154070000Y-96550000D03*
X154070000Y-97350000D03*
D36*
X154070000Y-98000000D03*
X154070000Y-99000000D03*
X154070000Y-100500000D03*
X154070000Y-101500000D03*
D35*
X154070000Y-102150000D03*
X154070000Y-102950000D03*
D37*
X154645000Y-104070000D03*
D38*
X158825000Y-104070000D03*
D37*
X154645000Y-95430000D03*
D38*
X158825000Y-95430000D03*
%TD*%
D22*
%TO.C,R1*%
X100070000Y-97000000D03*
X101090000Y-97000000D03*
%TD*%
D39*
%TO.C,C19*%
X147850000Y-109325000D03*
X147850000Y-107775000D03*
%TD*%
D40*
%TO.C,U3*%
X150800000Y-110400000D03*
X150800000Y-109900000D03*
X150800000Y-109400000D03*
X150800000Y-108900000D03*
X149320000Y-108900000D03*
X149320000Y-109400000D03*
X149320000Y-109900000D03*
X149320000Y-110400000D03*
%TD*%
D25*
%TO.C,R10*%
X149325000Y-105450000D03*
X147675000Y-105450000D03*
%TD*%
D11*
%TO.C,C7*%
X130180000Y-95200000D03*
X129220000Y-95200000D03*
%TD*%
%TO.C,C1*%
X141230000Y-108500000D03*
X140270000Y-108500000D03*
%TD*%
D15*
%TO.C,R2*%
X110897500Y-100500000D03*
X109877500Y-100500000D03*
%TD*%
D12*
%TO.C,C6*%
X131945000Y-92250000D03*
X133495000Y-92250000D03*
%TD*%
D41*
%TO.C,C13*%
X157300000Y-120300000D03*
X157300000Y-118400000D03*
%TD*%
D42*
%TO.C,C18*%
X152350000Y-108725000D03*
X152350000Y-110275000D03*
%TD*%
D19*
%TO.C,C4*%
X144250000Y-97270000D03*
X144250000Y-98230000D03*
%TD*%
D15*
%TO.C,R8*%
X110963750Y-104650000D03*
X109943750Y-104650000D03*
%TD*%
D43*
%TO.C,R5*%
X153875000Y-108860000D03*
X153875000Y-107840000D03*
%TD*%
D24*
%TO.C,C9*%
X129250000Y-103480000D03*
X129250000Y-102520000D03*
%TD*%
%TO.C,C15*%
X126955000Y-100000000D03*
X126955000Y-99040000D03*
%TD*%
M02*
