%TF.GenerationSoftware,KiCad,Pcbnew,9.0.7-9.0.7~ubuntu22.04.1*%
%TF.CreationDate,2026-02-16T18:16:31-08:00*%
%TF.ProjectId,Tiny_Thinker,54696e79-5f54-4686-996e-6b65722e6b69,rev?*%
%TF.SameCoordinates,Original*%
%TF.FileFunction,Legend,Bot*%
%TF.FilePolarity,Positive*%
%FSLAX46Y46*%
G04 Gerber Fmt 4.6, Leading zero omitted, Abs format (unit mm)*
G04 Created by KiCad (PCBNEW 9.0.7-9.0.7~ubuntu22.04.1) date 2026-02-16 18:16:31*
%MOMM*%
%LPD*%
G01*
G04 APERTURE LIST*
%ADD10C,0.300000*%
G04 APERTURE END LIST*
D10*
X127159774Y-117800828D02*
X127016917Y-117800828D01*
X127016917Y-117800828D02*
X126874060Y-117872257D01*
X126874060Y-117872257D02*
X126802632Y-117943685D01*
X126802632Y-117943685D02*
X126731203Y-118086542D01*
X126731203Y-118086542D02*
X126659774Y-118372257D01*
X126659774Y-118372257D02*
X126659774Y-118729400D01*
X126659774Y-118729400D02*
X126731203Y-119015114D01*
X126731203Y-119015114D02*
X126802632Y-119157971D01*
X126802632Y-119157971D02*
X126874060Y-119229400D01*
X126874060Y-119229400D02*
X127016917Y-119300828D01*
X127016917Y-119300828D02*
X127159774Y-119300828D01*
X127159774Y-119300828D02*
X127302632Y-119229400D01*
X127302632Y-119229400D02*
X127374060Y-119157971D01*
X127374060Y-119157971D02*
X127445489Y-119015114D01*
X127445489Y-119015114D02*
X127516917Y-118729400D01*
X127516917Y-118729400D02*
X127516917Y-118372257D01*
X127516917Y-118372257D02*
X127445489Y-118086542D01*
X127445489Y-118086542D02*
X127374060Y-117943685D01*
X127374060Y-117943685D02*
X127302632Y-117872257D01*
X127302632Y-117872257D02*
X127159774Y-117800828D01*
X126088346Y-117943685D02*
X126016918Y-117872257D01*
X126016918Y-117872257D02*
X125874061Y-117800828D01*
X125874061Y-117800828D02*
X125516918Y-117800828D01*
X125516918Y-117800828D02*
X125374061Y-117872257D01*
X125374061Y-117872257D02*
X125302632Y-117943685D01*
X125302632Y-117943685D02*
X125231203Y-118086542D01*
X125231203Y-118086542D02*
X125231203Y-118229400D01*
X125231203Y-118229400D02*
X125302632Y-118443685D01*
X125302632Y-118443685D02*
X126159775Y-119300828D01*
X126159775Y-119300828D02*
X125231203Y-119300828D01*
X123516918Y-117729400D02*
X124802632Y-119657971D01*
X123088346Y-117943685D02*
X123016918Y-117872257D01*
X123016918Y-117872257D02*
X122874061Y-117800828D01*
X122874061Y-117800828D02*
X122516918Y-117800828D01*
X122516918Y-117800828D02*
X122374061Y-117872257D01*
X122374061Y-117872257D02*
X122302632Y-117943685D01*
X122302632Y-117943685D02*
X122231203Y-118086542D01*
X122231203Y-118086542D02*
X122231203Y-118229400D01*
X122231203Y-118229400D02*
X122302632Y-118443685D01*
X122302632Y-118443685D02*
X123159775Y-119300828D01*
X123159775Y-119300828D02*
X122231203Y-119300828D01*
X121302632Y-117800828D02*
X121159775Y-117800828D01*
X121159775Y-117800828D02*
X121016918Y-117872257D01*
X121016918Y-117872257D02*
X120945490Y-117943685D01*
X120945490Y-117943685D02*
X120874061Y-118086542D01*
X120874061Y-118086542D02*
X120802632Y-118372257D01*
X120802632Y-118372257D02*
X120802632Y-118729400D01*
X120802632Y-118729400D02*
X120874061Y-119015114D01*
X120874061Y-119015114D02*
X120945490Y-119157971D01*
X120945490Y-119157971D02*
X121016918Y-119229400D01*
X121016918Y-119229400D02*
X121159775Y-119300828D01*
X121159775Y-119300828D02*
X121302632Y-119300828D01*
X121302632Y-119300828D02*
X121445490Y-119229400D01*
X121445490Y-119229400D02*
X121516918Y-119157971D01*
X121516918Y-119157971D02*
X121588347Y-119015114D01*
X121588347Y-119015114D02*
X121659775Y-118729400D01*
X121659775Y-118729400D02*
X121659775Y-118372257D01*
X121659775Y-118372257D02*
X121588347Y-118086542D01*
X121588347Y-118086542D02*
X121516918Y-117943685D01*
X121516918Y-117943685D02*
X121445490Y-117872257D01*
X121445490Y-117872257D02*
X121302632Y-117800828D01*
X120231204Y-117943685D02*
X120159776Y-117872257D01*
X120159776Y-117872257D02*
X120016919Y-117800828D01*
X120016919Y-117800828D02*
X119659776Y-117800828D01*
X119659776Y-117800828D02*
X119516919Y-117872257D01*
X119516919Y-117872257D02*
X119445490Y-117943685D01*
X119445490Y-117943685D02*
X119374061Y-118086542D01*
X119374061Y-118086542D02*
X119374061Y-118229400D01*
X119374061Y-118229400D02*
X119445490Y-118443685D01*
X119445490Y-118443685D02*
X120302633Y-119300828D01*
X120302633Y-119300828D02*
X119374061Y-119300828D01*
X118088348Y-117800828D02*
X118374062Y-117800828D01*
X118374062Y-117800828D02*
X118516919Y-117872257D01*
X118516919Y-117872257D02*
X118588348Y-117943685D01*
X118588348Y-117943685D02*
X118731205Y-118157971D01*
X118731205Y-118157971D02*
X118802633Y-118443685D01*
X118802633Y-118443685D02*
X118802633Y-119015114D01*
X118802633Y-119015114D02*
X118731205Y-119157971D01*
X118731205Y-119157971D02*
X118659776Y-119229400D01*
X118659776Y-119229400D02*
X118516919Y-119300828D01*
X118516919Y-119300828D02*
X118231205Y-119300828D01*
X118231205Y-119300828D02*
X118088348Y-119229400D01*
X118088348Y-119229400D02*
X118016919Y-119157971D01*
X118016919Y-119157971D02*
X117945490Y-119015114D01*
X117945490Y-119015114D02*
X117945490Y-118657971D01*
X117945490Y-118657971D02*
X118016919Y-118515114D01*
X118016919Y-118515114D02*
X118088348Y-118443685D01*
X118088348Y-118443685D02*
X118231205Y-118372257D01*
X118231205Y-118372257D02*
X118516919Y-118372257D01*
X118516919Y-118372257D02*
X118659776Y-118443685D01*
X118659776Y-118443685D02*
X118731205Y-118515114D01*
X118731205Y-118515114D02*
X118802633Y-118657971D01*
X126588346Y-116300828D02*
X127088346Y-115586542D01*
X127445489Y-116300828D02*
X127445489Y-114800828D01*
X127445489Y-114800828D02*
X126874060Y-114800828D01*
X126874060Y-114800828D02*
X126731203Y-114872257D01*
X126731203Y-114872257D02*
X126659774Y-114943685D01*
X126659774Y-114943685D02*
X126588346Y-115086542D01*
X126588346Y-115086542D02*
X126588346Y-115300828D01*
X126588346Y-115300828D02*
X126659774Y-115443685D01*
X126659774Y-115443685D02*
X126731203Y-115515114D01*
X126731203Y-115515114D02*
X126874060Y-115586542D01*
X126874060Y-115586542D02*
X127445489Y-115586542D01*
X125374060Y-116229400D02*
X125516917Y-116300828D01*
X125516917Y-116300828D02*
X125802632Y-116300828D01*
X125802632Y-116300828D02*
X125945489Y-116229400D01*
X125945489Y-116229400D02*
X126016917Y-116086542D01*
X126016917Y-116086542D02*
X126016917Y-115515114D01*
X126016917Y-115515114D02*
X125945489Y-115372257D01*
X125945489Y-115372257D02*
X125802632Y-115300828D01*
X125802632Y-115300828D02*
X125516917Y-115300828D01*
X125516917Y-115300828D02*
X125374060Y-115372257D01*
X125374060Y-115372257D02*
X125302632Y-115515114D01*
X125302632Y-115515114D02*
X125302632Y-115657971D01*
X125302632Y-115657971D02*
X126016917Y-115800828D01*
X124802632Y-115300828D02*
X124445489Y-116300828D01*
X124445489Y-116300828D02*
X124088346Y-115300828D01*
X121588346Y-116300828D02*
X122445489Y-116300828D01*
X122016918Y-116300828D02*
X122016918Y-114800828D01*
X122016918Y-114800828D02*
X122159775Y-115015114D01*
X122159775Y-115015114D02*
X122302632Y-115157971D01*
X122302632Y-115157971D02*
X122445489Y-115229400D01*
X120945490Y-116157971D02*
X120874061Y-116229400D01*
X120874061Y-116229400D02*
X120945490Y-116300828D01*
X120945490Y-116300828D02*
X121016918Y-116229400D01*
X121016918Y-116229400D02*
X120945490Y-116157971D01*
X120945490Y-116157971D02*
X120945490Y-116300828D01*
X119945489Y-114800828D02*
X119802632Y-114800828D01*
X119802632Y-114800828D02*
X119659775Y-114872257D01*
X119659775Y-114872257D02*
X119588347Y-114943685D01*
X119588347Y-114943685D02*
X119516918Y-115086542D01*
X119516918Y-115086542D02*
X119445489Y-115372257D01*
X119445489Y-115372257D02*
X119445489Y-115729400D01*
X119445489Y-115729400D02*
X119516918Y-116015114D01*
X119516918Y-116015114D02*
X119588347Y-116157971D01*
X119588347Y-116157971D02*
X119659775Y-116229400D01*
X119659775Y-116229400D02*
X119802632Y-116300828D01*
X119802632Y-116300828D02*
X119945489Y-116300828D01*
X119945489Y-116300828D02*
X120088347Y-116229400D01*
X120088347Y-116229400D02*
X120159775Y-116157971D01*
X120159775Y-116157971D02*
X120231204Y-116015114D01*
X120231204Y-116015114D02*
X120302632Y-115729400D01*
X120302632Y-115729400D02*
X120302632Y-115372257D01*
X120302632Y-115372257D02*
X120231204Y-115086542D01*
X120231204Y-115086542D02*
X120159775Y-114943685D01*
X120159775Y-114943685D02*
X120088347Y-114872257D01*
X120088347Y-114872257D02*
X119945489Y-114800828D01*
M02*
