%TF.GenerationSoftware,KiCad,Pcbnew,9.0.4-9.0.4-0~ubuntu22.04.1*%
%TF.CreationDate,2025-09-25T00:01:37-07:00*%
%TF.ProjectId,Tiny_Thinker,54696e79-5f54-4686-996e-6b65722e6b69,rev?*%
%TF.SameCoordinates,Original*%
%TF.FileFunction,Copper,L2,Bot*%
%TF.FilePolarity,Positive*%
%FSLAX46Y46*%
G04 Gerber Fmt 4.6, Leading zero omitted, Abs format (unit mm)*
G04 Created by KiCad (PCBNEW 9.0.4-9.0.4-0~ubuntu22.04.1) date 2025-09-25 00:01:37*
%MOMM*%
%LPD*%
G01*
G04 APERTURE LIST*
%TA.AperFunction,HeatsinkPad*%
%ADD10O,1.550000X0.890000*%
%TD*%
%TA.AperFunction,HeatsinkPad*%
%ADD11O,0.950000X1.250000*%
%TD*%
%TA.AperFunction,ComponentPad*%
%ADD12R,1.700000X1.700000*%
%TD*%
%TA.AperFunction,ComponentPad*%
%ADD13C,1.700000*%
%TD*%
%TA.AperFunction,ViaPad*%
%ADD14C,0.700000*%
%TD*%
%TA.AperFunction,Conductor*%
%ADD15C,0.300000*%
%TD*%
%TA.AperFunction,Conductor*%
%ADD16C,0.500000*%
%TD*%
G04 APERTURE END LIST*
D10*
%TO.P,J1,6,Shield*%
%TO.N,unconnected-(J1-Shield-Pad6)_4*%
X128300000Y-76700000D03*
D11*
%TO.N,unconnected-(J1-Shield-Pad6)_1*%
X125600000Y-77700000D03*
%TO.N,unconnected-(J1-Shield-Pad6)_6*%
X125600000Y-82700000D03*
D10*
%TO.N,unconnected-(J1-Shield-Pad6)_2*%
X128300000Y-83700000D03*
%TD*%
D12*
%TO.P,J5,1,Pin_1*%
%TO.N,GND*%
X113550000Y-97000000D03*
D13*
%TO.P,J5,2,Pin_2*%
%TO.N,/SPI1_MOSI*%
X111010000Y-97000000D03*
%TO.P,J5,3,Pin_3*%
%TO.N,/SPI1_MISO*%
X108470000Y-97000000D03*
%TO.P,J5,4,Pin_4*%
%TO.N,/SPI1_SCK*%
X105930000Y-97000000D03*
%TO.P,J5,5,Pin_5*%
%TO.N,/SPI1_NSS*%
X103390000Y-97000000D03*
%TO.P,J5,6,Pin_6*%
%TO.N,+3.3V*%
X100850000Y-97000000D03*
%TD*%
D12*
%TO.P,J7,1,Pin_1*%
%TO.N,/ADC_1*%
X88400000Y-77725000D03*
D13*
%TO.P,J7,2,Pin_2*%
%TO.N,/ADC_2*%
X88400000Y-80265000D03*
%TD*%
%TO.P,J3,4,Pin_4*%
%TO.N,GND*%
X109790000Y-64800000D03*
%TO.P,J3,3,Pin_3*%
%TO.N,/I2C1_SDA*%
X112330000Y-64800000D03*
%TO.P,J3,2,Pin_2*%
%TO.N,/I2C1_SCL*%
X114870000Y-64800000D03*
D12*
%TO.P,J3,1,Pin_1*%
%TO.N,+3.3V*%
X117410000Y-64800000D03*
%TD*%
%TO.P,J2,1,Pin_1*%
%TO.N,+3.3V*%
X122000000Y-77310000D03*
D13*
%TO.P,J2,2,Pin_2*%
%TO.N,/SWDIO*%
X122000000Y-74770000D03*
%TO.P,J2,3,Pin_3*%
%TO.N,/SWCLK*%
X122000000Y-72230000D03*
%TO.P,J2,4,Pin_4*%
%TO.N,GND*%
X122000000Y-69690000D03*
%TD*%
D12*
%TO.P,J4,1,Pin_1*%
%TO.N,+3.3V*%
X117410000Y-68600000D03*
D13*
%TO.P,J4,2,Pin_2*%
%TO.N,/I2C1_SCL*%
X114870000Y-68600000D03*
%TO.P,J4,3,Pin_3*%
%TO.N,/I2C1_SDA*%
X112330000Y-68600000D03*
%TO.P,J4,4,Pin_4*%
%TO.N,GND*%
X109790000Y-68600000D03*
%TD*%
D12*
%TO.P,J6,1,Pin_1*%
%TO.N,/PWM_1*%
X88400000Y-86190000D03*
D13*
%TO.P,J6,2,Pin_2*%
%TO.N,/PWM_2*%
X88400000Y-88730000D03*
%TO.P,J6,3,Pin_3*%
%TO.N,/PWM_3*%
X88400000Y-91270000D03*
%TO.P,J6,4,Pin_4*%
%TO.N,/PWM_4*%
X88400000Y-93810000D03*
%TD*%
D14*
%TO.N,GND*%
X124200000Y-78900000D03*
X99200000Y-84000000D03*
X97800000Y-80200000D03*
X96900000Y-77200000D03*
%TO.N,+3.3VA*%
X100665686Y-93365686D03*
X99584314Y-92184314D03*
%TO.N,GND*%
X98500000Y-89700000D03*
X98500000Y-88500000D03*
X92100000Y-80200000D03*
X95200000Y-77000000D03*
X106900000Y-72700000D03*
%TO.N,+3.3V*%
X93000000Y-68790000D03*
X93000000Y-67390000D03*
%TO.N,GND*%
X122900000Y-91200000D03*
X122000000Y-91200000D03*
X125300000Y-90000000D03*
X112700000Y-79000000D03*
X105800000Y-78300000D03*
X105258689Y-86612590D03*
X122300000Y-87600000D03*
X122300000Y-86600000D03*
X128600000Y-88200000D03*
X113600000Y-94200000D03*
X107300000Y-64800000D03*
X107500000Y-68600000D03*
X124400000Y-69690000D03*
X87900000Y-65700000D03*
X92700000Y-71900000D03*
X109400000Y-91800000D03*
X111750000Y-86400000D03*
X99900000Y-77720000D03*
%TD*%
D15*
%TO.N,+3.3VA*%
X99584314Y-92284314D02*
X100665686Y-93365686D01*
X99584314Y-92184314D02*
X99584314Y-92284314D01*
D16*
%TO.N,+3.3V*%
X93000000Y-68790000D02*
X93000000Y-67390000D01*
%TD*%
%TA.AperFunction,Conductor*%
%TO.N,GND*%
G36*
X126903736Y-57500726D02*
G01*
X127193796Y-57518271D01*
X127208659Y-57520076D01*
X127490798Y-57571780D01*
X127505335Y-57575363D01*
X127779172Y-57660695D01*
X127793163Y-57666000D01*
X128054743Y-57783727D01*
X128067989Y-57790680D01*
X128313465Y-57939075D01*
X128325776Y-57947573D01*
X128551573Y-58124473D01*
X128562781Y-58134403D01*
X128765596Y-58337218D01*
X128775526Y-58348426D01*
X128895481Y-58501538D01*
X128952422Y-58574217D01*
X128960926Y-58586537D01*
X129019091Y-58682753D01*
X129109316Y-58832004D01*
X129116275Y-58845263D01*
X129233997Y-59106831D01*
X129239306Y-59120832D01*
X129324635Y-59394663D01*
X129328219Y-59409201D01*
X129379923Y-59691340D01*
X129381728Y-59706205D01*
X129399274Y-59996263D01*
X129399500Y-60003750D01*
X129399500Y-76115841D01*
X129379815Y-76182880D01*
X129327011Y-76228635D01*
X129257853Y-76238579D01*
X129194297Y-76209554D01*
X129187819Y-76203522D01*
X129105231Y-76120934D01*
X129105227Y-76120931D01*
X128983133Y-76039350D01*
X128983124Y-76039345D01*
X128847454Y-75983149D01*
X128847446Y-75983147D01*
X128703429Y-75954500D01*
X128703425Y-75954500D01*
X127896575Y-75954500D01*
X127896570Y-75954500D01*
X127752553Y-75983147D01*
X127752545Y-75983149D01*
X127616875Y-76039345D01*
X127616866Y-76039350D01*
X127494772Y-76120931D01*
X127494768Y-76120934D01*
X127390934Y-76224768D01*
X127390931Y-76224772D01*
X127309350Y-76346866D01*
X127309345Y-76346875D01*
X127253149Y-76482545D01*
X127253147Y-76482553D01*
X127224500Y-76626570D01*
X127224500Y-76773429D01*
X127253147Y-76917446D01*
X127253149Y-76917454D01*
X127309345Y-77053124D01*
X127309350Y-77053133D01*
X127390931Y-77175227D01*
X127390934Y-77175231D01*
X127494768Y-77279065D01*
X127494772Y-77279068D01*
X127616866Y-77360649D01*
X127616872Y-77360652D01*
X127616873Y-77360653D01*
X127752546Y-77416851D01*
X127896570Y-77445499D01*
X127896574Y-77445500D01*
X127896575Y-77445500D01*
X128703426Y-77445500D01*
X128703427Y-77445499D01*
X128847454Y-77416851D01*
X128983127Y-77360653D01*
X129105228Y-77279068D01*
X129108983Y-77275313D01*
X129187819Y-77196478D01*
X129249142Y-77162993D01*
X129318834Y-77167977D01*
X129374767Y-77209849D01*
X129399184Y-77275313D01*
X129399500Y-77284159D01*
X129399500Y-83115841D01*
X129379815Y-83182880D01*
X129327011Y-83228635D01*
X129257853Y-83238579D01*
X129194297Y-83209554D01*
X129187819Y-83203522D01*
X129105231Y-83120934D01*
X129105227Y-83120931D01*
X128983133Y-83039350D01*
X128983124Y-83039345D01*
X128847454Y-82983149D01*
X128847446Y-82983147D01*
X128703429Y-82954500D01*
X128703425Y-82954500D01*
X127896575Y-82954500D01*
X127896570Y-82954500D01*
X127752553Y-82983147D01*
X127752545Y-82983149D01*
X127616875Y-83039345D01*
X127616866Y-83039350D01*
X127494772Y-83120931D01*
X127494768Y-83120934D01*
X127390934Y-83224768D01*
X127390931Y-83224772D01*
X127309350Y-83346866D01*
X127309345Y-83346875D01*
X127253149Y-83482545D01*
X127253147Y-83482553D01*
X127224500Y-83626570D01*
X127224500Y-83773429D01*
X127253147Y-83917446D01*
X127253149Y-83917454D01*
X127309345Y-84053124D01*
X127309350Y-84053133D01*
X127390931Y-84175227D01*
X127390934Y-84175231D01*
X127494768Y-84279065D01*
X127494772Y-84279068D01*
X127616866Y-84360649D01*
X127616872Y-84360652D01*
X127616873Y-84360653D01*
X127752546Y-84416851D01*
X127896570Y-84445499D01*
X127896574Y-84445500D01*
X127896575Y-84445500D01*
X128703426Y-84445500D01*
X128703427Y-84445499D01*
X128847454Y-84416851D01*
X128983127Y-84360653D01*
X129105228Y-84279068D01*
X129108983Y-84275313D01*
X129187819Y-84196478D01*
X129249142Y-84162993D01*
X129318834Y-84167977D01*
X129374767Y-84209849D01*
X129399184Y-84275313D01*
X129399500Y-84284159D01*
X129399500Y-99996249D01*
X129399274Y-100003736D01*
X129381728Y-100293794D01*
X129379923Y-100308659D01*
X129328219Y-100590798D01*
X129324635Y-100605336D01*
X129239306Y-100879167D01*
X129233997Y-100893168D01*
X129116275Y-101154736D01*
X129109316Y-101167995D01*
X128960928Y-101413459D01*
X128952422Y-101425782D01*
X128775526Y-101651573D01*
X128765596Y-101662781D01*
X128562781Y-101865596D01*
X128551573Y-101875526D01*
X128325782Y-102052422D01*
X128313459Y-102060928D01*
X128067995Y-102209316D01*
X128054736Y-102216275D01*
X127793168Y-102333997D01*
X127779167Y-102339306D01*
X127505336Y-102424635D01*
X127490798Y-102428219D01*
X127208659Y-102479923D01*
X127193794Y-102481728D01*
X126903736Y-102499274D01*
X126896249Y-102499500D01*
X85003751Y-102499500D01*
X84996264Y-102499274D01*
X84706205Y-102481728D01*
X84691340Y-102479923D01*
X84409201Y-102428219D01*
X84394663Y-102424635D01*
X84120832Y-102339306D01*
X84106831Y-102333997D01*
X83845263Y-102216275D01*
X83832004Y-102209316D01*
X83586540Y-102060928D01*
X83574217Y-102052422D01*
X83348426Y-101875526D01*
X83337218Y-101865596D01*
X83134403Y-101662781D01*
X83124473Y-101651573D01*
X82947573Y-101425776D01*
X82939075Y-101413465D01*
X82790680Y-101167989D01*
X82783727Y-101154743D01*
X82666000Y-100893163D01*
X82660693Y-100879167D01*
X82575364Y-100605336D01*
X82571780Y-100590798D01*
X82520076Y-100308659D01*
X82518271Y-100293794D01*
X82500726Y-100003736D01*
X82500500Y-99996249D01*
X82500500Y-99893713D01*
X83649500Y-99893713D01*
X83649500Y-100106286D01*
X83682753Y-100316239D01*
X83748444Y-100518414D01*
X83844951Y-100707820D01*
X83969890Y-100879786D01*
X84120213Y-101030109D01*
X84292179Y-101155048D01*
X84292181Y-101155049D01*
X84292184Y-101155051D01*
X84481588Y-101251557D01*
X84683757Y-101317246D01*
X84893713Y-101350500D01*
X84893714Y-101350500D01*
X85106286Y-101350500D01*
X85106287Y-101350500D01*
X85316243Y-101317246D01*
X85518412Y-101251557D01*
X85707816Y-101155051D01*
X85729789Y-101139086D01*
X85879786Y-101030109D01*
X85879788Y-101030106D01*
X85879792Y-101030104D01*
X86030104Y-100879792D01*
X86030106Y-100879788D01*
X86030109Y-100879786D01*
X86155048Y-100707820D01*
X86155047Y-100707820D01*
X86155051Y-100707816D01*
X86251557Y-100518412D01*
X86317246Y-100316243D01*
X86350500Y-100106287D01*
X86350500Y-99893713D01*
X125649500Y-99893713D01*
X125649500Y-100106286D01*
X125682753Y-100316239D01*
X125748444Y-100518414D01*
X125844951Y-100707820D01*
X125969890Y-100879786D01*
X126120213Y-101030109D01*
X126292179Y-101155048D01*
X126292181Y-101155049D01*
X126292184Y-101155051D01*
X126481588Y-101251557D01*
X126683757Y-101317246D01*
X126893713Y-101350500D01*
X126893714Y-101350500D01*
X127106286Y-101350500D01*
X127106287Y-101350500D01*
X127316243Y-101317246D01*
X127518412Y-101251557D01*
X127707816Y-101155051D01*
X127729789Y-101139086D01*
X127879786Y-101030109D01*
X127879788Y-101030106D01*
X127879792Y-101030104D01*
X128030104Y-100879792D01*
X128030106Y-100879788D01*
X128030109Y-100879786D01*
X128155048Y-100707820D01*
X128155047Y-100707820D01*
X128155051Y-100707816D01*
X128251557Y-100518412D01*
X128317246Y-100316243D01*
X128350500Y-100106287D01*
X128350500Y-99893713D01*
X128317246Y-99683757D01*
X128251557Y-99481588D01*
X128155051Y-99292184D01*
X128155049Y-99292181D01*
X128155048Y-99292179D01*
X128030109Y-99120213D01*
X127879786Y-98969890D01*
X127707820Y-98844951D01*
X127518414Y-98748444D01*
X127518413Y-98748443D01*
X127518412Y-98748443D01*
X127316243Y-98682754D01*
X127316241Y-98682753D01*
X127316240Y-98682753D01*
X127154957Y-98657208D01*
X127106287Y-98649500D01*
X126893713Y-98649500D01*
X126845042Y-98657208D01*
X126683760Y-98682753D01*
X126481585Y-98748444D01*
X126292179Y-98844951D01*
X126120213Y-98969890D01*
X125969890Y-99120213D01*
X125844951Y-99292179D01*
X125748444Y-99481585D01*
X125682753Y-99683760D01*
X125649500Y-99893713D01*
X86350500Y-99893713D01*
X86317246Y-99683757D01*
X86251557Y-99481588D01*
X86155051Y-99292184D01*
X86155049Y-99292181D01*
X86155048Y-99292179D01*
X86030109Y-99120213D01*
X85879786Y-98969890D01*
X85707820Y-98844951D01*
X85518414Y-98748444D01*
X85518413Y-98748443D01*
X85518412Y-98748443D01*
X85316243Y-98682754D01*
X85316241Y-98682753D01*
X85316240Y-98682753D01*
X85154957Y-98657208D01*
X85106287Y-98649500D01*
X84893713Y-98649500D01*
X84845042Y-98657208D01*
X84683760Y-98682753D01*
X84481585Y-98748444D01*
X84292179Y-98844951D01*
X84120213Y-98969890D01*
X83969890Y-99120213D01*
X83844951Y-99292179D01*
X83748444Y-99481585D01*
X83682753Y-99683760D01*
X83649500Y-99893713D01*
X82500500Y-99893713D01*
X82500500Y-96909448D01*
X99699500Y-96909448D01*
X99699500Y-97090551D01*
X99727829Y-97269410D01*
X99783787Y-97441636D01*
X99783788Y-97441639D01*
X99866006Y-97602997D01*
X99972441Y-97749494D01*
X99972445Y-97749499D01*
X100100500Y-97877554D01*
X100100505Y-97877558D01*
X100128427Y-97897844D01*
X100247006Y-97983996D01*
X100352484Y-98037740D01*
X100408360Y-98066211D01*
X100408363Y-98066212D01*
X100487997Y-98092086D01*
X100580591Y-98122171D01*
X100663429Y-98135291D01*
X100759449Y-98150500D01*
X100759454Y-98150500D01*
X100940551Y-98150500D01*
X101027259Y-98136765D01*
X101119409Y-98122171D01*
X101291639Y-98066211D01*
X101452994Y-97983996D01*
X101599501Y-97877553D01*
X101727553Y-97749501D01*
X101833996Y-97602994D01*
X101916211Y-97441639D01*
X101972171Y-97269409D01*
X101986422Y-97179425D01*
X101997527Y-97109321D01*
X102027456Y-97046186D01*
X102086768Y-97009255D01*
X102156630Y-97010253D01*
X102214863Y-97048863D01*
X102242473Y-97109321D01*
X102267829Y-97269410D01*
X102323787Y-97441636D01*
X102323788Y-97441639D01*
X102406006Y-97602997D01*
X102512441Y-97749494D01*
X102512445Y-97749499D01*
X102640500Y-97877554D01*
X102640505Y-97877558D01*
X102668427Y-97897844D01*
X102787006Y-97983996D01*
X102892484Y-98037740D01*
X102948360Y-98066211D01*
X102948363Y-98066212D01*
X103027997Y-98092086D01*
X103120591Y-98122171D01*
X103203429Y-98135291D01*
X103299449Y-98150500D01*
X103299454Y-98150500D01*
X103480551Y-98150500D01*
X103567259Y-98136765D01*
X103659409Y-98122171D01*
X103831639Y-98066211D01*
X103992994Y-97983996D01*
X104139501Y-97877553D01*
X104267553Y-97749501D01*
X104373996Y-97602994D01*
X104456211Y-97441639D01*
X104512171Y-97269409D01*
X104526422Y-97179425D01*
X104537527Y-97109321D01*
X104567456Y-97046186D01*
X104626768Y-97009255D01*
X104696630Y-97010253D01*
X104754863Y-97048863D01*
X104782473Y-97109321D01*
X104807829Y-97269410D01*
X104863787Y-97441636D01*
X104863788Y-97441639D01*
X104946006Y-97602997D01*
X105052441Y-97749494D01*
X105052445Y-97749499D01*
X105180500Y-97877554D01*
X105180505Y-97877558D01*
X105208427Y-97897844D01*
X105327006Y-97983996D01*
X105432484Y-98037740D01*
X105488360Y-98066211D01*
X105488363Y-98066212D01*
X105567997Y-98092086D01*
X105660591Y-98122171D01*
X105743429Y-98135291D01*
X105839449Y-98150500D01*
X105839454Y-98150500D01*
X106020551Y-98150500D01*
X106107259Y-98136765D01*
X106199409Y-98122171D01*
X106371639Y-98066211D01*
X106532994Y-97983996D01*
X106679501Y-97877553D01*
X106807553Y-97749501D01*
X106913996Y-97602994D01*
X106996211Y-97441639D01*
X107052171Y-97269409D01*
X107066422Y-97179425D01*
X107077527Y-97109321D01*
X107107456Y-97046186D01*
X107166768Y-97009255D01*
X107236630Y-97010253D01*
X107294863Y-97048863D01*
X107322473Y-97109321D01*
X107347829Y-97269410D01*
X107403787Y-97441636D01*
X107403788Y-97441639D01*
X107486006Y-97602997D01*
X107592441Y-97749494D01*
X107592445Y-97749499D01*
X107720500Y-97877554D01*
X107720505Y-97877558D01*
X107748427Y-97897844D01*
X107867006Y-97983996D01*
X107972484Y-98037740D01*
X108028360Y-98066211D01*
X108028363Y-98066212D01*
X108107997Y-98092086D01*
X108200591Y-98122171D01*
X108283429Y-98135291D01*
X108379449Y-98150500D01*
X108379454Y-98150500D01*
X108560551Y-98150500D01*
X108647259Y-98136765D01*
X108739409Y-98122171D01*
X108911639Y-98066211D01*
X109072994Y-97983996D01*
X109219501Y-97877553D01*
X109347553Y-97749501D01*
X109453996Y-97602994D01*
X109536211Y-97441639D01*
X109592171Y-97269409D01*
X109606422Y-97179425D01*
X109617527Y-97109321D01*
X109647456Y-97046186D01*
X109706768Y-97009255D01*
X109776630Y-97010253D01*
X109834863Y-97048863D01*
X109862473Y-97109321D01*
X109887829Y-97269410D01*
X109943787Y-97441636D01*
X109943788Y-97441639D01*
X110026006Y-97602997D01*
X110132441Y-97749494D01*
X110132445Y-97749499D01*
X110260500Y-97877554D01*
X110260505Y-97877558D01*
X110288427Y-97897844D01*
X110407006Y-97983996D01*
X110512484Y-98037740D01*
X110568360Y-98066211D01*
X110568363Y-98066212D01*
X110647997Y-98092086D01*
X110740591Y-98122171D01*
X110823429Y-98135291D01*
X110919449Y-98150500D01*
X110919454Y-98150500D01*
X111100551Y-98150500D01*
X111187259Y-98136765D01*
X111279409Y-98122171D01*
X111451639Y-98066211D01*
X111612994Y-97983996D01*
X111759501Y-97877553D01*
X111887553Y-97749501D01*
X111887555Y-97749497D01*
X111887558Y-97749495D01*
X111975682Y-97628202D01*
X112031011Y-97585536D01*
X112100625Y-97579557D01*
X112162420Y-97612162D01*
X112196777Y-97673001D01*
X112200000Y-97701087D01*
X112200000Y-97897844D01*
X112206401Y-97957372D01*
X112206403Y-97957379D01*
X112256645Y-98092086D01*
X112256649Y-98092093D01*
X112342809Y-98207187D01*
X112342812Y-98207190D01*
X112457906Y-98293350D01*
X112457913Y-98293354D01*
X112592620Y-98343596D01*
X112592627Y-98343598D01*
X112652155Y-98349999D01*
X112652172Y-98350000D01*
X113300000Y-98350000D01*
X113300000Y-97433012D01*
X113357007Y-97465925D01*
X113484174Y-97500000D01*
X113615826Y-97500000D01*
X113742993Y-97465925D01*
X113800000Y-97433012D01*
X113800000Y-98350000D01*
X114447828Y-98350000D01*
X114447844Y-98349999D01*
X114507372Y-98343598D01*
X114507379Y-98343596D01*
X114642086Y-98293354D01*
X114642093Y-98293350D01*
X114757187Y-98207190D01*
X114757190Y-98207187D01*
X114843350Y-98092093D01*
X114843354Y-98092086D01*
X114893596Y-97957379D01*
X114893598Y-97957372D01*
X114899999Y-97897844D01*
X114900000Y-97897827D01*
X114900000Y-97250000D01*
X113983012Y-97250000D01*
X114015925Y-97192993D01*
X114050000Y-97065826D01*
X114050000Y-96934174D01*
X114015925Y-96807007D01*
X113983012Y-96750000D01*
X114900000Y-96750000D01*
X114900000Y-96102172D01*
X114899999Y-96102155D01*
X114893598Y-96042627D01*
X114893596Y-96042620D01*
X114843354Y-95907913D01*
X114843350Y-95907906D01*
X114757190Y-95792812D01*
X114757187Y-95792809D01*
X114642093Y-95706649D01*
X114642086Y-95706645D01*
X114507379Y-95656403D01*
X114507372Y-95656401D01*
X114447844Y-95650000D01*
X113800000Y-95650000D01*
X113800000Y-96566988D01*
X113742993Y-96534075D01*
X113615826Y-96500000D01*
X113484174Y-96500000D01*
X113357007Y-96534075D01*
X113300000Y-96566988D01*
X113300000Y-95650000D01*
X112652155Y-95650000D01*
X112592627Y-95656401D01*
X112592620Y-95656403D01*
X112457913Y-95706645D01*
X112457906Y-95706649D01*
X112342812Y-95792809D01*
X112342809Y-95792812D01*
X112256649Y-95907906D01*
X112256645Y-95907913D01*
X112206403Y-96042620D01*
X112206401Y-96042627D01*
X112200000Y-96102155D01*
X112200000Y-96298912D01*
X112180315Y-96365951D01*
X112127511Y-96411706D01*
X112058353Y-96421650D01*
X111994797Y-96392625D01*
X111975682Y-96371797D01*
X111887558Y-96250505D01*
X111887554Y-96250500D01*
X111759499Y-96122445D01*
X111759494Y-96122441D01*
X111612997Y-96016006D01*
X111612996Y-96016005D01*
X111612994Y-96016004D01*
X111561300Y-95989664D01*
X111451639Y-95933788D01*
X111451636Y-95933787D01*
X111279410Y-95877829D01*
X111100551Y-95849500D01*
X111100546Y-95849500D01*
X110919454Y-95849500D01*
X110919449Y-95849500D01*
X110740589Y-95877829D01*
X110568363Y-95933787D01*
X110568360Y-95933788D01*
X110407002Y-96016006D01*
X110260505Y-96122441D01*
X110260500Y-96122445D01*
X110132445Y-96250500D01*
X110132441Y-96250505D01*
X110026006Y-96397002D01*
X109943788Y-96558360D01*
X109943787Y-96558363D01*
X109887829Y-96730589D01*
X109862473Y-96890678D01*
X109832544Y-96953813D01*
X109773232Y-96990744D01*
X109703369Y-96989746D01*
X109645137Y-96951136D01*
X109617527Y-96890678D01*
X109595245Y-96750000D01*
X109592171Y-96730591D01*
X109536211Y-96558361D01*
X109536211Y-96558360D01*
X109506474Y-96500000D01*
X109453996Y-96397006D01*
X109382727Y-96298912D01*
X109347558Y-96250505D01*
X109347554Y-96250500D01*
X109219499Y-96122445D01*
X109219494Y-96122441D01*
X109072997Y-96016006D01*
X109072996Y-96016005D01*
X109072994Y-96016004D01*
X109021300Y-95989664D01*
X108911639Y-95933788D01*
X108911636Y-95933787D01*
X108739410Y-95877829D01*
X108560551Y-95849500D01*
X108560546Y-95849500D01*
X108379454Y-95849500D01*
X108379449Y-95849500D01*
X108200589Y-95877829D01*
X108028363Y-95933787D01*
X108028360Y-95933788D01*
X107867002Y-96016006D01*
X107720505Y-96122441D01*
X107720500Y-96122445D01*
X107592445Y-96250500D01*
X107592441Y-96250505D01*
X107486006Y-96397002D01*
X107403788Y-96558360D01*
X107403787Y-96558363D01*
X107347829Y-96730589D01*
X107322473Y-96890678D01*
X107292544Y-96953813D01*
X107233232Y-96990744D01*
X107163369Y-96989746D01*
X107105137Y-96951136D01*
X107077527Y-96890678D01*
X107055245Y-96750000D01*
X107052171Y-96730591D01*
X106996211Y-96558361D01*
X106996211Y-96558360D01*
X106966474Y-96500000D01*
X106913996Y-96397006D01*
X106842727Y-96298912D01*
X106807558Y-96250505D01*
X106807554Y-96250500D01*
X106679499Y-96122445D01*
X106679494Y-96122441D01*
X106532997Y-96016006D01*
X106532996Y-96016005D01*
X106532994Y-96016004D01*
X106481300Y-95989664D01*
X106371639Y-95933788D01*
X106371636Y-95933787D01*
X106199410Y-95877829D01*
X106020551Y-95849500D01*
X106020546Y-95849500D01*
X105839454Y-95849500D01*
X105839449Y-95849500D01*
X105660589Y-95877829D01*
X105488363Y-95933787D01*
X105488360Y-95933788D01*
X105327002Y-96016006D01*
X105180505Y-96122441D01*
X105180500Y-96122445D01*
X105052445Y-96250500D01*
X105052441Y-96250505D01*
X104946006Y-96397002D01*
X104863788Y-96558360D01*
X104863787Y-96558363D01*
X104807829Y-96730589D01*
X104782473Y-96890678D01*
X104752544Y-96953813D01*
X104693232Y-96990744D01*
X104623369Y-96989746D01*
X104565137Y-96951136D01*
X104537527Y-96890678D01*
X104515245Y-96750000D01*
X104512171Y-96730591D01*
X104456211Y-96558361D01*
X104456211Y-96558360D01*
X104426474Y-96500000D01*
X104373996Y-96397006D01*
X104302727Y-96298912D01*
X104267558Y-96250505D01*
X104267554Y-96250500D01*
X104139499Y-96122445D01*
X104139494Y-96122441D01*
X103992997Y-96016006D01*
X103992996Y-96016005D01*
X103992994Y-96016004D01*
X103941300Y-95989664D01*
X103831639Y-95933788D01*
X103831636Y-95933787D01*
X103659410Y-95877829D01*
X103480551Y-95849500D01*
X103480546Y-95849500D01*
X103299454Y-95849500D01*
X103299449Y-95849500D01*
X103120589Y-95877829D01*
X102948363Y-95933787D01*
X102948360Y-95933788D01*
X102787002Y-96016006D01*
X102640505Y-96122441D01*
X102640500Y-96122445D01*
X102512445Y-96250500D01*
X102512441Y-96250505D01*
X102406006Y-96397002D01*
X102323788Y-96558360D01*
X102323787Y-96558363D01*
X102267829Y-96730589D01*
X102242473Y-96890678D01*
X102212544Y-96953813D01*
X102153232Y-96990744D01*
X102083369Y-96989746D01*
X102025137Y-96951136D01*
X101997527Y-96890678D01*
X101975245Y-96750000D01*
X101972171Y-96730591D01*
X101916211Y-96558361D01*
X101916211Y-96558360D01*
X101886474Y-96500000D01*
X101833996Y-96397006D01*
X101762727Y-96298912D01*
X101727558Y-96250505D01*
X101727554Y-96250500D01*
X101599499Y-96122445D01*
X101599494Y-96122441D01*
X101452997Y-96016006D01*
X101452996Y-96016005D01*
X101452994Y-96016004D01*
X101401300Y-95989664D01*
X101291639Y-95933788D01*
X101291636Y-95933787D01*
X101119410Y-95877829D01*
X100940551Y-95849500D01*
X100940546Y-95849500D01*
X100759454Y-95849500D01*
X100759449Y-95849500D01*
X100580589Y-95877829D01*
X100408363Y-95933787D01*
X100408360Y-95933788D01*
X100247002Y-96016006D01*
X100100505Y-96122441D01*
X100100500Y-96122445D01*
X99972445Y-96250500D01*
X99972441Y-96250505D01*
X99866006Y-96397002D01*
X99783788Y-96558360D01*
X99783787Y-96558363D01*
X99727829Y-96730589D01*
X99699500Y-96909448D01*
X82500500Y-96909448D01*
X82500500Y-85295131D01*
X87249500Y-85295131D01*
X87249500Y-87084856D01*
X87249502Y-87084882D01*
X87252413Y-87109987D01*
X87252415Y-87109991D01*
X87297793Y-87212764D01*
X87297794Y-87212765D01*
X87377235Y-87292206D01*
X87480009Y-87337585D01*
X87505135Y-87340500D01*
X88242873Y-87340499D01*
X88309910Y-87360183D01*
X88355665Y-87412987D01*
X88365609Y-87482146D01*
X88336584Y-87545702D01*
X88277806Y-87583476D01*
X88262270Y-87586972D01*
X88130589Y-87607829D01*
X87958363Y-87663787D01*
X87958360Y-87663788D01*
X87797002Y-87746006D01*
X87650505Y-87852441D01*
X87650500Y-87852445D01*
X87522445Y-87980500D01*
X87522441Y-87980505D01*
X87416006Y-88127002D01*
X87333788Y-88288360D01*
X87333787Y-88288363D01*
X87277829Y-88460589D01*
X87249500Y-88639448D01*
X87249500Y-88820551D01*
X87277829Y-88999410D01*
X87333787Y-89171636D01*
X87333788Y-89171639D01*
X87416006Y-89332997D01*
X87522441Y-89479494D01*
X87522445Y-89479499D01*
X87650500Y-89607554D01*
X87650505Y-89607558D01*
X87778287Y-89700396D01*
X87797006Y-89713996D01*
X87902484Y-89767740D01*
X87958360Y-89796211D01*
X87958363Y-89796212D01*
X88044476Y-89824191D01*
X88130591Y-89852171D01*
X88203639Y-89863740D01*
X88290678Y-89877527D01*
X88353813Y-89907456D01*
X88390744Y-89966768D01*
X88389746Y-90036631D01*
X88351136Y-90094863D01*
X88290678Y-90122473D01*
X88130589Y-90147829D01*
X87958363Y-90203787D01*
X87958360Y-90203788D01*
X87797002Y-90286006D01*
X87650505Y-90392441D01*
X87650500Y-90392445D01*
X87522445Y-90520500D01*
X87522441Y-90520505D01*
X87416006Y-90667002D01*
X87333788Y-90828360D01*
X87333787Y-90828363D01*
X87277829Y-91000589D01*
X87249500Y-91179448D01*
X87249500Y-91360551D01*
X87277829Y-91539410D01*
X87333787Y-91711636D01*
X87333788Y-91711639D01*
X87416006Y-91872997D01*
X87522441Y-92019494D01*
X87522445Y-92019499D01*
X87650500Y-92147554D01*
X87650505Y-92147558D01*
X87778287Y-92240396D01*
X87797006Y-92253996D01*
X87902484Y-92307740D01*
X87958360Y-92336211D01*
X87958363Y-92336212D01*
X88044476Y-92364191D01*
X88130591Y-92392171D01*
X88203639Y-92403740D01*
X88290678Y-92417527D01*
X88353813Y-92447456D01*
X88390744Y-92506768D01*
X88389746Y-92576631D01*
X88351136Y-92634863D01*
X88290678Y-92662473D01*
X88130589Y-92687829D01*
X87958363Y-92743787D01*
X87958360Y-92743788D01*
X87797002Y-92826006D01*
X87650505Y-92932441D01*
X87650500Y-92932445D01*
X87522445Y-93060500D01*
X87522441Y-93060505D01*
X87416006Y-93207002D01*
X87333788Y-93368360D01*
X87333787Y-93368363D01*
X87277829Y-93540589D01*
X87249500Y-93719448D01*
X87249500Y-93900551D01*
X87277829Y-94079410D01*
X87333787Y-94251636D01*
X87333788Y-94251639D01*
X87416006Y-94412997D01*
X87522441Y-94559494D01*
X87522445Y-94559499D01*
X87650500Y-94687554D01*
X87650505Y-94687558D01*
X87778287Y-94780396D01*
X87797006Y-94793996D01*
X87902484Y-94847740D01*
X87958360Y-94876211D01*
X87958363Y-94876212D01*
X88044476Y-94904191D01*
X88130591Y-94932171D01*
X88213429Y-94945291D01*
X88309449Y-94960500D01*
X88309454Y-94960500D01*
X88490551Y-94960500D01*
X88577259Y-94946765D01*
X88669409Y-94932171D01*
X88841639Y-94876211D01*
X89002994Y-94793996D01*
X89149501Y-94687553D01*
X89277553Y-94559501D01*
X89383996Y-94412994D01*
X89466211Y-94251639D01*
X89522171Y-94079409D01*
X89536765Y-93987259D01*
X89550500Y-93900551D01*
X89550500Y-93719448D01*
X89524520Y-93555424D01*
X89522171Y-93540591D01*
X89494191Y-93454476D01*
X89466212Y-93368363D01*
X89466211Y-93368360D01*
X89432201Y-93301614D01*
X89383996Y-93207006D01*
X89361426Y-93175941D01*
X89277558Y-93060505D01*
X89277554Y-93060500D01*
X89149499Y-92932445D01*
X89149494Y-92932441D01*
X89002997Y-92826006D01*
X89002996Y-92826005D01*
X89002994Y-92826004D01*
X88930800Y-92789219D01*
X88841639Y-92743788D01*
X88841636Y-92743787D01*
X88669410Y-92687829D01*
X88509321Y-92662473D01*
X88446186Y-92632544D01*
X88409255Y-92573232D01*
X88410253Y-92503370D01*
X88448863Y-92445137D01*
X88509321Y-92417527D01*
X88579425Y-92406422D01*
X88669409Y-92392171D01*
X88841639Y-92336211D01*
X89002994Y-92253996D01*
X89010717Y-92248385D01*
X98933813Y-92248385D01*
X98958811Y-92374052D01*
X98958813Y-92374058D01*
X99007847Y-92492438D01*
X99007852Y-92492447D01*
X99079037Y-92598982D01*
X99079040Y-92598986D01*
X99169641Y-92689587D01*
X99169645Y-92689590D01*
X99276180Y-92760775D01*
X99276186Y-92760778D01*
X99276187Y-92760779D01*
X99394570Y-92809815D01*
X99455224Y-92821880D01*
X99517132Y-92854263D01*
X99518712Y-92855815D01*
X99978867Y-93315970D01*
X100012352Y-93377293D01*
X100015186Y-93403651D01*
X100015186Y-93429755D01*
X100015186Y-93429757D01*
X100015185Y-93429757D01*
X100040183Y-93555424D01*
X100040185Y-93555430D01*
X100089219Y-93673810D01*
X100089224Y-93673819D01*
X100160409Y-93780354D01*
X100160412Y-93780358D01*
X100251013Y-93870959D01*
X100251017Y-93870962D01*
X100357552Y-93942147D01*
X100357558Y-93942150D01*
X100357559Y-93942151D01*
X100475942Y-93991187D01*
X100475946Y-93991187D01*
X100475947Y-93991188D01*
X100601614Y-94016186D01*
X100601617Y-94016186D01*
X100729757Y-94016186D01*
X100814301Y-93999368D01*
X100855430Y-93991187D01*
X100973813Y-93942151D01*
X101080355Y-93870962D01*
X101170962Y-93780355D01*
X101242151Y-93673813D01*
X101291187Y-93555430D01*
X101316186Y-93429755D01*
X101316186Y-93301617D01*
X101316186Y-93301614D01*
X101291188Y-93175947D01*
X101291187Y-93175946D01*
X101291187Y-93175942D01*
X101242151Y-93057559D01*
X101242150Y-93057558D01*
X101242147Y-93057552D01*
X101170962Y-92951017D01*
X101170959Y-92951013D01*
X101080358Y-92860412D01*
X101080354Y-92860409D01*
X100973819Y-92789224D01*
X100973810Y-92789219D01*
X100855430Y-92740185D01*
X100855424Y-92740183D01*
X100729757Y-92715186D01*
X100729755Y-92715186D01*
X100703651Y-92715186D01*
X100636612Y-92695501D01*
X100615970Y-92678867D01*
X100271133Y-92334030D01*
X100237648Y-92272707D01*
X100234814Y-92246349D01*
X100234814Y-92120242D01*
X100209816Y-91994575D01*
X100209815Y-91994574D01*
X100209815Y-91994570D01*
X100160779Y-91876187D01*
X100160778Y-91876186D01*
X100160775Y-91876180D01*
X100089590Y-91769645D01*
X100089587Y-91769641D01*
X99998986Y-91679040D01*
X99998982Y-91679037D01*
X99892447Y-91607852D01*
X99892438Y-91607847D01*
X99774058Y-91558813D01*
X99774052Y-91558811D01*
X99648385Y-91533814D01*
X99648383Y-91533814D01*
X99520245Y-91533814D01*
X99520243Y-91533814D01*
X99394575Y-91558811D01*
X99394569Y-91558813D01*
X99276189Y-91607847D01*
X99276180Y-91607852D01*
X99169645Y-91679037D01*
X99169641Y-91679040D01*
X99079040Y-91769641D01*
X99079037Y-91769645D01*
X99007852Y-91876180D01*
X99007847Y-91876189D01*
X98958813Y-91994569D01*
X98958811Y-91994575D01*
X98933814Y-92120242D01*
X98933814Y-92120245D01*
X98933814Y-92248383D01*
X98933814Y-92248385D01*
X98933813Y-92248385D01*
X89010717Y-92248385D01*
X89149501Y-92147553D01*
X89277553Y-92019501D01*
X89383996Y-91872994D01*
X89466211Y-91711639D01*
X89522171Y-91539409D01*
X89536765Y-91447259D01*
X89550500Y-91360551D01*
X89550500Y-91179448D01*
X89534019Y-91075397D01*
X89522171Y-91000591D01*
X89466211Y-90828361D01*
X89466211Y-90828360D01*
X89437740Y-90772484D01*
X89383996Y-90667006D01*
X89370396Y-90648287D01*
X89277558Y-90520505D01*
X89277554Y-90520500D01*
X89149499Y-90392445D01*
X89149494Y-90392441D01*
X89002997Y-90286006D01*
X89002996Y-90286005D01*
X89002994Y-90286004D01*
X88951300Y-90259664D01*
X88841639Y-90203788D01*
X88841636Y-90203787D01*
X88669410Y-90147829D01*
X88509321Y-90122473D01*
X88446186Y-90092544D01*
X88409255Y-90033232D01*
X88410253Y-89963370D01*
X88448863Y-89905137D01*
X88509321Y-89877527D01*
X88579425Y-89866422D01*
X88669409Y-89852171D01*
X88841639Y-89796211D01*
X89002994Y-89713996D01*
X89149501Y-89607553D01*
X89277553Y-89479501D01*
X89383996Y-89332994D01*
X89466211Y-89171639D01*
X89522171Y-88999409D01*
X89536765Y-88907259D01*
X89550500Y-88820551D01*
X89550500Y-88639448D01*
X89534019Y-88535397D01*
X89522171Y-88460591D01*
X89466211Y-88288361D01*
X89466211Y-88288360D01*
X89437740Y-88232484D01*
X89383996Y-88127006D01*
X89370396Y-88108287D01*
X89277558Y-87980505D01*
X89277554Y-87980500D01*
X89149499Y-87852445D01*
X89149494Y-87852441D01*
X89002997Y-87746006D01*
X89002996Y-87746005D01*
X89002994Y-87746004D01*
X88951300Y-87719664D01*
X88841639Y-87663788D01*
X88841636Y-87663787D01*
X88669410Y-87607829D01*
X88537728Y-87586972D01*
X88474594Y-87557042D01*
X88437663Y-87497731D01*
X88438661Y-87427868D01*
X88477271Y-87369636D01*
X88541235Y-87341522D01*
X88557120Y-87340499D01*
X89294864Y-87340499D01*
X89294879Y-87340497D01*
X89294882Y-87340497D01*
X89319987Y-87337586D01*
X89319988Y-87337585D01*
X89319991Y-87337585D01*
X89422765Y-87292206D01*
X89502206Y-87212765D01*
X89547585Y-87109991D01*
X89550500Y-87084865D01*
X89550499Y-85295136D01*
X89550497Y-85295117D01*
X89547586Y-85270012D01*
X89547585Y-85270010D01*
X89547585Y-85270009D01*
X89502206Y-85167235D01*
X89422765Y-85087794D01*
X89422763Y-85087793D01*
X89319992Y-85042415D01*
X89294865Y-85039500D01*
X87505143Y-85039500D01*
X87505117Y-85039502D01*
X87480012Y-85042413D01*
X87480008Y-85042415D01*
X87377235Y-85087793D01*
X87297794Y-85167234D01*
X87252415Y-85270006D01*
X87252415Y-85270008D01*
X87249500Y-85295131D01*
X82500500Y-85295131D01*
X82500500Y-82473615D01*
X124824500Y-82473615D01*
X124824500Y-82926384D01*
X124854300Y-83076197D01*
X124854302Y-83076205D01*
X124912759Y-83217334D01*
X124912764Y-83217343D01*
X124997629Y-83344351D01*
X124997632Y-83344355D01*
X125105644Y-83452367D01*
X125105648Y-83452370D01*
X125232656Y-83537235D01*
X125232662Y-83537238D01*
X125232663Y-83537239D01*
X125373795Y-83595698D01*
X125523615Y-83625499D01*
X125523619Y-83625500D01*
X125523620Y-83625500D01*
X125676381Y-83625500D01*
X125676382Y-83625499D01*
X125826205Y-83595698D01*
X125967337Y-83537239D01*
X126094352Y-83452370D01*
X126202370Y-83344352D01*
X126287239Y-83217337D01*
X126345698Y-83076205D01*
X126375500Y-82926380D01*
X126375500Y-82473620D01*
X126345698Y-82323795D01*
X126287239Y-82182663D01*
X126287238Y-82182662D01*
X126287235Y-82182656D01*
X126202370Y-82055648D01*
X126202367Y-82055644D01*
X126094355Y-81947632D01*
X126094351Y-81947629D01*
X125967343Y-81862764D01*
X125967334Y-81862759D01*
X125826205Y-81804302D01*
X125826197Y-81804300D01*
X125676384Y-81774500D01*
X125676380Y-81774500D01*
X125523620Y-81774500D01*
X125523615Y-81774500D01*
X125373802Y-81804300D01*
X125373794Y-81804302D01*
X125232665Y-81862759D01*
X125232656Y-81862764D01*
X125105648Y-81947629D01*
X125105644Y-81947632D01*
X124997632Y-82055644D01*
X124997629Y-82055648D01*
X124912764Y-82182656D01*
X124912759Y-82182665D01*
X124854302Y-82323794D01*
X124854300Y-82323802D01*
X124824500Y-82473615D01*
X82500500Y-82473615D01*
X82500500Y-76830131D01*
X87249500Y-76830131D01*
X87249500Y-78619856D01*
X87249502Y-78619882D01*
X87252413Y-78644987D01*
X87252415Y-78644991D01*
X87297793Y-78747764D01*
X87297794Y-78747765D01*
X87377235Y-78827206D01*
X87480009Y-78872585D01*
X87505135Y-78875500D01*
X88242873Y-78875499D01*
X88309910Y-78895183D01*
X88355665Y-78947987D01*
X88365609Y-79017146D01*
X88336584Y-79080702D01*
X88277806Y-79118476D01*
X88262270Y-79121972D01*
X88130589Y-79142829D01*
X87958363Y-79198787D01*
X87958360Y-79198788D01*
X87797002Y-79281006D01*
X87650505Y-79387441D01*
X87650500Y-79387445D01*
X87522445Y-79515500D01*
X87522441Y-79515505D01*
X87416006Y-79662002D01*
X87333788Y-79823360D01*
X87333787Y-79823363D01*
X87277829Y-79995589D01*
X87249500Y-80174448D01*
X87249500Y-80355551D01*
X87277829Y-80534410D01*
X87333787Y-80706636D01*
X87333788Y-80706639D01*
X87416006Y-80867997D01*
X87522441Y-81014494D01*
X87522445Y-81014499D01*
X87650500Y-81142554D01*
X87650505Y-81142558D01*
X87778287Y-81235396D01*
X87797006Y-81248996D01*
X87902484Y-81302740D01*
X87958360Y-81331211D01*
X87958363Y-81331212D01*
X88044476Y-81359191D01*
X88130591Y-81387171D01*
X88213429Y-81400291D01*
X88309449Y-81415500D01*
X88309454Y-81415500D01*
X88490551Y-81415500D01*
X88577259Y-81401765D01*
X88669409Y-81387171D01*
X88841639Y-81331211D01*
X89002994Y-81248996D01*
X89149501Y-81142553D01*
X89277553Y-81014501D01*
X89383996Y-80867994D01*
X89466211Y-80706639D01*
X89522171Y-80534409D01*
X89536765Y-80442259D01*
X89550500Y-80355551D01*
X89550500Y-80174448D01*
X89534019Y-80070397D01*
X89522171Y-79995591D01*
X89466211Y-79823361D01*
X89466211Y-79823360D01*
X89437740Y-79767484D01*
X89383996Y-79662006D01*
X89370396Y-79643287D01*
X89277558Y-79515505D01*
X89277554Y-79515500D01*
X89149499Y-79387445D01*
X89149494Y-79387441D01*
X89002997Y-79281006D01*
X89002996Y-79281005D01*
X89002994Y-79281004D01*
X88951300Y-79254664D01*
X88841639Y-79198788D01*
X88841636Y-79198787D01*
X88669410Y-79142829D01*
X88537728Y-79121972D01*
X88474594Y-79092042D01*
X88437663Y-79032731D01*
X88438661Y-78962868D01*
X88477271Y-78904636D01*
X88541235Y-78876522D01*
X88557120Y-78875499D01*
X89294864Y-78875499D01*
X89294879Y-78875497D01*
X89294882Y-78875497D01*
X89319987Y-78872586D01*
X89319988Y-78872585D01*
X89319991Y-78872585D01*
X89422765Y-78827206D01*
X89502206Y-78747765D01*
X89547585Y-78644991D01*
X89550500Y-78619865D01*
X89550499Y-76830136D01*
X89550497Y-76830117D01*
X89547586Y-76805012D01*
X89547585Y-76805010D01*
X89547585Y-76805009D01*
X89502206Y-76702235D01*
X89422765Y-76622794D01*
X89422763Y-76622793D01*
X89319992Y-76577415D01*
X89294865Y-76574500D01*
X87505143Y-76574500D01*
X87505117Y-76574502D01*
X87480012Y-76577413D01*
X87480008Y-76577415D01*
X87377235Y-76622793D01*
X87297794Y-76702234D01*
X87252415Y-76805006D01*
X87252415Y-76805008D01*
X87249500Y-76830131D01*
X82500500Y-76830131D01*
X82500500Y-70168995D01*
X83769499Y-70168995D01*
X83796418Y-70304322D01*
X83796421Y-70304332D01*
X83849221Y-70431804D01*
X83849228Y-70431817D01*
X83925885Y-70546541D01*
X83925888Y-70546545D01*
X84023454Y-70644111D01*
X84023458Y-70644114D01*
X84138182Y-70720771D01*
X84138195Y-70720778D01*
X84265667Y-70773578D01*
X84265672Y-70773580D01*
X84265676Y-70773580D01*
X84265677Y-70773581D01*
X84401004Y-70800500D01*
X84401007Y-70800500D01*
X84538995Y-70800500D01*
X84630041Y-70782389D01*
X84674328Y-70773580D01*
X84801811Y-70720775D01*
X84916542Y-70644114D01*
X85014114Y-70546542D01*
X85090775Y-70431811D01*
X85143580Y-70304328D01*
X85162698Y-70208217D01*
X85170500Y-70168995D01*
X85170500Y-70031004D01*
X85143581Y-69895677D01*
X85143580Y-69895676D01*
X85143580Y-69895672D01*
X85102397Y-69796246D01*
X85090778Y-69768195D01*
X85090776Y-69768191D01*
X85090775Y-69768189D01*
X85078954Y-69750497D01*
X85069870Y-69736902D01*
X85014114Y-69653458D01*
X85014111Y-69653454D01*
X84916545Y-69555888D01*
X84916541Y-69555885D01*
X84801817Y-69479228D01*
X84801804Y-69479221D01*
X84674332Y-69426421D01*
X84674322Y-69426418D01*
X84538995Y-69399500D01*
X84538993Y-69399500D01*
X84401007Y-69399500D01*
X84401005Y-69399500D01*
X84265677Y-69426418D01*
X84265667Y-69426421D01*
X84138195Y-69479221D01*
X84138182Y-69479228D01*
X84023458Y-69555885D01*
X84023454Y-69555888D01*
X83925888Y-69653454D01*
X83925885Y-69653458D01*
X83849228Y-69768182D01*
X83849221Y-69768195D01*
X83796421Y-69895667D01*
X83796418Y-69895677D01*
X83769500Y-70031004D01*
X83769500Y-70031007D01*
X83769500Y-70168993D01*
X83769500Y-70168995D01*
X83769499Y-70168995D01*
X82500500Y-70168995D01*
X82500500Y-67168995D01*
X83769499Y-67168995D01*
X83796418Y-67304322D01*
X83796421Y-67304332D01*
X83849221Y-67431804D01*
X83849228Y-67431817D01*
X83925885Y-67546541D01*
X83925888Y-67546545D01*
X84023454Y-67644111D01*
X84023458Y-67644114D01*
X84138182Y-67720771D01*
X84138195Y-67720778D01*
X84262782Y-67772383D01*
X84265672Y-67773580D01*
X84265676Y-67773580D01*
X84265677Y-67773581D01*
X84401004Y-67800500D01*
X84401007Y-67800500D01*
X84538995Y-67800500D01*
X84630041Y-67782389D01*
X84674328Y-67773580D01*
X84772924Y-67732740D01*
X84801804Y-67720778D01*
X84801804Y-67720777D01*
X84801811Y-67720775D01*
X84916542Y-67644114D01*
X85014114Y-67546542D01*
X85075901Y-67454071D01*
X92349499Y-67454071D01*
X92374497Y-67579738D01*
X92374499Y-67579744D01*
X92423533Y-67698124D01*
X92423534Y-67698126D01*
X92423535Y-67698127D01*
X92428600Y-67705708D01*
X92449480Y-67772383D01*
X92449500Y-67774600D01*
X92449500Y-68405398D01*
X92429815Y-68472437D01*
X92428604Y-68474286D01*
X92423534Y-68481872D01*
X92374499Y-68600255D01*
X92374497Y-68600261D01*
X92349500Y-68725928D01*
X92349500Y-68725931D01*
X92349500Y-68854069D01*
X92349500Y-68854071D01*
X92349499Y-68854071D01*
X92374497Y-68979738D01*
X92374499Y-68979744D01*
X92423533Y-69098124D01*
X92423538Y-69098133D01*
X92494723Y-69204668D01*
X92494726Y-69204672D01*
X92585327Y-69295273D01*
X92585331Y-69295276D01*
X92691866Y-69366461D01*
X92691872Y-69366464D01*
X92691873Y-69366465D01*
X92810256Y-69415501D01*
X92810260Y-69415501D01*
X92810261Y-69415502D01*
X92935928Y-69440500D01*
X92935931Y-69440500D01*
X93064071Y-69440500D01*
X93148615Y-69423682D01*
X93189744Y-69415501D01*
X93308127Y-69366465D01*
X93414669Y-69295276D01*
X93505276Y-69204669D01*
X93576465Y-69098127D01*
X93625501Y-68979744D01*
X93639970Y-68907007D01*
X93650500Y-68854071D01*
X93650500Y-68725928D01*
X93625502Y-68600261D01*
X93625501Y-68600260D01*
X93625501Y-68600256D01*
X93581386Y-68493753D01*
X108440000Y-68493753D01*
X108440000Y-68706246D01*
X108473242Y-68916127D01*
X108473242Y-68916130D01*
X108538904Y-69118217D01*
X108635375Y-69307550D01*
X108674728Y-69361716D01*
X109307037Y-68729408D01*
X109324075Y-68792993D01*
X109389901Y-68907007D01*
X109482993Y-69000099D01*
X109597007Y-69065925D01*
X109660590Y-69082962D01*
X109028282Y-69715269D01*
X109028282Y-69715270D01*
X109082449Y-69754624D01*
X109271782Y-69851095D01*
X109473870Y-69916757D01*
X109683754Y-69950000D01*
X109896246Y-69950000D01*
X110106127Y-69916757D01*
X110106130Y-69916757D01*
X110308217Y-69851095D01*
X110497554Y-69754622D01*
X110551716Y-69715270D01*
X110551717Y-69715270D01*
X109919408Y-69082962D01*
X109982993Y-69065925D01*
X110097007Y-69000099D01*
X110190099Y-68907007D01*
X110255925Y-68792993D01*
X110272962Y-68729409D01*
X110905270Y-69361717D01*
X110905270Y-69361716D01*
X110944622Y-69307554D01*
X111041095Y-69118217D01*
X111050492Y-69089295D01*
X111089928Y-69031618D01*
X111154286Y-69004419D01*
X111223133Y-69016331D01*
X111274610Y-69063574D01*
X111278908Y-69071314D01*
X111346004Y-69202995D01*
X111452441Y-69349494D01*
X111452445Y-69349499D01*
X111580500Y-69477554D01*
X111580505Y-69477558D01*
X111651028Y-69528795D01*
X111727006Y-69583996D01*
X111832484Y-69637740D01*
X111888360Y-69666211D01*
X111888363Y-69666212D01*
X111961574Y-69689999D01*
X112060591Y-69722171D01*
X112143429Y-69735291D01*
X112239449Y-69750500D01*
X112239454Y-69750500D01*
X112420551Y-69750500D01*
X112507259Y-69736765D01*
X112599409Y-69722171D01*
X112771639Y-69666211D01*
X112932994Y-69583996D01*
X113079501Y-69477553D01*
X113207553Y-69349501D01*
X113313996Y-69202994D01*
X113396211Y-69041639D01*
X113452171Y-68869409D01*
X113474896Y-68725931D01*
X113477527Y-68709321D01*
X113507456Y-68646186D01*
X113566768Y-68609255D01*
X113636630Y-68610253D01*
X113694863Y-68648863D01*
X113722473Y-68709321D01*
X113747829Y-68869410D01*
X113803787Y-69041636D01*
X113803788Y-69041639D01*
X113859664Y-69151300D01*
X113879383Y-69190000D01*
X113886006Y-69202997D01*
X113992441Y-69349494D01*
X113992445Y-69349499D01*
X114120500Y-69477554D01*
X114120505Y-69477558D01*
X114191028Y-69528795D01*
X114267006Y-69583996D01*
X114372484Y-69637740D01*
X114428360Y-69666211D01*
X114428363Y-69666212D01*
X114501574Y-69689999D01*
X114600591Y-69722171D01*
X114683429Y-69735291D01*
X114779449Y-69750500D01*
X114779454Y-69750500D01*
X114960551Y-69750500D01*
X115047259Y-69736765D01*
X115139409Y-69722171D01*
X115311639Y-69666211D01*
X115472994Y-69583996D01*
X115619501Y-69477553D01*
X115747553Y-69349501D01*
X115853996Y-69202994D01*
X115936211Y-69041639D01*
X115992171Y-68869409D01*
X116013027Y-68737729D01*
X116042956Y-68674595D01*
X116102267Y-68637663D01*
X116172130Y-68638661D01*
X116230363Y-68677271D01*
X116258477Y-68741234D01*
X116259500Y-68757127D01*
X116259500Y-69494856D01*
X116259502Y-69494882D01*
X116262413Y-69519987D01*
X116262415Y-69519991D01*
X116307793Y-69622764D01*
X116307794Y-69622765D01*
X116387235Y-69702206D01*
X116490009Y-69747585D01*
X116515135Y-69750500D01*
X118304864Y-69750499D01*
X118304879Y-69750497D01*
X118304882Y-69750497D01*
X118329987Y-69747586D01*
X118329988Y-69747585D01*
X118329991Y-69747585D01*
X118432765Y-69702206D01*
X118512206Y-69622765D01*
X118529431Y-69583753D01*
X120650000Y-69583753D01*
X120650000Y-69796246D01*
X120683242Y-70006127D01*
X120683242Y-70006130D01*
X120748904Y-70208217D01*
X120845375Y-70397550D01*
X120884728Y-70451716D01*
X121517037Y-69819408D01*
X121534075Y-69882993D01*
X121599901Y-69997007D01*
X121692993Y-70090099D01*
X121807007Y-70155925D01*
X121870590Y-70172962D01*
X121238282Y-70805269D01*
X121238282Y-70805270D01*
X121292449Y-70844624D01*
X121481780Y-70941094D01*
X121510705Y-70950492D01*
X121568381Y-70989929D01*
X121595580Y-71054287D01*
X121583667Y-71123134D01*
X121536424Y-71174610D01*
X121528685Y-71178908D01*
X121397004Y-71246004D01*
X121250505Y-71352441D01*
X121250500Y-71352445D01*
X121122445Y-71480500D01*
X121122441Y-71480505D01*
X121016006Y-71627002D01*
X120933788Y-71788360D01*
X120933787Y-71788363D01*
X120877829Y-71960589D01*
X120849500Y-72139448D01*
X120849500Y-72320551D01*
X120877829Y-72499410D01*
X120933787Y-72671636D01*
X120933788Y-72671639D01*
X121016006Y-72832997D01*
X121122441Y-72979494D01*
X121122445Y-72979499D01*
X121250500Y-73107554D01*
X121250505Y-73107558D01*
X121378287Y-73200396D01*
X121397006Y-73213996D01*
X121502484Y-73267740D01*
X121558360Y-73296211D01*
X121558363Y-73296212D01*
X121644476Y-73324191D01*
X121730591Y-73352171D01*
X121803639Y-73363740D01*
X121890678Y-73377527D01*
X121953813Y-73407456D01*
X121990744Y-73466768D01*
X121989746Y-73536631D01*
X121951136Y-73594863D01*
X121890678Y-73622473D01*
X121730589Y-73647829D01*
X121558363Y-73703787D01*
X121558360Y-73703788D01*
X121397002Y-73786006D01*
X121250505Y-73892441D01*
X121250500Y-73892445D01*
X121122445Y-74020500D01*
X121122441Y-74020505D01*
X121016006Y-74167002D01*
X120933788Y-74328360D01*
X120933787Y-74328363D01*
X120877829Y-74500589D01*
X120849500Y-74679448D01*
X120849500Y-74860551D01*
X120877829Y-75039410D01*
X120933787Y-75211636D01*
X120933788Y-75211639D01*
X121016006Y-75372997D01*
X121122441Y-75519494D01*
X121122445Y-75519499D01*
X121250500Y-75647554D01*
X121250505Y-75647558D01*
X121378287Y-75740396D01*
X121397006Y-75753996D01*
X121502484Y-75807740D01*
X121558360Y-75836211D01*
X121558363Y-75836212D01*
X121644476Y-75864191D01*
X121730591Y-75892171D01*
X121834716Y-75908662D01*
X121862270Y-75913027D01*
X121925405Y-75942956D01*
X121962336Y-76002268D01*
X121961338Y-76072130D01*
X121922728Y-76130363D01*
X121858765Y-76158477D01*
X121842872Y-76159500D01*
X121105143Y-76159500D01*
X121105117Y-76159502D01*
X121080012Y-76162413D01*
X121080008Y-76162415D01*
X120977235Y-76207793D01*
X120897794Y-76287234D01*
X120852415Y-76390006D01*
X120852415Y-76390008D01*
X120849500Y-76415131D01*
X120849500Y-78204856D01*
X120849502Y-78204882D01*
X120852413Y-78229987D01*
X120852415Y-78229991D01*
X120897793Y-78332764D01*
X120897794Y-78332765D01*
X120977235Y-78412206D01*
X121080009Y-78457585D01*
X121105135Y-78460500D01*
X122894864Y-78460499D01*
X122894879Y-78460497D01*
X122894882Y-78460497D01*
X122919987Y-78457586D01*
X122919988Y-78457585D01*
X122919991Y-78457585D01*
X123022765Y-78412206D01*
X123102206Y-78332765D01*
X123147585Y-78229991D01*
X123150500Y-78204865D01*
X123150499Y-77473615D01*
X124824500Y-77473615D01*
X124824500Y-77926384D01*
X124854300Y-78076197D01*
X124854302Y-78076205D01*
X124912759Y-78217334D01*
X124912764Y-78217343D01*
X124997629Y-78344351D01*
X124997632Y-78344355D01*
X125105644Y-78452367D01*
X125105648Y-78452370D01*
X125232656Y-78537235D01*
X125232662Y-78537238D01*
X125232663Y-78537239D01*
X125373795Y-78595698D01*
X125523615Y-78625499D01*
X125523619Y-78625500D01*
X125523620Y-78625500D01*
X125676381Y-78625500D01*
X125676382Y-78625499D01*
X125826205Y-78595698D01*
X125967337Y-78537239D01*
X126094352Y-78452370D01*
X126202370Y-78344352D01*
X126287239Y-78217337D01*
X126345698Y-78076205D01*
X126375500Y-77926380D01*
X126375500Y-77473620D01*
X126345698Y-77323795D01*
X126287239Y-77182663D01*
X126287238Y-77182662D01*
X126287235Y-77182656D01*
X126202370Y-77055648D01*
X126202367Y-77055644D01*
X126094355Y-76947632D01*
X126094351Y-76947629D01*
X125967343Y-76862764D01*
X125967334Y-76862759D01*
X125826205Y-76804302D01*
X125826197Y-76804300D01*
X125676384Y-76774500D01*
X125676380Y-76774500D01*
X125523620Y-76774500D01*
X125523615Y-76774500D01*
X125373802Y-76804300D01*
X125373794Y-76804302D01*
X125232665Y-76862759D01*
X125232656Y-76862764D01*
X125105648Y-76947629D01*
X125105644Y-76947632D01*
X124997632Y-77055644D01*
X124997629Y-77055648D01*
X124912764Y-77182656D01*
X124912759Y-77182665D01*
X124854302Y-77323794D01*
X124854300Y-77323802D01*
X124824500Y-77473615D01*
X123150499Y-77473615D01*
X123150499Y-77284159D01*
X123150499Y-76415143D01*
X123150499Y-76415136D01*
X123150497Y-76415117D01*
X123147586Y-76390012D01*
X123147585Y-76390010D01*
X123147585Y-76390009D01*
X123102206Y-76287235D01*
X123022765Y-76207794D01*
X123013090Y-76203522D01*
X122919992Y-76162415D01*
X122894868Y-76159500D01*
X122157128Y-76159500D01*
X122090089Y-76139815D01*
X122044334Y-76087011D01*
X122034390Y-76017853D01*
X122063415Y-75954297D01*
X122122193Y-75916523D01*
X122137730Y-75913027D01*
X122161014Y-75909338D01*
X122269409Y-75892171D01*
X122441639Y-75836211D01*
X122602994Y-75753996D01*
X122749501Y-75647553D01*
X122877553Y-75519501D01*
X122983996Y-75372994D01*
X123066211Y-75211639D01*
X123122171Y-75039409D01*
X123136765Y-74947259D01*
X123150500Y-74860551D01*
X123150500Y-74679448D01*
X123134019Y-74575397D01*
X123122171Y-74500591D01*
X123066211Y-74328361D01*
X123066211Y-74328360D01*
X123037740Y-74272484D01*
X122983996Y-74167006D01*
X122970396Y-74148287D01*
X122877558Y-74020505D01*
X122877554Y-74020500D01*
X122749499Y-73892445D01*
X122749494Y-73892441D01*
X122602997Y-73786006D01*
X122602996Y-73786005D01*
X122602994Y-73786004D01*
X122551300Y-73759664D01*
X122441639Y-73703788D01*
X122441636Y-73703787D01*
X122269410Y-73647829D01*
X122109321Y-73622473D01*
X122046186Y-73592544D01*
X122009255Y-73533232D01*
X122010253Y-73463370D01*
X122048863Y-73405137D01*
X122109321Y-73377527D01*
X122179425Y-73366422D01*
X122269409Y-73352171D01*
X122441639Y-73296211D01*
X122602994Y-73213996D01*
X122749501Y-73107553D01*
X122877553Y-72979501D01*
X122983996Y-72832994D01*
X123066211Y-72671639D01*
X123122171Y-72499409D01*
X123136765Y-72407259D01*
X123150500Y-72320551D01*
X123150500Y-72139448D01*
X123134019Y-72035397D01*
X123122171Y-71960591D01*
X123066211Y-71788361D01*
X123066211Y-71788360D01*
X123037740Y-71732484D01*
X122983996Y-71627006D01*
X122970396Y-71608287D01*
X122877558Y-71480505D01*
X122877554Y-71480500D01*
X122749499Y-71352445D01*
X122749494Y-71352441D01*
X122602995Y-71246004D01*
X122471314Y-71178908D01*
X122420519Y-71130934D01*
X122403724Y-71063113D01*
X122426262Y-70996978D01*
X122480977Y-70953527D01*
X122489295Y-70950492D01*
X122518217Y-70941095D01*
X122707554Y-70844622D01*
X122761716Y-70805270D01*
X122761717Y-70805270D01*
X122129408Y-70172962D01*
X122192993Y-70155925D01*
X122307007Y-70090099D01*
X122400099Y-69997007D01*
X122465925Y-69882993D01*
X122482962Y-69819408D01*
X123115270Y-70451717D01*
X123115270Y-70451716D01*
X123154622Y-70397554D01*
X123251095Y-70208217D01*
X123316757Y-70006130D01*
X123316757Y-70006127D01*
X123350000Y-69796246D01*
X123350000Y-69583753D01*
X123316757Y-69373872D01*
X123316757Y-69373869D01*
X123251095Y-69171782D01*
X123154624Y-68982449D01*
X123115270Y-68928282D01*
X123115269Y-68928282D01*
X122482962Y-69560590D01*
X122465925Y-69497007D01*
X122400099Y-69382993D01*
X122307007Y-69289901D01*
X122192993Y-69224075D01*
X122129409Y-69207037D01*
X122761716Y-68574728D01*
X122707550Y-68535375D01*
X122518217Y-68438904D01*
X122316129Y-68373242D01*
X122106246Y-68340000D01*
X121893754Y-68340000D01*
X121683872Y-68373242D01*
X121683869Y-68373242D01*
X121481782Y-68438904D01*
X121292439Y-68535380D01*
X121238282Y-68574727D01*
X121238282Y-68574728D01*
X121870591Y-69207037D01*
X121807007Y-69224075D01*
X121692993Y-69289901D01*
X121599901Y-69382993D01*
X121534075Y-69497007D01*
X121517037Y-69560591D01*
X120884728Y-68928282D01*
X120884727Y-68928282D01*
X120845380Y-68982439D01*
X120748904Y-69171782D01*
X120683242Y-69373869D01*
X120683242Y-69373872D01*
X120650000Y-69583753D01*
X118529431Y-69583753D01*
X118557585Y-69519991D01*
X118560500Y-69494865D01*
X118560499Y-68600000D01*
X118560499Y-67705143D01*
X118560499Y-67705136D01*
X118559686Y-67698124D01*
X118557586Y-67680012D01*
X118557585Y-67680010D01*
X118557585Y-67680009D01*
X118512206Y-67577235D01*
X118432765Y-67497794D01*
X118432763Y-67497793D01*
X118329992Y-67452415D01*
X118304865Y-67449500D01*
X116515143Y-67449500D01*
X116515117Y-67449502D01*
X116490012Y-67452413D01*
X116490008Y-67452415D01*
X116387235Y-67497793D01*
X116307794Y-67577234D01*
X116262415Y-67680006D01*
X116262415Y-67680008D01*
X116259500Y-67705131D01*
X116259500Y-68442871D01*
X116239815Y-68509910D01*
X116187011Y-68555665D01*
X116117853Y-68565609D01*
X116054297Y-68536584D01*
X116016523Y-68477806D01*
X116013027Y-68462269D01*
X115993661Y-68340000D01*
X115992171Y-68330591D01*
X115936211Y-68158361D01*
X115936211Y-68158360D01*
X115897191Y-68081780D01*
X115853996Y-67997006D01*
X115840396Y-67978287D01*
X115747558Y-67850505D01*
X115747554Y-67850500D01*
X115619499Y-67722445D01*
X115619494Y-67722441D01*
X115472997Y-67616006D01*
X115472996Y-67616005D01*
X115472994Y-67616004D01*
X115421300Y-67589664D01*
X115311639Y-67533788D01*
X115311636Y-67533787D01*
X115139410Y-67477829D01*
X114960551Y-67449500D01*
X114960546Y-67449500D01*
X114779454Y-67449500D01*
X114779449Y-67449500D01*
X114600589Y-67477829D01*
X114428363Y-67533787D01*
X114428360Y-67533788D01*
X114267002Y-67616006D01*
X114120505Y-67722441D01*
X114120500Y-67722445D01*
X113992445Y-67850500D01*
X113992441Y-67850505D01*
X113886006Y-67997002D01*
X113803788Y-68158360D01*
X113803787Y-68158363D01*
X113747829Y-68330589D01*
X113722473Y-68490678D01*
X113692544Y-68553813D01*
X113633232Y-68590744D01*
X113563369Y-68589746D01*
X113505137Y-68551136D01*
X113477527Y-68490678D01*
X113453661Y-68340000D01*
X113452171Y-68330591D01*
X113396211Y-68158361D01*
X113396211Y-68158360D01*
X113357191Y-68081780D01*
X113313996Y-67997006D01*
X113300396Y-67978287D01*
X113207558Y-67850505D01*
X113207554Y-67850500D01*
X113079499Y-67722445D01*
X113079494Y-67722441D01*
X112932997Y-67616006D01*
X112932996Y-67616005D01*
X112932994Y-67616004D01*
X112881300Y-67589664D01*
X112771639Y-67533788D01*
X112771636Y-67533787D01*
X112599410Y-67477829D01*
X112420551Y-67449500D01*
X112420546Y-67449500D01*
X112239454Y-67449500D01*
X112239449Y-67449500D01*
X112060589Y-67477829D01*
X111888363Y-67533787D01*
X111888360Y-67533788D01*
X111727002Y-67616006D01*
X111580505Y-67722441D01*
X111580500Y-67722445D01*
X111452445Y-67850500D01*
X111452441Y-67850505D01*
X111346004Y-67997004D01*
X111278908Y-68128685D01*
X111230933Y-68179480D01*
X111163112Y-68196275D01*
X111096977Y-68173737D01*
X111053527Y-68119021D01*
X111050492Y-68110705D01*
X111041094Y-68081780D01*
X110944624Y-67892449D01*
X110905270Y-67838282D01*
X110905269Y-67838282D01*
X110272962Y-68470590D01*
X110255925Y-68407007D01*
X110190099Y-68292993D01*
X110097007Y-68199901D01*
X109982993Y-68134075D01*
X109919409Y-68117037D01*
X110551716Y-67484728D01*
X110497550Y-67445375D01*
X110308217Y-67348904D01*
X110106129Y-67283242D01*
X109896246Y-67250000D01*
X109683754Y-67250000D01*
X109473872Y-67283242D01*
X109473869Y-67283242D01*
X109271782Y-67348904D01*
X109082439Y-67445380D01*
X109028282Y-67484727D01*
X109028282Y-67484728D01*
X109660591Y-68117037D01*
X109597007Y-68134075D01*
X109482993Y-68199901D01*
X109389901Y-68292993D01*
X109324075Y-68407007D01*
X109307037Y-68470591D01*
X108674728Y-67838282D01*
X108674727Y-67838282D01*
X108635380Y-67892439D01*
X108538904Y-68081782D01*
X108473242Y-68283869D01*
X108473242Y-68283872D01*
X108440000Y-68493753D01*
X93581386Y-68493753D01*
X93576465Y-68481873D01*
X93566179Y-68466479D01*
X93562198Y-68457975D01*
X93558265Y-68432347D01*
X93550520Y-68407608D01*
X93550500Y-68405398D01*
X93550500Y-67774600D01*
X93570185Y-67707561D01*
X93571359Y-67705768D01*
X93576465Y-67698127D01*
X93625501Y-67579744D01*
X93650500Y-67454069D01*
X93650500Y-67325931D01*
X93650500Y-67325928D01*
X93625502Y-67200261D01*
X93625501Y-67200260D01*
X93625501Y-67200256D01*
X93576465Y-67081873D01*
X93576464Y-67081872D01*
X93576461Y-67081866D01*
X93505276Y-66975331D01*
X93505273Y-66975327D01*
X93414672Y-66884726D01*
X93414668Y-66884723D01*
X93308133Y-66813538D01*
X93308124Y-66813533D01*
X93189744Y-66764499D01*
X93189738Y-66764497D01*
X93064071Y-66739500D01*
X93064069Y-66739500D01*
X92935931Y-66739500D01*
X92935929Y-66739500D01*
X92810261Y-66764497D01*
X92810255Y-66764499D01*
X92691875Y-66813533D01*
X92691866Y-66813538D01*
X92585331Y-66884723D01*
X92585327Y-66884726D01*
X92494726Y-66975327D01*
X92494723Y-66975331D01*
X92423538Y-67081866D01*
X92423533Y-67081875D01*
X92374499Y-67200255D01*
X92374497Y-67200261D01*
X92349500Y-67325928D01*
X92349500Y-67325931D01*
X92349500Y-67454069D01*
X92349500Y-67454071D01*
X92349499Y-67454071D01*
X85075901Y-67454071D01*
X85090775Y-67431811D01*
X85143580Y-67304328D01*
X85145307Y-67295647D01*
X85170500Y-67168995D01*
X85170500Y-67031004D01*
X85143581Y-66895677D01*
X85143580Y-66895676D01*
X85143580Y-66895672D01*
X85109557Y-66813533D01*
X85090778Y-66768195D01*
X85090771Y-66768182D01*
X85014114Y-66653458D01*
X85014111Y-66653454D01*
X84916545Y-66555888D01*
X84916541Y-66555885D01*
X84801817Y-66479228D01*
X84801804Y-66479221D01*
X84674332Y-66426421D01*
X84674322Y-66426418D01*
X84538995Y-66399500D01*
X84538993Y-66399500D01*
X84401007Y-66399500D01*
X84401005Y-66399500D01*
X84265677Y-66426418D01*
X84265667Y-66426421D01*
X84138195Y-66479221D01*
X84138182Y-66479228D01*
X84023458Y-66555885D01*
X84023454Y-66555888D01*
X83925888Y-66653454D01*
X83925885Y-66653458D01*
X83849228Y-66768182D01*
X83849221Y-66768195D01*
X83796421Y-66895667D01*
X83796418Y-66895677D01*
X83769500Y-67031004D01*
X83769500Y-67031007D01*
X83769500Y-67168993D01*
X83769500Y-67168995D01*
X83769499Y-67168995D01*
X82500500Y-67168995D01*
X82500500Y-64693753D01*
X108440000Y-64693753D01*
X108440000Y-64906246D01*
X108473242Y-65116127D01*
X108473242Y-65116130D01*
X108538904Y-65318217D01*
X108635375Y-65507550D01*
X108674728Y-65561716D01*
X109307037Y-64929408D01*
X109324075Y-64992993D01*
X109389901Y-65107007D01*
X109482993Y-65200099D01*
X109597007Y-65265925D01*
X109660590Y-65282962D01*
X109028282Y-65915269D01*
X109028282Y-65915270D01*
X109082449Y-65954624D01*
X109271782Y-66051095D01*
X109473870Y-66116757D01*
X109683754Y-66150000D01*
X109896246Y-66150000D01*
X110106127Y-66116757D01*
X110106130Y-66116757D01*
X110308217Y-66051095D01*
X110497554Y-65954622D01*
X110551716Y-65915270D01*
X110551717Y-65915270D01*
X109919408Y-65282962D01*
X109982993Y-65265925D01*
X110097007Y-65200099D01*
X110190099Y-65107007D01*
X110255925Y-64992993D01*
X110272962Y-64929409D01*
X110905270Y-65561717D01*
X110905270Y-65561716D01*
X110944622Y-65507554D01*
X111041095Y-65318217D01*
X111050492Y-65289295D01*
X111089928Y-65231618D01*
X111154286Y-65204419D01*
X111223133Y-65216331D01*
X111274610Y-65263574D01*
X111278908Y-65271314D01*
X111346004Y-65402995D01*
X111452441Y-65549494D01*
X111452445Y-65549499D01*
X111580500Y-65677554D01*
X111580505Y-65677558D01*
X111708287Y-65770396D01*
X111727006Y-65783996D01*
X111803094Y-65822765D01*
X111888360Y-65866211D01*
X111888363Y-65866212D01*
X111974476Y-65894191D01*
X112060591Y-65922171D01*
X112143429Y-65935291D01*
X112239449Y-65950500D01*
X112239454Y-65950500D01*
X112420551Y-65950500D01*
X112507259Y-65936765D01*
X112599409Y-65922171D01*
X112771639Y-65866211D01*
X112932994Y-65783996D01*
X113079501Y-65677553D01*
X113207553Y-65549501D01*
X113313996Y-65402994D01*
X113396211Y-65241639D01*
X113452171Y-65069409D01*
X113473027Y-64937729D01*
X113477527Y-64909321D01*
X113507456Y-64846186D01*
X113566768Y-64809255D01*
X113636630Y-64810253D01*
X113694863Y-64848863D01*
X113722473Y-64909321D01*
X113747829Y-65069410D01*
X113803787Y-65241636D01*
X113803788Y-65241639D01*
X113886006Y-65402997D01*
X113992441Y-65549494D01*
X113992445Y-65549499D01*
X114120500Y-65677554D01*
X114120505Y-65677558D01*
X114248287Y-65770396D01*
X114267006Y-65783996D01*
X114343094Y-65822765D01*
X114428360Y-65866211D01*
X114428363Y-65866212D01*
X114514476Y-65894191D01*
X114600591Y-65922171D01*
X114683429Y-65935291D01*
X114779449Y-65950500D01*
X114779454Y-65950500D01*
X114960551Y-65950500D01*
X115047259Y-65936765D01*
X115139409Y-65922171D01*
X115311639Y-65866211D01*
X115472994Y-65783996D01*
X115619501Y-65677553D01*
X115747553Y-65549501D01*
X115853996Y-65402994D01*
X115936211Y-65241639D01*
X115992171Y-65069409D01*
X116013027Y-64937729D01*
X116042956Y-64874595D01*
X116102267Y-64837663D01*
X116172130Y-64838661D01*
X116230363Y-64877271D01*
X116258477Y-64941234D01*
X116259500Y-64957127D01*
X116259500Y-65694856D01*
X116259502Y-65694882D01*
X116262413Y-65719987D01*
X116262415Y-65719991D01*
X116307793Y-65822764D01*
X116307794Y-65822765D01*
X116387235Y-65902206D01*
X116490009Y-65947585D01*
X116515135Y-65950500D01*
X118304864Y-65950499D01*
X118304879Y-65950497D01*
X118304882Y-65950497D01*
X118329987Y-65947586D01*
X118329988Y-65947585D01*
X118329991Y-65947585D01*
X118432765Y-65902206D01*
X118512206Y-65822765D01*
X118557585Y-65719991D01*
X118560500Y-65694865D01*
X118560499Y-63905136D01*
X118560497Y-63905117D01*
X118557586Y-63880012D01*
X118557585Y-63880010D01*
X118557585Y-63880009D01*
X118512206Y-63777235D01*
X118432765Y-63697794D01*
X118432763Y-63697793D01*
X118329992Y-63652415D01*
X118304865Y-63649500D01*
X116515143Y-63649500D01*
X116515117Y-63649502D01*
X116490012Y-63652413D01*
X116490008Y-63652415D01*
X116387235Y-63697793D01*
X116307794Y-63777234D01*
X116262415Y-63880006D01*
X116262415Y-63880008D01*
X116259500Y-63905131D01*
X116259500Y-64642871D01*
X116239815Y-64709910D01*
X116187011Y-64755665D01*
X116117853Y-64765609D01*
X116054297Y-64736584D01*
X116016523Y-64677806D01*
X116013027Y-64662269D01*
X116004274Y-64607007D01*
X115992171Y-64530591D01*
X115936211Y-64358361D01*
X115936211Y-64358360D01*
X115897191Y-64281780D01*
X115853996Y-64197006D01*
X115840396Y-64178287D01*
X115747558Y-64050505D01*
X115747554Y-64050500D01*
X115619499Y-63922445D01*
X115619494Y-63922441D01*
X115472997Y-63816006D01*
X115472996Y-63816005D01*
X115472994Y-63816004D01*
X115396906Y-63777235D01*
X115311639Y-63733788D01*
X115311636Y-63733787D01*
X115139410Y-63677829D01*
X114960551Y-63649500D01*
X114960546Y-63649500D01*
X114779454Y-63649500D01*
X114779449Y-63649500D01*
X114600589Y-63677829D01*
X114428363Y-63733787D01*
X114428360Y-63733788D01*
X114267002Y-63816006D01*
X114120505Y-63922441D01*
X114120500Y-63922445D01*
X113992445Y-64050500D01*
X113992441Y-64050505D01*
X113886006Y-64197002D01*
X113803788Y-64358360D01*
X113803787Y-64358363D01*
X113747829Y-64530589D01*
X113722473Y-64690678D01*
X113692544Y-64753813D01*
X113633232Y-64790744D01*
X113563369Y-64789746D01*
X113505137Y-64751136D01*
X113477527Y-64690678D01*
X113463740Y-64603639D01*
X113452171Y-64530591D01*
X113396211Y-64358361D01*
X113396211Y-64358360D01*
X113357191Y-64281780D01*
X113313996Y-64197006D01*
X113300396Y-64178287D01*
X113207558Y-64050505D01*
X113207554Y-64050500D01*
X113079499Y-63922445D01*
X113079494Y-63922441D01*
X112932997Y-63816006D01*
X112932996Y-63816005D01*
X112932994Y-63816004D01*
X112856906Y-63777235D01*
X112771639Y-63733788D01*
X112771636Y-63733787D01*
X112599410Y-63677829D01*
X112420551Y-63649500D01*
X112420546Y-63649500D01*
X112239454Y-63649500D01*
X112239449Y-63649500D01*
X112060589Y-63677829D01*
X111888363Y-63733787D01*
X111888360Y-63733788D01*
X111727002Y-63816006D01*
X111580505Y-63922441D01*
X111580500Y-63922445D01*
X111452445Y-64050500D01*
X111452441Y-64050505D01*
X111346004Y-64197004D01*
X111278908Y-64328685D01*
X111230933Y-64379480D01*
X111163112Y-64396275D01*
X111096977Y-64373737D01*
X111053527Y-64319021D01*
X111050492Y-64310705D01*
X111041094Y-64281780D01*
X110944624Y-64092449D01*
X110905270Y-64038282D01*
X110905269Y-64038282D01*
X110272962Y-64670590D01*
X110255925Y-64607007D01*
X110190099Y-64492993D01*
X110097007Y-64399901D01*
X109982993Y-64334075D01*
X109919409Y-64317037D01*
X110551716Y-63684728D01*
X110497550Y-63645375D01*
X110308217Y-63548904D01*
X110106129Y-63483242D01*
X109896246Y-63450000D01*
X109683754Y-63450000D01*
X109473872Y-63483242D01*
X109473869Y-63483242D01*
X109271782Y-63548904D01*
X109082439Y-63645380D01*
X109028282Y-63684727D01*
X109028282Y-63684728D01*
X109660591Y-64317037D01*
X109597007Y-64334075D01*
X109482993Y-64399901D01*
X109389901Y-64492993D01*
X109324075Y-64607007D01*
X109307037Y-64670591D01*
X108674728Y-64038282D01*
X108674727Y-64038282D01*
X108635380Y-64092439D01*
X108538904Y-64281782D01*
X108473242Y-64483869D01*
X108473242Y-64483872D01*
X108440000Y-64693753D01*
X82500500Y-64693753D01*
X82500500Y-60003750D01*
X82500726Y-59996263D01*
X82506929Y-59893713D01*
X83649500Y-59893713D01*
X83649500Y-60106286D01*
X83682753Y-60316239D01*
X83748444Y-60518414D01*
X83844951Y-60707820D01*
X83969890Y-60879786D01*
X84120213Y-61030109D01*
X84292179Y-61155048D01*
X84292181Y-61155049D01*
X84292184Y-61155051D01*
X84481588Y-61251557D01*
X84683757Y-61317246D01*
X84893713Y-61350500D01*
X84893714Y-61350500D01*
X85106286Y-61350500D01*
X85106287Y-61350500D01*
X85316243Y-61317246D01*
X85518412Y-61251557D01*
X85707816Y-61155051D01*
X85729789Y-61139086D01*
X85879786Y-61030109D01*
X85879788Y-61030106D01*
X85879792Y-61030104D01*
X86030104Y-60879792D01*
X86030106Y-60879788D01*
X86030109Y-60879786D01*
X86155048Y-60707820D01*
X86155047Y-60707820D01*
X86155051Y-60707816D01*
X86251557Y-60518412D01*
X86317246Y-60316243D01*
X86350500Y-60106287D01*
X86350500Y-59893713D01*
X125649500Y-59893713D01*
X125649500Y-60106286D01*
X125682753Y-60316239D01*
X125748444Y-60518414D01*
X125844951Y-60707820D01*
X125969890Y-60879786D01*
X126120213Y-61030109D01*
X126292179Y-61155048D01*
X126292181Y-61155049D01*
X126292184Y-61155051D01*
X126481588Y-61251557D01*
X126683757Y-61317246D01*
X126893713Y-61350500D01*
X126893714Y-61350500D01*
X127106286Y-61350500D01*
X127106287Y-61350500D01*
X127316243Y-61317246D01*
X127518412Y-61251557D01*
X127707816Y-61155051D01*
X127729789Y-61139086D01*
X127879786Y-61030109D01*
X127879788Y-61030106D01*
X127879792Y-61030104D01*
X128030104Y-60879792D01*
X128030106Y-60879788D01*
X128030109Y-60879786D01*
X128155048Y-60707820D01*
X128155047Y-60707820D01*
X128155051Y-60707816D01*
X128251557Y-60518412D01*
X128317246Y-60316243D01*
X128350500Y-60106287D01*
X128350500Y-59893713D01*
X128317246Y-59683757D01*
X128251557Y-59481588D01*
X128155051Y-59292184D01*
X128155049Y-59292181D01*
X128155048Y-59292179D01*
X128030109Y-59120213D01*
X127879786Y-58969890D01*
X127707820Y-58844951D01*
X127518414Y-58748444D01*
X127518413Y-58748443D01*
X127518412Y-58748443D01*
X127316243Y-58682754D01*
X127316241Y-58682753D01*
X127316240Y-58682753D01*
X127154957Y-58657208D01*
X127106287Y-58649500D01*
X126893713Y-58649500D01*
X126845042Y-58657208D01*
X126683760Y-58682753D01*
X126481585Y-58748444D01*
X126292179Y-58844951D01*
X126120213Y-58969890D01*
X125969890Y-59120213D01*
X125844951Y-59292179D01*
X125748444Y-59481585D01*
X125682753Y-59683760D01*
X125649500Y-59893713D01*
X86350500Y-59893713D01*
X86317246Y-59683757D01*
X86251557Y-59481588D01*
X86155051Y-59292184D01*
X86155049Y-59292181D01*
X86155048Y-59292179D01*
X86030109Y-59120213D01*
X85879786Y-58969890D01*
X85707820Y-58844951D01*
X85518414Y-58748444D01*
X85518413Y-58748443D01*
X85518412Y-58748443D01*
X85316243Y-58682754D01*
X85316241Y-58682753D01*
X85316240Y-58682753D01*
X85154957Y-58657208D01*
X85106287Y-58649500D01*
X84893713Y-58649500D01*
X84845042Y-58657208D01*
X84683760Y-58682753D01*
X84481585Y-58748444D01*
X84292179Y-58844951D01*
X84120213Y-58969890D01*
X83969890Y-59120213D01*
X83844951Y-59292179D01*
X83748444Y-59481585D01*
X83682753Y-59683760D01*
X83649500Y-59893713D01*
X82506929Y-59893713D01*
X82507677Y-59881354D01*
X82518271Y-59706205D01*
X82520076Y-59691340D01*
X82571780Y-59409201D01*
X82575364Y-59394663D01*
X82607298Y-59292184D01*
X82660696Y-59120822D01*
X82665998Y-59106841D01*
X82783731Y-58845249D01*
X82790676Y-58832016D01*
X82939080Y-58586526D01*
X82947567Y-58574230D01*
X83124480Y-58348417D01*
X83134395Y-58337226D01*
X83337226Y-58134395D01*
X83348417Y-58124480D01*
X83574230Y-57947567D01*
X83586526Y-57939080D01*
X83832016Y-57790676D01*
X83845249Y-57783731D01*
X84106841Y-57665998D01*
X84120822Y-57660696D01*
X84394668Y-57575362D01*
X84409197Y-57571780D01*
X84691344Y-57520075D01*
X84706201Y-57518271D01*
X84996264Y-57500726D01*
X85003751Y-57500500D01*
X85065892Y-57500500D01*
X126834108Y-57500500D01*
X126896249Y-57500500D01*
X126903736Y-57500726D01*
G37*
%TD.AperFunction*%
%TD*%
M02*
