%TF.GenerationSoftware,KiCad,Pcbnew,9.0.7-9.0.7~ubuntu22.04.1*%
%TF.CreationDate,2026-02-11T22:31:59-08:00*%
%TF.ProjectId,Tiny_Thinker,54696e79-5f54-4686-996e-6b65722e6b69,rev?*%
%TF.SameCoordinates,Original*%
%TF.FileFunction,Soldermask,Bot*%
%TF.FilePolarity,Negative*%
%FSLAX46Y46*%
G04 Gerber Fmt 4.6, Leading zero omitted, Abs format (unit mm)*
G04 Created by KiCad (PCBNEW 9.0.7-9.0.7~ubuntu22.04.1) date 2026-02-11 22:31:59*
%MOMM*%
%LPD*%
G01*
G04 APERTURE LIST*
%ADD10C,2.200000*%
%ADD11R,1.700000X1.700000*%
%ADD12C,1.700000*%
%ADD13C,0.900000*%
%ADD14C,0.650000*%
%ADD15O,2.100000X1.000000*%
%ADD16O,1.800000X1.000000*%
G04 APERTURE END LIST*
D10*
%TO.C,H1*%
X98424980Y-73710000D03*
%TD*%
D11*
%TO.C,J2*%
X151575000Y-74685000D03*
D12*
X151575000Y-77225000D03*
X149035000Y-74685000D03*
X149035000Y-77225000D03*
X146495000Y-74685000D03*
X146495000Y-77225000D03*
X143955000Y-74685000D03*
X143955000Y-77225000D03*
X141415000Y-74685000D03*
X141415000Y-77225000D03*
X138875000Y-74685000D03*
X138875000Y-77225000D03*
X136335000Y-74685000D03*
X136335000Y-77225000D03*
X133795000Y-74685000D03*
X133795000Y-77225000D03*
X131255000Y-74685000D03*
X131255000Y-77225000D03*
X128715000Y-74685000D03*
X128715000Y-77225000D03*
X126175000Y-74685000D03*
X126175000Y-77225000D03*
X123635000Y-74685000D03*
X123635000Y-77225000D03*
X121095000Y-74685000D03*
X121095000Y-77225000D03*
X118555000Y-74685000D03*
X118555000Y-77225000D03*
X116015000Y-74685000D03*
X116015000Y-77225000D03*
X113475000Y-74685000D03*
X113475000Y-77225000D03*
X110935000Y-74685000D03*
X110935000Y-77225000D03*
X108395000Y-74685000D03*
X108395000Y-77225000D03*
X105855000Y-74685000D03*
X105855000Y-77225000D03*
X103315000Y-74685000D03*
X103315000Y-77225000D03*
%TD*%
D10*
%TO.C,H4*%
X157425000Y-73735000D03*
%TD*%
%TO.C,H3*%
X157425000Y-130740000D03*
%TD*%
D11*
%TO.C,J3*%
X151575000Y-127225000D03*
D12*
X151575000Y-129765000D03*
X149035000Y-127225000D03*
X149035000Y-129765000D03*
X146495000Y-127225000D03*
X146495000Y-129765000D03*
X143955000Y-127225000D03*
X143955000Y-129765000D03*
X141415000Y-127225000D03*
X141415000Y-129765000D03*
X138875000Y-127225000D03*
X138875000Y-129765000D03*
X136335000Y-127225000D03*
X136335000Y-129765000D03*
X133795000Y-127225000D03*
X133795000Y-129765000D03*
X131255000Y-127225000D03*
X131255000Y-129765000D03*
X128715000Y-127225000D03*
X128715000Y-129765000D03*
X126175000Y-127225000D03*
X126175000Y-129765000D03*
X123635000Y-127225000D03*
X123635000Y-129765000D03*
X121095000Y-127225000D03*
X121095000Y-129765000D03*
X118555000Y-127225000D03*
X118555000Y-129765000D03*
X116015000Y-127225000D03*
X116015000Y-129765000D03*
X113475000Y-127225000D03*
X113475000Y-129765000D03*
X110935000Y-127225000D03*
X110935000Y-129765000D03*
X108395000Y-127225000D03*
X108395000Y-129765000D03*
X105855000Y-127225000D03*
X105855000Y-129765000D03*
X103315000Y-127225000D03*
X103315000Y-129765000D03*
%TD*%
D13*
%TO.C,SW2*%
X96500000Y-94750000D03*
X96500000Y-97750000D03*
%TD*%
D10*
%TO.C,H2*%
X98425000Y-130711320D03*
%TD*%
D14*
%TO.C,J8*%
X155145000Y-102640000D03*
X155145000Y-96860000D03*
D15*
X154645000Y-104070000D03*
D16*
X158825000Y-104070000D03*
D15*
X154645000Y-95430000D03*
D16*
X158825000Y-95430000D03*
%TD*%
M02*
