M48
; DRILL file {KiCad 9.0.7-9.0.7~ubuntu24.04.1} date 2026-02-22T00:04:21-0800
; FORMAT={-:-/ absolute / metric / decimal}
; #@! TF.CreationDate,2026-02-22T00:04:21-08:00
; #@! TF.GenerationSoftware,Kicad,Pcbnew,9.0.7-9.0.7~ubuntu24.04.1
; #@! TF.FileFunction,MixedPlating,1,4
FMAT,2
METRIC
; #@! TA.AperFunction,Plated,PTH,ViaDrill
T1C0.300
; #@! TA.AperFunction,Plated,PTH,ComponentDrill
T2C0.600
; #@! TA.AperFunction,Plated,PTH,ComponentDrill
T3C1.000
; #@! TA.AperFunction,NonPlated,NPTH,ComponentDrill
T4C0.650
; #@! TA.AperFunction,NonPlated,NPTH,ComponentDrill
T5C0.900
; #@! TA.AperFunction,NonPlated,NPTH,ComponentDrill
T6C2.200
%
G90
G05
T1
X96.75Y-105.05
X97.0Y-76.0
X97.0Y-79.0
X97.0Y-82.0
X97.0Y-85.0
X97.0Y-88.0
X97.0Y-115.0
X97.0Y-118.0
X97.0Y-121.0
X97.0Y-124.0
X97.0Y-127.0
X97.75Y-113.162
X98.0Y-103.0
X99.0Y-90.0
X99.76Y-94.0
X99.76Y-98.5
X100.0Y-88.0
X100.0Y-116.0
X100.0Y-119.0
X100.0Y-123.0
X100.0Y-127.0
X100.3Y-80.45
X100.35Y-84.25
X100.5Y-111.0
X101.0Y-72.0
X101.0Y-92.0
X101.0Y-100.0
X101.0Y-105.0
X102.0Y-90.0
X103.0Y-88.0
X103.0Y-103.0
X103.0Y-108.0
X103.0Y-111.0
X103.0Y-114.0
X103.0Y-117.0
X103.0Y-121.0
X103.25Y-72.75
X103.25Y-79.25
X103.25Y-125.0
X103.35Y-81.2
X103.8Y-84.1
X104.0Y-92.0
X104.0Y-98.0
X105.0Y-72.0
X105.0Y-90.0
X105.0Y-95.0
X105.0Y-101.0
X105.0Y-111.0
X105.6Y-105.2
X105.75Y-79.25
X105.75Y-125.0
X105.75Y-131.75
X106.0Y-108.5
X106.0Y-119.0
X106.0Y-123.0
X106.1Y-86.25
X107.0Y-99.0
X107.0Y-114.0
X108.0Y-72.0
X108.0Y-92.0
X108.0Y-94.0
X108.0Y-102.6
X108.0Y-107.5
X108.0Y-132.0
X108.25Y-125.0
X108.4Y-79.2
X108.4Y-80.9
X108.8Y-88.8
X108.887Y-100.5
X109.0Y-97.0
X109.0Y-111.0
X109.0Y-117.0
X109.104Y-104.65
X109.3Y-83.25
X110.8Y-81.1
X110.85Y-90.55
X110.9Y-121.9
X110.95Y-131.45
X111.0Y-72.0
X111.0Y-95.0
X111.0Y-114.0
X111.5Y-102.7
X111.6Y-85.55
X111.6Y-107.4
X112.1Y-125.1
X112.2Y-128.5
X112.25Y-78.95
X112.6Y-83.0
X112.7Y-123.4
X113.0Y-98.0
X113.0Y-111.0
X113.0Y-132.0
X113.2Y-119.45
X113.35Y-87.35
X113.675Y-125.075
X114.0Y-72.0
X114.0Y-95.0
X114.75Y-78.85
X114.8Y-107.3
X114.8Y-121.85
X114.9Y-85.45
X114.9Y-102.7
X115.0Y-113.0
X115.1Y-100.5
X115.7Y-116.95
X116.0Y-72.75
X116.0Y-79.25
X116.05Y-124.1
X116.25Y-131.75
X116.3Y-80.85
X116.95Y-119.55
X117.0Y-95.0
X117.0Y-98.0
X117.25Y-128.5
X117.3Y-110.0
X118.0Y-101.0
X118.0Y-104.0
X118.0Y-122.25
X118.45Y-114.2
X118.5Y-72.75
X118.5Y-79.25
X118.5Y-81.0
X118.55Y-82.75
X118.75Y-125.25
X118.75Y-131.75
X119.25Y-117.45
X119.7Y-120.4
X119.85Y-128.5
X120.1Y-123.8
X120.35Y-81.9
X121.0Y-72.0
X121.0Y-95.0
X121.0Y-97.0
X121.0Y-99.0
X121.0Y-101.0
X121.0Y-103.0
X121.0Y-105.0
X121.0Y-107.0
X121.25Y-125.25
X121.25Y-131.75
X121.45Y-108.7
X121.45Y-110.0
X121.45Y-118.65
X121.65Y-122.0
X121.8Y-114.9
X122.25Y-99.6
X122.277Y-104.95
X122.29Y-103.35
X122.4Y-82.85
X123.0Y-95.0
X123.0Y-101.0
X123.0Y-107.0
X123.0Y-120.45
X123.4Y-116.7
X123.5Y-125.25
X123.8Y-132.0
X124.0Y-72.0
X124.55Y-122.55
X124.7Y-124.15
X124.8Y-86.9
X124.8Y-88.4
X124.8Y-89.9
X124.8Y-91.6
X124.9Y-128.5
X124.95Y-118.6
X125.0Y-95.0
X125.0Y-101.0
X125.0Y-107.0
X125.2Y-115.0
X125.275Y-95.85
X125.6Y-90.7
X125.6Y-92.3
X125.65Y-86.2
X125.65Y-87.6
X125.65Y-89.132
X126.0Y-72.75
X126.25Y-79.25
X126.25Y-131.5
X126.45Y-120.5
X126.7Y-104.95
X126.7Y-116.85
X126.925Y-95.95
X127.0Y-95.0
X127.0Y-101.0
X127.0Y-106.0
X127.3Y-112.9
X127.4Y-123.8
X127.45Y-128.5
X127.775Y-99.05
X128.0Y-104.75
X128.2Y-95.2
X128.4Y-102.5
X128.4Y-115.2
X128.45Y-118.5
X128.6Y-96.4
X128.6Y-97.4
X128.7Y-121.85
X128.75Y-72.75
X128.75Y-79.25
X128.75Y-125.25
X129.0Y-101.0
X129.0Y-132.0
X129.4Y-110.8
X130.05Y-113.55
X130.4Y-116.55
X130.85Y-90.65
X130.9Y-119.45
X131.0Y-72.0
X131.25Y-79.25
X131.25Y-131.5
X131.3Y-123.7
X131.7Y-112.0
X131.9Y-110.35
X131.97Y-91.25
X132.25Y-114.65
X132.45Y-121.8
X132.5Y-128.5
X133.05Y-117.35
X133.1Y-101.5
X133.2Y-109.4
X133.4Y-110.7
X133.495Y-91.275
X133.75Y-79.25
X133.75Y-125.25
X133.75Y-131.5
X133.9Y-102.6
X134.0Y-72.0
X134.2Y-101.5
X134.2Y-120.05
X134.3Y-109.4
X134.35Y-112.65
X134.4Y-103.7
X134.6Y-105.3
X135.05Y-128.5
X135.15Y-115.3
X135.2Y-103.0
X135.45Y-123.4
X135.95Y-102.25
X135.95Y-111.05
X136.15Y-105.3
X136.2Y-118.05
X136.25Y-125.25
X136.5Y-131.5
X136.55Y-113.65
X136.625Y-101.425
X136.95Y-121.35
X137.0Y-72.0
X137.05Y-97.45
X137.25Y-100.75
X137.8Y-100.0
X138.65Y-99.5
X138.65Y-119.75
X138.7Y-123.0
X138.75Y-125.25
X138.8Y-97.4
X138.85Y-112.25
X138.9Y-114.3
X138.9Y-117.05
X139.0Y-132.0
X139.25Y-110.5
X139.4Y-98.8
X140.0Y-72.0
X140.1Y-124.1
X140.15Y-128.5
X140.2Y-98.15
X140.2Y-109.75
X140.25Y-121.5
X140.7Y-115.5
X140.7Y-118.9
X140.75Y-113.0
X140.9Y-100.15
X140.9Y-102.0
X141.25Y-72.75
X141.25Y-79.25
X141.3Y-109.4
X141.5Y-131.5
X141.75Y-95.05
X143.6Y-121.75
X143.65Y-113.65
X143.65Y-115.95
X143.65Y-118.65
X143.75Y-92.95
X143.95Y-125.0
X144.0Y-72.75
X144.0Y-79.25
X144.0Y-81.7
X144.0Y-84.8
X144.0Y-87.85
X144.0Y-132.0
X145.1Y-97.2
X145.1Y-98.2
X145.25Y-128.5
X145.6Y-117.4
X145.65Y-121.15
X145.7Y-123.7
X145.75Y-114.45
X145.9Y-90.8
X146.0Y-72.0
X146.0Y-95.0
X146.325Y-101.7
X146.4Y-79.25
X146.45Y-81.65
X146.45Y-84.0
X146.45Y-86.7
X146.5Y-131.75
X146.65Y-111.5
X146.7Y-107.75
X146.7Y-109.65
X147.55Y-89.2
X147.625Y-104.175
X147.75Y-128.5
X148.0Y-93.0
X148.0Y-97.0
X148.0Y-116.1
X148.05Y-118.65
X148.05Y-124.45
X148.1Y-121.5
X148.8Y-80.15
X148.85Y-87.2
X148.85Y-114.1
X149.0Y-72.0
X149.05Y-82.4
X149.05Y-131.85
X149.1Y-111.9
X149.3Y-84.85
X149.6Y-95.1
X149.995Y-102.0
X150.0Y-91.0
X150.2Y-128.65
X150.8Y-121.1
X151.0Y-93.0
X151.5Y-131.75
X151.55Y-118.1
X151.6Y-125.05
X151.75Y-72.75
X151.75Y-79.25
X152.05Y-121.1
X152.2Y-96.4
X152.222Y-99.25
X152.35Y-95.35
X152.55Y-118.1
X152.85Y-102.95
X152.9Y-104.05
X153.0Y-81.0
X153.0Y-84.0
X153.0Y-87.0
X153.0Y-90.0
X153.15Y-105.5
X153.19Y-93.35
X153.3Y-121.1
X153.55Y-112.0
X153.6Y-110.275
X154.0Y-72.0
X154.0Y-75.0
X154.0Y-126.4
X154.0Y-129.0
X154.0Y-132.0
X154.05Y-113.35
X154.05Y-114.35
X154.35Y-119.1
X154.4Y-105.9
X155.05Y-113.35
X155.05Y-114.35
X155.3Y-111.3
X155.7Y-91.35
X156.0Y-77.0
X156.0Y-80.0
X156.0Y-83.0
X156.0Y-86.0
X156.0Y-89.0
X156.0Y-125.0
X156.7Y-127.05
X156.8Y-117.1
X156.8Y-121.6
X156.9Y-99.7
X157.0Y-112.0
X157.0Y-115.0
X157.8Y-117.1
X157.8Y-121.6
X157.9Y-107.455
X157.9Y-109.205
X158.75Y-93.8
X158.8Y-105.5
X159.0Y-77.0
X159.0Y-80.0
X159.0Y-83.0
X159.0Y-86.0
X159.0Y-89.0
X159.0Y-92.0
X159.0Y-98.0
X159.0Y-101.0
X159.0Y-112.0
X159.0Y-115.0
X159.0Y-125.0
X159.0Y-128.0
T3
X103.315Y-74.685
X103.315Y-77.225
X103.315Y-127.225
X103.315Y-129.765
X105.855Y-74.685
X105.855Y-77.225
X105.855Y-127.225
X105.855Y-129.765
X108.395Y-74.685
X108.395Y-77.225
X108.395Y-127.225
X108.395Y-129.765
X110.935Y-74.685
X110.935Y-77.225
X110.935Y-127.225
X110.935Y-129.765
X113.475Y-74.685
X113.475Y-77.225
X113.475Y-127.225
X113.475Y-129.765
X116.015Y-74.685
X116.015Y-77.225
X116.015Y-127.225
X116.015Y-129.765
X118.555Y-74.685
X118.555Y-77.225
X118.555Y-127.225
X118.555Y-129.765
X121.095Y-74.685
X121.095Y-77.225
X121.095Y-127.225
X121.095Y-129.765
X123.635Y-74.685
X123.635Y-77.225
X123.635Y-127.225
X123.635Y-129.765
X126.175Y-74.685
X126.175Y-77.225
X126.175Y-127.225
X126.175Y-129.765
X128.715Y-74.685
X128.715Y-77.225
X128.715Y-127.225
X128.715Y-129.765
X131.255Y-74.685
X131.255Y-77.225
X131.255Y-127.225
X131.255Y-129.765
X133.795Y-74.685
X133.795Y-77.225
X133.795Y-127.225
X133.795Y-129.765
X136.335Y-74.685
X136.335Y-77.225
X136.335Y-127.225
X136.335Y-129.765
X138.875Y-74.685
X138.875Y-77.225
X138.875Y-127.225
X138.875Y-129.765
X141.415Y-74.685
X141.415Y-77.225
X141.415Y-127.225
X141.415Y-129.765
X143.955Y-74.685
X143.955Y-77.225
X143.955Y-127.225
X143.955Y-129.765
X146.495Y-74.685
X146.495Y-77.225
X146.495Y-127.225
X146.495Y-129.765
X149.035Y-74.685
X149.035Y-77.225
X149.035Y-127.225
X149.035Y-129.765
X151.575Y-74.685
X151.575Y-77.225
X151.575Y-127.225
X151.575Y-129.765
T4
X155.145Y-96.86
X155.145Y-102.64
T5
X96.5Y-94.75
X96.5Y-97.75
T6
X98.425Y-73.71
X98.425Y-130.711
X157.425Y-73.735
X157.425Y-130.74
T2
G00X154.095Y-95.43
M15
G01X155.195Y-95.43
M16
G05
G00X154.095Y-104.07
M15
G01X155.195Y-104.07
M16
G05
G00X158.425Y-95.43
M15
G01X159.225Y-95.43
M16
G05
G00X158.425Y-104.07
M15
G01X159.225Y-104.07
M16
G05
M30
