M48
; DRILL file {KiCad 9.0.7-9.0.7~ubuntu22.04.1} date 2026-02-11T22:31:54-0800
; FORMAT={-:-/ absolute / metric / decimal}
; #@! TF.CreationDate,2026-02-11T22:31:54-08:00
; #@! TF.GenerationSoftware,Kicad,Pcbnew,9.0.7-9.0.7~ubuntu22.04.1
; #@! TF.FileFunction,MixedPlating,1,4
FMAT,2
METRIC
; #@! TA.AperFunction,Plated,PTH,ViaDrill
T1C0.300
; #@! TA.AperFunction,Plated,PTH,ComponentDrill
T2C0.600
; #@! TA.AperFunction,Plated,PTH,ComponentDrill
T3C1.000
; #@! TA.AperFunction,NonPlated,NPTH,ComponentDrill
T4C0.650
; #@! TA.AperFunction,NonPlated,NPTH,ComponentDrill
T5C0.900
; #@! TA.AperFunction,NonPlated,NPTH,ComponentDrill
T6C2.200
%
G90
G05
T1
X96.75Y-105.05
X97.75Y-113.162
X99.76Y-94.0
X99.76Y-98.5
X103.25Y-72.75
X103.25Y-79.25
X103.25Y-125.0
X103.25Y-131.75
X105.75Y-79.25
X105.75Y-125.0
X105.75Y-131.75
X108.25Y-79.25
X108.25Y-125.0
X108.887Y-100.5
X109.104Y-104.65
X110.95Y-131.45
X113.675Y-125.075
X115.1Y-100.5
X116.0Y-72.75
X116.0Y-79.25
X116.25Y-131.75
X118.5Y-72.75
X118.5Y-79.25
X118.75Y-125.25
X118.75Y-131.75
X121.25Y-125.25
X121.25Y-131.75
X121.45Y-107.75
X121.45Y-108.7
X121.9Y-99.6
X122.277Y-104.95
X122.29Y-103.35
X123.5Y-125.25
X124.8Y-86.9
X124.8Y-88.4
X124.8Y-89.9
X124.8Y-91.6
X125.225Y-95.8
X125.323Y-89.132
X125.4Y-90.7
X125.4Y-92.3
X125.5Y-86.2
X125.5Y-87.6
X126.0Y-72.75
X126.25Y-131.5
X126.5Y-79.25
X126.7Y-104.95
X126.925Y-95.95
X127.775Y-99.05
X128.4Y-102.5
X128.5Y-97.25
X128.75Y-72.75
X128.75Y-79.25
X128.75Y-125.25
X129.5Y-95.603
X131.25Y-79.25
X131.25Y-131.5
X131.97Y-91.25
X133.1Y-101.5
X133.2Y-109.5
X133.495Y-91.275
X133.75Y-79.25
X133.75Y-125.25
X133.75Y-131.5
X134.0Y-101.5
X134.25Y-109.25
X134.539Y-103.61
X135.2Y-103.0
X135.95Y-102.25
X136.25Y-125.25
X136.5Y-131.5
X136.625Y-101.425
X137.25Y-100.75
X137.8Y-100.0
X138.65Y-99.5
X138.75Y-125.25
X139.25Y-110.5
X139.4Y-98.8
X140.2Y-98.15
X140.3Y-109.5
X141.25Y-72.75
X141.25Y-79.25
X141.25Y-109.25
X141.5Y-131.5
X143.95Y-125.0
X144.0Y-72.75
X144.0Y-79.25
X145.0Y-97.25
X145.055Y-98.195
X146.5Y-131.75
X146.55Y-107.75
X147.625Y-104.175
X149.05Y-131.85
X149.995Y-102.0
X150.8Y-121.1
X151.5Y-131.75
X151.55Y-118.1
X151.75Y-72.75
X151.75Y-79.25
X152.05Y-121.1
X152.2Y-96.4
X152.222Y-99.25
X152.55Y-118.1
X152.85Y-102.95
X153.19Y-93.35
X153.3Y-121.1
X153.55Y-112.0
X153.6Y-110.275
X154.05Y-113.35
X154.05Y-114.35
X154.4Y-105.9
X155.05Y-113.35
X155.05Y-114.35
X156.8Y-117.1
X156.8Y-121.6
X157.8Y-117.1
X157.8Y-121.6
X157.9Y-107.455
X157.9Y-109.205
T3
X103.315Y-74.685
X103.315Y-77.225
X103.315Y-127.225
X103.315Y-129.765
X105.855Y-74.685
X105.855Y-77.225
X105.855Y-127.225
X105.855Y-129.765
X108.395Y-74.685
X108.395Y-77.225
X108.395Y-127.225
X108.395Y-129.765
X110.935Y-74.685
X110.935Y-77.225
X110.935Y-127.225
X110.935Y-129.765
X113.475Y-74.685
X113.475Y-77.225
X113.475Y-127.225
X113.475Y-129.765
X116.015Y-74.685
X116.015Y-77.225
X116.015Y-127.225
X116.015Y-129.765
X118.555Y-74.685
X118.555Y-77.225
X118.555Y-127.225
X118.555Y-129.765
X121.095Y-74.685
X121.095Y-77.225
X121.095Y-127.225
X121.095Y-129.765
X123.635Y-74.685
X123.635Y-77.225
X123.635Y-127.225
X123.635Y-129.765
X126.175Y-74.685
X126.175Y-77.225
X126.175Y-127.225
X126.175Y-129.765
X128.715Y-74.685
X128.715Y-77.225
X128.715Y-127.225
X128.715Y-129.765
X131.255Y-74.685
X131.255Y-77.225
X131.255Y-127.225
X131.255Y-129.765
X133.795Y-74.685
X133.795Y-77.225
X133.795Y-127.225
X133.795Y-129.765
X136.335Y-74.685
X136.335Y-77.225
X136.335Y-127.225
X136.335Y-129.765
X138.875Y-74.685
X138.875Y-77.225
X138.875Y-127.225
X138.875Y-129.765
X141.415Y-74.685
X141.415Y-77.225
X141.415Y-127.225
X141.415Y-129.765
X143.955Y-74.685
X143.955Y-77.225
X143.955Y-127.225
X143.955Y-129.765
X146.495Y-74.685
X146.495Y-77.225
X146.495Y-127.225
X146.495Y-129.765
X149.035Y-74.685
X149.035Y-77.225
X149.035Y-127.225
X149.035Y-129.765
X151.575Y-74.685
X151.575Y-77.225
X151.575Y-127.225
X151.575Y-129.765
T4
X155.145Y-96.86
X155.145Y-102.64
T5
X96.5Y-94.75
X96.5Y-97.75
T6
X98.425Y-73.71
X98.425Y-130.711
X157.425Y-73.735
X157.425Y-130.74
T2
G00X154.095Y-95.43
M15
G01X155.195Y-95.43
M16
G05
G00X154.095Y-104.07
M15
G01X155.195Y-104.07
M16
G05
G00X158.425Y-95.43
M15
G01X159.225Y-95.43
M16
G05
G00X158.425Y-104.07
M15
G01X159.225Y-104.07
M16
G05
M30
