%TF.GenerationSoftware,KiCad,Pcbnew,9.0.7-9.0.7~ubuntu22.04.1*%
%TF.CreationDate,2026-01-23T21:09:14-08:00*%
%TF.ProjectId,Tiny_Thinker,54696e79-5f54-4686-996e-6b65722e6b69,rev?*%
%TF.SameCoordinates,Original*%
%TF.FileFunction,Legend,Top*%
%TF.FilePolarity,Positive*%
%FSLAX46Y46*%
G04 Gerber Fmt 4.6, Leading zero omitted, Abs format (unit mm)*
G04 Created by KiCad (PCBNEW 9.0.7-9.0.7~ubuntu22.04.1) date 2026-01-23 21:09:14*
%MOMM*%
%LPD*%
G01*
G04 APERTURE LIST*
%ADD10C,0.200000*%
%ADD11C,0.300000*%
%ADD12C,0.150000*%
%ADD13C,0.000000*%
%ADD14C,0.120000*%
G04 APERTURE END LIST*
D10*
X119369673Y-116867219D02*
X119369673Y-115867219D01*
X119369673Y-115867219D02*
X119750625Y-115867219D01*
X119750625Y-115867219D02*
X119845863Y-115914838D01*
X119845863Y-115914838D02*
X119893482Y-115962457D01*
X119893482Y-115962457D02*
X119941101Y-116057695D01*
X119941101Y-116057695D02*
X119941101Y-116200552D01*
X119941101Y-116200552D02*
X119893482Y-116295790D01*
X119893482Y-116295790D02*
X119845863Y-116343409D01*
X119845863Y-116343409D02*
X119750625Y-116391028D01*
X119750625Y-116391028D02*
X119369673Y-116391028D01*
X120512530Y-116867219D02*
X120417292Y-116819600D01*
X120417292Y-116819600D02*
X120369673Y-116771980D01*
X120369673Y-116771980D02*
X120322054Y-116676742D01*
X120322054Y-116676742D02*
X120322054Y-116391028D01*
X120322054Y-116391028D02*
X120369673Y-116295790D01*
X120369673Y-116295790D02*
X120417292Y-116248171D01*
X120417292Y-116248171D02*
X120512530Y-116200552D01*
X120512530Y-116200552D02*
X120655387Y-116200552D01*
X120655387Y-116200552D02*
X120750625Y-116248171D01*
X120750625Y-116248171D02*
X120798244Y-116295790D01*
X120798244Y-116295790D02*
X120845863Y-116391028D01*
X120845863Y-116391028D02*
X120845863Y-116676742D01*
X120845863Y-116676742D02*
X120798244Y-116771980D01*
X120798244Y-116771980D02*
X120750625Y-116819600D01*
X120750625Y-116819600D02*
X120655387Y-116867219D01*
X120655387Y-116867219D02*
X120512530Y-116867219D01*
X121417292Y-116867219D02*
X121322054Y-116819600D01*
X121322054Y-116819600D02*
X121274435Y-116724361D01*
X121274435Y-116724361D02*
X121274435Y-115867219D01*
X122226816Y-116867219D02*
X122226816Y-116343409D01*
X122226816Y-116343409D02*
X122179197Y-116248171D01*
X122179197Y-116248171D02*
X122083959Y-116200552D01*
X122083959Y-116200552D02*
X121893483Y-116200552D01*
X121893483Y-116200552D02*
X121798245Y-116248171D01*
X122226816Y-116819600D02*
X122131578Y-116867219D01*
X122131578Y-116867219D02*
X121893483Y-116867219D01*
X121893483Y-116867219D02*
X121798245Y-116819600D01*
X121798245Y-116819600D02*
X121750626Y-116724361D01*
X121750626Y-116724361D02*
X121750626Y-116629123D01*
X121750626Y-116629123D02*
X121798245Y-116533885D01*
X121798245Y-116533885D02*
X121893483Y-116486266D01*
X121893483Y-116486266D02*
X122131578Y-116486266D01*
X122131578Y-116486266D02*
X122226816Y-116438647D01*
X122703007Y-116867219D02*
X122703007Y-116200552D01*
X122703007Y-116391028D02*
X122750626Y-116295790D01*
X122750626Y-116295790D02*
X122798245Y-116248171D01*
X122798245Y-116248171D02*
X122893483Y-116200552D01*
X122893483Y-116200552D02*
X122988721Y-116200552D01*
X124655388Y-116867219D02*
X124322055Y-116391028D01*
X124083960Y-116867219D02*
X124083960Y-115867219D01*
X124083960Y-115867219D02*
X124464912Y-115867219D01*
X124464912Y-115867219D02*
X124560150Y-115914838D01*
X124560150Y-115914838D02*
X124607769Y-115962457D01*
X124607769Y-115962457D02*
X124655388Y-116057695D01*
X124655388Y-116057695D02*
X124655388Y-116200552D01*
X124655388Y-116200552D02*
X124607769Y-116295790D01*
X124607769Y-116295790D02*
X124560150Y-116343409D01*
X124560150Y-116343409D02*
X124464912Y-116391028D01*
X124464912Y-116391028D02*
X124083960Y-116391028D01*
X125226817Y-116867219D02*
X125131579Y-116819600D01*
X125131579Y-116819600D02*
X125083960Y-116771980D01*
X125083960Y-116771980D02*
X125036341Y-116676742D01*
X125036341Y-116676742D02*
X125036341Y-116391028D01*
X125036341Y-116391028D02*
X125083960Y-116295790D01*
X125083960Y-116295790D02*
X125131579Y-116248171D01*
X125131579Y-116248171D02*
X125226817Y-116200552D01*
X125226817Y-116200552D02*
X125369674Y-116200552D01*
X125369674Y-116200552D02*
X125464912Y-116248171D01*
X125464912Y-116248171D02*
X125512531Y-116295790D01*
X125512531Y-116295790D02*
X125560150Y-116391028D01*
X125560150Y-116391028D02*
X125560150Y-116676742D01*
X125560150Y-116676742D02*
X125512531Y-116771980D01*
X125512531Y-116771980D02*
X125464912Y-116819600D01*
X125464912Y-116819600D02*
X125369674Y-116867219D01*
X125369674Y-116867219D02*
X125226817Y-116867219D01*
X125988722Y-116867219D02*
X125988722Y-115867219D01*
X125988722Y-116248171D02*
X126083960Y-116200552D01*
X126083960Y-116200552D02*
X126274436Y-116200552D01*
X126274436Y-116200552D02*
X126369674Y-116248171D01*
X126369674Y-116248171D02*
X126417293Y-116295790D01*
X126417293Y-116295790D02*
X126464912Y-116391028D01*
X126464912Y-116391028D02*
X126464912Y-116676742D01*
X126464912Y-116676742D02*
X126417293Y-116771980D01*
X126417293Y-116771980D02*
X126369674Y-116819600D01*
X126369674Y-116819600D02*
X126274436Y-116867219D01*
X126274436Y-116867219D02*
X126083960Y-116867219D01*
X126083960Y-116867219D02*
X125988722Y-116819600D01*
X127036341Y-116867219D02*
X126941103Y-116819600D01*
X126941103Y-116819600D02*
X126893484Y-116771980D01*
X126893484Y-116771980D02*
X126845865Y-116676742D01*
X126845865Y-116676742D02*
X126845865Y-116391028D01*
X126845865Y-116391028D02*
X126893484Y-116295790D01*
X126893484Y-116295790D02*
X126941103Y-116248171D01*
X126941103Y-116248171D02*
X127036341Y-116200552D01*
X127036341Y-116200552D02*
X127179198Y-116200552D01*
X127179198Y-116200552D02*
X127274436Y-116248171D01*
X127274436Y-116248171D02*
X127322055Y-116295790D01*
X127322055Y-116295790D02*
X127369674Y-116391028D01*
X127369674Y-116391028D02*
X127369674Y-116676742D01*
X127369674Y-116676742D02*
X127322055Y-116771980D01*
X127322055Y-116771980D02*
X127274436Y-116819600D01*
X127274436Y-116819600D02*
X127179198Y-116867219D01*
X127179198Y-116867219D02*
X127036341Y-116867219D01*
X127655389Y-116200552D02*
X128036341Y-116200552D01*
X127798246Y-115867219D02*
X127798246Y-116724361D01*
X127798246Y-116724361D02*
X127845865Y-116819600D01*
X127845865Y-116819600D02*
X127941103Y-116867219D01*
X127941103Y-116867219D02*
X128036341Y-116867219D01*
X128369675Y-116867219D02*
X128369675Y-116200552D01*
X128369675Y-115867219D02*
X128322056Y-115914838D01*
X128322056Y-115914838D02*
X128369675Y-115962457D01*
X128369675Y-115962457D02*
X128417294Y-115914838D01*
X128417294Y-115914838D02*
X128369675Y-115867219D01*
X128369675Y-115867219D02*
X128369675Y-115962457D01*
X129274436Y-116819600D02*
X129179198Y-116867219D01*
X129179198Y-116867219D02*
X128988722Y-116867219D01*
X128988722Y-116867219D02*
X128893484Y-116819600D01*
X128893484Y-116819600D02*
X128845865Y-116771980D01*
X128845865Y-116771980D02*
X128798246Y-116676742D01*
X128798246Y-116676742D02*
X128798246Y-116391028D01*
X128798246Y-116391028D02*
X128845865Y-116295790D01*
X128845865Y-116295790D02*
X128893484Y-116248171D01*
X128893484Y-116248171D02*
X128988722Y-116200552D01*
X128988722Y-116200552D02*
X129179198Y-116200552D01*
X129179198Y-116200552D02*
X129274436Y-116248171D01*
X129655389Y-116819600D02*
X129750627Y-116867219D01*
X129750627Y-116867219D02*
X129941103Y-116867219D01*
X129941103Y-116867219D02*
X130036341Y-116819600D01*
X130036341Y-116819600D02*
X130083960Y-116724361D01*
X130083960Y-116724361D02*
X130083960Y-116676742D01*
X130083960Y-116676742D02*
X130036341Y-116581504D01*
X130036341Y-116581504D02*
X129941103Y-116533885D01*
X129941103Y-116533885D02*
X129798246Y-116533885D01*
X129798246Y-116533885D02*
X129703008Y-116486266D01*
X129703008Y-116486266D02*
X129655389Y-116391028D01*
X129655389Y-116391028D02*
X129655389Y-116343409D01*
X129655389Y-116343409D02*
X129703008Y-116248171D01*
X129703008Y-116248171D02*
X129798246Y-116200552D01*
X129798246Y-116200552D02*
X129941103Y-116200552D01*
X129941103Y-116200552D02*
X130036341Y-116248171D01*
D11*
X121411653Y-112800828D02*
X121768796Y-113800828D01*
X121768796Y-113800828D02*
X122125939Y-112800828D01*
X123483082Y-113800828D02*
X122625939Y-113800828D01*
X123054510Y-113800828D02*
X123054510Y-112300828D01*
X123054510Y-112300828D02*
X122911653Y-112515114D01*
X122911653Y-112515114D02*
X122768796Y-112657971D01*
X122768796Y-112657971D02*
X122625939Y-112729400D01*
X124125938Y-113657971D02*
X124197367Y-113729400D01*
X124197367Y-113729400D02*
X124125938Y-113800828D01*
X124125938Y-113800828D02*
X124054510Y-113729400D01*
X124054510Y-113729400D02*
X124125938Y-113657971D01*
X124125938Y-113657971D02*
X124125938Y-113800828D01*
X125125939Y-112300828D02*
X125268796Y-112300828D01*
X125268796Y-112300828D02*
X125411653Y-112372257D01*
X125411653Y-112372257D02*
X125483082Y-112443685D01*
X125483082Y-112443685D02*
X125554510Y-112586542D01*
X125554510Y-112586542D02*
X125625939Y-112872257D01*
X125625939Y-112872257D02*
X125625939Y-113229400D01*
X125625939Y-113229400D02*
X125554510Y-113515114D01*
X125554510Y-113515114D02*
X125483082Y-113657971D01*
X125483082Y-113657971D02*
X125411653Y-113729400D01*
X125411653Y-113729400D02*
X125268796Y-113800828D01*
X125268796Y-113800828D02*
X125125939Y-113800828D01*
X125125939Y-113800828D02*
X124983082Y-113729400D01*
X124983082Y-113729400D02*
X124911653Y-113657971D01*
X124911653Y-113657971D02*
X124840224Y-113515114D01*
X124840224Y-113515114D02*
X124768796Y-113229400D01*
X124768796Y-113229400D02*
X124768796Y-112872257D01*
X124768796Y-112872257D02*
X124840224Y-112586542D01*
X124840224Y-112586542D02*
X124911653Y-112443685D01*
X124911653Y-112443685D02*
X124983082Y-112372257D01*
X124983082Y-112372257D02*
X125125939Y-112300828D01*
X105387844Y-108739638D02*
X106530701Y-108739638D01*
X105959272Y-110739638D02*
X105959272Y-108739638D01*
X107197368Y-110739638D02*
X107197368Y-109406304D01*
X107197368Y-108739638D02*
X107102130Y-108834876D01*
X107102130Y-108834876D02*
X107197368Y-108930114D01*
X107197368Y-108930114D02*
X107292606Y-108834876D01*
X107292606Y-108834876D02*
X107197368Y-108739638D01*
X107197368Y-108739638D02*
X107197368Y-108930114D01*
X108149749Y-109406304D02*
X108149749Y-110739638D01*
X108149749Y-109596780D02*
X108244987Y-109501542D01*
X108244987Y-109501542D02*
X108435463Y-109406304D01*
X108435463Y-109406304D02*
X108721178Y-109406304D01*
X108721178Y-109406304D02*
X108911654Y-109501542D01*
X108911654Y-109501542D02*
X109006892Y-109692019D01*
X109006892Y-109692019D02*
X109006892Y-110739638D01*
X109768797Y-109406304D02*
X110244987Y-110739638D01*
X110721178Y-109406304D02*
X110244987Y-110739638D01*
X110244987Y-110739638D02*
X110054511Y-111215828D01*
X110054511Y-111215828D02*
X109959273Y-111311066D01*
X109959273Y-111311066D02*
X109768797Y-111406304D01*
X112721179Y-108739638D02*
X113864036Y-108739638D01*
X113292607Y-110739638D02*
X113292607Y-108739638D01*
X114530703Y-110739638D02*
X114530703Y-108739638D01*
X115387846Y-110739638D02*
X115387846Y-109692019D01*
X115387846Y-109692019D02*
X115292608Y-109501542D01*
X115292608Y-109501542D02*
X115102132Y-109406304D01*
X115102132Y-109406304D02*
X114816417Y-109406304D01*
X114816417Y-109406304D02*
X114625941Y-109501542D01*
X114625941Y-109501542D02*
X114530703Y-109596780D01*
X116340227Y-110739638D02*
X116340227Y-109406304D01*
X116340227Y-108739638D02*
X116244989Y-108834876D01*
X116244989Y-108834876D02*
X116340227Y-108930114D01*
X116340227Y-108930114D02*
X116435465Y-108834876D01*
X116435465Y-108834876D02*
X116340227Y-108739638D01*
X116340227Y-108739638D02*
X116340227Y-108930114D01*
X117292608Y-109406304D02*
X117292608Y-110739638D01*
X117292608Y-109596780D02*
X117387846Y-109501542D01*
X117387846Y-109501542D02*
X117578322Y-109406304D01*
X117578322Y-109406304D02*
X117864037Y-109406304D01*
X117864037Y-109406304D02*
X118054513Y-109501542D01*
X118054513Y-109501542D02*
X118149751Y-109692019D01*
X118149751Y-109692019D02*
X118149751Y-110739638D01*
X119102132Y-110739638D02*
X119102132Y-108739638D01*
X119292608Y-109977733D02*
X119864037Y-110739638D01*
X119864037Y-109406304D02*
X119102132Y-110168209D01*
X121483085Y-110644400D02*
X121292609Y-110739638D01*
X121292609Y-110739638D02*
X120911656Y-110739638D01*
X120911656Y-110739638D02*
X120721180Y-110644400D01*
X120721180Y-110644400D02*
X120625942Y-110453923D01*
X120625942Y-110453923D02*
X120625942Y-109692019D01*
X120625942Y-109692019D02*
X120721180Y-109501542D01*
X120721180Y-109501542D02*
X120911656Y-109406304D01*
X120911656Y-109406304D02*
X121292609Y-109406304D01*
X121292609Y-109406304D02*
X121483085Y-109501542D01*
X121483085Y-109501542D02*
X121578323Y-109692019D01*
X121578323Y-109692019D02*
X121578323Y-109882495D01*
X121578323Y-109882495D02*
X120625942Y-110072971D01*
X122435466Y-110739638D02*
X122435466Y-109406304D01*
X122435466Y-109787257D02*
X122530704Y-109596780D01*
X122530704Y-109596780D02*
X122625942Y-109501542D01*
X122625942Y-109501542D02*
X122816418Y-109406304D01*
X122816418Y-109406304D02*
X123006895Y-109406304D01*
D12*
X119714642Y-105309580D02*
X119667023Y-105357200D01*
X119667023Y-105357200D02*
X119524166Y-105404819D01*
X119524166Y-105404819D02*
X119428928Y-105404819D01*
X119428928Y-105404819D02*
X119286071Y-105357200D01*
X119286071Y-105357200D02*
X119190833Y-105261961D01*
X119190833Y-105261961D02*
X119143214Y-105166723D01*
X119143214Y-105166723D02*
X119095595Y-104976247D01*
X119095595Y-104976247D02*
X119095595Y-104833390D01*
X119095595Y-104833390D02*
X119143214Y-104642914D01*
X119143214Y-104642914D02*
X119190833Y-104547676D01*
X119190833Y-104547676D02*
X119286071Y-104452438D01*
X119286071Y-104452438D02*
X119428928Y-104404819D01*
X119428928Y-104404819D02*
X119524166Y-104404819D01*
X119524166Y-104404819D02*
X119667023Y-104452438D01*
X119667023Y-104452438D02*
X119714642Y-104500057D01*
X120667023Y-105404819D02*
X120095595Y-105404819D01*
X120381309Y-105404819D02*
X120381309Y-104404819D01*
X120381309Y-104404819D02*
X120286071Y-104547676D01*
X120286071Y-104547676D02*
X120190833Y-104642914D01*
X120190833Y-104642914D02*
X120095595Y-104690533D01*
X121619404Y-105404819D02*
X121047976Y-105404819D01*
X121333690Y-105404819D02*
X121333690Y-104404819D01*
X121333690Y-104404819D02*
X121238452Y-104547676D01*
X121238452Y-104547676D02*
X121143214Y-104642914D01*
X121143214Y-104642914D02*
X121047976Y-104690533D01*
X154357142Y-108359580D02*
X154309523Y-108407200D01*
X154309523Y-108407200D02*
X154166666Y-108454819D01*
X154166666Y-108454819D02*
X154071428Y-108454819D01*
X154071428Y-108454819D02*
X153928571Y-108407200D01*
X153928571Y-108407200D02*
X153833333Y-108311961D01*
X153833333Y-108311961D02*
X153785714Y-108216723D01*
X153785714Y-108216723D02*
X153738095Y-108026247D01*
X153738095Y-108026247D02*
X153738095Y-107883390D01*
X153738095Y-107883390D02*
X153785714Y-107692914D01*
X153785714Y-107692914D02*
X153833333Y-107597676D01*
X153833333Y-107597676D02*
X153928571Y-107502438D01*
X153928571Y-107502438D02*
X154071428Y-107454819D01*
X154071428Y-107454819D02*
X154166666Y-107454819D01*
X154166666Y-107454819D02*
X154309523Y-107502438D01*
X154309523Y-107502438D02*
X154357142Y-107550057D01*
X155309523Y-108454819D02*
X154738095Y-108454819D01*
X155023809Y-108454819D02*
X155023809Y-107454819D01*
X155023809Y-107454819D02*
X154928571Y-107597676D01*
X154928571Y-107597676D02*
X154833333Y-107692914D01*
X154833333Y-107692914D02*
X154738095Y-107740533D01*
X156166666Y-107454819D02*
X155976190Y-107454819D01*
X155976190Y-107454819D02*
X155880952Y-107502438D01*
X155880952Y-107502438D02*
X155833333Y-107550057D01*
X155833333Y-107550057D02*
X155738095Y-107692914D01*
X155738095Y-107692914D02*
X155690476Y-107883390D01*
X155690476Y-107883390D02*
X155690476Y-108264342D01*
X155690476Y-108264342D02*
X155738095Y-108359580D01*
X155738095Y-108359580D02*
X155785714Y-108407200D01*
X155785714Y-108407200D02*
X155880952Y-108454819D01*
X155880952Y-108454819D02*
X156071428Y-108454819D01*
X156071428Y-108454819D02*
X156166666Y-108407200D01*
X156166666Y-108407200D02*
X156214285Y-108359580D01*
X156214285Y-108359580D02*
X156261904Y-108264342D01*
X156261904Y-108264342D02*
X156261904Y-108026247D01*
X156261904Y-108026247D02*
X156214285Y-107931009D01*
X156214285Y-107931009D02*
X156166666Y-107883390D01*
X156166666Y-107883390D02*
X156071428Y-107835771D01*
X156071428Y-107835771D02*
X155880952Y-107835771D01*
X155880952Y-107835771D02*
X155785714Y-107883390D01*
X155785714Y-107883390D02*
X155738095Y-107931009D01*
X155738095Y-107931009D02*
X155690476Y-108026247D01*
X131333333Y-109609580D02*
X131285714Y-109657200D01*
X131285714Y-109657200D02*
X131142857Y-109704819D01*
X131142857Y-109704819D02*
X131047619Y-109704819D01*
X131047619Y-109704819D02*
X130904762Y-109657200D01*
X130904762Y-109657200D02*
X130809524Y-109561961D01*
X130809524Y-109561961D02*
X130761905Y-109466723D01*
X130761905Y-109466723D02*
X130714286Y-109276247D01*
X130714286Y-109276247D02*
X130714286Y-109133390D01*
X130714286Y-109133390D02*
X130761905Y-108942914D01*
X130761905Y-108942914D02*
X130809524Y-108847676D01*
X130809524Y-108847676D02*
X130904762Y-108752438D01*
X130904762Y-108752438D02*
X131047619Y-108704819D01*
X131047619Y-108704819D02*
X131142857Y-108704819D01*
X131142857Y-108704819D02*
X131285714Y-108752438D01*
X131285714Y-108752438D02*
X131333333Y-108800057D01*
X131714286Y-108800057D02*
X131761905Y-108752438D01*
X131761905Y-108752438D02*
X131857143Y-108704819D01*
X131857143Y-108704819D02*
X132095238Y-108704819D01*
X132095238Y-108704819D02*
X132190476Y-108752438D01*
X132190476Y-108752438D02*
X132238095Y-108800057D01*
X132238095Y-108800057D02*
X132285714Y-108895295D01*
X132285714Y-108895295D02*
X132285714Y-108990533D01*
X132285714Y-108990533D02*
X132238095Y-109133390D01*
X132238095Y-109133390D02*
X131666667Y-109704819D01*
X131666667Y-109704819D02*
X132285714Y-109704819D01*
X147261905Y-96954819D02*
X147261905Y-95954819D01*
X147261905Y-95954819D02*
X147500000Y-95954819D01*
X147500000Y-95954819D02*
X147642857Y-96002438D01*
X147642857Y-96002438D02*
X147738095Y-96097676D01*
X147738095Y-96097676D02*
X147785714Y-96192914D01*
X147785714Y-96192914D02*
X147833333Y-96383390D01*
X147833333Y-96383390D02*
X147833333Y-96526247D01*
X147833333Y-96526247D02*
X147785714Y-96716723D01*
X147785714Y-96716723D02*
X147738095Y-96811961D01*
X147738095Y-96811961D02*
X147642857Y-96907200D01*
X147642857Y-96907200D02*
X147500000Y-96954819D01*
X147500000Y-96954819D02*
X147261905Y-96954819D01*
X148214286Y-96050057D02*
X148261905Y-96002438D01*
X148261905Y-96002438D02*
X148357143Y-95954819D01*
X148357143Y-95954819D02*
X148595238Y-95954819D01*
X148595238Y-95954819D02*
X148690476Y-96002438D01*
X148690476Y-96002438D02*
X148738095Y-96050057D01*
X148738095Y-96050057D02*
X148785714Y-96145295D01*
X148785714Y-96145295D02*
X148785714Y-96240533D01*
X148785714Y-96240533D02*
X148738095Y-96383390D01*
X148738095Y-96383390D02*
X148166667Y-96954819D01*
X148166667Y-96954819D02*
X148785714Y-96954819D01*
X145083333Y-104454819D02*
X144750000Y-103978628D01*
X144511905Y-104454819D02*
X144511905Y-103454819D01*
X144511905Y-103454819D02*
X144892857Y-103454819D01*
X144892857Y-103454819D02*
X144988095Y-103502438D01*
X144988095Y-103502438D02*
X145035714Y-103550057D01*
X145035714Y-103550057D02*
X145083333Y-103645295D01*
X145083333Y-103645295D02*
X145083333Y-103788152D01*
X145083333Y-103788152D02*
X145035714Y-103883390D01*
X145035714Y-103883390D02*
X144988095Y-103931009D01*
X144988095Y-103931009D02*
X144892857Y-103978628D01*
X144892857Y-103978628D02*
X144511905Y-103978628D01*
X145416667Y-103454819D02*
X146035714Y-103454819D01*
X146035714Y-103454819D02*
X145702381Y-103835771D01*
X145702381Y-103835771D02*
X145845238Y-103835771D01*
X145845238Y-103835771D02*
X145940476Y-103883390D01*
X145940476Y-103883390D02*
X145988095Y-103931009D01*
X145988095Y-103931009D02*
X146035714Y-104026247D01*
X146035714Y-104026247D02*
X146035714Y-104264342D01*
X146035714Y-104264342D02*
X145988095Y-104359580D01*
X145988095Y-104359580D02*
X145940476Y-104407200D01*
X145940476Y-104407200D02*
X145845238Y-104454819D01*
X145845238Y-104454819D02*
X145559524Y-104454819D01*
X145559524Y-104454819D02*
X145464286Y-104407200D01*
X145464286Y-104407200D02*
X145416667Y-104359580D01*
X120773809Y-97978628D02*
X120773809Y-98454819D01*
X120440476Y-97454819D02*
X120773809Y-97978628D01*
X120773809Y-97978628D02*
X121107142Y-97454819D01*
X121964285Y-98454819D02*
X121392857Y-98454819D01*
X121678571Y-98454819D02*
X121678571Y-97454819D01*
X121678571Y-97454819D02*
X121583333Y-97597676D01*
X121583333Y-97597676D02*
X121488095Y-97692914D01*
X121488095Y-97692914D02*
X121392857Y-97740533D01*
X139083333Y-111609580D02*
X139035714Y-111657200D01*
X139035714Y-111657200D02*
X138892857Y-111704819D01*
X138892857Y-111704819D02*
X138797619Y-111704819D01*
X138797619Y-111704819D02*
X138654762Y-111657200D01*
X138654762Y-111657200D02*
X138559524Y-111561961D01*
X138559524Y-111561961D02*
X138511905Y-111466723D01*
X138511905Y-111466723D02*
X138464286Y-111276247D01*
X138464286Y-111276247D02*
X138464286Y-111133390D01*
X138464286Y-111133390D02*
X138511905Y-110942914D01*
X138511905Y-110942914D02*
X138559524Y-110847676D01*
X138559524Y-110847676D02*
X138654762Y-110752438D01*
X138654762Y-110752438D02*
X138797619Y-110704819D01*
X138797619Y-110704819D02*
X138892857Y-110704819D01*
X138892857Y-110704819D02*
X139035714Y-110752438D01*
X139035714Y-110752438D02*
X139083333Y-110800057D01*
X139654762Y-111133390D02*
X139559524Y-111085771D01*
X139559524Y-111085771D02*
X139511905Y-111038152D01*
X139511905Y-111038152D02*
X139464286Y-110942914D01*
X139464286Y-110942914D02*
X139464286Y-110895295D01*
X139464286Y-110895295D02*
X139511905Y-110800057D01*
X139511905Y-110800057D02*
X139559524Y-110752438D01*
X139559524Y-110752438D02*
X139654762Y-110704819D01*
X139654762Y-110704819D02*
X139845238Y-110704819D01*
X139845238Y-110704819D02*
X139940476Y-110752438D01*
X139940476Y-110752438D02*
X139988095Y-110800057D01*
X139988095Y-110800057D02*
X140035714Y-110895295D01*
X140035714Y-110895295D02*
X140035714Y-110942914D01*
X140035714Y-110942914D02*
X139988095Y-111038152D01*
X139988095Y-111038152D02*
X139940476Y-111085771D01*
X139940476Y-111085771D02*
X139845238Y-111133390D01*
X139845238Y-111133390D02*
X139654762Y-111133390D01*
X139654762Y-111133390D02*
X139559524Y-111181009D01*
X139559524Y-111181009D02*
X139511905Y-111228628D01*
X139511905Y-111228628D02*
X139464286Y-111323866D01*
X139464286Y-111323866D02*
X139464286Y-111514342D01*
X139464286Y-111514342D02*
X139511905Y-111609580D01*
X139511905Y-111609580D02*
X139559524Y-111657200D01*
X139559524Y-111657200D02*
X139654762Y-111704819D01*
X139654762Y-111704819D02*
X139845238Y-111704819D01*
X139845238Y-111704819D02*
X139940476Y-111657200D01*
X139940476Y-111657200D02*
X139988095Y-111609580D01*
X139988095Y-111609580D02*
X140035714Y-111514342D01*
X140035714Y-111514342D02*
X140035714Y-111323866D01*
X140035714Y-111323866D02*
X139988095Y-111228628D01*
X139988095Y-111228628D02*
X139940476Y-111181009D01*
X139940476Y-111181009D02*
X139845238Y-111133390D01*
X134803333Y-94109580D02*
X134755714Y-94157200D01*
X134755714Y-94157200D02*
X134612857Y-94204819D01*
X134612857Y-94204819D02*
X134517619Y-94204819D01*
X134517619Y-94204819D02*
X134374762Y-94157200D01*
X134374762Y-94157200D02*
X134279524Y-94061961D01*
X134279524Y-94061961D02*
X134231905Y-93966723D01*
X134231905Y-93966723D02*
X134184286Y-93776247D01*
X134184286Y-93776247D02*
X134184286Y-93633390D01*
X134184286Y-93633390D02*
X134231905Y-93442914D01*
X134231905Y-93442914D02*
X134279524Y-93347676D01*
X134279524Y-93347676D02*
X134374762Y-93252438D01*
X134374762Y-93252438D02*
X134517619Y-93204819D01*
X134517619Y-93204819D02*
X134612857Y-93204819D01*
X134612857Y-93204819D02*
X134755714Y-93252438D01*
X134755714Y-93252438D02*
X134803333Y-93300057D01*
X135136667Y-93204819D02*
X135755714Y-93204819D01*
X135755714Y-93204819D02*
X135422381Y-93585771D01*
X135422381Y-93585771D02*
X135565238Y-93585771D01*
X135565238Y-93585771D02*
X135660476Y-93633390D01*
X135660476Y-93633390D02*
X135708095Y-93681009D01*
X135708095Y-93681009D02*
X135755714Y-93776247D01*
X135755714Y-93776247D02*
X135755714Y-94014342D01*
X135755714Y-94014342D02*
X135708095Y-94109580D01*
X135708095Y-94109580D02*
X135660476Y-94157200D01*
X135660476Y-94157200D02*
X135565238Y-94204819D01*
X135565238Y-94204819D02*
X135279524Y-94204819D01*
X135279524Y-94204819D02*
X135184286Y-94157200D01*
X135184286Y-94157200D02*
X135136667Y-94109580D01*
X119697142Y-103709580D02*
X119649523Y-103757200D01*
X119649523Y-103757200D02*
X119506666Y-103804819D01*
X119506666Y-103804819D02*
X119411428Y-103804819D01*
X119411428Y-103804819D02*
X119268571Y-103757200D01*
X119268571Y-103757200D02*
X119173333Y-103661961D01*
X119173333Y-103661961D02*
X119125714Y-103566723D01*
X119125714Y-103566723D02*
X119078095Y-103376247D01*
X119078095Y-103376247D02*
X119078095Y-103233390D01*
X119078095Y-103233390D02*
X119125714Y-103042914D01*
X119125714Y-103042914D02*
X119173333Y-102947676D01*
X119173333Y-102947676D02*
X119268571Y-102852438D01*
X119268571Y-102852438D02*
X119411428Y-102804819D01*
X119411428Y-102804819D02*
X119506666Y-102804819D01*
X119506666Y-102804819D02*
X119649523Y-102852438D01*
X119649523Y-102852438D02*
X119697142Y-102900057D01*
X120649523Y-103804819D02*
X120078095Y-103804819D01*
X120363809Y-103804819D02*
X120363809Y-102804819D01*
X120363809Y-102804819D02*
X120268571Y-102947676D01*
X120268571Y-102947676D02*
X120173333Y-103042914D01*
X120173333Y-103042914D02*
X120078095Y-103090533D01*
X121268571Y-102804819D02*
X121363809Y-102804819D01*
X121363809Y-102804819D02*
X121459047Y-102852438D01*
X121459047Y-102852438D02*
X121506666Y-102900057D01*
X121506666Y-102900057D02*
X121554285Y-102995295D01*
X121554285Y-102995295D02*
X121601904Y-103185771D01*
X121601904Y-103185771D02*
X121601904Y-103423866D01*
X121601904Y-103423866D02*
X121554285Y-103614342D01*
X121554285Y-103614342D02*
X121506666Y-103709580D01*
X121506666Y-103709580D02*
X121459047Y-103757200D01*
X121459047Y-103757200D02*
X121363809Y-103804819D01*
X121363809Y-103804819D02*
X121268571Y-103804819D01*
X121268571Y-103804819D02*
X121173333Y-103757200D01*
X121173333Y-103757200D02*
X121125714Y-103709580D01*
X121125714Y-103709580D02*
X121078095Y-103614342D01*
X121078095Y-103614342D02*
X121030476Y-103423866D01*
X121030476Y-103423866D02*
X121030476Y-103185771D01*
X121030476Y-103185771D02*
X121078095Y-102995295D01*
X121078095Y-102995295D02*
X121125714Y-102900057D01*
X121125714Y-102900057D02*
X121173333Y-102852438D01*
X121173333Y-102852438D02*
X121268571Y-102804819D01*
X157083333Y-106454819D02*
X156750000Y-105978628D01*
X156511905Y-106454819D02*
X156511905Y-105454819D01*
X156511905Y-105454819D02*
X156892857Y-105454819D01*
X156892857Y-105454819D02*
X156988095Y-105502438D01*
X156988095Y-105502438D02*
X157035714Y-105550057D01*
X157035714Y-105550057D02*
X157083333Y-105645295D01*
X157083333Y-105645295D02*
X157083333Y-105788152D01*
X157083333Y-105788152D02*
X157035714Y-105883390D01*
X157035714Y-105883390D02*
X156988095Y-105931009D01*
X156988095Y-105931009D02*
X156892857Y-105978628D01*
X156892857Y-105978628D02*
X156511905Y-105978628D01*
X157416667Y-105454819D02*
X158083333Y-105454819D01*
X158083333Y-105454819D02*
X157654762Y-106454819D01*
X100716667Y-110207200D02*
X100859524Y-110254819D01*
X100859524Y-110254819D02*
X101097619Y-110254819D01*
X101097619Y-110254819D02*
X101192857Y-110207200D01*
X101192857Y-110207200D02*
X101240476Y-110159580D01*
X101240476Y-110159580D02*
X101288095Y-110064342D01*
X101288095Y-110064342D02*
X101288095Y-109969104D01*
X101288095Y-109969104D02*
X101240476Y-109873866D01*
X101240476Y-109873866D02*
X101192857Y-109826247D01*
X101192857Y-109826247D02*
X101097619Y-109778628D01*
X101097619Y-109778628D02*
X100907143Y-109731009D01*
X100907143Y-109731009D02*
X100811905Y-109683390D01*
X100811905Y-109683390D02*
X100764286Y-109635771D01*
X100764286Y-109635771D02*
X100716667Y-109540533D01*
X100716667Y-109540533D02*
X100716667Y-109445295D01*
X100716667Y-109445295D02*
X100764286Y-109350057D01*
X100764286Y-109350057D02*
X100811905Y-109302438D01*
X100811905Y-109302438D02*
X100907143Y-109254819D01*
X100907143Y-109254819D02*
X101145238Y-109254819D01*
X101145238Y-109254819D02*
X101288095Y-109302438D01*
X101621429Y-109254819D02*
X101859524Y-110254819D01*
X101859524Y-110254819D02*
X102050000Y-109540533D01*
X102050000Y-109540533D02*
X102240476Y-110254819D01*
X102240476Y-110254819D02*
X102478572Y-109254819D01*
X103383333Y-110254819D02*
X102811905Y-110254819D01*
X103097619Y-110254819D02*
X103097619Y-109254819D01*
X103097619Y-109254819D02*
X103002381Y-109397676D01*
X103002381Y-109397676D02*
X102907143Y-109492914D01*
X102907143Y-109492914D02*
X102811905Y-109540533D01*
X145833333Y-102704819D02*
X145500000Y-102228628D01*
X145261905Y-102704819D02*
X145261905Y-101704819D01*
X145261905Y-101704819D02*
X145642857Y-101704819D01*
X145642857Y-101704819D02*
X145738095Y-101752438D01*
X145738095Y-101752438D02*
X145785714Y-101800057D01*
X145785714Y-101800057D02*
X145833333Y-101895295D01*
X145833333Y-101895295D02*
X145833333Y-102038152D01*
X145833333Y-102038152D02*
X145785714Y-102133390D01*
X145785714Y-102133390D02*
X145738095Y-102181009D01*
X145738095Y-102181009D02*
X145642857Y-102228628D01*
X145642857Y-102228628D02*
X145261905Y-102228628D01*
X146690476Y-102038152D02*
X146690476Y-102704819D01*
X146452381Y-101657200D02*
X146214286Y-102371485D01*
X146214286Y-102371485D02*
X146833333Y-102371485D01*
X124666666Y-106431009D02*
X124333333Y-106431009D01*
X124333333Y-106954819D02*
X124333333Y-105954819D01*
X124333333Y-105954819D02*
X124809523Y-105954819D01*
X125523809Y-106431009D02*
X125666666Y-106478628D01*
X125666666Y-106478628D02*
X125714285Y-106526247D01*
X125714285Y-106526247D02*
X125761904Y-106621485D01*
X125761904Y-106621485D02*
X125761904Y-106764342D01*
X125761904Y-106764342D02*
X125714285Y-106859580D01*
X125714285Y-106859580D02*
X125666666Y-106907200D01*
X125666666Y-106907200D02*
X125571428Y-106954819D01*
X125571428Y-106954819D02*
X125190476Y-106954819D01*
X125190476Y-106954819D02*
X125190476Y-105954819D01*
X125190476Y-105954819D02*
X125523809Y-105954819D01*
X125523809Y-105954819D02*
X125619047Y-106002438D01*
X125619047Y-106002438D02*
X125666666Y-106050057D01*
X125666666Y-106050057D02*
X125714285Y-106145295D01*
X125714285Y-106145295D02*
X125714285Y-106240533D01*
X125714285Y-106240533D02*
X125666666Y-106335771D01*
X125666666Y-106335771D02*
X125619047Y-106383390D01*
X125619047Y-106383390D02*
X125523809Y-106431009D01*
X125523809Y-106431009D02*
X125190476Y-106431009D01*
X126714285Y-106954819D02*
X126142857Y-106954819D01*
X126428571Y-106954819D02*
X126428571Y-105954819D01*
X126428571Y-105954819D02*
X126333333Y-106097676D01*
X126333333Y-106097676D02*
X126238095Y-106192914D01*
X126238095Y-106192914D02*
X126142857Y-106240533D01*
X130583333Y-95962580D02*
X130535714Y-96010200D01*
X130535714Y-96010200D02*
X130392857Y-96057819D01*
X130392857Y-96057819D02*
X130297619Y-96057819D01*
X130297619Y-96057819D02*
X130154762Y-96010200D01*
X130154762Y-96010200D02*
X130059524Y-95914961D01*
X130059524Y-95914961D02*
X130011905Y-95819723D01*
X130011905Y-95819723D02*
X129964286Y-95629247D01*
X129964286Y-95629247D02*
X129964286Y-95486390D01*
X129964286Y-95486390D02*
X130011905Y-95295914D01*
X130011905Y-95295914D02*
X130059524Y-95200676D01*
X130059524Y-95200676D02*
X130154762Y-95105438D01*
X130154762Y-95105438D02*
X130297619Y-95057819D01*
X130297619Y-95057819D02*
X130392857Y-95057819D01*
X130392857Y-95057819D02*
X130535714Y-95105438D01*
X130535714Y-95105438D02*
X130583333Y-95153057D01*
X131488095Y-95057819D02*
X131011905Y-95057819D01*
X131011905Y-95057819D02*
X130964286Y-95534009D01*
X130964286Y-95534009D02*
X131011905Y-95486390D01*
X131011905Y-95486390D02*
X131107143Y-95438771D01*
X131107143Y-95438771D02*
X131345238Y-95438771D01*
X131345238Y-95438771D02*
X131440476Y-95486390D01*
X131440476Y-95486390D02*
X131488095Y-95534009D01*
X131488095Y-95534009D02*
X131535714Y-95629247D01*
X131535714Y-95629247D02*
X131535714Y-95867342D01*
X131535714Y-95867342D02*
X131488095Y-95962580D01*
X131488095Y-95962580D02*
X131440476Y-96010200D01*
X131440476Y-96010200D02*
X131345238Y-96057819D01*
X131345238Y-96057819D02*
X131107143Y-96057819D01*
X131107143Y-96057819D02*
X131011905Y-96010200D01*
X131011905Y-96010200D02*
X130964286Y-95962580D01*
X155261905Y-112454819D02*
X155261905Y-111454819D01*
X155261905Y-111454819D02*
X155500000Y-111454819D01*
X155500000Y-111454819D02*
X155642857Y-111502438D01*
X155642857Y-111502438D02*
X155738095Y-111597676D01*
X155738095Y-111597676D02*
X155785714Y-111692914D01*
X155785714Y-111692914D02*
X155833333Y-111883390D01*
X155833333Y-111883390D02*
X155833333Y-112026247D01*
X155833333Y-112026247D02*
X155785714Y-112216723D01*
X155785714Y-112216723D02*
X155738095Y-112311961D01*
X155738095Y-112311961D02*
X155642857Y-112407200D01*
X155642857Y-112407200D02*
X155500000Y-112454819D01*
X155500000Y-112454819D02*
X155261905Y-112454819D01*
X156785714Y-112454819D02*
X156214286Y-112454819D01*
X156500000Y-112454819D02*
X156500000Y-111454819D01*
X156500000Y-111454819D02*
X156404762Y-111597676D01*
X156404762Y-111597676D02*
X156309524Y-111692914D01*
X156309524Y-111692914D02*
X156214286Y-111740533D01*
X147757142Y-105159580D02*
X147709523Y-105207200D01*
X147709523Y-105207200D02*
X147566666Y-105254819D01*
X147566666Y-105254819D02*
X147471428Y-105254819D01*
X147471428Y-105254819D02*
X147328571Y-105207200D01*
X147328571Y-105207200D02*
X147233333Y-105111961D01*
X147233333Y-105111961D02*
X147185714Y-105016723D01*
X147185714Y-105016723D02*
X147138095Y-104826247D01*
X147138095Y-104826247D02*
X147138095Y-104683390D01*
X147138095Y-104683390D02*
X147185714Y-104492914D01*
X147185714Y-104492914D02*
X147233333Y-104397676D01*
X147233333Y-104397676D02*
X147328571Y-104302438D01*
X147328571Y-104302438D02*
X147471428Y-104254819D01*
X147471428Y-104254819D02*
X147566666Y-104254819D01*
X147566666Y-104254819D02*
X147709523Y-104302438D01*
X147709523Y-104302438D02*
X147757142Y-104350057D01*
X148709523Y-105254819D02*
X148138095Y-105254819D01*
X148423809Y-105254819D02*
X148423809Y-104254819D01*
X148423809Y-104254819D02*
X148328571Y-104397676D01*
X148328571Y-104397676D02*
X148233333Y-104492914D01*
X148233333Y-104492914D02*
X148138095Y-104540533D01*
X149042857Y-104254819D02*
X149709523Y-104254819D01*
X149709523Y-104254819D02*
X149280952Y-105254819D01*
X126282142Y-94959580D02*
X126234523Y-95007200D01*
X126234523Y-95007200D02*
X126091666Y-95054819D01*
X126091666Y-95054819D02*
X125996428Y-95054819D01*
X125996428Y-95054819D02*
X125853571Y-95007200D01*
X125853571Y-95007200D02*
X125758333Y-94911961D01*
X125758333Y-94911961D02*
X125710714Y-94816723D01*
X125710714Y-94816723D02*
X125663095Y-94626247D01*
X125663095Y-94626247D02*
X125663095Y-94483390D01*
X125663095Y-94483390D02*
X125710714Y-94292914D01*
X125710714Y-94292914D02*
X125758333Y-94197676D01*
X125758333Y-94197676D02*
X125853571Y-94102438D01*
X125853571Y-94102438D02*
X125996428Y-94054819D01*
X125996428Y-94054819D02*
X126091666Y-94054819D01*
X126091666Y-94054819D02*
X126234523Y-94102438D01*
X126234523Y-94102438D02*
X126282142Y-94150057D01*
X127234523Y-95054819D02*
X126663095Y-95054819D01*
X126948809Y-95054819D02*
X126948809Y-94054819D01*
X126948809Y-94054819D02*
X126853571Y-94197676D01*
X126853571Y-94197676D02*
X126758333Y-94292914D01*
X126758333Y-94292914D02*
X126663095Y-94340533D01*
X128091666Y-94388152D02*
X128091666Y-95054819D01*
X127853571Y-94007200D02*
X127615476Y-94721485D01*
X127615476Y-94721485D02*
X128234523Y-94721485D01*
X99095238Y-119981009D02*
X98761905Y-119981009D01*
X98761905Y-120504819D02*
X98761905Y-119504819D01*
X98761905Y-119504819D02*
X99238095Y-119504819D01*
X99619048Y-120504819D02*
X99619048Y-119504819D01*
X99619048Y-119504819D02*
X99952381Y-120219104D01*
X99952381Y-120219104D02*
X100285714Y-119504819D01*
X100285714Y-119504819D02*
X100285714Y-120504819D01*
X100714286Y-119600057D02*
X100761905Y-119552438D01*
X100761905Y-119552438D02*
X100857143Y-119504819D01*
X100857143Y-119504819D02*
X101095238Y-119504819D01*
X101095238Y-119504819D02*
X101190476Y-119552438D01*
X101190476Y-119552438D02*
X101238095Y-119600057D01*
X101238095Y-119600057D02*
X101285714Y-119695295D01*
X101285714Y-119695295D02*
X101285714Y-119790533D01*
X101285714Y-119790533D02*
X101238095Y-119933390D01*
X101238095Y-119933390D02*
X100666667Y-120504819D01*
X100666667Y-120504819D02*
X101285714Y-120504819D01*
X145607142Y-110859580D02*
X145559523Y-110907200D01*
X145559523Y-110907200D02*
X145416666Y-110954819D01*
X145416666Y-110954819D02*
X145321428Y-110954819D01*
X145321428Y-110954819D02*
X145178571Y-110907200D01*
X145178571Y-110907200D02*
X145083333Y-110811961D01*
X145083333Y-110811961D02*
X145035714Y-110716723D01*
X145035714Y-110716723D02*
X144988095Y-110526247D01*
X144988095Y-110526247D02*
X144988095Y-110383390D01*
X144988095Y-110383390D02*
X145035714Y-110192914D01*
X145035714Y-110192914D02*
X145083333Y-110097676D01*
X145083333Y-110097676D02*
X145178571Y-110002438D01*
X145178571Y-110002438D02*
X145321428Y-109954819D01*
X145321428Y-109954819D02*
X145416666Y-109954819D01*
X145416666Y-109954819D02*
X145559523Y-110002438D01*
X145559523Y-110002438D02*
X145607142Y-110050057D01*
X146559523Y-110954819D02*
X145988095Y-110954819D01*
X146273809Y-110954819D02*
X146273809Y-109954819D01*
X146273809Y-109954819D02*
X146178571Y-110097676D01*
X146178571Y-110097676D02*
X146083333Y-110192914D01*
X146083333Y-110192914D02*
X145988095Y-110240533D01*
X146940476Y-110050057D02*
X146988095Y-110002438D01*
X146988095Y-110002438D02*
X147083333Y-109954819D01*
X147083333Y-109954819D02*
X147321428Y-109954819D01*
X147321428Y-109954819D02*
X147416666Y-110002438D01*
X147416666Y-110002438D02*
X147464285Y-110050057D01*
X147464285Y-110050057D02*
X147511904Y-110145295D01*
X147511904Y-110145295D02*
X147511904Y-110240533D01*
X147511904Y-110240533D02*
X147464285Y-110383390D01*
X147464285Y-110383390D02*
X146892857Y-110954819D01*
X146892857Y-110954819D02*
X147511904Y-110954819D01*
X152583333Y-92504819D02*
X152250000Y-92028628D01*
X152011905Y-92504819D02*
X152011905Y-91504819D01*
X152011905Y-91504819D02*
X152392857Y-91504819D01*
X152392857Y-91504819D02*
X152488095Y-91552438D01*
X152488095Y-91552438D02*
X152535714Y-91600057D01*
X152535714Y-91600057D02*
X152583333Y-91695295D01*
X152583333Y-91695295D02*
X152583333Y-91838152D01*
X152583333Y-91838152D02*
X152535714Y-91933390D01*
X152535714Y-91933390D02*
X152488095Y-91981009D01*
X152488095Y-91981009D02*
X152392857Y-92028628D01*
X152392857Y-92028628D02*
X152011905Y-92028628D01*
X153440476Y-91504819D02*
X153250000Y-91504819D01*
X153250000Y-91504819D02*
X153154762Y-91552438D01*
X153154762Y-91552438D02*
X153107143Y-91600057D01*
X153107143Y-91600057D02*
X153011905Y-91742914D01*
X153011905Y-91742914D02*
X152964286Y-91933390D01*
X152964286Y-91933390D02*
X152964286Y-92314342D01*
X152964286Y-92314342D02*
X153011905Y-92409580D01*
X153011905Y-92409580D02*
X153059524Y-92457200D01*
X153059524Y-92457200D02*
X153154762Y-92504819D01*
X153154762Y-92504819D02*
X153345238Y-92504819D01*
X153345238Y-92504819D02*
X153440476Y-92457200D01*
X153440476Y-92457200D02*
X153488095Y-92409580D01*
X153488095Y-92409580D02*
X153535714Y-92314342D01*
X153535714Y-92314342D02*
X153535714Y-92076247D01*
X153535714Y-92076247D02*
X153488095Y-91981009D01*
X153488095Y-91981009D02*
X153440476Y-91933390D01*
X153440476Y-91933390D02*
X153345238Y-91885771D01*
X153345238Y-91885771D02*
X153154762Y-91885771D01*
X153154762Y-91885771D02*
X153059524Y-91933390D01*
X153059524Y-91933390D02*
X153011905Y-91981009D01*
X153011905Y-91981009D02*
X152964286Y-92076247D01*
X149238095Y-121204819D02*
X149238095Y-122014342D01*
X149238095Y-122014342D02*
X149285714Y-122109580D01*
X149285714Y-122109580D02*
X149333333Y-122157200D01*
X149333333Y-122157200D02*
X149428571Y-122204819D01*
X149428571Y-122204819D02*
X149619047Y-122204819D01*
X149619047Y-122204819D02*
X149714285Y-122157200D01*
X149714285Y-122157200D02*
X149761904Y-122109580D01*
X149761904Y-122109580D02*
X149809523Y-122014342D01*
X149809523Y-122014342D02*
X149809523Y-121204819D01*
X150238095Y-121300057D02*
X150285714Y-121252438D01*
X150285714Y-121252438D02*
X150380952Y-121204819D01*
X150380952Y-121204819D02*
X150619047Y-121204819D01*
X150619047Y-121204819D02*
X150714285Y-121252438D01*
X150714285Y-121252438D02*
X150761904Y-121300057D01*
X150761904Y-121300057D02*
X150809523Y-121395295D01*
X150809523Y-121395295D02*
X150809523Y-121490533D01*
X150809523Y-121490533D02*
X150761904Y-121633390D01*
X150761904Y-121633390D02*
X150190476Y-122204819D01*
X150190476Y-122204819D02*
X150809523Y-122204819D01*
X100666667Y-99407200D02*
X100809524Y-99454819D01*
X100809524Y-99454819D02*
X101047619Y-99454819D01*
X101047619Y-99454819D02*
X101142857Y-99407200D01*
X101142857Y-99407200D02*
X101190476Y-99359580D01*
X101190476Y-99359580D02*
X101238095Y-99264342D01*
X101238095Y-99264342D02*
X101238095Y-99169104D01*
X101238095Y-99169104D02*
X101190476Y-99073866D01*
X101190476Y-99073866D02*
X101142857Y-99026247D01*
X101142857Y-99026247D02*
X101047619Y-98978628D01*
X101047619Y-98978628D02*
X100857143Y-98931009D01*
X100857143Y-98931009D02*
X100761905Y-98883390D01*
X100761905Y-98883390D02*
X100714286Y-98835771D01*
X100714286Y-98835771D02*
X100666667Y-98740533D01*
X100666667Y-98740533D02*
X100666667Y-98645295D01*
X100666667Y-98645295D02*
X100714286Y-98550057D01*
X100714286Y-98550057D02*
X100761905Y-98502438D01*
X100761905Y-98502438D02*
X100857143Y-98454819D01*
X100857143Y-98454819D02*
X101095238Y-98454819D01*
X101095238Y-98454819D02*
X101238095Y-98502438D01*
X101571429Y-98454819D02*
X101809524Y-99454819D01*
X101809524Y-99454819D02*
X102000000Y-98740533D01*
X102000000Y-98740533D02*
X102190476Y-99454819D01*
X102190476Y-99454819D02*
X102428572Y-98454819D01*
X102761905Y-98550057D02*
X102809524Y-98502438D01*
X102809524Y-98502438D02*
X102904762Y-98454819D01*
X102904762Y-98454819D02*
X103142857Y-98454819D01*
X103142857Y-98454819D02*
X103238095Y-98502438D01*
X103238095Y-98502438D02*
X103285714Y-98550057D01*
X103285714Y-98550057D02*
X103333333Y-98645295D01*
X103333333Y-98645295D02*
X103333333Y-98740533D01*
X103333333Y-98740533D02*
X103285714Y-98883390D01*
X103285714Y-98883390D02*
X102714286Y-99454819D01*
X102714286Y-99454819D02*
X103333333Y-99454819D01*
X155666666Y-92954819D02*
X155666666Y-93669104D01*
X155666666Y-93669104D02*
X155619047Y-93811961D01*
X155619047Y-93811961D02*
X155523809Y-93907200D01*
X155523809Y-93907200D02*
X155380952Y-93954819D01*
X155380952Y-93954819D02*
X155285714Y-93954819D01*
X156285714Y-93383390D02*
X156190476Y-93335771D01*
X156190476Y-93335771D02*
X156142857Y-93288152D01*
X156142857Y-93288152D02*
X156095238Y-93192914D01*
X156095238Y-93192914D02*
X156095238Y-93145295D01*
X156095238Y-93145295D02*
X156142857Y-93050057D01*
X156142857Y-93050057D02*
X156190476Y-93002438D01*
X156190476Y-93002438D02*
X156285714Y-92954819D01*
X156285714Y-92954819D02*
X156476190Y-92954819D01*
X156476190Y-92954819D02*
X156571428Y-93002438D01*
X156571428Y-93002438D02*
X156619047Y-93050057D01*
X156619047Y-93050057D02*
X156666666Y-93145295D01*
X156666666Y-93145295D02*
X156666666Y-93192914D01*
X156666666Y-93192914D02*
X156619047Y-93288152D01*
X156619047Y-93288152D02*
X156571428Y-93335771D01*
X156571428Y-93335771D02*
X156476190Y-93383390D01*
X156476190Y-93383390D02*
X156285714Y-93383390D01*
X156285714Y-93383390D02*
X156190476Y-93431009D01*
X156190476Y-93431009D02*
X156142857Y-93478628D01*
X156142857Y-93478628D02*
X156095238Y-93573866D01*
X156095238Y-93573866D02*
X156095238Y-93764342D01*
X156095238Y-93764342D02*
X156142857Y-93859580D01*
X156142857Y-93859580D02*
X156190476Y-93907200D01*
X156190476Y-93907200D02*
X156285714Y-93954819D01*
X156285714Y-93954819D02*
X156476190Y-93954819D01*
X156476190Y-93954819D02*
X156571428Y-93907200D01*
X156571428Y-93907200D02*
X156619047Y-93859580D01*
X156619047Y-93859580D02*
X156666666Y-93764342D01*
X156666666Y-93764342D02*
X156666666Y-93573866D01*
X156666666Y-93573866D02*
X156619047Y-93478628D01*
X156619047Y-93478628D02*
X156571428Y-93431009D01*
X156571428Y-93431009D02*
X156476190Y-93383390D01*
X100843333Y-95954819D02*
X100510000Y-95478628D01*
X100271905Y-95954819D02*
X100271905Y-94954819D01*
X100271905Y-94954819D02*
X100652857Y-94954819D01*
X100652857Y-94954819D02*
X100748095Y-95002438D01*
X100748095Y-95002438D02*
X100795714Y-95050057D01*
X100795714Y-95050057D02*
X100843333Y-95145295D01*
X100843333Y-95145295D02*
X100843333Y-95288152D01*
X100843333Y-95288152D02*
X100795714Y-95383390D01*
X100795714Y-95383390D02*
X100748095Y-95431009D01*
X100748095Y-95431009D02*
X100652857Y-95478628D01*
X100652857Y-95478628D02*
X100271905Y-95478628D01*
X101795714Y-95954819D02*
X101224286Y-95954819D01*
X101510000Y-95954819D02*
X101510000Y-94954819D01*
X101510000Y-94954819D02*
X101414762Y-95097676D01*
X101414762Y-95097676D02*
X101319524Y-95192914D01*
X101319524Y-95192914D02*
X101224286Y-95240533D01*
X98095238Y-79981009D02*
X97761905Y-79981009D01*
X97761905Y-80504819D02*
X97761905Y-79504819D01*
X97761905Y-79504819D02*
X98238095Y-79504819D01*
X98619048Y-80504819D02*
X98619048Y-79504819D01*
X98619048Y-79504819D02*
X98952381Y-80219104D01*
X98952381Y-80219104D02*
X99285714Y-79504819D01*
X99285714Y-79504819D02*
X99285714Y-80504819D01*
X100285714Y-80504819D02*
X99714286Y-80504819D01*
X100000000Y-80504819D02*
X100000000Y-79504819D01*
X100000000Y-79504819D02*
X99904762Y-79647676D01*
X99904762Y-79647676D02*
X99809524Y-79742914D01*
X99809524Y-79742914D02*
X99714286Y-79790533D01*
X99783333Y-106459580D02*
X99735714Y-106507200D01*
X99735714Y-106507200D02*
X99592857Y-106554819D01*
X99592857Y-106554819D02*
X99497619Y-106554819D01*
X99497619Y-106554819D02*
X99354762Y-106507200D01*
X99354762Y-106507200D02*
X99259524Y-106411961D01*
X99259524Y-106411961D02*
X99211905Y-106316723D01*
X99211905Y-106316723D02*
X99164286Y-106126247D01*
X99164286Y-106126247D02*
X99164286Y-105983390D01*
X99164286Y-105983390D02*
X99211905Y-105792914D01*
X99211905Y-105792914D02*
X99259524Y-105697676D01*
X99259524Y-105697676D02*
X99354762Y-105602438D01*
X99354762Y-105602438D02*
X99497619Y-105554819D01*
X99497619Y-105554819D02*
X99592857Y-105554819D01*
X99592857Y-105554819D02*
X99735714Y-105602438D01*
X99735714Y-105602438D02*
X99783333Y-105650057D01*
X100116667Y-105554819D02*
X100783333Y-105554819D01*
X100783333Y-105554819D02*
X100354762Y-106554819D01*
X142833333Y-109359580D02*
X142785714Y-109407200D01*
X142785714Y-109407200D02*
X142642857Y-109454819D01*
X142642857Y-109454819D02*
X142547619Y-109454819D01*
X142547619Y-109454819D02*
X142404762Y-109407200D01*
X142404762Y-109407200D02*
X142309524Y-109311961D01*
X142309524Y-109311961D02*
X142261905Y-109216723D01*
X142261905Y-109216723D02*
X142214286Y-109026247D01*
X142214286Y-109026247D02*
X142214286Y-108883390D01*
X142214286Y-108883390D02*
X142261905Y-108692914D01*
X142261905Y-108692914D02*
X142309524Y-108597676D01*
X142309524Y-108597676D02*
X142404762Y-108502438D01*
X142404762Y-108502438D02*
X142547619Y-108454819D01*
X142547619Y-108454819D02*
X142642857Y-108454819D01*
X142642857Y-108454819D02*
X142785714Y-108502438D01*
X142785714Y-108502438D02*
X142833333Y-108550057D01*
X143785714Y-109454819D02*
X143214286Y-109454819D01*
X143500000Y-109454819D02*
X143500000Y-108454819D01*
X143500000Y-108454819D02*
X143404762Y-108597676D01*
X143404762Y-108597676D02*
X143309524Y-108692914D01*
X143309524Y-108692914D02*
X143214286Y-108740533D01*
X156083333Y-110468569D02*
X155750000Y-109992378D01*
X155511905Y-110468569D02*
X155511905Y-109468569D01*
X155511905Y-109468569D02*
X155892857Y-109468569D01*
X155892857Y-109468569D02*
X155988095Y-109516188D01*
X155988095Y-109516188D02*
X156035714Y-109563807D01*
X156035714Y-109563807D02*
X156083333Y-109659045D01*
X156083333Y-109659045D02*
X156083333Y-109801902D01*
X156083333Y-109801902D02*
X156035714Y-109897140D01*
X156035714Y-109897140D02*
X155988095Y-109944759D01*
X155988095Y-109944759D02*
X155892857Y-109992378D01*
X155892857Y-109992378D02*
X155511905Y-109992378D01*
X156464286Y-109563807D02*
X156511905Y-109516188D01*
X156511905Y-109516188D02*
X156607143Y-109468569D01*
X156607143Y-109468569D02*
X156845238Y-109468569D01*
X156845238Y-109468569D02*
X156940476Y-109516188D01*
X156940476Y-109516188D02*
X156988095Y-109563807D01*
X156988095Y-109563807D02*
X157035714Y-109659045D01*
X157035714Y-109659045D02*
X157035714Y-109754283D01*
X157035714Y-109754283D02*
X156988095Y-109897140D01*
X156988095Y-109897140D02*
X156416667Y-110468569D01*
X156416667Y-110468569D02*
X157035714Y-110468569D01*
X154095238Y-81731009D02*
X153761905Y-81731009D01*
X153761905Y-82254819D02*
X153761905Y-81254819D01*
X153761905Y-81254819D02*
X154238095Y-81254819D01*
X154619048Y-82254819D02*
X154619048Y-81254819D01*
X154619048Y-81254819D02*
X154952381Y-81969104D01*
X154952381Y-81969104D02*
X155285714Y-81254819D01*
X155285714Y-81254819D02*
X155285714Y-82254819D01*
X155666667Y-81254819D02*
X156285714Y-81254819D01*
X156285714Y-81254819D02*
X155952381Y-81635771D01*
X155952381Y-81635771D02*
X156095238Y-81635771D01*
X156095238Y-81635771D02*
X156190476Y-81683390D01*
X156190476Y-81683390D02*
X156238095Y-81731009D01*
X156238095Y-81731009D02*
X156285714Y-81826247D01*
X156285714Y-81826247D02*
X156285714Y-82064342D01*
X156285714Y-82064342D02*
X156238095Y-82159580D01*
X156238095Y-82159580D02*
X156190476Y-82207200D01*
X156190476Y-82207200D02*
X156095238Y-82254819D01*
X156095238Y-82254819D02*
X155809524Y-82254819D01*
X155809524Y-82254819D02*
X155714286Y-82207200D01*
X155714286Y-82207200D02*
X155666667Y-82159580D01*
X135303333Y-92609580D02*
X135255714Y-92657200D01*
X135255714Y-92657200D02*
X135112857Y-92704819D01*
X135112857Y-92704819D02*
X135017619Y-92704819D01*
X135017619Y-92704819D02*
X134874762Y-92657200D01*
X134874762Y-92657200D02*
X134779524Y-92561961D01*
X134779524Y-92561961D02*
X134731905Y-92466723D01*
X134731905Y-92466723D02*
X134684286Y-92276247D01*
X134684286Y-92276247D02*
X134684286Y-92133390D01*
X134684286Y-92133390D02*
X134731905Y-91942914D01*
X134731905Y-91942914D02*
X134779524Y-91847676D01*
X134779524Y-91847676D02*
X134874762Y-91752438D01*
X134874762Y-91752438D02*
X135017619Y-91704819D01*
X135017619Y-91704819D02*
X135112857Y-91704819D01*
X135112857Y-91704819D02*
X135255714Y-91752438D01*
X135255714Y-91752438D02*
X135303333Y-91800057D01*
X136160476Y-91704819D02*
X135970000Y-91704819D01*
X135970000Y-91704819D02*
X135874762Y-91752438D01*
X135874762Y-91752438D02*
X135827143Y-91800057D01*
X135827143Y-91800057D02*
X135731905Y-91942914D01*
X135731905Y-91942914D02*
X135684286Y-92133390D01*
X135684286Y-92133390D02*
X135684286Y-92514342D01*
X135684286Y-92514342D02*
X135731905Y-92609580D01*
X135731905Y-92609580D02*
X135779524Y-92657200D01*
X135779524Y-92657200D02*
X135874762Y-92704819D01*
X135874762Y-92704819D02*
X136065238Y-92704819D01*
X136065238Y-92704819D02*
X136160476Y-92657200D01*
X136160476Y-92657200D02*
X136208095Y-92609580D01*
X136208095Y-92609580D02*
X136255714Y-92514342D01*
X136255714Y-92514342D02*
X136255714Y-92276247D01*
X136255714Y-92276247D02*
X136208095Y-92181009D01*
X136208095Y-92181009D02*
X136160476Y-92133390D01*
X136160476Y-92133390D02*
X136065238Y-92085771D01*
X136065238Y-92085771D02*
X135874762Y-92085771D01*
X135874762Y-92085771D02*
X135779524Y-92133390D01*
X135779524Y-92133390D02*
X135731905Y-92181009D01*
X135731905Y-92181009D02*
X135684286Y-92276247D01*
X154857142Y-120359580D02*
X154809523Y-120407200D01*
X154809523Y-120407200D02*
X154666666Y-120454819D01*
X154666666Y-120454819D02*
X154571428Y-120454819D01*
X154571428Y-120454819D02*
X154428571Y-120407200D01*
X154428571Y-120407200D02*
X154333333Y-120311961D01*
X154333333Y-120311961D02*
X154285714Y-120216723D01*
X154285714Y-120216723D02*
X154238095Y-120026247D01*
X154238095Y-120026247D02*
X154238095Y-119883390D01*
X154238095Y-119883390D02*
X154285714Y-119692914D01*
X154285714Y-119692914D02*
X154333333Y-119597676D01*
X154333333Y-119597676D02*
X154428571Y-119502438D01*
X154428571Y-119502438D02*
X154571428Y-119454819D01*
X154571428Y-119454819D02*
X154666666Y-119454819D01*
X154666666Y-119454819D02*
X154809523Y-119502438D01*
X154809523Y-119502438D02*
X154857142Y-119550057D01*
X155809523Y-120454819D02*
X155238095Y-120454819D01*
X155523809Y-120454819D02*
X155523809Y-119454819D01*
X155523809Y-119454819D02*
X155428571Y-119597676D01*
X155428571Y-119597676D02*
X155333333Y-119692914D01*
X155333333Y-119692914D02*
X155238095Y-119740533D01*
X156142857Y-119454819D02*
X156761904Y-119454819D01*
X156761904Y-119454819D02*
X156428571Y-119835771D01*
X156428571Y-119835771D02*
X156571428Y-119835771D01*
X156571428Y-119835771D02*
X156666666Y-119883390D01*
X156666666Y-119883390D02*
X156714285Y-119931009D01*
X156714285Y-119931009D02*
X156761904Y-120026247D01*
X156761904Y-120026247D02*
X156761904Y-120264342D01*
X156761904Y-120264342D02*
X156714285Y-120359580D01*
X156714285Y-120359580D02*
X156666666Y-120407200D01*
X156666666Y-120407200D02*
X156571428Y-120454819D01*
X156571428Y-120454819D02*
X156285714Y-120454819D01*
X156285714Y-120454819D02*
X156190476Y-120407200D01*
X156190476Y-120407200D02*
X156142857Y-120359580D01*
X144083333Y-96331580D02*
X144035714Y-96379200D01*
X144035714Y-96379200D02*
X143892857Y-96426819D01*
X143892857Y-96426819D02*
X143797619Y-96426819D01*
X143797619Y-96426819D02*
X143654762Y-96379200D01*
X143654762Y-96379200D02*
X143559524Y-96283961D01*
X143559524Y-96283961D02*
X143511905Y-96188723D01*
X143511905Y-96188723D02*
X143464286Y-95998247D01*
X143464286Y-95998247D02*
X143464286Y-95855390D01*
X143464286Y-95855390D02*
X143511905Y-95664914D01*
X143511905Y-95664914D02*
X143559524Y-95569676D01*
X143559524Y-95569676D02*
X143654762Y-95474438D01*
X143654762Y-95474438D02*
X143797619Y-95426819D01*
X143797619Y-95426819D02*
X143892857Y-95426819D01*
X143892857Y-95426819D02*
X144035714Y-95474438D01*
X144035714Y-95474438D02*
X144083333Y-95522057D01*
X144940476Y-95760152D02*
X144940476Y-96426819D01*
X144702381Y-95379200D02*
X144464286Y-96093485D01*
X144464286Y-96093485D02*
X145083333Y-96093485D01*
X147979819Y-107271666D02*
X147503628Y-107604999D01*
X147979819Y-107843094D02*
X146979819Y-107843094D01*
X146979819Y-107843094D02*
X146979819Y-107462142D01*
X146979819Y-107462142D02*
X147027438Y-107366904D01*
X147027438Y-107366904D02*
X147075057Y-107319285D01*
X147075057Y-107319285D02*
X147170295Y-107271666D01*
X147170295Y-107271666D02*
X147313152Y-107271666D01*
X147313152Y-107271666D02*
X147408390Y-107319285D01*
X147408390Y-107319285D02*
X147456009Y-107366904D01*
X147456009Y-107366904D02*
X147503628Y-107462142D01*
X147503628Y-107462142D02*
X147503628Y-107843094D01*
X146979819Y-106366904D02*
X146979819Y-106843094D01*
X146979819Y-106843094D02*
X147456009Y-106890713D01*
X147456009Y-106890713D02*
X147408390Y-106843094D01*
X147408390Y-106843094D02*
X147360771Y-106747856D01*
X147360771Y-106747856D02*
X147360771Y-106509761D01*
X147360771Y-106509761D02*
X147408390Y-106414523D01*
X147408390Y-106414523D02*
X147456009Y-106366904D01*
X147456009Y-106366904D02*
X147551247Y-106319285D01*
X147551247Y-106319285D02*
X147789342Y-106319285D01*
X147789342Y-106319285D02*
X147884580Y-106366904D01*
X147884580Y-106366904D02*
X147932200Y-106414523D01*
X147932200Y-106414523D02*
X147979819Y-106509761D01*
X147979819Y-106509761D02*
X147979819Y-106747856D01*
X147979819Y-106747856D02*
X147932200Y-106843094D01*
X147932200Y-106843094D02*
X147884580Y-106890713D01*
X130453333Y-106799580D02*
X130405714Y-106847200D01*
X130405714Y-106847200D02*
X130262857Y-106894819D01*
X130262857Y-106894819D02*
X130167619Y-106894819D01*
X130167619Y-106894819D02*
X130024762Y-106847200D01*
X130024762Y-106847200D02*
X129929524Y-106751961D01*
X129929524Y-106751961D02*
X129881905Y-106656723D01*
X129881905Y-106656723D02*
X129834286Y-106466247D01*
X129834286Y-106466247D02*
X129834286Y-106323390D01*
X129834286Y-106323390D02*
X129881905Y-106132914D01*
X129881905Y-106132914D02*
X129929524Y-106037676D01*
X129929524Y-106037676D02*
X130024762Y-105942438D01*
X130024762Y-105942438D02*
X130167619Y-105894819D01*
X130167619Y-105894819D02*
X130262857Y-105894819D01*
X130262857Y-105894819D02*
X130405714Y-105942438D01*
X130405714Y-105942438D02*
X130453333Y-105990057D01*
X130929524Y-106894819D02*
X131120000Y-106894819D01*
X131120000Y-106894819D02*
X131215238Y-106847200D01*
X131215238Y-106847200D02*
X131262857Y-106799580D01*
X131262857Y-106799580D02*
X131358095Y-106656723D01*
X131358095Y-106656723D02*
X131405714Y-106466247D01*
X131405714Y-106466247D02*
X131405714Y-106085295D01*
X131405714Y-106085295D02*
X131358095Y-105990057D01*
X131358095Y-105990057D02*
X131310476Y-105942438D01*
X131310476Y-105942438D02*
X131215238Y-105894819D01*
X131215238Y-105894819D02*
X131024762Y-105894819D01*
X131024762Y-105894819D02*
X130929524Y-105942438D01*
X130929524Y-105942438D02*
X130881905Y-105990057D01*
X130881905Y-105990057D02*
X130834286Y-106085295D01*
X130834286Y-106085295D02*
X130834286Y-106323390D01*
X130834286Y-106323390D02*
X130881905Y-106418628D01*
X130881905Y-106418628D02*
X130929524Y-106466247D01*
X130929524Y-106466247D02*
X131024762Y-106513866D01*
X131024762Y-106513866D02*
X131215238Y-106513866D01*
X131215238Y-106513866D02*
X131310476Y-106466247D01*
X131310476Y-106466247D02*
X131358095Y-106418628D01*
X131358095Y-106418628D02*
X131405714Y-106323390D01*
X126357142Y-101609580D02*
X126309523Y-101657200D01*
X126309523Y-101657200D02*
X126166666Y-101704819D01*
X126166666Y-101704819D02*
X126071428Y-101704819D01*
X126071428Y-101704819D02*
X125928571Y-101657200D01*
X125928571Y-101657200D02*
X125833333Y-101561961D01*
X125833333Y-101561961D02*
X125785714Y-101466723D01*
X125785714Y-101466723D02*
X125738095Y-101276247D01*
X125738095Y-101276247D02*
X125738095Y-101133390D01*
X125738095Y-101133390D02*
X125785714Y-100942914D01*
X125785714Y-100942914D02*
X125833333Y-100847676D01*
X125833333Y-100847676D02*
X125928571Y-100752438D01*
X125928571Y-100752438D02*
X126071428Y-100704819D01*
X126071428Y-100704819D02*
X126166666Y-100704819D01*
X126166666Y-100704819D02*
X126309523Y-100752438D01*
X126309523Y-100752438D02*
X126357142Y-100800057D01*
X127309523Y-101704819D02*
X126738095Y-101704819D01*
X127023809Y-101704819D02*
X127023809Y-100704819D01*
X127023809Y-100704819D02*
X126928571Y-100847676D01*
X126928571Y-100847676D02*
X126833333Y-100942914D01*
X126833333Y-100942914D02*
X126738095Y-100990533D01*
X128214285Y-100704819D02*
X127738095Y-100704819D01*
X127738095Y-100704819D02*
X127690476Y-101181009D01*
X127690476Y-101181009D02*
X127738095Y-101133390D01*
X127738095Y-101133390D02*
X127833333Y-101085771D01*
X127833333Y-101085771D02*
X128071428Y-101085771D01*
X128071428Y-101085771D02*
X128166666Y-101133390D01*
X128166666Y-101133390D02*
X128214285Y-101181009D01*
X128214285Y-101181009D02*
X128261904Y-101276247D01*
X128261904Y-101276247D02*
X128261904Y-101514342D01*
X128261904Y-101514342D02*
X128214285Y-101609580D01*
X128214285Y-101609580D02*
X128166666Y-101657200D01*
X128166666Y-101657200D02*
X128071428Y-101704819D01*
X128071428Y-101704819D02*
X127833333Y-101704819D01*
X127833333Y-101704819D02*
X127738095Y-101657200D01*
X127738095Y-101657200D02*
X127690476Y-101609580D01*
X147166666Y-123979819D02*
X147166666Y-124694104D01*
X147166666Y-124694104D02*
X147119047Y-124836961D01*
X147119047Y-124836961D02*
X147023809Y-124932200D01*
X147023809Y-124932200D02*
X146880952Y-124979819D01*
X146880952Y-124979819D02*
X146785714Y-124979819D01*
X147547619Y-123979819D02*
X148166666Y-123979819D01*
X148166666Y-123979819D02*
X147833333Y-124360771D01*
X147833333Y-124360771D02*
X147976190Y-124360771D01*
X147976190Y-124360771D02*
X148071428Y-124408390D01*
X148071428Y-124408390D02*
X148119047Y-124456009D01*
X148119047Y-124456009D02*
X148166666Y-124551247D01*
X148166666Y-124551247D02*
X148166666Y-124789342D01*
X148166666Y-124789342D02*
X148119047Y-124884580D01*
X148119047Y-124884580D02*
X148071428Y-124932200D01*
X148071428Y-124932200D02*
X147976190Y-124979819D01*
X147976190Y-124979819D02*
X147690476Y-124979819D01*
X147690476Y-124979819D02*
X147595238Y-124932200D01*
X147595238Y-124932200D02*
X147547619Y-124884580D01*
X154666666Y-78454819D02*
X154666666Y-79169104D01*
X154666666Y-79169104D02*
X154619047Y-79311961D01*
X154619047Y-79311961D02*
X154523809Y-79407200D01*
X154523809Y-79407200D02*
X154380952Y-79454819D01*
X154380952Y-79454819D02*
X154285714Y-79454819D01*
X155095238Y-78550057D02*
X155142857Y-78502438D01*
X155142857Y-78502438D02*
X155238095Y-78454819D01*
X155238095Y-78454819D02*
X155476190Y-78454819D01*
X155476190Y-78454819D02*
X155571428Y-78502438D01*
X155571428Y-78502438D02*
X155619047Y-78550057D01*
X155619047Y-78550057D02*
X155666666Y-78645295D01*
X155666666Y-78645295D02*
X155666666Y-78740533D01*
X155666666Y-78740533D02*
X155619047Y-78883390D01*
X155619047Y-78883390D02*
X155047619Y-79454819D01*
X155047619Y-79454819D02*
X155666666Y-79454819D01*
X141488095Y-93704819D02*
X141488095Y-94514342D01*
X141488095Y-94514342D02*
X141535714Y-94609580D01*
X141535714Y-94609580D02*
X141583333Y-94657200D01*
X141583333Y-94657200D02*
X141678571Y-94704819D01*
X141678571Y-94704819D02*
X141869047Y-94704819D01*
X141869047Y-94704819D02*
X141964285Y-94657200D01*
X141964285Y-94657200D02*
X142011904Y-94609580D01*
X142011904Y-94609580D02*
X142059523Y-94514342D01*
X142059523Y-94514342D02*
X142059523Y-93704819D01*
X143059523Y-94704819D02*
X142488095Y-94704819D01*
X142773809Y-94704819D02*
X142773809Y-93704819D01*
X142773809Y-93704819D02*
X142678571Y-93847676D01*
X142678571Y-93847676D02*
X142583333Y-93942914D01*
X142583333Y-93942914D02*
X142488095Y-93990533D01*
D13*
%TO.C,G\u002A\u002A\u002A*%
G36*
X116656227Y-112037364D02*
G01*
X116874800Y-112050641D01*
X117079992Y-112076981D01*
X117271078Y-112116181D01*
X117447333Y-112168035D01*
X117608032Y-112232339D01*
X117752452Y-112308889D01*
X117848924Y-112373678D01*
X117954508Y-112465166D01*
X118049155Y-112574363D01*
X118132644Y-112700690D01*
X118204753Y-112843570D01*
X118265261Y-113002427D01*
X118313945Y-113176682D01*
X118350583Y-113365759D01*
X118374954Y-113569080D01*
X118386458Y-113771964D01*
X118385201Y-114013568D01*
X118367790Y-114249526D01*
X118334675Y-114478550D01*
X118286303Y-114699356D01*
X118223126Y-114910655D01*
X118145591Y-115111162D01*
X118054148Y-115299591D01*
X117949247Y-115474654D01*
X117831337Y-115635065D01*
X117700867Y-115779537D01*
X117677264Y-115802618D01*
X117587477Y-115888800D01*
X117601741Y-115956269D01*
X117613699Y-116019308D01*
X117626544Y-116098168D01*
X117639576Y-116187538D01*
X117652092Y-116282103D01*
X117663392Y-116376553D01*
X117672775Y-116465575D01*
X117679540Y-116543855D01*
X117679860Y-116548268D01*
X117683796Y-116625442D01*
X117686036Y-116720049D01*
X117686642Y-116828401D01*
X117685678Y-116946813D01*
X117683210Y-117071596D01*
X117679301Y-117199063D01*
X117674015Y-117325529D01*
X117667416Y-117447305D01*
X117663097Y-117513131D01*
X117626681Y-117890248D01*
X117571124Y-118258923D01*
X117496526Y-118618905D01*
X117402988Y-118969942D01*
X117290611Y-119311784D01*
X117159497Y-119644180D01*
X117009746Y-119966878D01*
X116841459Y-120279627D01*
X116654738Y-120582177D01*
X116449683Y-120874277D01*
X116226395Y-121155675D01*
X116170515Y-121221116D01*
X115957259Y-121453576D01*
X115726187Y-121679680D01*
X115480302Y-121897041D01*
X115222605Y-122103273D01*
X114956099Y-122295989D01*
X114683786Y-122472802D01*
X114408667Y-122631325D01*
X114371854Y-122650994D01*
X114318788Y-122679783D01*
X114281830Y-122701841D01*
X114257880Y-122719394D01*
X114243839Y-122734666D01*
X114237373Y-122747532D01*
X114227929Y-122768749D01*
X114210279Y-122803398D01*
X114186963Y-122846645D01*
X114161039Y-122892757D01*
X114044257Y-123076060D01*
X113912481Y-123245644D01*
X113766775Y-123400481D01*
X113608203Y-123539541D01*
X113437829Y-123661795D01*
X113260230Y-123764412D01*
X113086404Y-123843945D01*
X112899268Y-123911656D01*
X112703937Y-123966191D01*
X112505528Y-124006200D01*
X112309156Y-124030332D01*
X112235828Y-124035072D01*
X112178697Y-124037765D01*
X112119970Y-124040490D01*
X112068658Y-124042830D01*
X112047684Y-124043766D01*
X112009455Y-124044426D01*
X111956385Y-124043955D01*
X111894788Y-124042473D01*
X111830979Y-124040100D01*
X111814559Y-124039340D01*
X111581253Y-124019099D01*
X111355932Y-123981571D01*
X111140005Y-123927149D01*
X110934881Y-123856229D01*
X110741969Y-123769205D01*
X110629655Y-123707655D01*
X110455613Y-123593108D01*
X110292371Y-123461238D01*
X110141492Y-123313794D01*
X110004536Y-123152525D01*
X109883063Y-122979181D01*
X109778635Y-122795510D01*
X109735743Y-122705798D01*
X109684647Y-122592241D01*
X109589278Y-122534708D01*
X109331949Y-122370185D01*
X109074807Y-122187674D01*
X108821511Y-121990095D01*
X108575722Y-121780366D01*
X108341100Y-121561406D01*
X108232011Y-121452338D01*
X107975452Y-121174803D01*
X107736282Y-120885319D01*
X107514745Y-120584394D01*
X107311083Y-120272532D01*
X107125539Y-119950240D01*
X106958356Y-119618025D01*
X106809777Y-119276393D01*
X106680044Y-118925850D01*
X106569399Y-118566901D01*
X106478087Y-118200054D01*
X106406348Y-117825815D01*
X106368639Y-117565540D01*
X106349620Y-117397509D01*
X106333881Y-117222599D01*
X106321485Y-117043870D01*
X106312498Y-116864381D01*
X106306982Y-116687194D01*
X106305002Y-116515367D01*
X106305476Y-116467544D01*
X106380229Y-116467544D01*
X106381264Y-116605429D01*
X106384429Y-116748997D01*
X106389669Y-116895174D01*
X106396931Y-117040884D01*
X106406161Y-117183054D01*
X106417305Y-117318608D01*
X106421677Y-117364205D01*
X106469849Y-117744396D01*
X106537699Y-118117586D01*
X106625054Y-118483330D01*
X106731742Y-118841183D01*
X106857590Y-119190700D01*
X107002428Y-119531437D01*
X107166081Y-119862950D01*
X107348378Y-120184794D01*
X107549148Y-120496525D01*
X107735635Y-120755110D01*
X107974705Y-121052808D01*
X108229070Y-121335865D01*
X108498421Y-121603982D01*
X108782449Y-121856861D01*
X109080844Y-122094201D01*
X109231953Y-122204552D01*
X109282140Y-122239666D01*
X109337328Y-122277419D01*
X109394786Y-122316037D01*
X109451781Y-122353745D01*
X109505582Y-122388769D01*
X109553458Y-122419333D01*
X109592676Y-122443664D01*
X109620506Y-122459986D01*
X109634214Y-122466525D01*
X109635087Y-122466454D01*
X109633650Y-122455587D01*
X109626895Y-122429359D01*
X109616100Y-122392551D01*
X109610556Y-122374729D01*
X109566399Y-122216210D01*
X109532310Y-122050919D01*
X109508305Y-121877583D01*
X109494400Y-121694929D01*
X109491892Y-121566960D01*
X109564587Y-121566960D01*
X109571577Y-121737560D01*
X109587408Y-121900915D01*
X109612042Y-122059011D01*
X109632307Y-122157886D01*
X109683039Y-122346840D01*
X109749748Y-122535161D01*
X109830426Y-122718464D01*
X109923063Y-122892364D01*
X110025649Y-123052478D01*
X110069911Y-123112849D01*
X110107770Y-123159022D01*
X110157275Y-123214485D01*
X110214009Y-123274703D01*
X110273554Y-123335142D01*
X110331492Y-123391268D01*
X110383407Y-123438545D01*
X110405214Y-123457031D01*
X110562915Y-123573179D01*
X110735820Y-123676055D01*
X110921981Y-123764836D01*
X111119455Y-123838703D01*
X111326294Y-123896834D01*
X111540554Y-123938408D01*
X111549645Y-123939774D01*
X111598594Y-123945940D01*
X111659796Y-123951991D01*
X111728582Y-123957638D01*
X111800284Y-123962590D01*
X111870232Y-123966559D01*
X111933760Y-123969253D01*
X111986198Y-123970382D01*
X112022878Y-123969658D01*
X112026491Y-123969392D01*
X112049059Y-123967970D01*
X112087570Y-123966036D01*
X112136791Y-123963834D01*
X112191484Y-123961611D01*
X112196036Y-123961436D01*
X112404383Y-123944442D01*
X112611563Y-123910004D01*
X112814285Y-123859054D01*
X113009256Y-123792523D01*
X113193187Y-123711340D01*
X113316654Y-123644503D01*
X113494662Y-123527721D01*
X113658174Y-123395608D01*
X113806981Y-123248487D01*
X113940874Y-123086682D01*
X114059642Y-122910516D01*
X114163076Y-122720311D01*
X114250968Y-122516392D01*
X114323106Y-122299081D01*
X114379283Y-122068702D01*
X114396189Y-121979015D01*
X114407142Y-121899339D01*
X114415614Y-121803102D01*
X114421522Y-121694800D01*
X114424783Y-121578927D01*
X114425317Y-121459980D01*
X114423039Y-121342454D01*
X114417867Y-121230845D01*
X114411437Y-121147183D01*
X114377703Y-120849419D01*
X114332319Y-120548291D01*
X114276004Y-120246334D01*
X114209476Y-119946087D01*
X114133454Y-119650086D01*
X114048655Y-119360869D01*
X113955799Y-119080972D01*
X113855603Y-118812932D01*
X113748786Y-118559287D01*
X113636067Y-118322573D01*
X113582712Y-118220587D01*
X113471965Y-118028199D01*
X113354480Y-117848582D01*
X113231574Y-117683379D01*
X113104562Y-117534231D01*
X112974763Y-117402781D01*
X112843493Y-117290670D01*
X112826533Y-117277711D01*
X112747774Y-117223195D01*
X112658389Y-117169432D01*
X112564249Y-117119447D01*
X112471226Y-117076266D01*
X112385193Y-117042915D01*
X112348500Y-117031399D01*
X112187394Y-116996207D01*
X112026412Y-116982107D01*
X111866058Y-116988999D01*
X111706835Y-117016787D01*
X111549250Y-117065371D01*
X111393806Y-117134654D01*
X111241007Y-117224537D01*
X111194958Y-117256070D01*
X111136563Y-117301026D01*
X111069385Y-117358712D01*
X110997591Y-117425084D01*
X110925348Y-117496097D01*
X110856825Y-117567706D01*
X110796191Y-117635868D01*
X110766852Y-117671505D01*
X110635580Y-117849878D01*
X110509188Y-118047755D01*
X110388147Y-118263912D01*
X110272930Y-118497122D01*
X110164008Y-118746162D01*
X110061853Y-119009805D01*
X109966937Y-119286827D01*
X109879733Y-119576002D01*
X109800711Y-119876105D01*
X109730344Y-120185912D01*
X109669104Y-120504196D01*
X109663606Y-120535831D01*
X109625812Y-120772424D01*
X109597052Y-120991849D01*
X109577287Y-121196090D01*
X109566478Y-121387132D01*
X109564587Y-121566960D01*
X109491892Y-121566960D01*
X109490612Y-121501682D01*
X109496958Y-121296572D01*
X109513454Y-121078323D01*
X109540117Y-120845664D01*
X109576964Y-120597320D01*
X109624010Y-120332019D01*
X109638101Y-120259159D01*
X109702865Y-119957568D01*
X109778102Y-119657075D01*
X109862463Y-119362334D01*
X109954600Y-119078002D01*
X110053162Y-118808734D01*
X110073304Y-118757655D01*
X110109653Y-118670729D01*
X110153558Y-118572385D01*
X110202890Y-118466908D01*
X110255519Y-118358587D01*
X110309315Y-118251708D01*
X110362149Y-118150559D01*
X110411892Y-118059426D01*
X110456413Y-117982597D01*
X110466554Y-117966005D01*
X110594859Y-117772578D01*
X110728473Y-117597901D01*
X110867019Y-117442312D01*
X111010118Y-117306148D01*
X111157393Y-117189749D01*
X111308467Y-117093451D01*
X111462961Y-117017595D01*
X111569941Y-116977808D01*
X111646638Y-116954191D01*
X111713592Y-116937020D01*
X111777100Y-116925364D01*
X111843457Y-116918290D01*
X111918957Y-116914866D01*
X111999999Y-116914135D01*
X112098983Y-116916011D01*
X112183491Y-116921977D01*
X112260021Y-116933068D01*
X112335069Y-116950317D01*
X112415131Y-116974762D01*
X112445056Y-116985038D01*
X112606642Y-117052902D01*
X112763659Y-117141325D01*
X112915976Y-117250146D01*
X113063460Y-117379200D01*
X113205980Y-117528326D01*
X113343405Y-117697360D01*
X113475602Y-117886138D01*
X113602441Y-118094498D01*
X113723790Y-118322276D01*
X113839517Y-118569310D01*
X113949491Y-118835436D01*
X113960370Y-118863621D01*
X114045420Y-119098190D01*
X114125040Y-119343346D01*
X114198644Y-119596203D01*
X114265648Y-119853874D01*
X114325466Y-120113472D01*
X114377513Y-120372111D01*
X114421203Y-120626903D01*
X114455951Y-120874963D01*
X114481172Y-121113403D01*
X114496281Y-121339338D01*
X114500749Y-121528725D01*
X114496310Y-121719108D01*
X114482375Y-121895443D01*
X114458137Y-122063014D01*
X114422787Y-122227102D01*
X114375517Y-122392992D01*
X114362394Y-122433406D01*
X114344517Y-122487471D01*
X114329265Y-122533985D01*
X114317776Y-122569453D01*
X114311185Y-122590379D01*
X114310054Y-122594489D01*
X114318660Y-122591202D01*
X114342438Y-122578856D01*
X114378326Y-122559198D01*
X114423262Y-122533972D01*
X114474184Y-122504923D01*
X114528031Y-122473795D01*
X114581741Y-122442333D01*
X114632252Y-122412282D01*
X114670337Y-122389180D01*
X114955826Y-122202384D01*
X115233307Y-121997795D01*
X115500638Y-121777338D01*
X115755676Y-121542939D01*
X115996281Y-121296525D01*
X116220310Y-121040022D01*
X116345735Y-120882269D01*
X116553395Y-120594061D01*
X116742524Y-120295575D01*
X116913115Y-119986824D01*
X117065164Y-119667822D01*
X117198667Y-119338583D01*
X117313617Y-118999118D01*
X117410010Y-118649443D01*
X117487841Y-118289569D01*
X117547104Y-117919510D01*
X117578946Y-117639716D01*
X117585933Y-117554899D01*
X117592261Y-117456600D01*
X117597839Y-117348423D01*
X117602574Y-117233971D01*
X117606374Y-117116849D01*
X117609147Y-117000661D01*
X117610801Y-116889012D01*
X117611244Y-116785505D01*
X117610383Y-116693744D01*
X117608127Y-116617334D01*
X117606044Y-116580058D01*
X117575750Y-116275875D01*
X117528290Y-115982991D01*
X117463187Y-115699649D01*
X117379966Y-115424089D01*
X117278151Y-115154552D01*
X117157267Y-114889279D01*
X117139424Y-114853624D01*
X117000223Y-114601473D01*
X116844294Y-114362175D01*
X116671868Y-114135872D01*
X116483176Y-113922707D01*
X116278448Y-113722822D01*
X116057916Y-113536361D01*
X115821811Y-113363466D01*
X115570363Y-113204280D01*
X115362556Y-113090979D01*
X115549853Y-113090979D01*
X115558383Y-113100178D01*
X115580992Y-113116468D01*
X115613208Y-113136690D01*
X115621380Y-113141492D01*
X115692229Y-113184568D01*
X115774316Y-113237697D01*
X115862590Y-113297374D01*
X115951998Y-113360097D01*
X116037488Y-113422362D01*
X116114007Y-113480667D01*
X116137963Y-113499673D01*
X116359209Y-113690988D01*
X116565419Y-113897060D01*
X116756059Y-114117193D01*
X116930594Y-114350689D01*
X117088489Y-114596850D01*
X117229212Y-114854979D01*
X117313039Y-115032957D01*
X117330594Y-115072718D01*
X117343672Y-115097898D01*
X117355110Y-115107912D01*
X117367746Y-115102173D01*
X117384421Y-115080096D01*
X117407971Y-115041093D01*
X117426459Y-115009535D01*
X117492355Y-114881345D01*
X117550179Y-114735166D01*
X117599365Y-114572830D01*
X117639347Y-114396166D01*
X117665543Y-114237024D01*
X117672424Y-114173017D01*
X117677815Y-114094065D01*
X117681677Y-114004741D01*
X117683975Y-113909619D01*
X117684670Y-113813269D01*
X117683725Y-113720266D01*
X117681104Y-113635180D01*
X117676767Y-113562586D01*
X117671459Y-113512348D01*
X117651142Y-113385400D01*
X117628700Y-113278123D01*
X117603658Y-113189062D01*
X117575541Y-113116759D01*
X117543874Y-113059757D01*
X117510725Y-113019103D01*
X117455296Y-112976494D01*
X117380337Y-112939488D01*
X117286808Y-112908286D01*
X117175672Y-112883092D01*
X117047893Y-112864107D01*
X116904432Y-112851535D01*
X116746252Y-112845577D01*
X116683687Y-112845090D01*
X116492662Y-112849457D01*
X116316991Y-112863004D01*
X116152660Y-112886304D01*
X115995655Y-112919933D01*
X115841963Y-112964465D01*
X115835961Y-112966437D01*
X115775752Y-112987304D01*
X115716476Y-113009623D01*
X115661459Y-113031948D01*
X115614027Y-113052829D01*
X115577506Y-113070821D01*
X115555222Y-113084473D01*
X115549853Y-113090979D01*
X115362556Y-113090979D01*
X115303804Y-113058946D01*
X115022364Y-112927606D01*
X114726274Y-112810403D01*
X114478536Y-112728286D01*
X114758527Y-112728286D01*
X114765991Y-112736739D01*
X114788900Y-112749085D01*
X114822497Y-112762809D01*
X114826609Y-112764283D01*
X114890957Y-112788476D01*
X114968787Y-112820000D01*
X115054724Y-112856515D01*
X115143393Y-112895682D01*
X115229418Y-112935160D01*
X115307424Y-112972609D01*
X115323224Y-112980468D01*
X115456392Y-113047210D01*
X115569351Y-112990576D01*
X115727571Y-112921687D01*
X115902387Y-112865226D01*
X116093125Y-112821340D01*
X116299108Y-112790178D01*
X116519660Y-112771889D01*
X116577722Y-112769319D01*
X116727588Y-112767262D01*
X116872126Y-112772017D01*
X117009381Y-112783203D01*
X117137399Y-112800441D01*
X117254227Y-112823350D01*
X117357910Y-112851553D01*
X117446495Y-112884669D01*
X117518027Y-112922319D01*
X117568148Y-112961679D01*
X117611096Y-113017032D01*
X117649073Y-113090968D01*
X117681899Y-113181428D01*
X117709392Y-113286350D01*
X117731373Y-113403675D01*
X117747662Y-113531341D01*
X117758078Y-113667289D01*
X117762440Y-113809457D01*
X117760569Y-113955786D01*
X117752284Y-114104213D01*
X117737404Y-114252680D01*
X117715750Y-114399124D01*
X117700880Y-114478091D01*
X117668754Y-114611509D01*
X117627443Y-114744277D01*
X117578785Y-114871789D01*
X117524612Y-114989442D01*
X117466761Y-115092631D01*
X117439664Y-115133625D01*
X117387693Y-115207801D01*
X117447908Y-115385957D01*
X117470465Y-115454594D01*
X117493029Y-115526586D01*
X117513602Y-115595337D01*
X117530190Y-115654253D01*
X117536778Y-115679615D01*
X117565433Y-115795118D01*
X117605618Y-115762824D01*
X117632614Y-115738666D01*
X117666335Y-115705073D01*
X117699940Y-115668890D01*
X117703198Y-115665202D01*
X117824706Y-115514874D01*
X117931727Y-115356419D01*
X118024952Y-115188208D01*
X118105071Y-115008607D01*
X118172773Y-114815988D01*
X118228748Y-114608717D01*
X118273687Y-114385164D01*
X118291004Y-114275302D01*
X118297569Y-114216139D01*
X118302820Y-114140981D01*
X118306725Y-114054160D01*
X118309253Y-113960011D01*
X118310371Y-113862868D01*
X118310048Y-113767065D01*
X118308252Y-113676936D01*
X118304951Y-113596814D01*
X118300114Y-113531035D01*
X118296676Y-113501752D01*
X118263525Y-113306990D01*
X118221838Y-113130700D01*
X118171261Y-112971802D01*
X118111441Y-112829217D01*
X118042024Y-112701868D01*
X118026485Y-112677405D01*
X117947868Y-112573309D01*
X117854522Y-112480094D01*
X117745794Y-112397434D01*
X117621029Y-112325004D01*
X117479575Y-112262479D01*
X117320777Y-112209532D01*
X117143983Y-112165839D01*
X116948539Y-112131073D01*
X116922110Y-112127246D01*
X116863639Y-112121227D01*
X116788458Y-112116891D01*
X116700984Y-112114207D01*
X116605631Y-112113140D01*
X116506813Y-112113657D01*
X116408946Y-112115726D01*
X116316444Y-112119313D01*
X116233723Y-112124384D01*
X116165197Y-112130907D01*
X116148560Y-112133072D01*
X115913704Y-112173780D01*
X115691096Y-112227922D01*
X115481923Y-112295083D01*
X115287375Y-112374847D01*
X115108638Y-112466798D01*
X114996657Y-112536127D01*
X114951349Y-112567547D01*
X114904192Y-112602264D01*
X114858553Y-112637560D01*
X114817800Y-112670718D01*
X114785300Y-112699021D01*
X114764420Y-112719751D01*
X114758527Y-112728286D01*
X114478536Y-112728286D01*
X114415766Y-112707480D01*
X114091070Y-112618979D01*
X113752417Y-112545044D01*
X113400038Y-112485817D01*
X113282185Y-112469705D01*
X113112108Y-112449083D01*
X112948251Y-112432174D01*
X112786350Y-112418730D01*
X112622144Y-112408503D01*
X112451370Y-112401245D01*
X112269764Y-112396709D01*
X112073066Y-112394646D01*
X111987929Y-112394458D01*
X111664560Y-112397932D01*
X111358302Y-112408622D01*
X111066240Y-112426809D01*
X110785458Y-112452777D01*
X110513041Y-112486809D01*
X110246074Y-112529189D01*
X109981639Y-112580199D01*
X109904923Y-112596665D01*
X109632989Y-112661532D01*
X109377152Y-112733600D01*
X109133101Y-112814349D01*
X108896527Y-112905260D01*
X108663121Y-113007811D01*
X108550813Y-113061671D01*
X108323184Y-113180433D01*
X108113475Y-113304241D01*
X107918608Y-113435291D01*
X107735503Y-113575778D01*
X107561079Y-113727897D01*
X107411498Y-113873975D01*
X107224727Y-114080397D01*
X107056252Y-114297509D01*
X106906069Y-114525317D01*
X106774176Y-114763824D01*
X106660570Y-115013037D01*
X106565250Y-115272961D01*
X106488214Y-115543600D01*
X106429457Y-115824959D01*
X106398452Y-116034334D01*
X106390434Y-116118738D01*
X106384760Y-116221124D01*
X106381376Y-116338418D01*
X106380229Y-116467544D01*
X106305476Y-116467544D01*
X106306622Y-116351961D01*
X106311905Y-116200036D01*
X106320917Y-116062652D01*
X106333720Y-115942869D01*
X106334582Y-115936514D01*
X106348023Y-115838693D01*
X106306652Y-115798758D01*
X106258469Y-115748636D01*
X106203699Y-115685736D01*
X106146676Y-115615440D01*
X106091733Y-115543133D01*
X106043206Y-115474199D01*
X106033127Y-115458957D01*
X105926711Y-115277001D01*
X105834515Y-115079664D01*
X105756703Y-114867423D01*
X105693440Y-114640758D01*
X105644888Y-114400147D01*
X105624860Y-114264705D01*
X105616813Y-114185020D01*
X105610994Y-114090295D01*
X105607406Y-113985557D01*
X105606050Y-113875836D01*
X105606442Y-113826880D01*
X105681041Y-113826880D01*
X105681130Y-113919588D01*
X105682535Y-114009343D01*
X105685259Y-114091323D01*
X105689308Y-114160707D01*
X105693162Y-114201126D01*
X105731416Y-114451413D01*
X105784028Y-114686316D01*
X105851107Y-114906138D01*
X105932764Y-115111182D01*
X106029108Y-115301753D01*
X106140248Y-115478154D01*
X106167572Y-115516286D01*
X106196128Y-115553438D01*
X106229439Y-115594019D01*
X106264509Y-115634715D01*
X106298346Y-115672210D01*
X106327955Y-115703187D01*
X106350343Y-115724332D01*
X106362517Y-115732328D01*
X106362631Y-115732331D01*
X106368784Y-115722875D01*
X106375284Y-115698805D01*
X106378235Y-115681998D01*
X106386425Y-115637899D01*
X106399893Y-115578362D01*
X106417383Y-115508114D01*
X106437644Y-115431877D01*
X106459420Y-115354377D01*
X106481460Y-115280340D01*
X106501294Y-115218132D01*
X106544485Y-115088250D01*
X106518233Y-115046664D01*
X106453891Y-114930519D01*
X106395814Y-114796906D01*
X106344933Y-114648867D01*
X106302177Y-114489445D01*
X106268477Y-114321682D01*
X106245273Y-114153441D01*
X106239696Y-114084666D01*
X106235793Y-114001556D01*
X106233562Y-113909393D01*
X106233000Y-113813462D01*
X106233597Y-113762502D01*
X106304803Y-113762502D01*
X106304838Y-113895828D01*
X106309488Y-113999250D01*
X106329878Y-114210723D01*
X106362289Y-114408284D01*
X106406467Y-114590904D01*
X106462159Y-114757553D01*
X106529113Y-114907200D01*
X106535628Y-114919695D01*
X106579327Y-115002470D01*
X106605303Y-114940888D01*
X106618848Y-114910728D01*
X106639858Y-114866321D01*
X106666105Y-114812267D01*
X106695363Y-114753168D01*
X106717201Y-114709762D01*
X106850741Y-114468716D01*
X107000577Y-114240620D01*
X107167030Y-114025118D01*
X107350422Y-113821856D01*
X107551072Y-113630478D01*
X107769303Y-113450628D01*
X108005435Y-113281951D01*
X108009840Y-113279022D01*
X108070712Y-113239446D01*
X108136441Y-113198113D01*
X108200399Y-113159107D01*
X108255958Y-113126509D01*
X108273011Y-113116916D01*
X108387283Y-113053673D01*
X108310099Y-113021825D01*
X108145149Y-112961290D01*
X107974641Y-112913963D01*
X107795765Y-112879352D01*
X107605714Y-112856967D01*
X107401681Y-112846315D01*
X107300417Y-112845223D01*
X107144767Y-112848713D01*
X107001248Y-112858603D01*
X106871067Y-112874610D01*
X106755431Y-112896451D01*
X106655548Y-112923845D01*
X106572626Y-112956509D01*
X106507873Y-112994160D01*
X106462495Y-113036516D01*
X106458263Y-113042102D01*
X106422769Y-113103571D01*
X106391109Y-113183291D01*
X106363697Y-113278603D01*
X106340946Y-113386842D01*
X106323271Y-113505347D01*
X106311086Y-113631454D01*
X106304803Y-113762502D01*
X106233597Y-113762502D01*
X106234106Y-113719044D01*
X106236878Y-113631424D01*
X106241314Y-113555885D01*
X106245489Y-113512348D01*
X106267145Y-113365411D01*
X106294617Y-113238432D01*
X106327871Y-113131512D01*
X106366871Y-113044756D01*
X106411582Y-112978267D01*
X106437256Y-112951574D01*
X106496992Y-112909136D01*
X106575214Y-112871904D01*
X106669822Y-112840048D01*
X106778714Y-112813738D01*
X106899792Y-112793143D01*
X107030954Y-112778432D01*
X107170101Y-112769774D01*
X107315132Y-112767338D01*
X107463948Y-112771294D01*
X107614447Y-112781812D01*
X107764530Y-112799060D01*
X107912097Y-112823207D01*
X107946368Y-112829939D01*
X108046884Y-112853653D01*
X108153513Y-112884565D01*
X108257975Y-112920012D01*
X108351987Y-112957333D01*
X108376142Y-112968139D01*
X108466386Y-113009783D01*
X108625162Y-112936642D01*
X108720073Y-112894452D01*
X108827720Y-112849166D01*
X108940553Y-112803821D01*
X109051022Y-112761455D01*
X109146870Y-112726743D01*
X109177319Y-112714923D01*
X109197525Y-112704788D01*
X109202502Y-112700048D01*
X109193634Y-112684753D01*
X109168773Y-112661058D01*
X109130538Y-112630704D01*
X109081546Y-112595430D01*
X109024415Y-112556978D01*
X108961763Y-112517088D01*
X108896206Y-112477501D01*
X108830363Y-112439957D01*
X108766851Y-112406197D01*
X108741767Y-112393694D01*
X108564550Y-112316032D01*
X108378415Y-112250733D01*
X108185423Y-112197790D01*
X107987634Y-112157194D01*
X107787110Y-112128937D01*
X107585913Y-112113011D01*
X107386103Y-112109407D01*
X107189741Y-112118117D01*
X106998890Y-112139134D01*
X106815610Y-112172448D01*
X106641963Y-112218053D01*
X106480009Y-112275938D01*
X106331810Y-112346097D01*
X106235567Y-112403687D01*
X106131085Y-112485243D01*
X106036577Y-112585168D01*
X105952258Y-112703017D01*
X105878343Y-112838345D01*
X105815048Y-112990707D01*
X105762587Y-113159660D01*
X105721175Y-113344758D01*
X105693758Y-113522945D01*
X105688627Y-113579252D01*
X105684794Y-113651891D01*
X105682264Y-113736041D01*
X105681041Y-113826880D01*
X105606442Y-113826880D01*
X105606928Y-113766160D01*
X105610041Y-113661558D01*
X105615391Y-113567057D01*
X105622980Y-113487687D01*
X105624603Y-113475260D01*
X105658215Y-113277672D01*
X105702639Y-113094556D01*
X105757520Y-112926873D01*
X105822504Y-112775585D01*
X105897236Y-112641652D01*
X105969283Y-112540771D01*
X106060251Y-112443933D01*
X106169817Y-112356195D01*
X106297291Y-112277874D01*
X106441982Y-112209290D01*
X106603202Y-112150760D01*
X106780258Y-112102603D01*
X106972461Y-112065138D01*
X107014309Y-112058713D01*
X107082685Y-112051055D01*
X107167636Y-112045269D01*
X107264629Y-112041354D01*
X107369128Y-112039311D01*
X107476600Y-112039140D01*
X107582510Y-112040841D01*
X107682323Y-112044415D01*
X107771505Y-112049862D01*
X107845521Y-112057181D01*
X107856737Y-112058677D01*
X108104805Y-112101350D01*
X108337023Y-112157766D01*
X108553815Y-112228087D01*
X108755602Y-112312479D01*
X108942805Y-112411103D01*
X109115848Y-112524123D01*
X109176011Y-112569343D01*
X109214256Y-112599809D01*
X109247899Y-112627761D01*
X109272207Y-112649210D01*
X109280250Y-112657195D01*
X109294075Y-112670231D01*
X109308347Y-112673467D01*
X109331202Y-112667726D01*
X109343270Y-112663559D01*
X109369138Y-112655260D01*
X109410491Y-112642945D01*
X109462337Y-112628061D01*
X109519683Y-112612055D01*
X109541034Y-112606210D01*
X109852436Y-112529255D01*
X110178352Y-112464056D01*
X110519577Y-112410496D01*
X110876908Y-112368454D01*
X111251142Y-112337810D01*
X111381481Y-112330015D01*
X111460097Y-112326680D01*
X111555266Y-112324204D01*
X111663923Y-112322553D01*
X111783001Y-112321693D01*
X111909435Y-112321593D01*
X112040159Y-112322219D01*
X112172108Y-112323537D01*
X112302215Y-112325515D01*
X112427415Y-112328120D01*
X112544642Y-112331319D01*
X112650831Y-112335077D01*
X112742916Y-112339364D01*
X112817830Y-112344144D01*
X112837129Y-112345725D01*
X113160359Y-112378724D01*
X113466217Y-112419718D01*
X113757140Y-112469161D01*
X114035561Y-112527506D01*
X114303916Y-112595206D01*
X114524510Y-112660004D01*
X114659492Y-112702278D01*
X114746918Y-112626730D01*
X114901389Y-112506640D01*
X115071753Y-112399009D01*
X115256413Y-112304332D01*
X115453771Y-112223101D01*
X115662229Y-112155809D01*
X115880189Y-112102950D01*
X116106053Y-112065017D01*
X116338224Y-112042504D01*
X116575104Y-112035902D01*
X116656227Y-112037364D01*
G37*
G36*
X112225808Y-119911785D02*
G01*
X112444791Y-119934821D01*
X112651022Y-119973133D01*
X112843870Y-120026578D01*
X113022704Y-120095011D01*
X113184973Y-120177176D01*
X113269851Y-120235788D01*
X113337132Y-120303907D01*
X113387028Y-120382178D01*
X113419749Y-120471245D01*
X113435507Y-120571752D01*
X113434512Y-120684345D01*
X113416975Y-120809666D01*
X113407170Y-120855777D01*
X113362437Y-121009274D01*
X113298633Y-121165668D01*
X113217214Y-121322578D01*
X113119634Y-121477621D01*
X113007347Y-121628414D01*
X112881808Y-121772574D01*
X112792332Y-121862993D01*
X112685589Y-121959752D01*
X112582570Y-122040735D01*
X112478330Y-122109504D01*
X112367919Y-122169619D01*
X112362932Y-122172077D01*
X112313391Y-122196686D01*
X112279875Y-122214573D01*
X112259269Y-122228113D01*
X112248455Y-122239681D01*
X112244318Y-122251650D01*
X112243721Y-122262919D01*
X112238418Y-122292460D01*
X112227210Y-122313488D01*
X112217515Y-122327273D01*
X112216977Y-122342575D01*
X112225674Y-122367543D01*
X112227771Y-122372603D01*
X112255409Y-122428368D01*
X112292618Y-122489306D01*
X112334420Y-122548112D01*
X112375840Y-122597482D01*
X112392049Y-122613762D01*
X112468050Y-122670692D01*
X112554565Y-122709730D01*
X112650394Y-122730647D01*
X112754339Y-122733214D01*
X112865199Y-122717201D01*
X112895044Y-122709957D01*
X112972614Y-122683515D01*
X113047822Y-122646715D01*
X113116437Y-122602443D01*
X113174227Y-122553582D01*
X113216960Y-122503017D01*
X113229351Y-122482062D01*
X113266611Y-122431161D01*
X113317562Y-122394305D01*
X113378915Y-122372859D01*
X113447382Y-122368183D01*
X113490298Y-122373950D01*
X113553649Y-122394537D01*
X113599403Y-122426569D01*
X113628392Y-122471030D01*
X113641449Y-122528904D01*
X113642410Y-122553539D01*
X113637047Y-122616554D01*
X113619364Y-122672372D01*
X113586726Y-122728003D01*
X113567061Y-122754087D01*
X113467523Y-122862903D01*
X113354749Y-122956793D01*
X113231045Y-123034486D01*
X113098715Y-123094712D01*
X112960064Y-123136200D01*
X112838453Y-123155832D01*
X112792612Y-123162232D01*
X112767823Y-123170330D01*
X112762953Y-123176838D01*
X112758426Y-123191316D01*
X112746147Y-123220242D01*
X112728067Y-123259224D01*
X112709216Y-123297747D01*
X112650443Y-123398247D01*
X112582631Y-123481246D01*
X112503103Y-123549457D01*
X112409184Y-123605596D01*
X112402251Y-123609022D01*
X112336526Y-123637874D01*
X112270717Y-123661092D01*
X112220325Y-123674170D01*
X112150785Y-123683758D01*
X112069227Y-123688429D01*
X111983855Y-123688199D01*
X111902875Y-123683087D01*
X111835752Y-123673369D01*
X111792778Y-123661605D01*
X111739840Y-123642891D01*
X111685583Y-123620414D01*
X111661327Y-123609085D01*
X111566268Y-123553565D01*
X111485807Y-123486166D01*
X111417264Y-123404171D01*
X111357959Y-123304862D01*
X111354363Y-123297747D01*
X111332839Y-123253629D01*
X111315422Y-123215792D01*
X111304062Y-123188616D01*
X111300625Y-123177070D01*
X111292557Y-123169734D01*
X111275782Y-123165832D01*
X111373346Y-123165832D01*
X111417817Y-123254650D01*
X111475805Y-123350222D01*
X111547048Y-123433689D01*
X111628582Y-123501994D01*
X111696972Y-123542561D01*
X111746056Y-123564470D01*
X111798365Y-123584146D01*
X111844028Y-123597943D01*
X111851647Y-123599708D01*
X111917132Y-123609384D01*
X111994753Y-123614092D01*
X112076038Y-123613819D01*
X112152517Y-123608550D01*
X112206633Y-123600298D01*
X112295710Y-123573792D01*
X112383008Y-123533386D01*
X112461629Y-123482720D01*
X112511503Y-123439421D01*
X112552891Y-123396179D01*
X112584050Y-123358866D01*
X112610054Y-123320314D01*
X112635979Y-123273355D01*
X112652702Y-123240008D01*
X112689150Y-123165832D01*
X112610726Y-123158495D01*
X112476985Y-123135968D01*
X112352324Y-123094447D01*
X112237424Y-123034273D01*
X112132963Y-122955788D01*
X112057441Y-122880129D01*
X111998971Y-122813942D01*
X111896169Y-122916646D01*
X111849408Y-122962233D01*
X111811162Y-122996128D01*
X111775875Y-123022487D01*
X111737989Y-123045468D01*
X111692699Y-123068858D01*
X111644024Y-123091677D01*
X111598912Y-123109821D01*
X111551455Y-123125166D01*
X111495740Y-123139591D01*
X111425857Y-123154975D01*
X111413811Y-123157476D01*
X111373346Y-123165832D01*
X111275782Y-123165832D01*
X111267270Y-123163852D01*
X111223140Y-123159111D01*
X111197308Y-123157306D01*
X111053812Y-123138480D01*
X110914205Y-123100802D01*
X110781810Y-123045532D01*
X110659951Y-122973925D01*
X110604777Y-122933004D01*
X110553118Y-122888204D01*
X110503410Y-122838872D01*
X110459263Y-122789124D01*
X110424288Y-122743074D01*
X110402094Y-122704839D01*
X110399827Y-122699349D01*
X110390415Y-122656587D01*
X110389709Y-122637269D01*
X110465884Y-122637269D01*
X110482726Y-122687013D01*
X110490977Y-122700753D01*
X110560865Y-122787929D01*
X110648100Y-122867679D01*
X110749564Y-122938087D01*
X110862139Y-122997236D01*
X110982707Y-123043209D01*
X111093992Y-123071448D01*
X111164454Y-123080612D01*
X111246230Y-123084023D01*
X111332578Y-123081993D01*
X111416759Y-123074836D01*
X111492032Y-123062865D01*
X111539048Y-123050768D01*
X111653100Y-123003733D01*
X111756248Y-122939157D01*
X111849472Y-122856325D01*
X111921278Y-122771513D01*
X111948549Y-122735217D01*
X111971239Y-122705137D01*
X111986203Y-122685435D01*
X111990109Y-122680397D01*
X111999041Y-122684320D01*
X112016936Y-122702161D01*
X112040547Y-122730517D01*
X112050815Y-122743977D01*
X112139436Y-122849286D01*
X112233862Y-122934511D01*
X112335212Y-123000234D01*
X112444609Y-123047040D01*
X112563174Y-123075512D01*
X112692027Y-123086236D01*
X112708135Y-123086357D01*
X112856555Y-123076352D01*
X112998100Y-123046612D01*
X113131777Y-122997546D01*
X113256590Y-122929566D01*
X113371544Y-122843083D01*
X113429296Y-122788704D01*
X113479949Y-122735519D01*
X113516547Y-122692322D01*
X113541336Y-122655561D01*
X113556562Y-122621680D01*
X113564473Y-122587128D01*
X113566092Y-122572331D01*
X113567753Y-122537500D01*
X113563737Y-122515024D01*
X113551458Y-122496293D01*
X113539500Y-122483719D01*
X113499473Y-122456623D01*
X113452282Y-122444227D01*
X113403145Y-122445751D01*
X113357282Y-122460415D01*
X113319911Y-122487438D01*
X113298652Y-122519706D01*
X113276646Y-122555900D01*
X113240428Y-122597648D01*
X113194580Y-122640715D01*
X113143687Y-122680862D01*
X113092332Y-122713853D01*
X113083364Y-122718720D01*
X112992825Y-122759649D01*
X112901167Y-122786637D01*
X112802038Y-122801169D01*
X112715268Y-122804814D01*
X112655388Y-122804465D01*
X112610351Y-122802111D01*
X112573845Y-122796988D01*
X112539558Y-122788335D01*
X112516568Y-122780837D01*
X112428984Y-122740505D01*
X112349714Y-122682539D01*
X112277942Y-122606137D01*
X112212857Y-122510496D01*
X112178982Y-122448149D01*
X112153485Y-122392188D01*
X112140695Y-122349223D01*
X112140050Y-122315724D01*
X112150990Y-122288159D01*
X112153060Y-122285074D01*
X112161089Y-122270046D01*
X112159124Y-122255789D01*
X112145305Y-122235415D01*
X112136843Y-122224980D01*
X112105320Y-122186738D01*
X112180714Y-122164284D01*
X112301616Y-122118478D01*
X112423720Y-122053766D01*
X112545328Y-121972240D01*
X112664738Y-121875986D01*
X112780252Y-121767096D01*
X112890168Y-121647657D01*
X112992788Y-121519758D01*
X113086412Y-121385489D01*
X113169338Y-121246939D01*
X113239868Y-121106196D01*
X113296302Y-120965349D01*
X113336939Y-120826488D01*
X113356836Y-120718969D01*
X113362501Y-120616285D01*
X113351858Y-120520788D01*
X113325559Y-120434865D01*
X113284256Y-120360903D01*
X113247307Y-120318049D01*
X113207601Y-120286054D01*
X113151631Y-120250207D01*
X113083468Y-120212616D01*
X113007186Y-120175391D01*
X112926858Y-120140641D01*
X112846555Y-120110473D01*
X112846118Y-120110323D01*
X112667811Y-120056499D01*
X112486684Y-120017217D01*
X112298543Y-119991819D01*
X112099194Y-119979645D01*
X112005298Y-119978307D01*
X111794945Y-119984413D01*
X111598063Y-120003550D01*
X111411005Y-120036251D01*
X111230126Y-120083049D01*
X111178909Y-120099137D01*
X111104135Y-120125910D01*
X111024848Y-120158390D01*
X110946154Y-120194154D01*
X110873158Y-120230785D01*
X110810965Y-120265861D01*
X110769939Y-120292992D01*
X110708255Y-120351329D01*
X110662453Y-120422965D01*
X110632595Y-120507096D01*
X110618744Y-120602915D01*
X110620963Y-120709617D01*
X110639315Y-120826398D01*
X110673863Y-120952451D01*
X110710553Y-121052875D01*
X110783998Y-121211445D01*
X110876339Y-121370208D01*
X110985527Y-121526122D01*
X111109514Y-121676142D01*
X111183212Y-121754977D01*
X111299076Y-121865463D01*
X111416106Y-121961284D01*
X111532439Y-122041202D01*
X111646209Y-122103978D01*
X111755553Y-122148371D01*
X111790717Y-122158876D01*
X111862244Y-122178197D01*
X111862244Y-122238906D01*
X111865341Y-122283708D01*
X111874788Y-122309306D01*
X111878139Y-122312807D01*
X111888860Y-122325242D01*
X111892782Y-122342081D01*
X111889566Y-122367503D01*
X111878876Y-122405686D01*
X111867959Y-122438741D01*
X111822178Y-122546005D01*
X111763350Y-122638298D01*
X111692490Y-122714638D01*
X111610611Y-122774047D01*
X111518731Y-122815544D01*
X111461701Y-122830926D01*
X111397726Y-122839425D01*
X111322216Y-122841944D01*
X111243934Y-122838601D01*
X111171642Y-122829515D01*
X111157571Y-122826791D01*
X111070825Y-122801090D01*
X110982699Y-122761341D01*
X110898246Y-122710752D01*
X110822517Y-122652534D01*
X110760565Y-122589899D01*
X110737755Y-122560008D01*
X110695731Y-122511552D01*
X110649871Y-122481715D01*
X110603374Y-122471795D01*
X110552627Y-122480936D01*
X110511611Y-122505910D01*
X110482220Y-122542861D01*
X110466347Y-122587933D01*
X110465884Y-122637269D01*
X110389709Y-122637269D01*
X110388527Y-122604908D01*
X110393979Y-122554800D01*
X110402881Y-122524309D01*
X110427009Y-122485015D01*
X110462281Y-122447079D01*
X110501229Y-122417875D01*
X110519817Y-122408826D01*
X110562084Y-122399669D01*
X110612010Y-122398446D01*
X110659672Y-122404801D01*
X110689199Y-122414943D01*
X110708656Y-122428626D01*
X110739075Y-122454427D01*
X110776832Y-122489088D01*
X110818305Y-122529349D01*
X110834376Y-122545531D01*
X110897891Y-122607246D01*
X110954142Y-122654476D01*
X111007886Y-122690186D01*
X111063885Y-122717343D01*
X111126898Y-122738911D01*
X111158589Y-122747527D01*
X111269830Y-122766455D01*
X111377209Y-122765761D01*
X111478921Y-122745602D01*
X111560263Y-122712927D01*
X111610547Y-122680214D01*
X111659549Y-122635503D01*
X111704947Y-122582481D01*
X111744418Y-122524840D01*
X111775641Y-122466268D01*
X111796292Y-122410453D01*
X111804050Y-122361087D01*
X111800331Y-122331548D01*
X111789955Y-122296813D01*
X111781030Y-122266512D01*
X111772124Y-122247694D01*
X111754875Y-122233066D01*
X111724083Y-122218784D01*
X111708593Y-122212955D01*
X111579220Y-122156076D01*
X111448966Y-122080180D01*
X111319871Y-121987241D01*
X111193975Y-121879234D01*
X111073316Y-121758133D01*
X110959935Y-121625911D01*
X110855871Y-121484544D01*
X110763164Y-121336006D01*
X110719693Y-121255753D01*
X110651071Y-121109184D01*
X110599019Y-120969544D01*
X110563558Y-120837605D01*
X110544712Y-120714136D01*
X110542500Y-120599908D01*
X110556945Y-120495689D01*
X110588068Y-120402252D01*
X110635892Y-120320364D01*
X110691589Y-120258670D01*
X110733462Y-120226226D01*
X110791310Y-120189672D01*
X110860869Y-120151177D01*
X110937870Y-120112904D01*
X111018047Y-120077022D01*
X111097134Y-120045695D01*
X111141676Y-120030186D01*
X111307138Y-119981981D01*
X111473568Y-119945974D01*
X111645629Y-119921478D01*
X111827982Y-119907802D01*
X111994701Y-119904171D01*
X112225808Y-119911785D01*
G37*
G36*
X109457833Y-116920447D02*
G01*
X109558446Y-116951015D01*
X109609608Y-116974828D01*
X109688155Y-117026867D01*
X109760096Y-117095241D01*
X109821761Y-117175297D01*
X109869476Y-117262380D01*
X109896248Y-117338153D01*
X109902467Y-117374539D01*
X109907315Y-117427873D01*
X109910792Y-117493954D01*
X109912897Y-117568582D01*
X109913630Y-117647555D01*
X109912991Y-117726674D01*
X109910981Y-117801737D01*
X109907600Y-117868545D01*
X109902847Y-117922895D01*
X109896722Y-117960588D01*
X109896248Y-117962471D01*
X109860393Y-118059432D01*
X109806601Y-118149112D01*
X109737642Y-118228738D01*
X109656287Y-118295542D01*
X109565306Y-118346752D01*
X109482872Y-118375847D01*
X109410399Y-118387907D01*
X109329396Y-118390386D01*
X109249898Y-118383419D01*
X109197204Y-118372046D01*
X109154265Y-118357856D01*
X109112147Y-118341264D01*
X109090481Y-118331164D01*
X109012198Y-118280005D01*
X108939597Y-118212360D01*
X108876627Y-118132864D01*
X108827240Y-118046151D01*
X108808325Y-117999999D01*
X108800946Y-117978124D01*
X108795224Y-117957251D01*
X108790950Y-117934369D01*
X108787914Y-117906469D01*
X108785905Y-117870542D01*
X108784715Y-117823576D01*
X108784132Y-117762563D01*
X108783947Y-117684491D01*
X108783938Y-117650312D01*
X108852815Y-117650312D01*
X108853422Y-117738863D01*
X108855600Y-117809967D01*
X108859884Y-117867344D01*
X108866809Y-117914716D01*
X108876912Y-117955801D01*
X108890726Y-117994322D01*
X108907707Y-118031789D01*
X108952037Y-118103084D01*
X109011377Y-118169829D01*
X109080979Y-118228128D01*
X109156095Y-118274082D01*
X109231978Y-118303794D01*
X109242284Y-118306410D01*
X109313333Y-118315802D01*
X109390947Y-118314058D01*
X109463916Y-118301591D01*
X109477050Y-118297821D01*
X109565311Y-118259768D01*
X109646594Y-118204279D01*
X109717584Y-118134725D01*
X109774964Y-118054475D01*
X109815418Y-117966901D01*
X109821497Y-117947742D01*
X109827375Y-117922730D01*
X109831796Y-117891344D01*
X109834929Y-117850576D01*
X109836944Y-117797417D01*
X109838010Y-117728858D01*
X109838297Y-117649333D01*
X109837747Y-117556245D01*
X109835712Y-117481033D01*
X109831621Y-117420397D01*
X109824897Y-117371039D01*
X109814968Y-117329660D01*
X109801260Y-117292963D01*
X109783198Y-117257648D01*
X109764938Y-117227721D01*
X109701176Y-117145653D01*
X109626176Y-117079031D01*
X109542337Y-117029151D01*
X109452059Y-116997308D01*
X109357740Y-116984797D01*
X109316514Y-116985685D01*
X109225440Y-117002162D01*
X109138437Y-117037283D01*
X109058283Y-117088539D01*
X108987757Y-117153421D01*
X108929638Y-117229419D01*
X108886704Y-117314023D01*
X108863468Y-117394792D01*
X108860022Y-117423969D01*
X108857041Y-117469678D01*
X108854719Y-117527258D01*
X108853249Y-117592048D01*
X108852815Y-117650312D01*
X108783938Y-117650312D01*
X108784027Y-117565091D01*
X108784437Y-117498053D01*
X108785376Y-117446188D01*
X108787054Y-117406486D01*
X108789681Y-117375937D01*
X108793468Y-117351532D01*
X108798624Y-117330260D01*
X108805359Y-117309111D01*
X108808325Y-117300625D01*
X108853946Y-117200685D01*
X108914113Y-117113938D01*
X108986635Y-117041277D01*
X109069319Y-116983592D01*
X109159973Y-116941775D01*
X109256405Y-116916718D01*
X109356423Y-116909311D01*
X109457833Y-116920447D01*
G37*
G36*
X114758011Y-116920283D02*
G01*
X114852853Y-116950068D01*
X114943733Y-116998215D01*
X115028525Y-117065201D01*
X115041500Y-117077814D01*
X115113226Y-117163226D01*
X115166014Y-117256671D01*
X115194537Y-117338153D01*
X115200757Y-117374539D01*
X115205605Y-117427873D01*
X115209081Y-117493954D01*
X115211186Y-117568582D01*
X115211919Y-117647555D01*
X115211281Y-117726674D01*
X115209271Y-117801737D01*
X115205889Y-117868545D01*
X115201136Y-117922895D01*
X115195012Y-117960588D01*
X115194537Y-117962471D01*
X115158682Y-118059432D01*
X115104890Y-118149112D01*
X115035932Y-118228738D01*
X114954577Y-118295542D01*
X114863596Y-118346752D01*
X114781161Y-118375847D01*
X114715775Y-118387068D01*
X114641152Y-118390763D01*
X114567008Y-118386936D01*
X114503595Y-118375737D01*
X114405427Y-118338568D01*
X114315433Y-118283101D01*
X114235828Y-118211376D01*
X114168829Y-118125432D01*
X114116649Y-118027310D01*
X114111401Y-118014595D01*
X114082227Y-117941718D01*
X114082227Y-117650312D01*
X114151105Y-117650312D01*
X114151712Y-117738863D01*
X114153890Y-117809967D01*
X114158173Y-117867344D01*
X114165099Y-117914716D01*
X114175201Y-117955801D01*
X114189016Y-117994322D01*
X114205997Y-118031789D01*
X114250326Y-118103084D01*
X114309666Y-118169829D01*
X114379268Y-118228128D01*
X114454385Y-118274082D01*
X114530267Y-118303794D01*
X114540573Y-118306410D01*
X114611623Y-118315802D01*
X114689237Y-118314058D01*
X114762206Y-118301591D01*
X114775339Y-118297821D01*
X114863600Y-118259768D01*
X114944884Y-118204279D01*
X115015873Y-118134725D01*
X115073253Y-118054475D01*
X115113707Y-117966901D01*
X115119786Y-117947742D01*
X115125665Y-117922730D01*
X115130086Y-117891344D01*
X115133219Y-117850576D01*
X115135234Y-117797417D01*
X115136299Y-117728858D01*
X115136587Y-117649333D01*
X115136036Y-117556245D01*
X115134002Y-117481033D01*
X115129910Y-117420397D01*
X115123187Y-117371039D01*
X115113258Y-117329660D01*
X115099550Y-117292963D01*
X115081488Y-117257648D01*
X115063227Y-117227721D01*
X114999466Y-117145653D01*
X114924466Y-117079031D01*
X114840627Y-117029151D01*
X114750348Y-116997308D01*
X114656029Y-116984797D01*
X114614803Y-116985685D01*
X114523730Y-117002162D01*
X114436727Y-117037283D01*
X114356572Y-117088539D01*
X114286046Y-117153421D01*
X114227927Y-117229419D01*
X114184994Y-117314023D01*
X114161757Y-117394792D01*
X114158312Y-117423969D01*
X114155331Y-117469678D01*
X114153008Y-117527258D01*
X114151539Y-117592048D01*
X114151105Y-117650312D01*
X114082227Y-117650312D01*
X114082227Y-117358906D01*
X114111401Y-117286029D01*
X114161506Y-117186023D01*
X114224636Y-117100577D01*
X114298666Y-117030167D01*
X114381474Y-116975267D01*
X114470936Y-116936354D01*
X114564928Y-116913901D01*
X114661328Y-116908386D01*
X114758011Y-116920283D01*
G37*
D14*
%TO.C,C11*%
X123735336Y-104590000D02*
X123519664Y-104590000D01*
X123735336Y-105310000D02*
X123519664Y-105310000D01*
%TO.C,C16*%
X150859420Y-107345000D02*
X151140580Y-107345000D01*
X150859420Y-108365000D02*
X151140580Y-108365000D01*
%TO.C,C2*%
X133857836Y-108140000D02*
X133642164Y-108140000D01*
X133857836Y-108860000D02*
X133642164Y-108860000D01*
%TO.C,D2*%
X147090000Y-97690000D02*
X148910000Y-97690000D01*
X147090000Y-97740000D02*
X147090000Y-97690000D01*
X147090000Y-100810000D02*
X147090000Y-100760000D01*
X148910000Y-97690000D02*
X148910000Y-97740000D01*
X148910000Y-100760000D02*
X148910000Y-100810000D01*
X148910000Y-100810000D02*
X147090000Y-100810000D01*
X149690000Y-101090000D02*
X149210000Y-101090000D01*
X149450000Y-100760000D01*
X149690000Y-101090000D01*
G36*
X149690000Y-101090000D02*
G01*
X149210000Y-101090000D01*
X149450000Y-100760000D01*
X149690000Y-101090000D01*
G37*
%TO.C,R3*%
X147096359Y-103120000D02*
X147403641Y-103120000D01*
X147096359Y-103880000D02*
X147403641Y-103880000D01*
%TO.C,Y1*%
X122715000Y-96290000D02*
X122715000Y-100410000D01*
X126135000Y-96290000D02*
X122715000Y-96290000D01*
%TO.C,C8*%
X138890000Y-108892164D02*
X138890000Y-109107836D01*
X139610000Y-108892164D02*
X139610000Y-109107836D01*
%TO.C,C3*%
X132612164Y-93390000D02*
X132827836Y-93390000D01*
X132612164Y-94110000D02*
X132827836Y-94110000D01*
%TO.C,C10*%
X123697836Y-102990000D02*
X123482164Y-102990000D01*
X123697836Y-103710000D02*
X123482164Y-103710000D01*
%TO.C,R7*%
X154653641Y-105620000D02*
X154346359Y-105620000D01*
X154653641Y-106380000D02*
X154346359Y-106380000D01*
%TO.C,SW1*%
X99400000Y-112012500D02*
X99010000Y-112012500D01*
X99400000Y-107812500D02*
X99400000Y-112012500D01*
X99010000Y-107812500D02*
X99400000Y-107812500D01*
X96490000Y-107812500D02*
X96100000Y-107812500D01*
X96100000Y-112012500D02*
X96490000Y-112012500D01*
X96100000Y-107812500D02*
X96100000Y-112012500D01*
%TO.C,R4*%
X148096359Y-101870000D02*
X148403641Y-101870000D01*
X148096359Y-102630000D02*
X148403641Y-102630000D01*
%TO.C,FB1*%
X125010000Y-103969721D02*
X125010000Y-104295279D01*
X126030000Y-103969721D02*
X126030000Y-104295279D01*
%TO.C,C5*%
X129140000Y-96984836D02*
X129140000Y-96769164D01*
X129860000Y-96984836D02*
X129860000Y-96769164D01*
%TO.C,D1*%
X157015000Y-112778750D02*
X157015000Y-115063750D01*
X158485000Y-112778750D02*
X157015000Y-112778750D01*
X158485000Y-115063750D02*
X158485000Y-112778750D01*
%TO.C,C17*%
X150884420Y-105595000D02*
X151165580Y-105595000D01*
X150884420Y-106615000D02*
X151165580Y-106615000D01*
%TO.C,C14*%
X126595000Y-97377836D02*
X126595000Y-97162164D01*
X127315000Y-97377836D02*
X127315000Y-97162164D01*
%TO.C,C12*%
X149738748Y-109765000D02*
X150261252Y-109765000D01*
X149738748Y-111235000D02*
X150261252Y-111235000D01*
%TO.C,R6*%
X152903641Y-92920000D02*
X152596359Y-92920000D01*
X152903641Y-93680000D02*
X152596359Y-93680000D01*
%TO.C,U2*%
X146840000Y-114400000D02*
X146840000Y-118160000D01*
X146840000Y-118160000D02*
X148100000Y-118160000D01*
X153660000Y-114400000D02*
X153660000Y-118160000D01*
X153660000Y-118160000D02*
X152400000Y-118160000D01*
X153890000Y-113360000D02*
X153560000Y-113120000D01*
X153890000Y-112880000D01*
X153890000Y-113360000D01*
G36*
X153890000Y-113360000D02*
G01*
X153560000Y-113120000D01*
X153890000Y-112880000D01*
X153890000Y-113360000D01*
G37*
%TO.C,SW2*%
X95100000Y-93400000D02*
X95100000Y-99100000D01*
X96110000Y-99700000D02*
X96900000Y-99700000D01*
X96900000Y-92800000D02*
X96110000Y-92800000D01*
X97950000Y-94650000D02*
X97950000Y-96350000D01*
X97950000Y-97650000D02*
X97950000Y-97850000D01*
%TO.C,J8*%
X155650000Y-95080000D02*
X153950000Y-95080000D01*
X155650000Y-104420000D02*
X153950000Y-104420000D01*
%TO.C,R1*%
X100426359Y-96620000D02*
X100733641Y-96620000D01*
X100426359Y-97380000D02*
X100733641Y-97380000D01*
%TO.C,C7*%
X97357836Y-105690000D02*
X97142164Y-105690000D01*
X97357836Y-106410000D02*
X97142164Y-106410000D01*
%TO.C,C1*%
X140857836Y-108140000D02*
X140642164Y-108140000D01*
X140857836Y-108860000D02*
X140642164Y-108860000D01*
%TO.C,R2*%
X157370000Y-111667391D02*
X157370000Y-111360109D01*
X158130000Y-111667391D02*
X158130000Y-111360109D01*
%TO.C,C6*%
X132579420Y-91740000D02*
X132860580Y-91740000D01*
X132579420Y-92760000D02*
X132860580Y-92760000D01*
%TO.C,C13*%
X154765000Y-116261252D02*
X154765000Y-115738748D01*
X156235000Y-116261252D02*
X156235000Y-115738748D01*
%TO.C,C4*%
X143890000Y-97642164D02*
X143890000Y-97857836D01*
X144610000Y-97642164D02*
X144610000Y-97857836D01*
%TO.C,R5*%
X148370000Y-107153641D02*
X148370000Y-106846359D01*
X149130000Y-107153641D02*
X149130000Y-106846359D01*
%TO.C,C9*%
X128890000Y-103107836D02*
X128890000Y-102892164D01*
X129610000Y-103107836D02*
X129610000Y-102892164D01*
%TO.C,C15*%
X126595000Y-99627836D02*
X126595000Y-99412164D01*
X127315000Y-99627836D02*
X127315000Y-99412164D01*
%TO.C,J3*%
X101935000Y-125845000D02*
X101935000Y-131145000D01*
X150305000Y-125845000D02*
X101935000Y-125845000D01*
X150305000Y-125845000D02*
X150305000Y-128495000D01*
X150305000Y-128495000D02*
X152955000Y-128495000D01*
X151575000Y-125845000D02*
X152955000Y-125845000D01*
X152955000Y-125845000D02*
X152955000Y-127225000D01*
X152955000Y-128495000D02*
X152955000Y-131145000D01*
X152955000Y-131145000D02*
X101935000Y-131145000D01*
%TO.C,J2*%
X101935000Y-73305000D02*
X101935000Y-78605000D01*
X150305000Y-73305000D02*
X101935000Y-73305000D01*
X150305000Y-73305000D02*
X150305000Y-75955000D01*
X150305000Y-75955000D02*
X152955000Y-75955000D01*
X151575000Y-73305000D02*
X152955000Y-73305000D01*
X152955000Y-73305000D02*
X152955000Y-74685000D01*
X152955000Y-75955000D02*
X152955000Y-78605000D01*
X152955000Y-78605000D02*
X101935000Y-78605000D01*
%TO.C,U1*%
X131000000Y-97090000D02*
X130660000Y-96620000D01*
X131340000Y-96620000D01*
X131000000Y-97090000D01*
G36*
X131000000Y-97090000D02*
G01*
X130660000Y-96620000D01*
X131340000Y-96620000D01*
X131000000Y-97090000D01*
G37*
X141860000Y-106360000D02*
X140910000Y-106360000D01*
X141860000Y-105410000D02*
X141860000Y-106360000D01*
X141860000Y-96140000D02*
X141860000Y-97090000D01*
X140910000Y-96140000D02*
X141860000Y-96140000D01*
X132590000Y-106360000D02*
X131640000Y-106360000D01*
X131640000Y-106360000D02*
X131640000Y-105410000D01*
X131640000Y-97090000D02*
X131640000Y-96140000D01*
X131640000Y-96140000D02*
X132590000Y-96140000D01*
%TD*%
M02*
